<svg width="965" height="1038" viewBox="0 0 965 1038" fill="none" xmlns="http://www.w3.org/2000/svg">
<path d="M371.559 744C393.894 744 412 762.106 412 784.441V994.559C412 999.786 411.008 1004.78 409.202 1009.37C409.415 1015.71 408.873 1017.96 410.115 1021.73C411.593 1026.23 414.377 1029.13 416.338 1031.19C418.526 1033.48 420.657 1034.95 422.234 1035.88V1035.89C419.89 1036.82 415.045 1038.29 409.121 1036.94C401.454 1035.19 396.684 1029.82 394.914 1027.58C388.317 1032.25 380.259 1035 371.559 1035H63.4414C41.1064 1035 23 1016.89 23 994.559V784.44C23.0003 762.106 41.1065 744 63.4414 744H371.559Z" fill="#D8F7FF"/>
<path d="M55.1279 62C32.7929 62 14.6865 80.1064 14.6865 102.441V139.559C14.6865 145.535 15.9839 151.208 18.3105 156.312C18.2966 158.664 18.1464 160.369 17.1025 162.616C15.0174 167.118 11.0882 170.019 8.32129 172.076C5.23362 174.369 2.22553 175.836 0 176.764V176.78C3.30817 177.708 10.1453 179.175 18.5059 177.826C24.2832 176.894 28.8942 174.926 32.3184 172.955C38.8117 177.399 46.6657 180 55.1279 180H357.245C379.58 180 397.687 161.894 397.687 139.559V102.441C397.687 80.1064 379.58 62 357.245 62H55.1279Z" fill="#614F4F"/>
<path d="M913.559 0C935.894 0 954 18.1064 954 40.4414V122.559C954 127.783 953.009 132.776 951.205 137.359C951.408 143.622 950.88 145.864 952.115 149.616C953.593 154.118 956.377 157.019 958.338 159.076C960.526 161.369 962.657 162.836 964.234 163.764V163.78C961.89 164.708 957.045 166.175 951.121 164.826C943.535 163.1 938.785 157.821 936.971 155.537C930.364 160.236 922.284 163 913.559 163H475.441C453.106 163 435 144.894 435 122.559V40.4414C435 18.1064 453.106 0 475.441 0H913.559Z" fill="#D8F7FF"/>
</svg>
