<svg width="376" height="361" viewBox="0 0 376 361" fill="none" xmlns="http://www.w3.org/2000/svg">
<path d="M322.081 0C342.515 0.000229614 359.081 16.5656 359.081 37C359.081 42.1693 358.018 47.09 356.104 51.5586C356.1 55.1495 355.998 57.1381 357.121 60.0137C358.875 64.5154 362.179 67.4156 364.506 69.4727C367.103 71.7658 369.632 73.2328 371.504 74.1602V74.1768C368.722 75.1041 362.972 76.5716 355.94 75.2227C349.414 73.9712 344.657 70.8537 341.713 68.3633C336.023 71.9327 329.294 73.9999 322.081 74H37.0811C16.6466 74 0.0812526 57.4344 0.0810547 37C0.0810547 16.5655 16.6465 0 37.0811 0H322.081Z" fill="#D8F7FF"/>
<path d="M322.559 78C344.894 78 363 96.1064 363 118.441V320.559C363 325.878 361.97 330.956 360.104 335.607C360.094 338.922 360.045 340.862 361.121 343.616C362.875 348.118 366.179 351.019 368.506 353.076C371.103 355.369 373.632 356.836 375.504 357.764V357.78C372.722 358.708 366.972 360.175 359.94 358.826C354.2 357.725 349.829 355.179 346.855 352.888C340.091 357.98 331.678 361 322.559 361H40.4414C18.1064 361 0 342.894 0 320.559V118.441C0 96.1064 18.1064 78 40.4414 78H322.559Z" fill="#D8F7FF"/>
</svg>
