<svg width="405" height="239" viewBox="0 0 405 239" fill="none" xmlns="http://www.w3.org/2000/svg">
<path d="M53.4229 0C32.9885 0.000261695 16.4229 16.5656 16.4229 37C16.4229 42.1696 17.4855 47.0908 19.4004 51.5596C19.4035 55.1499 19.5063 57.1384 18.3828 60.0137C16.6292 64.5154 13.3249 67.4156 10.998 69.4727C8.40136 71.7658 5.87164 73.2328 4 74.1602V74.1768C6.78217 75.1041 12.5322 76.5716 19.5635 75.2227C26.0891 73.9713 30.8458 70.8536 33.79 68.3633C39.4805 71.933 46.2098 73.9999 53.4229 74H206.424C226.858 73.9997 243.423 57.4344 243.423 37C243.423 16.5656 226.858 0.000263523 206.424 0H53.4229Z" fill="#614F4F"/>
<path d="M49.2344 77C27.6953 77 10.2344 94.4609 10.2344 116C10.2344 121.103 11.2161 125.975 12.998 130.442C12.8811 135.896 13.2803 138.089 12.1191 141.616C10.6416 146.118 7.85612 149.019 5.89551 151.076C3.70769 153.369 1.57694 154.836 0 155.764V155.78C2.34421 156.708 7.18888 158.175 13.1133 156.826C20.2466 155.203 24.8709 150.438 26.9062 147.977C33.2316 152.402 40.9291 155 49.2344 155H354.234C375.773 155 393.234 137.539 393.234 116C393.234 94.461 375.773 77.0001 354.234 77H49.2344Z" fill="#614F4F"/>
<path d="M49.2344 158C27.6953 158 10.2344 175.461 10.2344 197C10.2344 202.103 11.2161 206.975 12.998 211.442C12.8811 216.896 13.2803 219.089 12.1191 222.616C10.6416 227.118 7.85612 230.019 5.89551 232.076C3.70769 234.369 1.57694 235.836 0 236.764V236.78C2.34421 237.708 7.18888 239.175 13.1133 237.826C20.2466 236.203 24.8709 231.438 26.9062 228.977C33.2316 233.402 40.9291 236 49.2344 236H365.234C386.773 236 404.234 218.539 404.234 197C404.234 175.461 386.773 158 365.234 158H49.2344Z" fill="#614F4F"/>
</svg>
