<svg width="1200" height="739" viewBox="0 0 1200 739" fill="none" xmlns="http://www.w3.org/2000/svg">
<rect width="1200" height="671" fill="#FFEFBF"/>
<rect x="883.047" y="109.984" width="184.483" height="142.342" fill="#D8F7FF"/>
<rect x="880.238" y="235.469" width="197.594" height="77.7265" fill="#A7F871"/>
<mask id="path-4-inside-1_167_6558" fill="white">
<rect x="869" y="95" width="215.387" height="234.116" rx="13"/>
</mask>
<rect x="869" y="95" width="215.387" height="234.116" rx="13" stroke="#614F4F" stroke-width="33.7127" mask="url(#path-4-inside-1_167_6558)"/>
<rect x="877.896" y="177.877" width="202.276" height="17.7928" fill="#614F4F" stroke="#614F4F" stroke-width="0.936464"/>
<rect x="985.59" y="110.452" width="202.276" height="17.7928" transform="rotate(90 985.59 110.452)" fill="#614F4F" stroke="#614F4F" stroke-width="0.936464"/>
<ellipse cx="621.591" cy="145.289" rx="65.5912" ry="58.2888" fill="white"/>
<rect x="578.839" y="145.086" width="1.27611" height="1.27611" transform="rotate(-6.33718 578.839 145.086)" fill="#6ED1FF"/>
<rect x="631.979" y="184.302" width="1.27611" height="1.27611" transform="rotate(-6.33718 631.979 184.302)" fill="#6ED1FF"/>
<rect x="609.422" y="165.207" width="1.27611" height="1.27611" transform="rotate(-6.33718 609.422 165.207)" fill="#6ED1FF"/>
<rect x="648.052" y="134.624" width="1.27611" height="1.27611" transform="rotate(-6.33718 648.052 134.624)" fill="#6ED1FF"/>
<path d="M626.867 114.078L624.081 110.591L624.702 110.008L625.35 109.422L628.577 112.518L626.867 114.078ZM623.511 114.451L621.5 113.304L623.969 109.576L624.702 110.008L625.463 110.437L623.511 114.451ZM624.511 110.857L620.103 110.233L620.566 107.984L624.865 109.162L624.702 110.008L624.511 110.857ZM623.856 110.102L623.082 105.706L625.366 105.453L625.576 109.911L624.702 110.008L623.856 110.102ZM625.075 110.794L624.702 110.008L624.357 109.218L628.292 107.126L629.238 109.219L625.075 110.794Z" fill="#614F4F"/>
<rect x="585.383" y="122.304" width="1.75214" height="1.75214" transform="rotate(-6.33718 585.383 122.304)" fill="#6ED1FF"/>
<rect x="664.953" y="145.139" width="1.75214" height="1.75214" transform="rotate(-6.33718 664.953 145.139)" fill="#6ED1FF"/>
<rect x="593.021" y="178.136" width="1.75214" height="1.75214" transform="rotate(-6.33718 593.021 178.136)" fill="#6ED1FF"/>
<rect x="600.264" y="148.358" width="1.75214" height="1.75214" transform="rotate(-6.33718 600.264 148.358)" fill="#6ED1FF"/>
<rect x="616.36" y="146.555" width="11.2672" height="11.2672" rx="5.6336" fill="#614F4F"/>
<rect x="622.104" y="122.411" width="4.62868" height="32.3859" rx="2.31434" transform="rotate(4.4694 622.104 122.411)" fill="#614F4F"/>
<rect x="648.677" y="158.805" width="2.40951" height="27.0151" rx="1.20475" transform="rotate(105 648.677 158.805)" fill="#614F4F"/>
<rect y="590" width="1200" height="149" fill="#BC9360"/>
<ellipse cx="625" cy="630" rx="294" ry="52" fill="#267054"/>
<rect x="359" y="422.382" width="437.98" height="207.728" rx="92.6015" fill="#D9D9D9"/>
<rect x="406.76" y="332" width="435.352" height="200.225" rx="73.8841" fill="#6ED1FF"/>
<rect x="384.717" y="630.501" width="98.2757" height="485.868" rx="49.1378" transform="rotate(-90 384.717 630.501)" fill="#3FC2FF"/>
<rect x="359" y="422.009" width="126.748" height="208.491" rx="63.374" fill="#3FC2FF"/>
<rect x="745.673" y="422.928" width="129.503" height="207.573" rx="64.7517" fill="#3FC2FF"/>
<line x1="541.196" y1="411.213" x2="559.848" y2="386.706" stroke="#3FC2FF" stroke-width="4.58704" stroke-linecap="round"/>
<line x1="619.895" y1="411.213" x2="638.547" y2="386.706" stroke="#3FC2FF" stroke-width="4.58704" stroke-linecap="round"/>
<line x1="696.314" y1="411.213" x2="714.965" y2="386.707" stroke="#3FC2FF" stroke-width="4.58704" stroke-linecap="round"/>
<line x1="2.29352" y1="-2.29352" x2="33.0904" y2="-2.29352" transform="matrix(-0.795742 -0.605636 -0.605636 0.795742 563.945 411.399)" stroke="#3FC2FF" stroke-width="4.58704" stroke-linecap="round"/>
<line x1="2.29352" y1="-2.29352" x2="33.0904" y2="-2.29352" transform="matrix(-0.795742 -0.605636 -0.605636 0.795742 642.645 411.399)" stroke="#3FC2FF" stroke-width="4.58704" stroke-linecap="round"/>
<line x1="2.29352" y1="-2.29352" x2="33.0904" y2="-2.29352" transform="matrix(-0.795742 -0.605636 -0.605636 0.795742 719.063 411.4)" stroke="#3FC2FF" stroke-width="4.58704" stroke-linecap="round"/>
<rect x="489" y="437.146" width="116.556" height="116.556" rx="26.3739" transform="rotate(-15.4992 489 437.146)" fill="#FF5656"/>
<rect width="183.166" height="102.527" rx="10.3679" transform="matrix(-1 0 0 1 302.166 472.838)" fill="#614F4F"/>
<circle cx="15.6671" cy="15.6671" r="15.6671" transform="matrix(-1 0 0 1 233.249 333.793)" fill="#FFCC00"/>
<rect width="5.87514" height="58.7514" rx="2.93757" transform="matrix(-1 0 0 1 189.185 346.523)" fill="#614F4F"/>
<rect width="5.87514" height="58.7514" rx="2.93757" transform="matrix(-1 0 0 1 189.185 398.419)" fill="#614F4F"/>
<rect width="3.91676" height="52.8763" rx="1.95838" transform="matrix(-1 0 0 1 250.874 349.46)" fill="#614F4F"/>
<rect width="63.6474" height="23.5006" rx="6.91193" transform="matrix(-1 0 0 1 218.561 449.338)" fill="#FF5656"/>
<path d="M240.597 281.934C239.723 279.006 237.03 277 233.975 277H187.289C184.094 277 181.315 279.19 180.568 282.297L165.775 343.871C164.73 348.218 168.025 352.398 172.495 352.398H252.367C256.993 352.398 260.314 347.941 258.99 343.508L240.597 281.934Z" fill="#FF5656"/>
<rect width="19.4287" height="113.782" rx="9.71435" transform="matrix(-0.971045 0.238895 0.300552 0.953766 270.345 520.07)" fill="#614F4F"/>
<rect width="19.4287" height="113.782" rx="9.71435" transform="matrix(0.971045 0.238895 -0.300552 0.953766 153.197 520.345)" fill="#614F4F"/>
<circle cx="7.48793" cy="7.48793" r="7.48793" transform="matrix(-1 0 0 1 259.543 499.334)" fill="white"/>
<path d="M244.567 547.141C244.567 551.277 247.92 554.629 252.055 554.629C256.191 554.629 259.543 551.277 259.543 547.141C259.543 543.006 256.191 539.654 252.055 539.654C247.92 539.654 244.567 543.006 244.567 547.141Z" fill="white"/>
<circle cx="733.612" cy="325.799" r="27.6124" fill="#FF4545"/>
<path d="M737.42 301.412C737.42 301.39 737.42 299.915 737.526 297.484C737.588 296.057 738.459 295.341 739.314 294.781C741.328 293.46 743.944 294.122 745.206 294.549C747.109 295.193 747.922 296.765 748.687 298.944C749.17 300.318 748.728 301.61 748.338 302.501C748.08 302.95 747.701 303.394 747.276 303.834C746.851 304.274 746.393 304.697 745.921 305.132" stroke="#FF4545" stroke-width="6.13609" stroke-linecap="round"/>
<path d="M748.283 334.259C749.58 333.53 753.386 331.689 761.934 330.624C768.769 329.773 773.526 330.742 775.182 331.394C779.82 333.22 787.151 343.775 792.165 349.091C796.541 350.993 803.028 351.916 811.829 351.671C814.255 351.26 816.795 350.446 819.411 349.608" stroke="#FF4545" stroke-width="6.13609" stroke-linecap="round"/>
<path d="M721.274 341.358C718.817 341.358 713.111 341.555 709.816 342.498C709.14 342.691 708.756 343.108 708.501 343.611C708.246 344.114 708.171 344.796 708.419 345.253C708.667 345.711 709.24 345.923 710.312 346.002C711.383 346.08 712.936 346.018 714.535 345.954" stroke="#FF4545" stroke-width="6.13609" stroke-linecap="round"/>
<path d="M746.522 324.196C746.577 320.937 747.684 313.131 749.609 310.896C750.946 309.345 754.885 309.614 758.857 310.029C760.16 310.445 760.02 311.276 758.069 314.53C756.118 317.783 752.362 323.433 748.492 329.254" stroke="#FF4545" stroke-width="6.13609" stroke-linecap="round"/>
<path d="M983.626 392.057C993.703 412.76 1014.93 491.468 999.48 550.266" stroke="#02985E" stroke-width="14.7552"/>
<ellipse cx="1024.71" cy="486.243" rx="12.296" ry="36.8881" transform="rotate(33.0525 1024.71 486.243)" fill="#02985E"/>
<ellipse cx="976.597" cy="451.427" rx="12.296" ry="36.8881" transform="rotate(-45 976.597 451.427)" fill="#02985E"/>
<circle cx="984.036" cy="333.444" r="18.4441" fill="#827EFF"/>
<circle cx="959.444" cy="358.856" r="18.4441" fill="#827EFF"/>
<circle cx="1008.63" cy="358.856" r="18.4441" fill="#827EFF"/>
<circle cx="984.036" cy="382.629" r="18.4441" fill="#827EFF"/>
<rect x="946" y="524" width="114" height="106" rx="15" fill="#614F4F"/>
</svg>
