<svg width="433" height="406" viewBox="0 0 433 406" fill="none" xmlns="http://www.w3.org/2000/svg">
<rect width="433" height="405.595" rx="22" fill="url(#paint0_radial_97_25136)"/>
<rect x="29" y="25" width="51" height="51" rx="25.5" fill="#A4A4A4"/>
<line x1="44.1819" y1="59.9899" x2="63.1716" y2="41.0002" stroke="#614F4F" stroke-width="4" stroke-linecap="round"/>
<line x1="2" y1="-2" x2="28.8556" y2="-2" transform="matrix(-0.707107 -0.707107 -0.707107 0.707107 63.8181 62.8184)" stroke="#614F4F" stroke-width="4" stroke-linecap="round"/>
<rect x="132.786" y="40.5713" width="1.64286" height="14.7857" transform="rotate(90 132.786 40.5713)" fill="white"/>
<rect x="126.214" y="48.7856" width="1.64286" height="14.7857" transform="rotate(-180 126.214 48.7856)" fill="white"/>
<rect x="54.7859" y="169.571" width="1.64286" height="14.7857" transform="rotate(90 54.7859 169.571)" fill="white"/>
<rect x="48.2144" y="177.786" width="1.64286" height="14.7857" transform="rotate(-180 48.2144 177.786)" fill="white"/>
<rect x="381.786" y="98.5713" width="1.64286" height="14.7857" transform="rotate(90 381.786 98.5713)" fill="white"/>
<rect x="375.214" y="106.786" width="1.64286" height="14.7857" transform="rotate(-180 375.214 106.786)" fill="white"/>
<path d="M215.212 121.461C280.244 121.461 333 147.018 333.328 178.604H333.329V178.808C333.329 178.839 333.33 178.87 333.33 178.901C333.33 178.924 333.329 178.947 333.329 178.97L332.222 283.143C332.211 284.14 332.08 285.131 331.76 286.075C322.55 313.335 273.876 334.132 215.211 334.132C156.588 334.132 106.856 313.364 97.5592 286.132C97.2242 285.151 97.0938 284.119 97.0938 283.082V178.604H97.0961C97.4238 147.018 150.18 121.461 215.212 121.461Z" fill="#FFDFDF"/>
<ellipse cx="168.879" cy="201.534" rx="21.0746" ry="14.6606" fill="white"/>
<ellipse cx="227.522" cy="206.769" rx="21.0746" ry="14.6606" fill="white"/>
<ellipse cx="105.613" cy="297.191" rx="21.0746" ry="14.6606" transform="rotate(38.7332 105.613 297.191)" fill="white"/>
<ellipse cx="136.766" cy="315.517" rx="21.0746" ry="14.6606" transform="rotate(34.7262 136.766 315.517)" fill="white"/>
<ellipse cx="173.474" cy="329.609" rx="21.0746" ry="14.6606" transform="rotate(12.0858 173.474 329.609)" fill="white"/>
<ellipse cx="213.632" cy="333.466" rx="21.0746" ry="14.6606" transform="rotate(-0.0394363 213.632 333.466)" fill="white"/>
<ellipse cx="253.183" cy="333.058" rx="21.0746" ry="14.6606" transform="rotate(-11.1103 253.183 333.058)" fill="white"/>
<ellipse cx="286.76" cy="325.834" rx="21.0746" ry="14.6606" transform="rotate(-20.6306 286.76 325.834)" fill="white"/>
<ellipse cx="320.051" cy="303.492" rx="21.0746" ry="14.6606" transform="rotate(-37.8551 320.051 303.492)" fill="white"/>
<ellipse cx="282.499" cy="193.943" rx="21.0746" ry="14.6606" fill="white"/>
<ellipse cx="295.327" cy="158.063" rx="21.0746" ry="14.6606" fill="white"/>
<ellipse cx="227.522" cy="138.645" rx="21.0746" ry="14.6606" fill="white"/>
<ellipse cx="167.046" cy="142.455" rx="21.0746" ry="14.6606" fill="white"/>
<path d="M172.279 173.102C173.299 174.87 183.105 186.78 183.105 193.515C183.105 200.25 177.171 205.71 169.85 205.71C162.53 205.71 156.595 200.25 156.595 193.515C156.595 186.78 166.667 174.87 167.687 173.102C168.707 171.335 171.258 171.335 172.279 173.102Z" fill="url(#paint1_linear_97_25136)"/>
<path d="M229.357 110.795C230.377 112.562 240.184 124.473 240.184 131.208C240.184 137.943 234.249 143.402 226.929 143.402C219.608 143.402 213.674 137.943 213.674 131.208C213.674 124.473 223.745 112.562 224.765 110.795C225.786 109.027 228.337 109.027 229.357 110.795Z" fill="url(#paint2_linear_97_25136)"/>
<path d="M297.266 130.953C298.287 132.72 308.093 144.631 308.093 151.366C308.093 158.101 302.158 163.561 294.838 163.561C287.517 163.561 281.583 158.101 281.583 151.366C281.583 144.631 291.654 132.72 292.675 130.953C293.695 129.186 296.246 129.186 297.266 130.953Z" fill="url(#paint3_linear_97_25136)"/>
<path d="M229.461 178.6C230.481 180.367 240.287 192.278 240.287 199.013C240.287 205.748 234.353 211.207 227.032 211.207C219.712 211.207 213.777 205.748 213.777 199.013C213.777 192.278 223.849 180.367 224.869 178.6C225.889 176.833 228.44 176.833 229.461 178.6Z" fill="url(#paint4_linear_97_25136)"/>
<path d="M284.93 167.604C285.95 169.372 295.757 181.282 295.757 188.017C295.757 194.752 289.822 200.212 282.502 200.212C275.181 200.212 269.247 194.752 269.247 188.017C269.247 181.282 279.318 169.372 280.338 167.604C281.359 165.837 283.91 165.837 284.93 167.604Z" fill="url(#paint5_linear_97_25136)"/>
<path d="M169.331 112.772C170.351 114.539 180.158 126.45 180.158 133.185C180.158 139.92 174.223 145.379 166.903 145.379C159.582 145.379 153.647 139.92 153.647 133.185C153.647 126.45 163.719 114.539 164.739 112.772C165.76 111.004 168.311 111.004 169.331 112.772Z" fill="url(#paint6_linear_97_25136)"/>
<ellipse cx="130.395" cy="171.3" rx="21.0746" ry="14.6606" fill="white"/>
<rect x="174.313" y="97.6909" width="10.6041" height="75.4068" fill="#6ED1FF"/>
<path d="M179.91 76.4824L183.415 87.2697H194.757L185.581 93.9367L189.086 104.724L179.91 98.0571L170.733 104.724L174.238 93.9367L165.062 87.2697H176.405L179.91 76.4824Z" fill="#FFDFDF"/>
<rect x="213.738" y="70.208" width="10.6041" height="99.5605" fill="#6ED1FF"/>
<path d="M219.335 49L222.84 59.7873H234.182L225.006 66.4543L228.511 77.2416L219.335 70.5746L210.158 77.2416L213.663 66.4543L204.487 59.7873H215.83L219.335 49Z" fill="#FFDFDF"/>
<rect x="256.78" y="97.8867" width="10.6041" height="75.4068" fill="#6ED1FF"/>
<path d="M262.375 81.9805L265.88 92.7678H277.222L268.046 99.4347L271.551 110.222L262.375 103.555L253.198 110.222L256.703 99.4347L247.527 92.7678H258.869L262.375 81.9805Z" fill="#FFDFDF"/>
<path d="M133.658 141.949C134.679 143.716 144.485 155.626 144.485 162.361C144.485 169.096 138.551 174.556 131.23 174.556C123.909 174.556 117.975 169.096 117.975 162.361C117.975 155.626 128.046 143.716 129.067 141.949C130.087 140.181 132.638 140.181 133.658 141.949Z" fill="url(#paint7_linear_97_25136)"/>
<defs>
<radialGradient id="paint0_radial_97_25136" cx="0" cy="0" r="1" gradientUnits="userSpaceOnUse" gradientTransform="translate(216.244 179.011) rotate(90) scale(139.763 139.939)">
<stop stop-color="#FFCE80"/>
<stop offset="1" stop-color="#343434"/>
</radialGradient>
<linearGradient id="paint1_linear_97_25136" x1="169.85" y1="171.777" x2="169.85" y2="205.71" gradientUnits="userSpaceOnUse">
<stop stop-color="#FF4545" stop-opacity="0.54"/>
<stop offset="0.615385" stop-color="#FF4545"/>
</linearGradient>
<linearGradient id="paint2_linear_97_25136" x1="226.929" y1="109.469" x2="226.929" y2="143.402" gradientUnits="userSpaceOnUse">
<stop stop-color="#FF4545" stop-opacity="0.54"/>
<stop offset="0.615385" stop-color="#FF4545"/>
</linearGradient>
<linearGradient id="paint3_linear_97_25136" x1="294.838" y1="129.627" x2="294.838" y2="163.561" gradientUnits="userSpaceOnUse">
<stop stop-color="#FF4545" stop-opacity="0.54"/>
<stop offset="0.615385" stop-color="#FF4545"/>
</linearGradient>
<linearGradient id="paint4_linear_97_25136" x1="227.032" y1="177.274" x2="227.032" y2="211.207" gradientUnits="userSpaceOnUse">
<stop stop-color="#FF4545" stop-opacity="0.54"/>
<stop offset="0.615385" stop-color="#FF4545"/>
</linearGradient>
<linearGradient id="paint5_linear_97_25136" x1="282.502" y1="166.279" x2="282.502" y2="200.212" gradientUnits="userSpaceOnUse">
<stop stop-color="#FF4545" stop-opacity="0.54"/>
<stop offset="0.615385" stop-color="#FF4545"/>
</linearGradient>
<linearGradient id="paint6_linear_97_25136" x1="166.903" y1="111.446" x2="166.903" y2="145.379" gradientUnits="userSpaceOnUse">
<stop stop-color="#FF4545" stop-opacity="0.54"/>
<stop offset="0.615385" stop-color="#FF4545"/>
</linearGradient>
<linearGradient id="paint7_linear_97_25136" x1="131.23" y1="140.623" x2="131.23" y2="174.556" gradientUnits="userSpaceOnUse">
<stop stop-color="#FF4545" stop-opacity="0.54"/>
<stop offset="0.615385" stop-color="#FF4545"/>
</linearGradient>
</defs>
</svg>
