<svg width="212" height="210" viewBox="0 0 212 210" fill="none" xmlns="http://www.w3.org/2000/svg">
<path d="M146.861 57.0801C156.13 65.3269 174.968 82.2428 176.174 83.9316L192.564 130.808L206.664 151.451L209.26 164.721L200.354 170.619L183.974 161.796L173.336 138.726L160.931 145.746L170.562 168.138L172.911 180.145L159.632 184.93L149.228 176.468L140.288 149.786L86.7534 157.856L95.3078 175.865L108.922 191.791L90.3857 195.419L82.3353 187.808L67.2323 155.333L72.1373 180.399L80.0643 197.438L73.2689 201.83L54.8604 194.934L43.7127 122.318L29.8419 107.317L26.1226 70.4272L38.8981 55.2423L36.3945 100.567L68.559 109.583L130.066 97.5468L113.338 71.2948L138.528 77.0822L146.711 73.0752L146.861 57.0801Z" fill="#FFA100"/>
<path d="M171.342 76.5978C167.674 73.1395 162.747 68.7547 158.974 65.4587C157.791 64.4251 158.313 65.032 157.495 64.3247C155.893 62.9379 154.457 61.5835 152.864 60.222C152.331 59.7666 152.872 60.4682 152.317 59.9899C150.772 58.6573 149.283 57.3383 147.801 56.0239L145.487 53.9518L145.448 57.0668C145.433 58.9668 145.413 60.8742 145.412 62.8455C145.409 66.2597 145.403 69.6639 145.394 73.0628L146.132 71.8925C143.41 73.2483 140.692 74.6004 137.974 75.9507L138.81 75.8543C130.42 73.9766 122.04 72.0878 113.594 70.1807L110.879 69.5492L112.374 71.9091C114.951 75.9202 117.538 79.9493 120.145 84.0061C122.92 88.3267 126.218 93.3303 129.25 98.0672L129.88 96.5964C128.268 96.9152 126.685 97.2211 125.161 97.5046C124.374 97.6507 124.815 97.4194 124.663 97.4371C122.285 97.7193 123.12 97.8489 121.597 98.1858C115.553 99.5221 108.803 100.856 102.949 101.946C100.458 102.409 102.896 101.644 100.423 102.289C100.252 102.334 100.911 102.359 100.233 102.508C98.6934 102.846 95.7546 103.394 94.5585 103.64C92.2535 104.115 91.8711 104.189 89.6869 104.618C86.7013 105.206 83.1638 105.975 79.9531 106.568C79.2677 106.694 80.1434 106.365 79.0476 106.553C77.9508 106.74 75.0653 107.318 74.0987 107.545C73.1318 107.771 73.5699 107.81 73.4029 107.871C72.1622 108.331 69.2626 108.647 68.398 108.76L68.7852 108.775C68.6976 108.745 68.6317 108.722 68.5913 108.71C60.939 106.423 54.2948 104.753 47.077 102.73C43.6532 101.77 40.0876 100.745 36.6216 99.7569L37.2346 100.613C37.3636 98.4536 37.4875 96.3315 37.5963 94.3031C37.9415 87.8614 38.1592 82.3976 38.5192 76.1409C38.5571 75.4806 38.6963 76.2645 38.7428 75.458C39.132 68.7145 39.4938 62.0064 39.8001 55.2921L39.955 52.5917L38.2068 54.6607C37.0494 56.0634 35.895 57.469 34.7436 58.8783C34.2014 59.5422 35.0349 58.8 34.5006 59.4693C31.9797 62.6229 28.3775 67.2314 25.6954 70.0677L25.5442 70.2459L25.5671 70.4832C25.6166 71.6487 25.6098 72.645 25.5222 73.3738C25.9055 76.904 26.3659 81.1903 26.8243 84.3369C27.1197 86.3658 27.0935 84.369 27.2719 86.8798C27.3124 87.4461 27.0865 86.7272 27.1586 87.5752C27.4624 91.1457 27.9045 95.0355 28.1816 98.57C28.2376 99.2889 28.0817 99.1068 28.0777 99.3125C28.0515 101.041 28.6662 103.851 28.7526 104.469C28.8951 105.494 29.0197 106.459 29.1321 107.389L29.1547 107.623L29.3181 107.801C31.6462 110.221 33.5652 112.358 35.9141 114.894C36.6113 115.646 35.6533 114.88 36.3192 115.609C38.5345 118.029 40.8138 120.494 43.0768 122.906L42.8566 122.449C43.1509 124.278 43.4501 126.09 43.752 127.863C43.9395 128.963 43.9386 127.925 44.0362 128.449C44.4643 130.76 44.2512 131.32 44.6561 133.537C44.7411 134.004 44.8329 133.72 44.8606 133.803C45.2946 135.108 45.1499 136.322 45.1957 136.668C45.7675 141.044 46.5331 143.779 47.132 147.999C47.2033 148.504 46.8613 147.393 47.072 148.811C48.4745 158.255 50.0528 168.23 51.621 177.551C51.8645 179 51.8312 177.944 51.8608 178.033C52.3319 179.485 52.155 180.499 52.2155 180.974C52.701 184.724 53.5092 188.172 53.512 190.77C53.7427 192.193 53.9705 193.615 54.1959 195.036L54.2536 195.423L54.6246 195.564C60.7833 197.836 66.9144 200.147 73.0416 202.437L73.3438 202.552L73.6208 202.374C75.8864 200.908 78.1487 199.44 80.4054 197.966L80.8638 197.673L80.6341 197.173C78.3941 192.417 76.131 187.68 73.8141 182.974C73.7252 182.793 73.7311 183.189 73.5545 182.827C72.9972 181.686 72.6284 180.894 72.3684 180.292L72.3874 180.351C72.0827 178.529 72.2539 178.38 72.0219 176.012C71.9425 175.204 71.1058 172.863 71.0373 172.654C70.7866 171.896 70.7082 172.749 70.6382 172.492C70.0667 170.366 70.9169 170.564 70.3482 167.657C70.3291 167.566 70.26 167.976 70.1979 167.735C70.0047 166.985 69.9147 166.222 69.72 165.49C69.2732 163.815 68.7751 163.284 68.4886 160.647C68.453 160.313 68.9944 160.728 68.4655 158.136C68.3703 157.671 68.1376 156.485 67.8851 155.205L66.6291 155.614C67.3024 157.055 68.0378 158.625 68.3555 159.27C68.9331 160.442 68.6867 159.567 68.7317 159.649C70.3909 162.76 69.9003 161.516 70.9025 162.996C71.9037 164.475 71.0835 164.317 71.3181 165.001C71.5535 165.686 72.786 167.959 73.1036 168.511C73.4211 169.063 73.1715 168.307 73.4375 168.805C75.199 172.108 73.8247 170.434 74.2466 171.597C75.2405 174.337 76.6495 176.176 77.8152 178.566C78.1305 179.212 77.7793 178.728 78.0397 179.314C79.0724 181.631 79.8579 182.948 80.9447 185.626C81.0611 185.913 81.4053 186.972 81.8641 188.027L81.9783 188.186C82.4095 188.615 82.87 189.031 83.302 189.334C83.4793 189.457 83.1236 188.949 83.9286 189.671C85.1311 190.75 87.2646 192.73 88.4976 193.953C89.4078 194.856 88.1985 193.996 89.4149 195.058C89.9556 195.53 89.0728 194.529 90.0817 195.423C90.1323 195.468 90.1867 195.516 90.2444 195.568L90.3204 195.641L90.4252 195.621C91.8529 195.304 94.947 194.703 96.1627 194.469C97.4406 194.224 96.7716 194.514 96.8769 194.504C97.513 194.441 99.9785 194.035 100.195 193.993C103.19 193.412 106.118 192.823 109.008 192.233L109.763 192.088L109.264 191.499C104.638 186.177 100.108 181.039 95.5463 175.662L95.5912 175.731C95.2664 175.04 94.9419 174.347 94.6178 173.65C94.2588 172.879 94.6509 173.32 94.5976 173.201C93.4107 170.542 93.9996 172.803 92.9943 171.029C93.4228 171.151 92.8528 170.092 92.0059 168.224C91.5981 167.323 91.9461 167.754 91.9194 167.667C91.4683 166.258 90.8007 165.445 90.6409 165.23C90.0516 164.436 89.8026 163.384 89.4036 162.842C89.0057 162.301 89.4876 163.754 88.6458 161.976C88.5173 161.426 89.4267 162.611 88.8318 161.24C88.3757 160.189 87.8169 158.964 87.1993 157.644L86.827 158.344C92.482 157.525 99.7876 156.262 103.355 155.703C107.822 155.004 109.27 154.808 111.869 154.373C116.563 153.586 114.873 154.075 117.811 153.74C120.758 153.403 119.248 153.053 119.651 152.868C120.046 152.684 120.517 152.741 121.021 152.597C121.524 152.453 120.401 152.538 121.604 152.331C122.807 152.124 126.138 151.842 126.585 151.905C127.53 152.038 126.086 152.544 129.264 151.964C129.446 151.93 128.828 151.872 129.529 151.751C133.071 151.142 136.708 150.564 140.318 149.981L140.101 149.849C140.786 151.824 141.471 153.79 142.158 155.724C142.418 156.455 142.356 155.744 142.509 156.169C144.104 160.593 143.303 159.089 143.824 161.632C144.036 160.951 144.73 162.221 145.866 165.603C146.549 167.637 146.259 167.345 146.578 168.701C146.674 169.108 147.274 170.507 147.281 170.795C147.303 171.744 146.552 170.488 147.839 173.937C147.896 174.088 147.878 173.552 148.064 174.078C148.437 175.132 148.681 175.907 148.876 176.586L148.909 176.687L148.993 176.756C150.168 177.8 150.881 178.57 152.951 180.285C154.541 181.602 157.033 183.531 159.32 185.314L159.534 185.49L159.8 185.396C161.098 184.898 162.344 184.422 163.402 184.031C163.174 183.615 166.301 182.602 167.664 182.454C169.415 181.811 171.29 181.147 173.037 180.495L173.337 180.388L173.276 180.073C173.197 179.69 173.117 179.311 173.036 178.941C172.877 178.207 172.839 178.717 172.806 178.627C172.302 177.246 172.422 176.223 172.34 175.742C171.867 172.992 171.347 170.529 170.854 168.081L170.835 168.021C169.943 165.979 169.073 163.944 168.235 161.717C168.172 161.55 168.356 161.155 167.606 160.011C167.556 159.937 168.078 161.525 167.131 159.352C166.183 157.178 164.257 153.141 163.095 150.058C162.814 149.312 162.261 147.356 161.432 145.952C161.321 145.766 161.329 146.019 161.158 145.754C161.14 145.726 161.123 145.698 161.106 145.671L161.025 145.912C161.784 145.334 162.41 145.323 163.272 144.524C164.163 143.699 166.199 142.306 169.183 140.839C169.277 140.792 170.09 140.632 170.996 140.114C171.687 139.72 172.511 139.237 173.348 138.748L173.314 138.736C173.772 139.695 174.238 140.67 174.618 141.496C174.966 142.253 174.595 141.837 174.653 141.969C176.917 147.095 178.717 150.655 181.287 156.078C181.753 157.061 182.856 159.968 183.896 161.832L183.908 161.858L183.933 161.871C183.956 161.882 183.979 161.891 184.001 161.901C186.151 162.842 184.412 161.003 189.054 163.719C190.927 164.813 192.865 167.003 196.543 168.391C197.843 169.12 199.13 169.825 200.41 170.516L200.289 170.521C203.289 168.537 206.192 166.553 209.164 164.576L209.089 164.755C208.641 162.491 208.207 160.201 207.805 157.845C207.748 157.509 207.817 156.398 207.659 155.612C207.425 154.447 207.17 153.831 206.999 152.999C206.89 152.476 206.787 151.959 206.686 151.446C205.015 148.997 203.507 146.649 201.85 144.25C201.111 143.178 201.255 143.631 200.373 142.352C199.491 141.074 199.055 140.119 197.797 138.43C196.846 137.155 195.648 136.05 194.423 134.332C194.671 134.067 193.883 132.915 192.556 130.813C192.541 130.765 192.527 130.719 192.513 130.672C192.367 130.199 192.66 130.659 192.598 130.433C192.344 129.512 191.955 128.714 191.723 127.837C191.666 127.623 191.779 127.573 191.739 127.396C191.406 125.892 190.312 123.605 190.124 123.212C189.403 121.706 189.299 120.922 188.81 119.744C188.323 118.569 188.865 120.392 188.333 119.005C187.233 116.131 185.947 112.394 184.91 109.447C184.498 108.27 184.934 109.019 184.878 108.849C184.067 106.402 183.041 104 182.879 102.542C181.489 101.135 182.444 101.048 181.067 97.6258C180.959 97.3563 180.458 97.1402 180.77 98.2114C181.083 99.2826 181.759 100.836 182.182 102.326C182.283 102.678 182.62 104.782 182.693 105.06C183.265 107.234 183.935 107.336 184.006 107.437C184.785 108.589 185.249 111.142 185.445 111.788C186.343 114.745 187.288 117.193 188.054 119.661C188.556 121.275 188.24 121.56 188.689 122.808C190.019 126.505 190.977 127.917 191.824 131.067L191.916 131.251C192.116 131.595 192.321 131.965 192.533 132.368C192.952 133.16 192.099 132.671 194.177 135.117C194.308 135.27 195.899 137.053 196.511 138.294C196.587 138.45 196.481 138.516 196.6 138.709C197.401 140.002 198.055 140.783 198.95 142.177C199.844 143.571 200.908 145.255 202.009 146.792C202.673 147.718 203.689 148.794 204.044 149.212C204.801 150.101 205.39 151.181 205.936 151.948L205.798 151.62C205.863 151.92 205.936 152.188 206.029 152.409C206.41 153.314 206.347 151.41 206.958 153.861C206.657 154.015 206.371 154.29 206.08 154.5C206.772 157.999 207.495 161.454 208.204 164.928L208.666 163.823C207.049 164.913 205.425 166 203.782 167.082C203.207 167.46 203.697 166.926 203.079 167.328C201.891 168.099 200.789 168.852 199.684 169.607L200.93 169.551C199.51 168.812 198.084 168.073 196.551 167.216C194.371 165.997 192.049 164.536 189.773 163.257C188.626 162.946 186.546 161.834 184.538 160.749L185.054 161.298C184.694 160.515 184.34 159.741 184.009 159.044C183.586 158.154 183.523 158.255 183.2 157.632C181.984 155.281 182.801 156.269 182.544 155.589C181.442 152.672 180.655 152.741 179.136 149.403C179.056 149.226 178.421 146.904 178.306 146.596C177.582 144.641 178.037 146.342 177.466 145.173C176.423 143.038 175.646 141.579 174.584 139C174.509 138.817 174.417 138.569 174.31 138.277L173.815 137.217L172.808 137.793C171.93 138.203 170.653 138.804 169.685 139.518C169.516 139.642 169.681 139.7 169.539 139.789C166.97 141.389 166.698 141.07 165.125 141.8C163.552 142.53 161.369 144.092 160.937 144.431C159.804 145.316 161.929 143.974 162.006 143.954C162.774 143.759 161.668 144.388 160.532 145.04L159.897 145.403L160.186 146.067C160.282 146.287 160.379 146.508 160.473 146.718C160.929 146.757 161.729 148.678 161.101 148.127C161.031 148.064 160.608 146.986 160.473 146.718C160.625 148.075 161.482 150.195 162.82 152.369C163.446 153.386 163.19 152.28 164.541 155.608C165.154 157.118 164.65 156.649 165.149 158C166.289 161.087 168.214 164.907 169.514 168.035C169.619 168.287 169.671 168.432 169.69 168.513L169.631 168.32C169.639 168.613 169.435 168.063 169.548 168.707C169.936 170.903 170.426 172.811 170.799 175.02C170.832 175.22 170.581 174.764 170.712 175.448C171.039 177.149 171.364 178.775 171.691 180.384L172.49 178.975C169.335 180.139 166.256 181.298 162.772 182.556C161.811 182.902 160.555 183.341 159.226 183.805L160.387 184.002C158.647 182.556 156.756 180.981 155.429 179.916C153.721 178.544 151.807 177.059 149.933 175.601L150.288 176.113C149.338 173.47 148.416 170.888 147.742 168.78C146.93 166.242 147.266 166.746 147.007 165.629C146.506 163.473 144.91 159.896 144.688 159.416C144.681 159.402 145.374 161.587 144.908 160.454C144.52 159.833 144.696 159.441 144.688 159.416C144.543 159.101 143.054 154.77 142.794 153.898C142.653 153.425 142.883 153.639 142.807 153.393C142.39 152.05 141.968 150.708 141.54 149.366L141.182 148.311L140.092 148.48C135.41 149.116 130.721 149.812 125.998 150.579C125.89 150.599 126.078 150.741 125.825 150.784C122.28 151.395 119.973 151.534 117.022 151.854C114.072 152.175 111.753 152.566 110.061 153.114C107.843 153.412 104.688 154.017 102.873 154.369C101.059 154.721 100.755 154.435 100.593 154.453C95.5499 155.003 92.6804 155.625 87.4848 156.438C87.2058 156.482 86.8956 156.529 86.5611 156.58L84.838 156.847L85.5881 158.409C86.7292 160.809 88.4828 164.596 89.4842 166.779C90.376 168.724 90.9985 169.855 91.7999 171.657C91.9083 171.901 91.6606 171.72 91.6905 171.796C92.4763 173.858 92.3457 172.75 92.5982 173.133C93.28 174.165 93.758 174.909 94.4152 176.289L94.5566 176.508C94.8989 176.907 95.2812 177.374 95.7287 177.94C96.1319 178.451 96.9706 180.224 97.7175 181.144C98.6892 182.34 98.4518 181.778 99.4657 183.033C99.5525 183.14 99.4473 183.192 100.098 183.945C102.542 186.778 105.187 189.799 107.756 192.788L108.628 190.286C107.72 190.467 106.815 190.644 105.919 190.818C105.275 190.942 106.066 190.604 105.135 190.781C100.767 191.614 95.9859 192.556 91.7512 193.471C90.709 193.697 91.3892 193.693 91.1693 193.774C90.8478 193.892 90.4872 193.985 90.1199 194.06L91.3367 194.413C90.4585 193.595 89.6969 192.61 89.5161 192.432C87.3816 190.332 85.395 188.461 83.4381 186.642L83.7909 187.131C81.8999 183.152 80.0324 179.331 77.9908 174.732C77.8128 174.329 76.7054 171.109 75.793 169.867C75.7311 169.781 74.8192 168.557 74.4542 167.269C74.4316 167.189 74.9694 167.966 74.2691 166.499C73.5688 165.031 72.5623 162.614 71.4607 160.662C71.1122 160.044 70.1263 158.658 69.4602 156.64C69.4374 156.569 69.1748 155.61 68.8062 154.601L65.5288 155.667C65.6281 156.58 65.7941 157.548 66.0713 158.04C66.1697 158.213 66.5318 157.941 66.8104 160.453C66.8631 160.933 66.6061 160.093 66.7939 161.348C67.0811 163.271 67.6824 165.776 67.9628 168.155C68.0113 168.57 68.0802 170.362 68.5594 171.718C68.6344 171.93 68.6867 171.488 68.8458 172.223C69.4454 174.986 69.9644 177.872 70.5458 180.711L70.667 181.084C70.9949 181.772 71.3262 182.457 71.6627 183.134C72.2344 184.284 72.1569 183.596 72.775 184.785C73.3932 185.974 74.5823 188.396 75.0821 189.709C75.582 191.021 74.6185 189.781 75.4785 191.697C76.4557 193.872 77.4507 196.034 78.4566 198.186L79.1018 195.949C76.837 197.418 74.5848 198.899 72.3347 200.384L73.8727 200.218C70.1035 198.847 66.3306 197.485 62.5565 196.085C61.2893 195.615 62.3825 195.891 60.5183 195.19C59.0336 194.632 57.3176 193.981 55.4784 193.285L56.6016 194.667C55.5441 187.608 54.2248 178.835 53.2603 173.929C52.2746 168.916 53.0889 175.29 52.411 171.448C52.0844 169.593 52.1782 167.518 52.1219 167.067C51.5771 162.659 50.9305 159.637 50.3789 155.679C50.2651 154.862 50.5512 155.637 50.4525 154.941C50.1168 152.566 49.6614 150.085 49.3269 147.818C49.1772 146.8 49.3307 146.968 49.1775 146.035C48.8123 143.8 48.4561 141.829 48.0043 139.665C47.9632 139.468 48.0139 140.833 47.7539 139.178C47.3336 136.5 46.7077 133.191 46.3535 130.09C46.2489 129.17 46.5284 129.09 46.0297 127.154C45.9253 126.748 45.6638 127.327 45.6079 124.991C45.6024 124.774 45.5413 123.483 45.3955 122.06L45.3131 121.538L44.9627 121.162C44.2199 120.273 43.3822 119.343 42.7165 118.794C42.324 118.471 41.2427 117.719 40.5198 116.871C40.4226 116.756 40.9468 117.094 40.3318 116.407C38.1624 113.986 35.8377 111.497 33.6064 109.012C33.0108 108.348 34.0301 109.215 33.1386 108.229C32.5204 107.545 31.8592 106.823 31.1765 106.083L31.6504 107.135C31.354 104.164 30.9983 100.958 30.6929 98.303C30.5421 96.994 30.5013 97.9135 30.4773 97.8195C30.0889 96.3092 30.313 95.3705 30.2801 94.8596C30.0711 91.6823 29.6797 89.2862 29.4247 86.3638C29.3539 85.5573 29.562 86.1132 29.5592 85.9515C29.5227 84.2756 29.3773 85.5414 29.2414 84.4919C28.8598 81.552 28.5405 78.2639 28.2591 75.2803C28.156 74.1843 28.4546 75.3977 28.36 74.4143C28.228 73.0338 28.0921 71.6405 27.9526 70.2427L27.53 71.6113C30.4422 68.1571 33.363 64.6431 36.1088 61.2648C36.7864 60.4308 36.2478 60.8611 36.3684 60.6699C37.1969 59.35 38.8783 57.8086 39.2349 57.4284C39.614 57.0243 39.9318 56.672 40.2137 56.3491L37.1814 55.1474C37.0783 56.5482 37.0939 57.4645 36.9885 59.0624C36.3147 69.2501 35.6984 81.841 35.2157 91.466C35.0573 94.6207 34.9128 97.5979 34.7743 100.478L34.7077 101.785L35.9566 102.13C44.2337 104.386 51.6788 106.405 60.3028 108.848C61.0352 109.055 60.2477 109.021 60.8784 109.202C63.2903 109.891 65.6939 110.568 68.0944 111.24L68.8895 111.272C74.7037 110.132 80.4901 108.975 86.3602 107.864C87.0445 107.734 86.0919 108.094 87.1913 107.891C89.4467 107.476 92.2956 106.909 94.5605 106.41C95.6653 106.167 94.1486 106.315 95.2612 106.074C97.8518 105.511 100.638 104.954 103.315 104.458C104.454 104.247 102.772 104.753 104.25 104.466C113.01 102.767 121.635 101.105 130.398 99.2449L132.894 98.7459L131.525 96.6169C130.787 95.498 130.044 94.3779 129.294 93.2559C128.899 92.6649 128.265 92.3293 127.511 91.0186C127.532 90.8698 127.633 90.8129 127.695 90.7146C123.391 83.9033 119.067 77.1575 114.73 70.4074L112.968 72.9042C119.646 74.4127 126.332 75.9174 133.054 77.4527C133.67 77.5933 132.564 77.5318 133.756 77.805C135.221 78.1412 136.678 78.4777 138.13 78.813L138.752 78.953L139.309 78.6771C142.038 77.3442 144.753 76.0169 147.484 74.6534L148.463 74.1688L148.468 73.0917C148.472 70.5939 148.46 68.0754 148.418 65.5105C148.407 64.7923 148.073 65.1576 148.143 63.0422C148.156 62.6692 148.23 59.4829 148.309 58.6597C148.321 58.5479 148.469 59.1307 148.484 58.1039C148.488 57.7686 148.492 57.4325 148.496 57.0955L145.775 58.3016C149.978 62.0638 154.399 65.9752 158.628 69.6702C159.352 70.3025 158.702 69.4947 159.219 69.9446C162.882 73.1351 166.711 76.7771 170.207 79.8194C172.539 81.857 171.888 80.862 173.282 81.7982C173.485 81.9319 174.854 83.2526 175.038 83.217C175.512 83.1129 175.154 82.1252 175.742 82.0956C175.81 82.0983 176.278 82.5604 176.635 82.93C176.783 83.0773 176.987 83.3137 177.018 83.3221C177.039 83.3318 177.032 83.2933 176.984 83.2004C176.96 83.1538 176.925 83.0939 176.871 83.0139C176.826 82.9436 176.79 82.8837 176.725 82.7924C176.651 82.6659 175.345 81.2623 175.067 80.8976C174.868 80.6322 175.414 80.927 174.969 80.4067C174.553 79.9149 173.919 79.5047 173.183 78.7061C172.431 77.8936 172.923 78.0918 171.342 76.5978ZM94.7015 155.952C93.0339 156.363 92.6982 155.829 94.5479 155.69C94.6376 155.684 94.7876 155.931 94.7015 155.952ZM208.68 164.378C206.957 165.825 205.474 166.357 206.681 165.322C207.887 164.288 209.206 163.937 208.68 164.378ZM201.032 143.951C202.672 145.996 202.228 146.798 200.786 144.393C200.702 144.254 200.937 143.832 201.032 143.951ZM167.735 76.5303C167.763 76.5444 168.776 77.4651 168.801 77.499C169.219 78.132 167.174 76.2731 167.735 76.5303ZM189.923 123.916C190.297 124.649 190.952 126.909 190.487 125.998C190.113 125.264 189.458 123.002 189.923 123.916ZM78.1012 178.512C78.082 178.491 77.6569 177.595 77.7094 177.593C77.8799 177.588 78.4217 178.858 78.1012 178.512ZM177.026 87.0008C178.962 92.4442 180.757 95.5274 178.608 89.6138C178.219 88.5428 179.215 92.0029 178.679 90.6541C177.698 88.1861 177.518 86.3827 176.409 83.9018C176.208 83.4529 176.914 86.6908 177.029 87.0108C177.028 87.0075 177.027 87.0042 177.026 87.0008ZM93.8311 156.785C93.7984 156.798 92.4423 157.01 92.4086 157.007C91.6463 156.936 94.3783 156.51 93.8311 156.785ZM75.22 186.371C75.2667 186.433 76.6241 189.314 76.6543 189.415C77.0833 191.048 74.3382 185.222 75.22 186.371ZM163.449 184C164.92 183.666 166.613 183.079 167.658 182.457C166.262 182.973 164.853 183.482 163.449 184Z" fill="#FFA100"/>
<path d="M62.4547 31.3832L66.6664 31.3832L66.6664 51.7154L62.4547 51.7154L62.4547 31.3832ZM66.6664 48.0556L74.9736 48.0556L74.9736 51.7154L66.6664 51.7154L66.6664 48.0556ZM75.8953 57.5246L75.8953 53.981L77.6672 53.981C78.2674 53.981 78.7225 53.8745 79.0323 53.6615C79.3615 53.4679 79.6229 53.1968 79.8166 52.8482C80.0102 52.4997 80.1845 52.0834 80.3394 51.5992L84.9287 35.4496L89.3727 35.4496L84.4349 51.7154C84.1251 52.7224 83.7959 53.5841 83.4473 54.3005C83.1181 55.0364 82.7212 55.6367 82.2564 56.1014C81.7917 56.5855 81.1914 56.9437 80.4556 57.1761C79.7197 57.4085 78.7903 57.5246 77.6672 57.5246L75.8953 57.5246ZM78.829 51.7154L73.8912 35.4496L78.3352 35.4496L82.6921 51.7154L78.829 51.7154ZM97.3554 52.1802C95.8256 52.1802 94.5089 51.8219 93.4051 51.1055C92.3207 50.3696 91.4881 49.353 90.9072 48.0556C90.3263 46.7582 90.0358 45.2769 90.0358 43.6116C90.0358 41.9269 90.3263 40.4359 90.9072 39.1385C91.4881 37.8411 92.3207 36.8245 93.4051 36.0886C94.5089 35.3528 95.8256 34.9849 97.3554 34.9849C98.4398 34.9849 99.3596 35.1785 100.115 35.5658C100.889 35.9531 101.519 36.5147 102.003 37.2505L102.003 49.9436C101.538 50.6407 100.928 51.1926 100.173 51.5992C99.437 51.9865 98.4979 52.1802 97.3554 52.1802ZM98.0816 48.4623C98.9723 48.4623 99.7081 48.2493 100.289 47.8233C100.87 47.3779 101.296 46.7873 101.567 46.0514C101.858 45.3156 102.003 44.5023 102.003 43.6116C102.003 42.7015 101.858 41.8785 101.567 41.1427C101.296 40.3875 100.87 39.7969 100.289 39.3709C99.7081 38.9255 98.9723 38.7028 98.0816 38.7028C97.2489 38.7028 96.5421 38.9255 95.9612 39.3709C95.3996 39.7969 94.9736 40.3875 94.6832 41.1427C94.4121 41.8785 94.2765 42.7015 94.2765 43.6116C94.2765 44.5023 94.4121 45.3156 94.6832 46.0514C94.9736 46.7873 95.3996 47.3779 95.9612 47.8233C96.5421 48.2493 97.2489 48.4623 98.0816 48.4623ZM102.003 51.7154L102.003 29.9309L106.156 29.9309L106.156 51.7154L102.003 51.7154ZM109.088 35.4496L113.242 35.4496L113.242 51.7154L109.088 51.7154L109.088 35.4496ZM108.943 29.9309L113.387 29.9309L113.387 34.3749L108.943 34.3749L108.943 29.9309ZM126.081 42.4207L130.234 42.4207L130.234 51.7154L126.081 51.7154L126.081 42.4207ZM123.205 34.9849C125.509 34.9849 127.252 35.653 128.433 36.9891C129.634 38.3252 130.234 40.1357 130.234 42.4207L126.081 42.4207C126.081 41.7236 126.013 41.0943 125.877 40.5327C125.742 39.9518 125.461 39.487 125.035 39.1385C124.628 38.7899 124.018 38.6157 123.205 38.6157C122.179 38.6157 121.404 38.8771 120.881 39.3999C120.378 39.9034 120.126 40.494 120.126 41.1717L115.798 41.1717C115.798 40.068 116.089 39.0513 116.67 38.1219C117.251 37.173 118.093 36.4178 119.197 35.8563C120.3 35.2754 121.637 34.9849 123.205 34.9849ZM126.487 41.4912L127.097 44.2506C124.812 44.1538 123.166 44.3765 122.159 44.9187C121.172 45.4415 120.678 46.0902 120.678 46.8647C120.678 47.3876 120.872 47.7749 121.259 48.0266C121.666 48.2783 122.13 48.4042 122.653 48.4042C123.157 48.4042 123.67 48.3267 124.193 48.1718C124.735 48.0169 125.18 47.7168 125.529 47.2714C125.897 46.826 126.081 46.1676 126.081 45.2963L126.865 46.5743C126.865 47.6587 126.662 48.6269 126.255 49.4789C125.848 50.3115 125.267 50.9699 124.512 51.454C123.776 51.9381 122.886 52.1802 121.84 52.1802C120.775 52.1802 119.826 51.9865 118.993 51.5992C118.18 51.1926 117.531 50.6117 117.047 49.8565C116.583 49.1013 116.35 48.1815 116.35 47.0971C116.35 46.0514 116.553 45.1897 116.96 44.512C117.386 43.8343 117.948 43.3018 118.645 42.9145C119.361 42.5078 120.155 42.2077 121.027 42.014C121.917 41.8204 122.827 41.6945 123.757 41.6364C124.706 41.559 125.616 41.5106 126.487 41.4912Z" fill="#614F4F"/>
<rect x="1.28857" y="41.2259" width="41.1486" height="41.1486" rx="20.5743" transform="rotate(-11.0718 1.28857 41.2259)" fill="#A4A4A4"/>
<line x1="18.7312" y1="66.5794" x2="30.8253" y2="48.6006" stroke="white" stroke-width="3.22734" stroke-linecap="round"/>
<line x1="1.61367" y1="-1.61367" x2="23.2817" y2="-1.61367" transform="matrix(-0.829738 -0.558154 -0.558154 0.829738 34.7183 65.7762)" stroke="white" stroke-width="3.22734" stroke-linecap="round"/>
</svg>
