<svg width="1070" height="981" viewBox="0 0 1070 981" fill="none" xmlns="http://www.w3.org/2000/svg">
<rect x="543.097" y="61.0562" width="269.194" height="126.189" rx="29.9542" transform="rotate(-0.0365798 543.097 61.0562)" fill="#02985E"/>
<rect x="721.953" y="94.9763" width="268.795" height="91.9405" rx="29.9542" transform="rotate(-0.0365798 721.953 94.9763)" fill="#02985E"/>
<g filter="url(#filter0_d_118_26861)">
<path d="M543.146 156.623C543.132 134.714 560.881 116.942 582.79 116.928L951.145 116.691C973.054 116.676 990.826 134.425 990.84 156.334L991.018 432.939C991.032 454.848 973.283 472.62 951.375 472.634L583.019 472.871C561.111 472.885 543.339 455.136 543.325 433.228L543.146 156.623Z" fill="#02985E"/>
</g>
<circle cx="917.887" cy="261.245" r="16.2624" transform="rotate(-0.0369403 917.887 261.245)" fill="#6ED1FF"/>
<ellipse cx="767.792" cy="405.79" rx="168.363" ry="33.1625" transform="rotate(-0.0369403 767.792 405.79)" fill="#267054"/>
<rect x="744.166" y="359.25" width="48.4683" height="35.0757" transform="rotate(-0.0369403 744.166 359.25)" fill="#614F4F"/>
<path d="M762.108 181.419C765.343 178.185 770.586 178.181 773.824 181.412L838.609 246.023C843.841 251.24 840.149 260.179 832.76 260.184L703.274 260.267C695.885 260.272 692.182 251.338 697.407 246.114L762.108 181.419Z" fill="white"/>
<path d="M762.451 219.683C765.686 216.449 770.929 216.446 774.168 219.676L849.729 295.035C854.961 300.253 851.269 309.191 843.88 309.196L692.854 309.293C685.465 309.298 681.762 300.364 686.987 295.14L762.451 219.683Z" fill="white"/>
<path d="M762.403 259.861C765.638 256.627 770.881 256.623 774.12 259.854L864.539 350.03C869.771 355.248 866.079 364.186 858.69 364.191L677.968 364.308C670.579 364.312 666.876 355.379 672.101 350.154L762.403 259.861Z" fill="white"/>
<circle cx="618.493" cy="301.297" r="11.4793" transform="rotate(-0.0369403 618.493 301.297)" fill="#B9FF8A"/>
<circle cx="732.592" cy="212.577" r="11.4793" transform="rotate(-0.0369403 732.592 212.577)" fill="#FF4545"/>
<path d="M763.536 161.052C764.723 157.39 769.902 157.387 771.094 161.047L772.224 164.517C772.757 166.153 774.283 167.261 776.005 167.26L779.654 167.257C783.503 167.255 785.107 172.18 781.994 174.444L779.043 176.591C777.651 177.604 777.07 179.398 777.603 181.035L778.733 184.504C779.924 188.164 775.736 191.211 772.621 188.951L769.667 186.808C768.274 185.797 766.388 185.798 764.996 186.811L762.045 188.958C758.933 191.222 754.74 188.181 755.928 184.519L757.053 181.048C757.584 179.41 757 177.617 755.607 176.606L752.653 174.463C749.538 172.203 751.135 167.276 754.984 167.273L758.633 167.271C760.355 167.27 761.88 166.16 762.41 164.523L763.536 161.052Z" fill="#FFCC00"/>
<path d="M646.025 336.617L715.036 344.393L707.11 414.737L638.099 406.961L646.025 336.617Z" fill="#6ED1FF"/>
<rect x="642.102" y="368.585" width="69.811" height="6.3774" transform="rotate(6.42883 642.102 368.585)" fill="#FFA200"/>
<rect x="682.767" y="340.265" width="72.0646" height="6.3774" transform="rotate(96.4288 682.767 340.265)" fill="#FFA200"/>
<path d="M677.94 343.027L688.76 327.807L695.764 337.456L677.94 343.027Z" fill="#FFA200"/>
<path d="M681.109 343.128L673.723 326.078L665.197 333.533L681.109 343.128Z" fill="#FFA200"/>
<path d="M796.357 319.165C797.086 316.916 800.265 316.914 800.997 319.162L802.789 324.663C803.116 325.668 804.053 326.348 805.11 326.347L810.895 326.343C813.259 326.342 814.243 329.365 812.332 330.756L807.654 334.159C806.799 334.781 806.442 335.883 806.769 336.888L808.561 342.389C809.292 344.636 806.721 346.507 804.808 345.119L800.125 341.721C799.27 341.1 798.112 341.101 797.257 341.723L792.579 345.127C790.668 346.517 788.094 344.65 788.823 342.401L790.607 336.898C790.933 335.893 790.575 334.792 789.719 334.171L785.037 330.773C783.124 329.385 784.104 326.361 786.468 326.359L792.253 326.355C793.31 326.355 794.246 325.673 794.572 324.668L796.357 319.165Z" fill="#6B2222"/>
<path d="M734.49 286.65L757.388 299.81L734.543 313.061L734.49 286.65Z" fill="#0DB2FF"/>
<path d="M695.465 373.552L721.219 366.56L730.837 389.537L694.729 422.962" stroke="#FF4545" stroke-width="11.3912"/>
<path d="M720.057 391.722L727.935 400.285" stroke="white" stroke-width="5.69561"/>
<path d="M701.526 408.708L709.405 417.271" stroke="white" stroke-width="5.69561"/>
<path d="M710.859 399.965L718.738 408.528" stroke="white" stroke-width="5.69561"/>
<path d="M705.494 364.757L708.035 376.112" stroke="white" stroke-width="5.69561"/>
<path d="M731.52 376.102L721.209 381.496" stroke="white" stroke-width="5.69561"/>
<path d="M795.511 276.397C785.715 274.303 777.442 266.301 775.456 258.282C773.89 251.959 775.779 243.831 781.448 243.487C784.821 243.282 789.77 245.823 792.219 250.505C794.571 255.003 793.631 259.592 791.483 261.714C787.703 265.449 779.875 261.866 775.46 258.281C769.521 253.458 765.766 245.402 765.43 237.392" stroke="#B9FF8A" stroke-width="4.82507" stroke-miterlimit="10" stroke-linecap="round"/>
<circle cx="663.99" cy="182.804" r="16.2624" transform="rotate(-0.0369403 663.99 182.804)" fill="#FF00EE"/>
<path d="M841.502 343.365L880.203 325.904L911.977 396.326L873.277 413.788L841.502 343.365Z" fill="#FF6EB9"/>
<rect x="855.642" y="375.547" width="43.1536" height="6.96026" transform="rotate(-24.2845 855.642 375.547)" fill="#FF0000"/>
<rect x="869.306" y="329.675" width="78.6509" height="6.96025" transform="rotate(65.7155 869.306 329.675)" fill="#FF0000"/>
<path d="M866.451 334.721L868.119 314.408L880.069 319.558L866.451 334.721Z" fill="#FF0000"/>
<path d="M869.48 333.049L853.046 321.168L849.201 332.916L869.48 333.049Z" fill="#FF0000"/>
<path d="M816.553 418.624L816.122 379.724L886.907 378.94L887.338 417.839L816.553 418.624Z" fill="#827EFF"/>
<rect x="848.759" y="418.585" width="39.5399" height="6.3774" transform="rotate(-90.6348 848.759 418.585)" fill="#F2FF00"/>
<rect x="815.282" y="390.257" width="72.0646" height="6.3774" transform="rotate(-0.634832 815.282 390.257)" fill="#F2FF00"/>
<path d="M849.657 381.505L858.528 365.072L866.663 373.789L849.657 381.505Z" fill="#F2FF00"/>
<path d="M852.814 381.216L843.392 365.201L835.845 373.646L852.814 381.216Z" fill="#F2FF00"/>
<line x1="588.473" y1="229.4" x2="603.141" y2="229.39" stroke="white" stroke-width="2.72894"/>
<line x1="595.973" y1="222.232" x2="595.982" y2="236.9" stroke="white" stroke-width="2.72894"/>
<line x1="921.462" y1="365.662" x2="936.13" y2="365.652" stroke="white" stroke-width="2.72894"/>
<line x1="928.962" y1="358.494" x2="928.972" y2="373.162" stroke="white" stroke-width="2.72894"/>
<rect x="902.3" y="150.033" width="51.2767" height="51.2767" rx="25.6383" transform="rotate(-0.0369403 902.3 150.033)" fill="#A4A4A4"/>
<line x1="917.587" y1="185.203" x2="936.667" y2="166.098" stroke="white" stroke-width="4.0217" stroke-linecap="round"/>
<line x1="2.01085" y1="-2.01085" x2="29.0121" y2="-2.01085" transform="matrix(-0.707563 -0.706651 -0.706651 0.707563 937.331 188.034)" stroke="white" stroke-width="4.0217" stroke-linecap="round"/>
<rect width="263.355" height="158.317" rx="29.3045" transform="matrix(1 -0.000818743 0.000497848 1 21.2998 73.2156)" fill="#614F4F"/>
<rect width="262.965" height="115.348" rx="29.3045" transform="matrix(1 -0.000818743 0.000497848 1 196.277 108.215)" fill="#614F4F"/>
<g filter="url(#filter1_d_118_26861)">
<rect x="21.2998" y="136" width="438" height="337" rx="49" fill="#614F4F"/>
</g>
<rect x="58.2998" y="170" width="51" height="51" rx="25.5" fill="#A4A4A4"/>
<line x1="73.4814" y1="204.99" x2="92.4712" y2="186" stroke="white" stroke-width="4" stroke-linecap="round"/>
<line x1="2" y1="-2" x2="28.8556" y2="-2" transform="matrix(-0.707107 -0.707107 -0.707107 0.707107 93.1182 207.818)" stroke="white" stroke-width="4" stroke-linecap="round"/>
<path d="M459.3 269L21.7998 429.5L21.906 430.792C23.6105 451.53 39.101 468.503 59.5974 472.09C63.0592 472.695 66.5669 473 70.0812 473H410.3C437.362 473 459.3 451.062 459.3 424V269Z" fill="#FE94C5"/>
<rect x="135.177" y="314.875" width="190.664" height="127.684" transform="rotate(-16.7732 135.177 314.875)" fill="#FFF5E2"/>
<path d="M132.153 304.845L135.283 315.229L317.977 260.679L314.918 250.531L248.094 211.459L132.153 304.845Z" fill="#FFF5E2"/>
<rect x="217.104" y="192.168" width="6.84835" height="61.6352" rx="3.42418" transform="rotate(-16.7732 217.104 192.168)" fill="#6ED1FF"/>
<rect x="135.177" y="314.875" width="190.664" height="12.0782" transform="rotate(-16.7732 135.177 314.875)" fill="#FFE598"/>
<rect x="137.417" y="322.31" width="190.664" height="4.31366" transform="rotate(-16.7732 137.417 322.31)" fill="#D7B77E"/>
<rect x="144.637" y="346.265" width="190.664" height="25.0192" transform="rotate(-16.7732 144.637 346.265)" fill="#FFE598"/>
<rect x="159.406" y="392.273" width="189.801" height="46.5875" transform="rotate(-16.7732 159.406 392.273)" fill="#FFE598"/>
<rect x="150.613" y="366.089" width="190.664" height="4.31366" transform="rotate(-16.7732 150.613 366.089)" fill="#D7B77E"/>
<rect x="170.779" y="432.997" width="190.664" height="4.31366" transform="rotate(-16.7732 170.779 432.997)" fill="#D7B77E"/>
<path d="M222.013 404.014C221.993 404.02 221.973 404.025 221.954 404.03L222.072 403.995C222.052 404.001 222.033 404.008 222.013 404.014ZM207.829 356.953C217.889 353.921 228.737 359.586 233.847 369.876L193.285 382.101C191.858 370.701 197.768 359.986 207.829 356.953Z" fill="#FF4545"/>
<path d="M275.563 336.538C285.623 333.506 296.47 339.17 301.581 349.46L261.019 361.686C259.592 350.286 265.502 339.57 275.563 336.538Z" fill="#FF4545"/>
<path d="M183.974 313.683C194.035 310.651 204.882 316.316 209.993 326.605L169.429 338.832C168.003 327.431 173.914 316.716 183.974 313.683Z" fill="#FF4545"/>
<path d="M232.71 298.994C242.77 295.962 253.617 301.627 258.728 311.917L218.165 324.143C216.738 312.742 222.649 302.027 232.71 298.994Z" fill="#FF4545"/>
<path d="M283.097 283.807C293.158 280.775 304.006 286.439 309.117 296.729L268.552 308.955C267.125 297.555 273.037 286.84 283.097 283.807Z" fill="#FF4545"/>
<path d="M209.717 362.968C216.587 360.897 223.996 364.766 227.486 371.793L199.783 380.143C198.809 372.357 202.846 365.039 209.717 362.968Z" fill="#FFAFAF"/>
<path d="M277.451 342.553C284.321 340.482 291.729 344.351 295.219 351.378L267.518 359.727C266.543 351.942 270.58 344.624 277.451 342.553Z" fill="#FFAFAF"/>
<path d="M185.863 319.698C192.733 317.627 200.142 321.495 203.632 328.523L175.929 336.872C174.955 329.087 178.992 321.769 185.863 319.698Z" fill="#FFAFAF"/>
<path d="M234.597 305.009C241.468 302.938 248.877 306.806 252.367 313.834L224.665 322.183C223.691 314.398 227.727 307.08 234.597 305.009Z" fill="#FFAFAF"/>
<path d="M284.986 289.822C291.856 287.751 299.265 291.619 302.755 298.647L275.053 306.996C274.079 299.211 278.115 291.893 284.986 289.822Z" fill="#FFAFAF"/>
<path d="M211.386 368.036C215.557 366.779 220.054 369.128 222.173 373.394L205.357 378.463C204.765 373.736 207.214 369.294 211.386 368.036Z" fill="#FF8F8F"/>
<path d="M279.12 347.621C283.292 346.363 287.789 348.713 289.908 352.98L273.092 358.048C272.5 353.321 274.949 348.878 279.12 347.621Z" fill="#FF8F8F"/>
<path d="M193.413 344.279C193.402 344.282 193.391 344.284 193.381 344.288L193.444 344.268C193.434 344.272 193.424 344.276 193.413 344.279ZM187.532 324.766C191.703 323.509 196.2 325.858 198.319 330.124L181.502 335.193C180.91 330.466 183.36 326.023 187.532 324.766Z" fill="#FF8F8F"/>
<path d="M242.148 329.59C242.137 329.593 242.126 329.595 242.116 329.598L242.179 329.579C242.169 329.582 242.158 329.587 242.148 329.59ZM236.266 310.077C240.438 308.82 244.935 311.169 247.054 315.435L230.237 320.504C229.645 315.777 232.095 311.334 236.266 310.077Z" fill="#FF8F8F"/>
<path d="M286.655 294.89C290.826 293.633 295.323 295.981 297.442 300.248L280.625 305.317C280.033 300.59 282.483 296.147 286.655 294.89Z" fill="#FF8F8F"/>
<path d="M181.039 383.614L173.665 377.215L175.196 375.197L176.728 373.18L184.897 378.562L181.039 383.614ZM174.978 385.441L168.97 383.362L172.805 374.362L175.196 375.197L177.587 376.033L174.978 385.441ZM175.122 377.748L165.391 378.153L165.496 371.833L175.211 372.665L175.196 375.197L175.122 377.748ZM172.76 375.932L169.353 366.781L175.415 364.954L177.633 374.463L175.196 375.197L172.76 375.932ZM176.667 377.282L175.196 375.197L173.785 373.095L181.422 367.033L185.002 372.242L176.667 377.282Z" fill="#D8F7FF"/>
<path d="M251.145 362.484L243.771 356.085L245.302 354.067L246.833 352.05L255.003 357.432L251.145 362.484ZM245.083 364.311L239.076 362.232L242.911 353.232L245.302 354.067L247.693 354.902L245.083 364.311ZM245.228 356.618L235.496 357.023L235.601 350.703L245.316 351.535L245.302 354.067L245.228 356.618ZM242.865 354.802L239.459 345.651L245.52 343.824L247.738 353.333L245.302 354.067L242.865 354.802ZM246.773 356.152L245.302 354.067L243.89 351.965L251.528 345.903L255.107 351.112L246.773 356.152Z" fill="#D8F7FF"/>
<path d="M324.921 341.766L317.547 335.367L319.078 333.35L320.609 331.332L328.779 336.714L324.921 341.766ZM318.86 343.593L312.852 341.514L316.687 332.515L319.078 333.35L321.469 334.185L318.86 343.593ZM319.004 335.9L309.273 336.305L309.377 329.985L319.093 330.817L319.078 333.35L319.004 335.9ZM316.642 334.084L313.235 324.933L319.297 323.106L321.515 332.615L319.078 333.35L316.642 334.084ZM320.549 335.435L319.078 333.35L317.666 331.247L325.304 325.185L328.884 330.394L320.549 335.435Z" fill="#D8F7FF"/>
<circle cx="311.345" cy="243.204" r="17.6991" transform="rotate(-16.7732 311.345 243.204)" fill="#FFF5E2"/>
<circle cx="282.896" cy="224.43" r="17.6991" transform="rotate(-16.7732 282.896 224.43)" fill="#FFF5E2"/>
<circle cx="256.03" cy="209.231" r="17.6991" transform="rotate(-16.7732 256.03 209.231)" fill="#FFF5E2"/>
<path d="M211.398 220.654C213.589 222.712 232.479 235.34 235.342 244.838C238.205 254.335 232.157 264.557 221.833 267.668C211.51 270.78 200.821 265.603 197.958 256.105C195.096 246.608 204.236 225.531 204.923 222.605C205.611 219.68 209.208 218.595 211.398 220.654Z" fill="#F13737"/>
<ellipse cx="205.954" cy="251.369" rx="0.969816" ry="2.18209" transform="rotate(-16.7732 205.954 251.369)" fill="#CA3131"/>
<ellipse cx="212.886" cy="260.928" rx="0.969816" ry="2.18209" transform="rotate(-16.7732 212.886 260.928)" fill="#CA3131"/>
<ellipse cx="214.502" cy="252.844" rx="0.969816" ry="2.18209" transform="rotate(-16.7732 214.502 252.844)" fill="#CA3131"/>
<ellipse cx="221.885" cy="252.138" rx="0.969816" ry="2.18209" transform="rotate(-16.7732 221.885 252.138)" fill="#CA3131"/>
<path d="M239.829 217.419C242.019 219.478 260.91 232.106 263.772 241.603C266.635 251.1 260.587 261.322 250.263 264.433C239.94 267.545 229.251 262.368 226.388 252.871C223.526 243.373 232.666 222.297 233.354 219.371C234.041 216.445 237.639 215.361 239.829 217.419Z" fill="#FF4545"/>
<ellipse cx="254.502" cy="248.688" rx="0.969816" ry="2.18209" transform="rotate(-16.7732 254.502 248.688)" fill="#CA3131"/>
<ellipse cx="249.058" cy="240.707" rx="0.969816" ry="2.18209" transform="rotate(-16.7732 249.058 240.707)" fill="#CA3131"/>
<ellipse cx="246.425" cy="252.136" rx="0.969816" ry="2.18209" transform="rotate(-16.7732 246.425 252.136)" fill="#CA3131"/>
<path d="M226.188 199.671L218.814 193.272L220.345 191.255L221.876 189.237L230.046 194.619L226.188 199.671ZM220.127 201.498L214.119 199.419L217.954 190.419L220.345 191.255L222.736 192.09L220.127 201.498ZM220.271 193.805L210.54 194.21L210.645 187.89L220.36 188.722L220.345 191.255L220.271 193.805ZM217.909 191.989L214.502 182.838L220.564 181.011L222.782 190.52L220.345 191.255L217.909 191.989ZM221.816 193.339L220.345 191.255L218.934 189.152L226.571 183.09L230.151 188.299L221.816 193.339Z" fill="#D8F7FF"/>
<circle cx="267.257" cy="252.839" r="10.9279" transform="rotate(-16.7732 267.257 252.839)" fill="#6F62E6"/>
<circle cx="190.267" cy="272.44" r="10.9279" transform="rotate(-16.7732 190.267 272.44)" fill="#6F62E6"/>
<circle cx="88.184" cy="302.884" r="14.1795" transform="rotate(-12.3504 88.184 302.884)" fill="#B9FF8A"/>
<circle cx="355.839" cy="382.501" r="16.23" transform="rotate(-12.3504 355.839 382.501)" fill="#FF4545"/>
<circle cx="373.008" cy="198.217" r="16.23" transform="rotate(-12.3504 373.008 198.217)" fill="white"/>
<rect x="495.775" y="572.099" width="269.194" height="126.189" rx="29.9542" transform="rotate(-7.72499 495.775 572.099)" fill="#FF4545"/>
<rect x="676.645" y="573.918" width="268.795" height="91.9405" rx="29.9542" transform="rotate(-7.72499 676.645 573.918)" fill="#FF4545"/>
<g filter="url(#filter2_d_118_26861)">
<path d="M508.61 666.8C505.665 645.091 520.877 625.104 542.586 622.159L907.599 572.643C929.308 569.698 949.295 584.91 952.24 606.619L989.423 880.714C992.368 902.424 977.156 922.411 955.446 925.356L590.434 974.872C568.724 977.817 548.737 962.605 545.792 940.895L508.61 666.8Z" fill="#FF4545"/>
</g>
<path d="M781.29 794.005C781.711 791.68 784.862 791.252 785.888 793.381L788.399 798.593C788.858 799.545 789.878 800.094 790.925 799.952L796.658 799.174C799 798.856 800.38 801.721 798.672 803.355L794.492 807.354C793.728 808.084 793.521 809.223 793.98 810.176L796.491 815.388C797.517 817.517 795.219 819.715 793.138 818.595L788.043 815.855C787.112 815.354 785.964 815.51 785.201 816.24L781.02 820.239C779.312 821.873 776.511 820.366 776.933 818.041L777.965 812.348C778.153 811.308 777.651 810.265 776.72 809.764L771.625 807.024C769.543 805.904 770.111 802.776 772.452 802.458L778.185 801.68C779.233 801.538 780.069 800.738 780.258 799.698L781.29 794.005Z" fill="#6B2222"/>
<rect x="587.8" y="734.41" width="295.503" height="183.721" transform="rotate(-14.2245 587.8 734.41)" fill="white"/>
<path d="M787.313 779.359L744.728 820.807L730.126 763.203L787.313 779.359Z" fill="#FF4545"/>
<rect x="535.3" y="652.894" width="51.2767" height="51.2767" rx="25.6383" transform="rotate(-7.72535 535.3 652.894)" fill="#A4A4A4"/>
<line x1="555.154" y1="685.702" x2="571.507" y2="664.216" stroke="white" stroke-width="4.0217" stroke-linecap="round"/>
<line x1="2.01085" y1="-2.01085" x2="29.0121" y2="-2.01085" transform="matrix(-0.795742 -0.605636 -0.605636 0.795742 575.1 685.866)" stroke="white" stroke-width="4.0217" stroke-linecap="round"/>
<circle cx="535.91" cy="874.61" r="46.4824" transform="rotate(41.4446 535.91 874.61)" fill="#6ED1FF"/>
<path d="M517.376 890.398C516.117 891.823 516.252 893.999 517.678 895.258C519.103 896.516 521.279 896.381 522.538 894.956L519.957 892.677L517.376 890.398ZM554.16 857.62C554.042 855.722 552.407 854.279 550.51 854.397L519.581 856.319C517.683 856.437 516.24 858.071 516.358 859.969C516.476 861.867 518.11 863.31 520.008 863.192L547.5 861.484L549.208 888.976C549.326 890.874 550.96 892.317 552.858 892.199C554.756 892.081 556.199 890.447 556.081 888.549L554.16 857.62ZM519.957 892.677L522.538 894.956L553.304 860.113L550.723 857.834L548.142 855.555L517.376 890.398L519.957 892.677Z" fill="white"/>
<defs>
<filter id="filter0_d_118_26861" x="525.902" y="92.1604" width="482.36" height="390.669" filterUnits="userSpaceOnUse" color-interpolation-filters="sRGB">
<feFlood flood-opacity="0" result="BackgroundImageFix"/>
<feColorMatrix in="SourceAlpha" type="matrix" values="0 0 0 0 0 0 0 0 0 0 0 0 0 0 0 0 0 0 127 0" result="hardAlpha"/>
<feMorphology radius="9.71487" operator="erode" in="SourceAlpha" result="effect1_dropShadow_118_26861"/>
<feOffset dy="-7.28615"/>
<feGaussianBlur stdDeviation="13.4794"/>
<feComposite in2="hardAlpha" operator="out"/>
<feColorMatrix type="matrix" values="0 0 0 0 0.0237872 0 0 0 0 0.228384 0 0 0 0 0.149273 0 0 0 1 0"/>
<feBlend mode="color-burn" in2="BackgroundImageFix" result="effect1_dropShadow_118_26861"/>
<feBlend mode="normal" in="SourceGraphic" in2="effect1_dropShadow_118_26861" result="shape"/>
</filter>
<filter id="filter1_d_118_26861" x="-0.00019455" y="105.7" width="480.6" height="379.6" filterUnits="userSpaceOnUse" color-interpolation-filters="sRGB">
<feFlood flood-opacity="0" result="BackgroundImageFix"/>
<feColorMatrix in="SourceAlpha" type="matrix" values="0 0 0 0 0 0 0 0 0 0 0 0 0 0 0 0 0 0 127 0" result="hardAlpha"/>
<feMorphology radius="12" operator="erode" in="SourceAlpha" result="effect1_dropShadow_118_26861"/>
<feOffset dy="-9"/>
<feGaussianBlur stdDeviation="16.65"/>
<feComposite in2="hardAlpha" operator="out"/>
<feColorMatrix type="matrix" values="0 0 0 0 0.132212 0 0 0 0 0.101167 0 0 0 0 0.101167 0 0 0 1 0"/>
<feBlend mode="color-burn" in2="BackgroundImageFix" result="effect1_dropShadow_118_26861"/>
<feBlend mode="normal" in="SourceGraphic" in2="effect1_dropShadow_118_26861" result="shape"/>
</filter>
<filter id="filter2_d_118_26861" x="491.001" y="541.034" width="516.03" height="437.446" filterUnits="userSpaceOnUse" color-interpolation-filters="sRGB">
<feFlood flood-opacity="0" result="BackgroundImageFix"/>
<feColorMatrix in="SourceAlpha" type="matrix" values="0 0 0 0 0 0 0 0 0 0 0 0 0 0 0 0 0 0 127 0" result="hardAlpha"/>
<feMorphology radius="9.71487" operator="erode" in="SourceAlpha" result="effect1_dropShadow_118_26861"/>
<feOffset dy="-14"/>
<feGaussianBlur stdDeviation="13.4794"/>
<feComposite in2="hardAlpha" operator="out"/>
<feColorMatrix type="matrix" values="0 0 0 0 0.702224 0 0 0 0 0.0942927 0 0 0 0 0.0942927 0 0 0 1 0"/>
<feBlend mode="color-burn" in2="BackgroundImageFix" result="effect1_dropShadow_118_26861"/>
<feBlend mode="normal" in="SourceGraphic" in2="effect1_dropShadow_118_26861" result="shape"/>
</filter>
</defs>
</svg>
