<svg width="188" height="182" viewBox="0 0 188 182" fill="none" xmlns="http://www.w3.org/2000/svg">
<path d="M45.8557 49.3547C38.0939 59.7154 22.3564 80.9261 21.5004 82.8829L15.8102 133.136L6.01726 156.904L6.56979 170.644L17.4678 174.357L32.6159 161.733L38.1395 136.389L53.021 140.378L48.3955 164.812L48.8955 177.243L64.1471 178.814L73.0577 167.971L75.8835 139.459L134.576 134.695L130 154.54L119.548 173.528L140.077 172.703L146.708 163.261L154.618 127.554L155.662 153.508L151.508 172.243L159.796 174.968L177.572 163.768L171.307 89.3103L182.261 71.1754L177.02 33.8131L159.714 21.839L173.643 66.0608L141.829 82.6315L73.7085 85.3709L84.8889 55.4307L59.6567 67.1494L49.9953 65.1349L45.8557 49.3547Z" fill="white"/>
<path d="M24.8386 74.3297C27.8655 70.0299 31.9902 64.525 35.1633 60.3734C36.1583 59.0715 35.7551 59.8031 36.444 58.9108C37.7952 57.161 38.9784 55.4775 40.3258 53.7551C40.7767 53.1794 40.3756 54.0131 40.8434 53.4095C42.1433 51.7319 43.3875 50.0792 44.6249 48.4326L46.523 45.8808L47.3432 48.9644C47.8446 50.8877 48.3523 52.8172 48.8577 54.8164C49.6988 58.1433 50.5406 61.4599 51.3835 64.7708L50.2882 63.7299C53.5074 64.4255 56.7222 65.1176 59.9364 65.8076L59.0793 65.9063C67.4944 62.0584 75.8955 58.2002 84.3666 54.3059L87.1013 53.0263L86.0507 55.8645C84.3918 60.2548 82.7267 64.664 81.05 69.102C79.1208 74.2087 76.7889 80.1561 74.6948 85.7392L73.6662 84.3189C75.262 84.257 76.8271 84.1896 78.3354 84.1141C79.1689 84.0722 78.6656 83.9375 78.8237 83.9184C81.3041 83.6231 80.4894 83.9687 82.1157 83.9449C88.5705 83.8495 95.7414 83.5754 101.945 83.2661C104.584 83.1341 101.924 82.9332 104.589 82.9988C104.775 83.003 104.111 83.1943 104.836 83.1827C106.479 83.1561 109.593 83.0015 110.866 82.9633C113.32 82.8906 113.726 82.8726 116.045 82.7812C119.217 82.6577 122.992 82.5877 126.392 82.4137C127.118 82.376 126.15 82.2462 127.307 82.171C128.465 82.0958 131.532 81.9867 132.568 81.9848C133.604 81.983 133.169 82.1331 133.353 82.1561C134.869 82.3517 138.402 81.8543 138.858 81.8271C139.851 81.7693 140.828 81.7172 141.791 81.6697L141.385 81.7778C147.659 78.4369 153.372 75.6378 159.477 72.4572C164.004 70.0986 168.777 67.5564 173.214 65.2366L172.757 66.34C172.511 65.563 172.269 64.7958 172.032 64.0412C170.022 57.6206 168.396 52.1543 166.417 45.9248C166.209 45.2673 166.263 46.0979 166.007 45.2949C163.549 37.5587 161.14 29.8602 158.811 22.1233L157.976 19.4937L160.252 21.0608C160.929 21.5414 161.604 22.0229 162.279 22.5052C163.007 23.025 161.96 22.5127 162.681 23.0405C167.096 26.2689 174.014 31.4736 177.115 32.6981C177.265 32.8037 177.417 32.9103 177.57 33.0179L177.916 33.255L177.977 33.6787C178.448 37.2379 178.999 41.4196 179.293 44.5583C179.492 46.6874 179.016 44.6591 179.461 47.2466C179.561 47.8301 179.618 47.0449 179.756 47.9218C180.335 51.6139 180.849 55.6644 181.448 59.3134C181.57 60.0555 181.689 59.8315 181.745 60.0388C182.208 61.7818 182.267 64.7834 182.332 65.4305C182.539 67.4915 182.76 69.3147 182.994 71.0725L183.032 71.3297L182.895 71.5584C181.605 73.6604 180.414 75.6798 179.026 77.9734C178.471 78.8884 179.296 77.9094 178.769 78.7936C176.592 82.4419 174.327 86.1792 172.093 89.7853L172.222 89.2332C172.301 90.3186 172.376 91.3958 172.448 92.4607C172.525 93.621 172.266 92.5698 172.294 93.125C172.421 95.5729 172.787 96.0871 172.915 98.4342C172.942 98.929 172.773 98.6631 172.765 98.7546C172.633 100.185 173.091 101.379 173.129 101.741C173.622 106.317 173.499 109.279 173.924 113.703C173.975 114.233 174.058 113.022 174.191 114.511C175.077 124.43 175.909 134.929 176.589 144.764C176.695 146.293 176.465 145.214 176.456 145.312C176.322 146.9 176.764 147.884 176.819 148.381C177.246 152.301 177.256 155.996 177.905 158.629C178.032 160.323 178.164 162.015 178.298 163.707L178.337 164.144L177.96 164.384C172.006 168.096 166.091 171.844 160.172 175.564L159.895 175.74L159.576 175.637C156.813 174.725 154.053 173.809 151.297 172.885L150.718 172.698L150.848 172.097C151.964 167.201 153.107 162.317 154.304 157.451C154.354 157.247 154.444 157.653 154.543 157.245C155.031 155.232 155.239 154.192 155.341 153.437L155.334 153.521C155.199 152.43 155.004 151.967 154.727 150.001C154.609 149.162 154.91 146.583 154.93 146.356C155.006 145.525 155.302 146.371 155.312 146.094C155.386 143.798 154.536 144.206 154.411 141.119C154.409 141.022 154.584 141.421 154.59 141.162C154.607 140.355 154.512 139.559 154.535 138.769C154.589 136.961 154.984 136.301 154.629 133.557C154.583 133.21 154.113 133.762 154.026 131.004C154.009 130.472 153.952 129.057 153.896 127.584L155.324 127.711C154.982 129.243 154.622 130.839 154.454 131.522C154.128 132.846 154.176 131.898 154.148 131.991C153.15 135.531 153.366 134.153 152.666 135.882C151.966 137.611 152.796 137.272 152.714 138.022C152.631 138.773 151.88 141.365 151.679 141.997C151.477 142.63 151.557 141.803 151.397 142.37C150.337 146.128 151.383 144.12 151.22 145.399C150.835 148.416 149.791 150.601 149.139 153.296C148.963 154.025 149.217 153.455 149.084 154.109C148.555 156.702 148.044 158.219 147.546 161.191C147.499 161.467 147.413 162.375 147.242 163.38L147.155 163.576C146.741 164.233 146.259 164.923 145.782 165.42C145.626 165.583 145.878 164.986 145.205 165.891C144.2 167.243 142.431 169.71 141.428 171.218C140.687 172.331 141.751 171.206 140.727 172.543C140.305 173.094 140.868 172.093 140.275 172.842L140.208 172.939L140.087 172.945C140.013 172.943 139.926 172.943 139.824 172.944C138.426 172.952 134.856 173.102 133.497 173.161C132.141 173.22 132.89 173.36 132.781 173.376C132.121 173.468 129.521 173.655 129.291 173.664C125.989 173.803 122.759 173.914 119.567 174.014L118.709 174.052L119.122 173.294C122.693 166.939 126.208 160.784 129.7 154.375L129.667 154.463C129.829 153.745 129.991 153.025 130.151 152.301C130.343 151.435 130.036 151.971 130.063 151.838C130.672 148.862 130.599 151.302 131.231 149.271C130.808 149.488 131.153 148.283 131.595 146.189C131.808 145.18 131.544 145.696 131.551 145.601C131.686 144.063 132.195 143.088 132.312 142.833C132.742 141.894 132.75 140.765 133.04 140.125C133.33 139.485 133.173 141.075 133.632 139.075C133.634 138.485 132.96 139.893 133.256 138.363C133.471 137.254 133.744 135.965 134.055 134.575L134.62 135.229C128.652 135.756 120.769 136.216 116.961 136.503C112.259 136.857 110.742 137.004 107.999 137.179C103.045 137.496 104.878 137.6 101.816 137.965C98.7439 138.33 100.191 137.589 99.7377 137.492C99.2921 137.394 98.8285 137.57 98.2817 137.54C97.7367 137.511 98.8964 137.325 97.6263 137.401C96.3556 137.476 92.9066 137.995 92.4682 138.171C91.5416 138.543 93.1296 138.726 89.7642 138.889C89.5707 138.898 90.1839 138.685 89.4434 138.728C84.9895 138.994 80.4101 139.338 75.8989 139.648L76.0724 139.477C75.9116 140.917 75.7486 142.35 75.5809 143.768C75.4856 144.572 75.376 143.834 75.3185 144.301C74.7191 149.169 75.1971 147.455 75.271 150.163C74.8794 149.518 74.4569 150.97 74.0872 154.673C73.8648 156.899 74.0998 156.535 74.0959 157.989C74.095 158.425 73.8036 159.987 73.8679 160.282C74.0775 161.253 74.5636 159.803 74.0502 163.608C74.0272 163.774 73.9143 163.225 73.8469 163.802C73.6151 165.785 73.5831 166.851 73.55 168.019L73.536 168.167L73.4399 168.285C72.8417 169.127 72.1978 170.036 71.0013 171.521C69.4187 173.484 66.7407 176.56 64.5388 179.136L64.3683 179.346L64.0951 179.319C63.2096 179.21 62.371 179.11 61.6198 179.026C61.7479 178.527 58.3278 178.292 56.9092 178.499C54.5689 178.244 52.0376 178.003 49.7792 177.721C49.002 177.625 49.5289 177.53 49.4323 177.505C49.2415 177.452 49.0579 177.411 48.8815 177.378L48.7651 177.367L48.7598 177.249C48.8095 176.037 48.5153 175.215 48.4858 174.773C48.2569 171.192 48.2104 168.037 48.0776 164.825L48.0829 164.753C48.4012 163.061 48.6992 161.347 48.9533 159.53C48.979 159.345 48.6874 158.982 49.2027 157.65C49.2371 157.564 49.0725 159.299 49.5446 156.872C50.0169 154.445 51.0704 149.9 51.5478 146.496C51.6635 145.673 51.7719 143.555 52.3063 141.939C52.378 141.724 52.4321 141.985 52.5479 141.677C52.7348 141.176 52.7659 140.768 52.8175 140.339L52.9674 140.578C52.5481 140.495 52.1104 140.391 51.5573 140.086C50.4458 139.474 48.0288 138.59 44.6304 137.896C44.5223 137.874 43.6573 137.935 42.6068 137.649C41.3265 137.3 39.6435 136.812 38.1387 136.392C38.0348 136.862 37.9328 137.316 37.8418 137.735C37.6577 138.585 37.9482 138.079 37.9192 138.227C36.7715 143.956 35.7327 147.986 34.3333 154.086C34.0764 155.205 33.6089 158.477 32.9504 160.607C32.7486 161.261 32.5789 161.526 32.4174 161.689L32.4859 161.577C31.8981 161.654 31.7701 161.23 28.7616 163.93C27.0774 165.441 25.5805 168.116 22.0951 170.281C20.5144 171.647 18.9463 172.963 17.3845 174.257L17.5098 174.233C13.8641 172.979 10.2992 171.702 6.63083 170.465L6.75893 170.637C6.68227 168.863 6.59003 167.072 6.47023 165.249C6.44705 164.894 6.096 163.784 6.06659 162.949C6.02353 161.709 6.13915 161.023 6.11298 160.138C6.08149 159.037 6.03655 157.964 5.98564 156.905L5.988 156.892C6.92537 154.565 7.7972 152.301 8.76797 149.98C9.29187 148.727 9.24771 149.222 9.87259 147.727C10.497 146.233 10.7281 145.161 11.6511 143.168C12.3487 141.663 13.3481 140.283 14.229 138.266C13.8977 138.039 14.4807 136.646 15.4078 134.123C15.5858 133.639 15.2486 134.098 15.3263 133.866C15.4183 133.588 15.5226 133.322 15.6313 133.063L15.618 133.115C15.6978 132.442 15.8118 131.797 15.8329 131.129C15.8405 130.898 15.7084 130.873 15.707 130.684C15.6902 129.076 16.2858 126.498 16.3888 126.055C16.7817 124.358 16.6993 123.535 16.9267 122.225C17.1539 120.918 17.0286 122.897 17.2501 121.365C17.709 118.188 18.1513 114.089 18.524 110.853C18.6719 109.561 18.3942 110.422 18.4112 110.237C18.6686 107.56 19.1637 104.881 18.977 103.359C20.1031 101.611 19.0705 101.738 19.6863 97.9408C19.7352 97.6417 20.2119 97.3082 20.1447 98.4701C20.0775 99.632 19.7438 101.368 19.6616 102.981C19.6419 103.363 19.8019 105.582 19.7929 105.882C19.7221 108.226 19.0373 108.482 18.9878 108.601C18.4462 109.951 18.5829 112.656 18.534 113.359C18.3102 116.574 17.9114 119.282 17.7072 121.969C17.5729 123.727 17.9777 123.946 17.8091 125.319C17.3732 128.87 16.8087 130.583 16.5919 133.225L16.5376 133.436C16.2715 134.143 16.0119 134.93 15.7518 135.862C15.4997 136.763 16.2828 136.087 14.6754 139.025C14.5743 139.21 13.3225 141.367 12.9748 142.768C12.9312 142.944 13.0591 142.991 12.9796 143.214C12.4441 144.707 11.9412 145.644 11.3314 147.26C10.7216 148.876 10.0022 150.825 9.20852 152.63C8.73044 153.718 7.91548 155.031 7.64147 155.533C7.33768 156.087 7.09381 156.685 6.87483 157.258L6.94402 156.867C7.00682 157.82 7.09909 158.692 6.99177 159.303C6.8148 160.314 6.40601 158.368 6.37132 161.002C6.72823 161.085 7.09954 161.294 7.46084 161.437C7.5776 164.505 7.66446 167.549 7.75762 170.596L6.95311 169.519C9.47736 170.406 12.0065 171.29 14.5679 172.155C15.2475 172.384 14.6145 171.967 15.3446 172.208C16.2249 172.499 17.0691 172.792 17.9007 173.086L16.6084 173.325C18.3177 171.934 19.9925 170.614 21.8133 169.046C23.7864 167.347 25.851 165.364 27.9101 163.582C28.8304 163.131 30.2817 161.984 31.7873 160.738L31.3513 161.457C31.6346 160.181 31.9101 158.854 32.1752 157.708C32.4066 156.706 32.4974 156.796 32.6875 156.089C33.4022 153.422 32.7779 154.609 32.884 153.858C33.3404 150.637 34.1896 150.538 34.9846 146.797C35.027 146.598 35.1333 144.086 35.1797 143.747C35.4703 141.592 35.4027 143.429 35.7227 142.11C36.2368 139.992 36.6602 138.452 37.092 136.161L37.3373 135.059L38.4171 135.353C38.727 135.427 39.0509 135.502 39.3922 135.577C40.2204 135.761 42.2534 136.028 43.7891 136.654C43.9912 136.737 43.8388 136.843 44.0049 136.896C47.0154 137.847 47.2114 137.437 48.9916 137.757C50.4149 138.013 52.3679 138.716 53.3619 139.106L54.5463 139.429L54.3148 140.623C54.2357 140.879 54.1717 141.073 54.133 141.182C53.7906 142.146 53.9685 141.267 54.1139 140.585L54.3095 139.577L53.309 139.304C52.9966 139.212 52.726 139.131 52.6995 139.131C52.1438 139.14 52.5368 139.298 53.2534 139.511L54.0606 139.731L53.9028 140.545C53.7816 141.103 53.6429 141.853 53.5082 142.512C53.0351 142.651 52.6574 144.788 53.1876 144.088C53.2462 144.008 53.4305 142.814 53.5082 142.512C53.678 143.93 53.2886 146.283 52.4033 148.796C51.9887 149.972 51.9894 148.786 51.3718 152.481C51.0914 154.158 51.5105 153.569 51.3124 155.058C50.9132 158.058 50.0064 161.775 49.377 164.998L49.3936 164.772C49.4087 165.211 49.4267 165.64 49.4487 166.057C49.5163 167.337 49.6314 166.083 49.6833 166.958C49.8216 169.28 49.78 171.334 49.9374 173.665C49.9519 173.876 50.1041 173.353 50.1355 174.078C50.182 175.137 50.2225 176.17 50.2593 177.188L49.0353 175.885C53.2857 176.341 57.2768 176.825 61.8941 177.303C62.577 177.374 63.3934 177.452 64.2788 177.535L63.1536 177.998C64.8538 175.889 66.9415 173.269 68.328 171.604C69.5001 170.197 70.7935 168.688 72.0926 167.177L71.8146 167.847C72.2296 164.441 72.6556 161.021 72.8829 158.335C73.118 155.566 72.8855 156.155 72.8855 154.959C72.8844 152.65 73.6933 148.644 73.8104 148.105C73.8142 148.088 73.619 150.472 73.8333 149.211C74.0908 148.491 73.8086 148.132 73.8104 148.105C73.8867 147.751 74.3969 143.002 74.4575 142.055C74.4903 141.54 74.2986 141.811 74.3187 141.543C74.375 140.802 74.4327 140.061 74.4918 139.321L74.6128 138.153L75.7704 138.065C81.3905 137.5 87.0321 137.018 92.7433 136.622C92.8573 136.616 92.7009 136.813 92.9686 136.797C96.7131 136.575 99.0883 136.157 102.16 135.774C105.232 135.391 107.68 135.237 109.53 135.403C111.852 135.175 115.2 135.043 117.127 134.971C119.054 134.9 119.293 134.522 119.461 134.501C124.712 133.848 127.775 133.805 133.244 133.393C133.605 133.366 134.016 133.333 134.463 133.297L136.382 133.149L135.944 135.011C135.321 137.717 134.426 141.792 133.912 144.169C133.441 146.35 133.058 147.641 132.648 149.656C132.592 149.929 132.81 149.691 132.797 149.775C132.467 152.054 132.336 150.892 132.162 151.338C131.71 152.494 131.392 153.337 131.048 154.782L130.942 155.059C130.654 155.574 130.336 156.18 129.962 156.929C129.659 157.535 129.198 159.535 128.631 160.633C127.892 162.06 128.009 161.433 127.24 162.929C127.174 163.057 127.297 163.091 126.792 163.998C124.949 167.308 122.949 170.84 121.01 174.333L119.48 171.86C120.565 171.82 121.645 171.778 122.714 171.733C123.397 171.704 122.513 171.543 123.501 171.498C128.133 171.288 133.212 171.092 137.729 171.002C138.841 170.98 138.15 171.146 138.393 171.177C138.896 171.24 139.467 171.232 140.016 171.192L138.84 171.834C139.431 170.93 139.876 170.02 140.004 169.83C141.844 167.09 143.571 164.649 145.282 162.26L145.007 162.884C146.005 158.571 147.015 154.381 148.021 149.413C148.111 148.963 148.499 145.431 149.163 143.964C149.207 143.864 149.874 142.414 149.947 141.018C149.952 140.932 149.572 141.843 149.956 140.191C150.34 138.54 150.817 135.85 151.507 133.616C151.726 132.909 152.432 131.279 152.646 129.072C152.652 129.002 152.689 128.141 152.804 127.152L156.476 127.48C156.623 128.51 156.725 129.697 156.536 130.325C156.475 130.525 156.024 130.337 156.357 132.952C156.421 133.452 156.483 132.538 156.598 133.856C156.774 135.877 156.763 138.564 157.061 141.044C157.113 141.477 157.488 143.312 157.32 144.803C157.293 145.037 157.128 144.602 157.143 145.385C157.192 148.018 157.334 150.734 157.431 153.437L157.391 153.891C157.143 154.985 156.888 156.074 156.619 157.15C156.294 158.45 156.209 157.73 155.844 159.079C155.479 160.428 154.81 163.161 154.601 164.611C154.391 166.062 155.109 164.586 154.665 166.73C154.254 168.713 153.828 170.689 153.392 172.661L152.111 170.41C154.878 171.318 157.632 172.245 160.385 173.179L158.793 173.375C162.663 170.987 166.542 168.614 170.412 166.194C171.608 165.446 170.546 165.954 172.302 164.844C173.566 164.045 175.008 163.13 176.552 162.148L175.665 163.928C175.004 156.418 174.161 146.849 173.946 141.5C173.73 136.175 174.469 142.837 174.221 138.775C174.102 136.814 173.482 134.735 173.428 134.264C172.899 129.662 172.825 126.439 172.415 122.291C172.33 121.435 172.222 122.291 172.152 121.562C171.911 119.072 171.771 116.445 171.556 114.064C171.459 112.996 171.339 113.204 171.266 112.22C171.092 109.865 170.974 107.779 170.91 105.475C170.904 105.265 171.192 106.66 171.052 104.919C170.825 102.1 170.657 98.5924 170.254 95.3618C170.134 94.4033 169.818 94.3919 169.86 92.3062C169.868 91.8688 170.29 92.3905 169.763 90.0095C169.747 89.9351 169.707 89.7365 169.653 89.4494L169.61 88.9054L169.886 88.4523C170.435 87.2941 171.77 84.603 172.806 83.3332C173.142 82.9218 174.099 81.9328 174.658 80.9142C174.733 80.7755 174.262 81.2282 174.746 80.3964C176.451 77.4665 178.303 74.4349 180.059 71.4268C180.527 70.6233 179.662 71.7188 180.365 70.5242C180.436 70.4038 180.507 70.2824 180.58 70.16L180.316 71.4483C179.761 67.7535 179.172 63.2438 178.725 59.6809C178.554 58.3173 178.829 59.2378 178.831 59.1366C178.861 57.5088 178.387 56.6153 178.293 56.0897C177.713 52.8197 177.522 50.2944 177.055 47.2708C176.926 46.4363 176.846 47.052 176.808 46.8876C176.424 45.1815 176.897 46.4262 176.776 45.3291C176.438 42.2556 175.947 38.8455 175.492 35.7532C175.324 34.6174 175.314 35.9217 175.166 34.902C175.127 34.6317 175.088 34.3609 175.048 34.0896L175.887 35.45C171.066 32.1468 166.112 28.6934 161.494 25.3763C160.584 24.7221 161.248 25.0025 161.075 24.842C160.439 24.2502 159.539 23.6668 158.766 23.2084L161.302 21.3387C161.59 22.0689 161.858 22.6638 161.947 22.901C162.822 25.2132 162.986 26.1666 163.664 28.2383C166.978 38.3579 170.846 50.9234 173.815 60.5259C174.344 62.239 174.856 63.8999 175.355 65.5215L175.803 66.967L174.472 67.6527C164.953 72.53 156.883 76.6207 147.337 81.6284C146.634 81.9969 147.434 81.8005 146.829 82.1204C145.449 82.8487 144.071 83.5716 142.694 84.2911L141.905 84.5012C134.669 84.8016 127.489 85.0468 120.208 85.3861C119.483 85.4195 120.537 85.5626 119.372 85.6225C116.984 85.7468 113.956 85.8584 111.538 85.8965C110.358 85.9154 111.932 85.693 110.745 85.7153C107.981 85.7668 105.02 85.8727 102.184 86.0164C100.977 86.078 102.806 86.1941 101.237 86.2594C92.0516 86.6449 83.008 87.035 73.7844 87.2572L70.9379 87.3596L71.94 84.7104C72.491 83.3043 73.0481 81.8954 73.6124 80.4828C73.8875 79.7944 74.4757 79.3199 74.9578 77.8178C74.8992 77.6692 74.7792 77.6313 74.6903 77.5428C77.501 69.9243 80.3463 62.3649 83.2031 54.8012L85.6469 57.0628C78.9045 60.1636 72.1525 63.26 65.3693 66.3994C64.7718 66.676 65.8898 66.3817 64.7334 66.9182C63.3046 67.581 61.8858 68.2423 60.4704 68.9015L59.8803 69.1723L59.2624 69.0405C56.0418 68.3727 52.8386 67.7066 49.6058 67.0031L48.4419 66.7549L48.1494 65.6192C47.5415 63.2164 46.945 60.7894 46.366 58.3129C46.1951 57.5835 46.6398 57.864 46.0274 55.7433C45.919 55.3693 45.0294 52.1666 44.736 51.3552C44.695 51.2452 44.6868 51.8743 44.4103 50.8396C44.3187 50.496 44.227 50.1514 44.1353 49.806L47.2791 50.421C43.7692 55.1359 40.0672 60.0465 36.5143 64.6951C35.9055 65.4914 36.3962 64.5263 35.9609 65.0933C32.8775 69.1135 29.7272 73.6356 26.7832 77.4678C24.8206 80.0336 25.2686 78.8736 24.0285 80.1134C23.8481 80.2905 22.7253 81.9242 22.5232 81.9238C22.0017 81.907 22.1452 80.8097 21.5221 80.8923C21.4507 80.9088 21.0692 81.4789 20.7799 81.9334C20.6581 82.1162 20.4965 82.4058 20.4648 82.4234C20.4444 82.4386 20.4433 82.3955 20.4735 82.287C20.489 82.2325 20.5124 82.1622 20.5508 82.0674C20.5812 81.9869 20.6063 81.9155 20.6529 81.8078C20.7016 81.6611 21.7435 79.9483 21.9473 79.517C22.0944 79.2022 21.5911 79.6143 21.9352 78.9868C22.2545 78.3969 22.8235 77.847 23.4061 76.8762C24.0036 75.8856 23.5342 76.1869 24.8386 74.3297ZM125.803 134.646C127.594 134.673 127.806 134.025 125.895 134.331C125.803 134.347 125.71 134.645 125.803 134.646ZM8.90384 170.743C11.0218 171.757 12.6637 171.886 11.1755 171.152C9.68754 170.42 8.25843 170.434 8.90384 170.743ZM9.55935 149.508C8.31904 151.944 8.97962 152.68 9.92504 149.913C9.98029 149.752 9.63178 149.365 9.55935 149.508ZM28.5969 73.5728C28.5716 73.593 27.7279 74.7438 27.7092 74.7844C27.4207 75.523 29.1242 73.1982 28.5969 73.5728ZM16.7743 126.727C16.5588 127.559 16.4215 130.009 16.6894 128.975C16.9049 128.143 17.0425 125.691 16.7743 126.727ZM148.824 153.303C148.839 153.277 149.071 152.27 149.015 152.278C148.833 152.31 148.569 153.725 148.824 153.303ZM21.3526 86.2025C20.6413 92.1858 19.4988 95.7331 20.3196 89.2225C20.4682 88.0435 20.2647 91.7936 20.5008 90.2983C20.9323 87.5621 20.6798 85.6842 21.2436 82.906C21.3462 82.4031 21.3948 85.8613 21.3524 86.2132C21.3524 86.2096 21.3525 86.206 21.3526 86.2025ZM126.888 135.316C126.924 135.321 128.351 135.213 128.385 135.202C129.141 134.94 126.266 135.158 126.888 135.316ZM153.643 161.228C153.608 161.301 152.873 164.541 152.865 164.65C152.809 166.413 154.296 159.863 153.643 161.228ZM61.5644 179.007C59.9901 179.046 58.129 178.878 56.9163 178.5C58.459 178.672 60.0131 178.835 61.5644 179.007Z" fill="white"/>
<path d="M57.1812 15.3456L61.3895 15.1763L62.2064 35.4922L57.9981 35.6614L57.1812 15.3456ZM62.0594 31.8353L70.3598 31.5015L70.5069 35.1584L62.2064 35.4922L62.0594 31.8353ZM86.5659 34.5126L82.4157 34.6795L81.7621 18.4268L85.9124 18.2599L86.5659 34.5126ZM82.0819 26.379L82.6805 29.6979C82.7007 30.201 82.6459 30.7652 82.516 31.3906C82.4054 32.0152 82.1587 32.6259 81.7757 33.2227C81.4113 33.7993 80.8689 34.2863 80.1484 34.6834C79.428 35.0806 78.4776 35.303 77.2974 35.3504C76.2525 35.3924 75.3153 35.2169 74.4855 34.824C73.6558 34.431 72.9889 33.7504 72.4848 32.7823C71.9808 31.8142 71.6957 30.5079 71.6296 28.8633L71.2269 18.8505L75.3481 18.6847L75.7356 28.3203C75.7613 28.9587 75.833 29.5373 75.9507 30.0558C76.0685 30.5743 76.3081 30.991 76.6696 31.3059C77.0303 31.6015 77.5783 31.7345 78.3135 31.7049C78.894 31.6816 79.4872 31.493 80.0931 31.1392C80.699 30.7854 81.19 30.223 81.5659 29.4521C81.9613 28.6804 82.1333 27.656 82.0819 26.379ZM88.6305 18.1506L92.7807 17.9837L92.8811 20.4797C93.0729 19.9487 93.3631 19.4525 93.7515 18.9912C94.1592 18.5291 94.6963 18.1489 95.3626 17.8508C96.0475 17.5326 96.8929 17.3532 97.8991 17.3128C98.9439 17.2708 99.8812 17.4463 100.711 17.8392C101.541 18.2322 102.208 18.9128 102.712 19.8809C103.215 20.8296 103.5 22.136 103.567 23.7999L103.97 33.8127L99.8193 33.9796L99.4318 24.3441C99.4061 23.7056 99.3344 23.1271 99.2167 22.6086C99.0981 22.0707 98.8585 21.654 98.4978 21.3584C98.1564 21.0621 97.6181 20.9287 96.8829 20.9583C96.3024 20.9816 95.7092 21.1702 95.1033 21.524C94.4974 21.8778 93.9968 22.4406 93.6015 23.2123C93.2247 23.9639 93.0624 24.9878 93.1145 26.2842L93.4343 34.2364L89.2841 34.4033L88.6305 18.1506ZM116.154 24.0205L120.304 23.8536L120.678 33.1408L116.528 33.3077L116.154 24.0205ZM112.982 16.7062C115.285 16.6137 117.053 17.2111 118.287 18.4987C119.54 19.7855 120.213 21.5705 120.304 23.8536L116.154 24.0205C116.126 23.3239 116.033 22.6978 115.875 22.1422C115.716 21.5672 115.417 21.1141 114.978 20.783C114.557 20.451 113.941 20.3014 113.128 20.3341C112.103 20.3753 111.339 20.6676 110.838 21.211C110.355 21.7343 110.127 22.3346 110.154 23.0118L105.83 23.1857C105.786 22.0828 106.035 21.0553 106.578 20.1033C107.12 19.1319 107.932 18.3434 109.012 17.738C110.092 17.1132 111.415 16.7693 112.982 16.7062ZM116.523 23.0754L117.244 25.8081C114.957 25.8031 113.321 26.0918 112.337 26.674C111.371 27.2361 110.903 27.9041 110.935 28.678C110.956 29.2004 111.165 29.5796 111.562 29.8156C111.978 30.0508 112.448 30.1579 112.97 30.1369C113.473 30.1166 113.983 30.0186 114.499 29.8428C115.034 29.6663 115.467 29.3485 115.798 28.8894C116.147 28.4296 116.305 27.7644 116.27 26.8937L117.105 28.1392C117.148 29.2227 116.984 30.1983 116.612 31.066C116.239 31.9143 115.685 32.5955 114.95 33.1095C114.234 33.6228 113.354 33.9005 112.309 33.9425C111.245 33.9853 110.289 33.8299 109.442 33.4764C108.613 33.1028 107.941 32.5484 107.427 31.8132C106.932 31.0773 106.663 30.1676 106.62 29.0841C106.578 28.0393 106.746 27.1701 107.125 26.4766C107.524 25.7823 108.063 25.2276 108.744 24.8127C109.444 24.3775 110.225 24.0457 111.088 23.8172C111.97 23.588 112.875 23.4256 113.801 23.3302C114.746 23.2147 115.653 23.1298 116.523 23.0754Z" fill="#614F4F"/>
<rect x="139.602" y="1.65321" width="41.1486" height="41.1486" rx="20.5743" transform="rotate(-2.3028 139.602 1.65321)" fill="#A4A4A4"/>
<line x1="152.976" y1="29.3693" x2="167.669" y2="13.4445" stroke="white" stroke-width="3.22734" stroke-linecap="round"/>
<line x1="1.61367" y1="-1.61367" x2="23.2817" y2="-1.61367" transform="matrix(-0.734948 -0.678124 -0.678124 0.734948 168.898 31.0128)" stroke="white" stroke-width="3.22734" stroke-linecap="round"/>
<path d="M21.6609 90.6904C36.4875 95.2029 48.6904 74.7029 52.9557 64.3139L51.2555 64.3822L46.6781 45.8342L21.2165 79.6393L21.6609 90.6904Z" fill="#6F6F6F"/>
<path d="M160.016 143.452L174.446 121.159L177.873 164.02L160.016 143.452Z" fill="#6F6F6F"/>
<path d="M61.4292 95.0515C50.4114 92.0887 48.7525 72.7138 52.9558 64.314L58.9748 65.7749L87.0083 53.5786L75.0626 84.7115L143.069 81.9767L171.782 65.4958L167.205 46.9478L180.195 52.3856L183.089 71.4271L172.79 90.5733L173.56 109.7L102.746 106.162L61.4292 95.0515Z" fill="#6F6F6F"/>
</svg>
