<svg width="605" height="552" viewBox="0 0 605 552" fill="none" xmlns="http://www.w3.org/2000/svg">
<path d="M352 9.23535H594V275.207H352V9.23535Z" fill="#02985E"/>
<path d="M532.9 282.65C510.476 281.054 492.824 288.107 465.492 287.11C438.161 286.113 434.067 282.372 402.766 283.214C384.743 283.698 366.713 283.055 352 282.716L344.672 282.889L344.491 275.207C344.741 264.369 344.826 255.33 344.174 249.419C342.636 235.482 347.285 234.011 346.252 214.221C345.22 194.431 345.827 182.436 347.338 165.128C348.849 147.819 350.139 94.644 348.283 75.3079C346.426 55.9715 349.647 33.9175 350.411 20.6544C350.649 16.5231 350.975 13.2719 351.313 10.7794C351.457 9.72352 351.757 9.23572 352.054 9.23535C352.054 9.23535 352.054 9.23535 352.055 9.23535C352.424 9.23571 352.787 9.99203 352.834 11.3491C353.06 17.9365 353.658 27.7816 354.997 39.4122C357.495 61.0983 354.735 63.4681 356.018 92.7519C357.302 122.035 359.867 139.629 358.208 174.085C356.549 208.54 363.492 216.454 359.557 265.091C359.266 268.69 359.037 272.05 358.861 275.207L352 268.346C391.515 270.544 399.225 264.252 444.107 263.358C492.575 262.392 553.756 266.398 582.973 266.066C586.507 266.026 590.187 265.978 594 265.927L584.72 275.207C584.349 247.493 583.797 212.767 584.639 176.357C585.598 134.938 583.179 83.8078 584.888 38.088C585.226 29.0692 585.58 19.3143 585.944 9.23535L594 17.2917C552.985 15.8132 506.605 14.1926 482.634 13.0311C452.773 11.5842 445.495 11.2578 416.753 12.1419C400.231 12.6501 377.472 12.1711 358.247 10.3021C348.572 9.36145 350.764 8.05177 360.503 7.42512C374.743 6.50881 386.433 7.12096 393.771 5.4842C408.433 2.21307 414.664 0.958209 433.174 2.86213C451.682 4.76583 460.404 0.439372 471.193 0.937331C481.983 1.43554 481.806 3.98746 536.667 2.02131C559.797 1.19237 578.521 0.623733 594 0.207879L602.809 -0.000225794L603.027 9.23535C603.598 30.4718 603.881 45.6 604.154 57.6171C604.626 78.3932 602.411 121.775 603.211 155.635C603.92 185.668 603.423 243.219 604.215 275.207L604.451 285.176L594 285.423C589.924 285.523 586.264 285.645 583.128 285.793C555.38 287.102 555.323 284.245 532.9 282.65Z" fill="#6ED1FF"/>
<rect x="432.326" y="91.1587" width="139.179" height="110.537" rx="7.1594" transform="rotate(23.66 432.326 91.1587)" fill="#FF5656"/>
<path d="M419.975 113.256C435.765 120.175 442.957 138.584 436.039 154.374C429.121 170.165 410.712 177.357 394.921 170.438C379.131 163.52 371.939 145.111 378.857 129.321C385.775 113.53 404.184 106.338 419.975 113.256ZM412.228 130.937C406.203 128.298 399.179 131.043 396.539 137.068C393.899 143.093 396.643 150.117 402.668 152.757C408.693 155.397 415.718 152.653 418.358 146.627C420.998 140.602 418.253 133.577 412.228 130.937Z" fill="#FF5656"/>
<ellipse cx="493.825" cy="124.2" rx="69.5894" ry="13.6029" transform="rotate(23.66 493.825 124.2)" fill="#614F4F"/>
<path d="M449.006 179.832C449.006 180.928 448.755 181.91 448.252 182.777C447.75 183.645 447.05 184.33 446.152 184.832C445.254 185.319 444.204 185.563 443.002 185.563C441.693 185.563 440.544 185.281 439.554 184.718C438.58 184.139 437.819 183.34 437.271 182.321C436.738 181.301 436.472 180.137 436.472 178.828C436.472 177.503 436.738 176.332 437.271 175.312C437.819 174.292 438.58 173.493 439.554 172.915C440.544 172.336 441.693 172.047 443.002 172.047C444.158 172.047 445.186 172.306 446.084 172.823C446.982 173.326 447.682 173.988 448.184 174.81C448.701 175.616 448.96 176.491 448.96 177.435H445.513C445.513 177.024 445.429 176.636 445.262 176.271C445.094 175.905 444.828 175.609 444.463 175.38C444.097 175.137 443.61 175.015 443.002 175.015C442.225 175.015 441.601 175.182 441.129 175.517C440.658 175.852 440.315 176.309 440.102 176.887C439.904 177.465 439.805 178.112 439.805 178.828C439.805 179.528 439.904 180.167 440.102 180.745C440.315 181.309 440.658 181.758 441.129 182.092C441.601 182.427 442.225 182.595 443.002 182.595C443.61 182.595 444.105 182.465 444.486 182.207C444.866 181.948 445.148 181.613 445.33 181.202C445.513 180.776 445.604 180.319 445.604 179.832H449.006ZM456.624 185.563C455.315 185.563 454.166 185.281 453.177 184.718C452.202 184.139 451.441 183.34 450.893 182.321C450.361 181.301 450.094 180.137 450.094 178.828C450.094 177.503 450.361 176.332 450.893 175.312C451.441 174.292 452.202 173.493 453.177 172.915C454.166 172.336 455.315 172.047 456.624 172.047C457.948 172.047 459.097 172.336 460.071 172.915C461.045 173.493 461.799 174.292 462.331 175.312C462.879 176.332 463.153 177.503 463.153 178.828C463.153 180.137 462.879 181.301 462.331 182.321C461.799 183.34 461.045 184.139 460.071 184.718C459.097 185.281 457.948 185.563 456.624 185.563ZM456.624 182.64C457.37 182.64 457.971 182.473 458.427 182.138C458.899 181.788 459.249 181.324 459.478 180.745C459.706 180.167 459.82 179.528 459.82 178.828C459.82 178.112 459.706 177.465 459.478 176.887C459.249 176.293 458.899 175.829 458.427 175.494C457.971 175.144 457.37 174.969 456.624 174.969C455.893 174.969 455.292 175.144 454.82 175.494C454.348 175.829 453.998 176.293 453.77 176.887C453.542 177.465 453.428 178.112 453.428 178.828C453.428 179.528 453.542 180.167 453.77 180.745C453.998 181.324 454.348 181.788 454.82 182.138C455.292 182.473 455.893 182.64 456.624 182.64ZM465.443 185.197V172.001C465.443 171.119 465.603 170.388 465.922 169.81C466.257 169.231 466.759 168.798 467.429 168.508C468.099 168.219 468.928 168.075 469.917 168.075H471.082V170.86H469.94C469.118 170.86 468.707 171.24 468.707 172.001V185.197H465.443ZM463.982 172.412H470.99V175.198H463.982V172.412ZM473.692 185.197V172.001C473.692 171.119 473.852 170.388 474.171 169.81C474.506 169.231 475.008 168.798 475.678 168.508C476.348 168.219 477.177 168.075 478.167 168.075H479.331V170.86H478.189C477.368 170.86 476.957 171.24 476.957 172.001V185.197H473.692ZM472.231 172.412H479.24V175.198H472.231V172.412ZM486.566 185.563C485.257 185.563 484.108 185.281 483.119 184.718C482.145 184.139 481.384 183.34 480.836 182.321C480.303 181.301 480.037 180.137 480.037 178.828C480.037 177.503 480.303 176.332 480.836 175.312C481.384 174.292 482.145 173.493 483.119 172.915C484.108 172.336 485.257 172.047 486.566 172.047C487.434 172.047 488.256 172.222 489.032 172.572C489.808 172.922 490.478 173.432 491.041 174.102C491.604 174.771 492.015 175.593 492.274 176.567C492.532 177.542 492.571 178.653 492.388 179.901H481.886V177.252H490.173L489.123 177.869C489.199 177.427 489.154 176.986 488.986 176.545C488.834 176.088 488.56 175.715 488.164 175.426C487.769 175.122 487.236 174.969 486.566 174.969C485.79 174.969 485.166 175.144 484.694 175.494C484.222 175.829 483.88 176.293 483.667 176.887C483.469 177.465 483.37 178.112 483.37 178.828C483.37 179.528 483.469 180.167 483.667 180.745C483.88 181.324 484.222 181.788 484.694 182.138C485.166 182.473 485.79 182.64 486.566 182.64C487.19 182.64 487.708 182.496 488.119 182.207C488.53 181.917 488.819 181.56 488.986 181.133H492.434C492.251 182.016 491.893 182.792 491.361 183.462C490.828 184.117 490.151 184.634 489.329 185.015C488.522 185.38 487.601 185.563 486.566 185.563ZM500.144 185.563C498.835 185.563 497.686 185.281 496.697 184.718C495.722 184.139 494.961 183.34 494.414 182.321C493.881 181.301 493.614 180.137 493.614 178.828C493.614 177.503 493.881 176.332 494.414 175.312C494.961 174.292 495.722 173.493 496.697 172.915C497.686 172.336 498.835 172.047 500.144 172.047C501.011 172.047 501.833 172.222 502.61 172.572C503.386 172.922 504.055 173.432 504.619 174.102C505.182 174.771 505.593 175.593 505.851 176.567C506.11 177.542 506.148 178.653 505.966 179.901H495.464V177.252H503.751L502.701 177.869C502.777 177.427 502.731 176.986 502.564 176.545C502.412 176.088 502.138 175.715 501.742 175.426C501.346 175.122 500.814 174.969 500.144 174.969C499.368 174.969 498.744 175.144 498.272 175.494C497.8 175.829 497.458 176.293 497.244 176.887C497.047 177.465 496.948 178.112 496.948 178.828C496.948 179.528 497.047 180.167 497.244 180.745C497.458 181.324 497.8 181.788 498.272 182.138C498.744 182.473 499.368 182.64 500.144 182.64C500.768 182.64 501.285 182.496 501.696 182.207C502.107 181.917 502.396 181.56 502.564 181.133H506.011C505.829 182.016 505.471 182.792 504.938 183.462C504.406 184.117 503.728 184.634 502.906 185.015C502.1 185.38 501.179 185.563 500.144 185.563Z" fill="white"/>
<path d="M375.652 55.0654C375.652 52.752 375.858 50.5831 376.269 48.5588C376.695 46.5345 377.319 44.7157 378.141 43.1024C378.963 41.4891 379.96 40.1497 381.131 39.0843H383.506V41.3445C382.608 42.1968 381.832 43.2318 381.177 44.4494C380.523 45.667 380.013 47.1434 379.648 48.8784C379.297 50.6135 379.122 52.6759 379.122 55.0654H375.652ZM372.433 39.0843H382.638V41.9609H372.433V39.0843ZM384.77 51.5724H388.263V55.0654H384.77V51.5724ZM384.77 42.2805H388.263V45.7735H384.77V42.2805ZM396.452 55.4307C394.899 55.4307 393.621 55.0578 392.616 54.312C391.627 53.551 390.889 52.5389 390.402 51.2756C389.93 50.0123 389.694 48.6045 389.694 47.052C389.694 45.9105 389.823 44.8375 390.082 43.833C390.356 42.8132 390.767 41.9229 391.315 41.1618C391.878 40.4008 392.586 39.8073 393.438 39.3811C394.29 38.9397 395.295 38.719 396.452 38.719C397.608 38.719 398.605 38.9397 399.442 39.3811C400.295 39.8073 400.995 40.4008 401.543 41.1618C402.106 41.9229 402.517 42.8132 402.776 43.833C403.05 44.8375 403.187 45.9105 403.187 47.052C403.187 48.6045 402.943 50.0123 402.456 51.2756C401.984 52.5389 401.246 53.551 400.241 54.312C399.252 55.0578 397.989 55.4307 396.452 55.4307ZM396.452 52.4171C397.258 52.4171 397.898 52.1584 398.369 51.6409C398.856 51.1234 399.206 50.4613 399.42 49.6547C399.633 48.8328 399.739 47.9652 399.739 47.052C399.739 46.154 399.633 45.3017 399.42 44.4951C399.206 43.6732 398.856 43.0111 398.369 42.5088C397.898 41.9913 397.258 41.7326 396.452 41.7326C395.645 41.7326 394.998 41.9913 394.511 42.5088C394.024 43.0111 393.674 43.6732 393.461 44.4951C393.248 45.3017 393.141 46.154 393.141 47.052C393.141 47.9652 393.248 48.8328 393.461 49.6547C393.674 50.4613 394.024 51.1234 394.511 51.6409C394.998 52.1584 395.645 52.4171 396.452 52.4171ZM404.179 55.0654C404.194 53.9239 404.361 52.9422 404.681 52.1203C405.016 51.2984 405.442 50.5907 405.959 49.9971C406.492 49.4035 407.071 48.9013 407.695 48.4903C408.319 48.0642 408.943 47.6837 409.567 47.3488C410.191 47.014 410.761 46.6944 411.279 46.39C411.796 46.0703 412.207 45.7355 412.512 45.3854C412.831 45.0201 412.991 44.5864 412.991 44.0841C412.991 43.3231 412.77 42.7447 412.329 42.349C411.903 41.9381 411.287 41.7326 410.48 41.7326C409.582 41.7326 408.927 41.9457 408.516 42.3718C408.106 42.798 407.862 43.3916 407.786 44.1526H404.316C404.316 43.072 404.582 42.1283 405.115 41.3217C405.647 40.4998 406.37 39.8605 407.284 39.4039C408.197 38.9473 409.224 38.719 410.366 38.719C411.659 38.719 412.755 38.9549 413.653 39.4267C414.566 39.8986 415.259 40.5454 415.731 41.3673C416.203 42.174 416.439 43.0796 416.439 44.0841C416.439 44.8908 416.286 45.5757 415.982 46.1388C415.693 46.6867 415.297 47.1586 414.795 47.5543C414.308 47.95 413.767 48.3153 413.174 48.6501C412.58 48.9698 411.987 49.3046 411.393 49.6547C410.799 50.0047 410.252 50.4157 409.749 50.8875C409.262 51.3593 408.867 51.9301 408.562 52.5998C408.273 53.2695 408.128 54.0913 408.128 55.0654H404.179ZM406.074 52.1888H416.484V55.0654H404.179L406.074 52.1888ZM426.902 39.0843H430.052L425.463 55.0654H422.084L426.902 39.0843ZM431.582 39.0843L436.399 55.0654H433.02L428.431 39.0843H431.582ZM424.938 48.8328H433.545V51.7094H424.938V48.8328ZM444.138 55.0654L440.006 39.0843H443.385L447.289 55.0654H444.138ZM448.818 55.0654H445.668L449.572 39.0843H452.951L448.818 55.0654ZM438.042 39.0843H441.239V55.0654H438.042V39.0843ZM451.718 39.0843H454.914V55.0654H451.718V39.0843Z" fill="white"/>
<ellipse cx="334.155" cy="418.802" rx="259.871" ry="62.2977" fill="#D9D9D9"/>
<rect x="232.514" y="313.986" width="313.103" height="12.1531" rx="6.07656" transform="rotate(9.90167 232.514 313.986)" fill="#FFA200"/>
<rect x="228.334" y="325.121" width="313.103" height="12.1531" rx="6.07656" transform="rotate(9.90167 228.334 325.121)" fill="#02985E" fill-opacity="0.38"/>
<rect x="218.684" y="335.773" width="330.693" height="27.5044" rx="8.63511" transform="rotate(9.90167 218.684 335.773)" fill="#97602D"/>
<rect x="235.821" y="288.978" width="313.103" height="26.8648" rx="5.75674" transform="rotate(9.90167 235.821 288.978)" fill="#97602D"/>
<path d="M402.14 244.041C403.192 243.778 404.306 243.972 405.207 244.576L539.524 334.616C542.968 336.925 540.812 342.297 536.727 341.584L245.532 290.754C241.447 290.041 241.239 284.255 245.261 283.25L402.14 244.041Z" fill="#F2BB8C"/>
<path d="M473.842 352.574C483.781 357.514 490.153 367.426 492.348 379.579C494.544 391.732 492.544 406.067 485.779 419.679C479.014 433.292 468.796 443.543 457.784 449.132C446.771 454.721 435.022 455.628 425.083 450.689C415.144 445.75 408.771 435.837 406.576 423.684C404.38 411.531 406.38 397.196 413.145 383.583C419.91 369.971 430.128 359.72 441.141 354.131C452.153 348.542 463.903 347.635 473.842 352.574Z" fill="white" stroke="white" stroke-width="1.77994"/>
<circle cx="443.546" cy="414.233" r="24.7806" transform="rotate(26.4255 443.546 414.233)" fill="#FF9D00" stroke="white" stroke-width="1.77994"/>
<path d="M89.3305 219.371L109.654 203.698L127.937 227.125L96.8585 242.827L89.3305 219.371Z" fill="#614F4F" fill-opacity="0.88"/>
<path d="M103.585 359.084L96.5952 240.427L126.248 224.326L216.093 359.901L392.788 377.596L386.119 414.616L210.048 441.062L103.585 359.084Z" fill="#FFCC00"/>
<path d="M143.983 344.353L126.028 263.089L154.238 345.154L212.502 393.797L308.404 393.14L293.302 400.107L205.605 402.82L143.983 344.353Z" fill="#614F4F"/>
<path d="M382.931 377.16L394.999 376.794L399.222 400.839L391.256 413.732L378.1 415.599L382.931 377.16Z" fill="#614F4F"/>
<ellipse cx="389.424" cy="303.694" rx="2.6699" ry="5.33981" transform="rotate(-33.3543 389.424 303.694)" fill="#FFF0CC"/>
<ellipse cx="436.493" cy="290.307" rx="2.6699" ry="5.33981" transform="rotate(59.6644 436.493 290.307)" fill="#FFF0CC"/>
<ellipse cx="459.999" cy="310.844" rx="2.6699" ry="5.33981" transform="rotate(-22.9912 459.999 310.844)" fill="#FFF0CC"/>
<ellipse cx="334.994" cy="289.551" rx="2.6699" ry="5.33981" transform="rotate(71.2516 334.994 289.551)" fill="#FFF0CC"/>
<ellipse cx="382.954" cy="269.572" rx="2.6699" ry="5.33981" transform="rotate(76.4755 382.954 269.572)" fill="#FFF0CC"/>
<rect x="503" y="48.2705" width="12.4451" height="53.0992" transform="rotate(-14.1159 503 48.2705)" fill="white"/>
<circle cx="526.182" cy="114.09" r="8.08934" transform="rotate(-14.1159 526.182 114.09)" fill="white"/>
</svg>
