<svg width="300" height="664" viewBox="0 0 300 664" fill="none" xmlns="http://www.w3.org/2000/svg">
<rect x="162.276" y="139.648" width="18.8474" height="513.157" transform="rotate(6.90641 162.276 139.648)" fill="#A2A2A2"/>
<circle cx="174.783" cy="124.551" r="111.906" transform="rotate(6.90641 174.783 124.551)" fill="#02985E"/>
<path d="M73.8998 69.6419C82.1777 56.2476 87.9196 44.1791 103.722 32.1322C120.047 21.1477 123.336 20.6461 144.357 13.5664C160.335 8.80067 177.27 9.09873 188.586 10.6011C192.509 11.0833 195.782 11.6302 198.297 11.9948C208.089 13.6969 208.743 15.4297 221.721 20.4502C234.564 25.9904 241.614 31.1699 250.401 39.5779C260.364 47.1244 280.468 78.8389 283.505 92.3319C288.261 105.18 288.103 121.047 287.179 130.159C286.937 133.045 286.594 135.255 286.27 136.971C286.132 137.695 285.972 138.019 285.857 138.005C285.857 138.005 285.857 138.005 285.857 138.005C285.712 137.987 285.637 137.448 285.72 136.513C286.121 132.001 286.339 125.147 285.291 117.229C282.752 102.666 284.1 100.566 276.594 81.9906C267.889 64.0365 260.276 54.328 242.924 38.8555C224.504 25.1401 218.529 23.2711 187.876 16.46C187.464 16.3912 187.046 16.3236 186.625 16.2573C154.028 13.4079 149.483 17.3802 121.192 31.6385C92.1782 46.9628 70.4514 84.5578 68.3874 104.217C67.9576 106.566 67.5966 108.973 67.3063 111.533C65.0617 129.935 67.9229 153.888 79.3184 175.565C91.6341 200.656 120.632 223.351 150.622 230.16C154.116 231.036 157.836 231.781 161.728 232.336C191.14 237.787 226.926 224.208 240.93 212.961C257.094 200.609 260.749 196.508 270.878 179.698C276.471 169.854 282.192 155.256 284.862 142.229C286.158 135.67 286.546 137.222 285.72 143.952C284.371 153.825 281.442 161.504 280.147 166.499C277.353 176.444 275.807 180.931 267.744 191.278C259.402 201.327 256.007 206.66 250.122 211.655C243.571 215.483 245.563 219.076 209.596 233.91C189.698 240.598 173.304 240.557 160.886 239.285C150.102 238.102 142.029 235.842 135.509 233.613C121.12 229.469 94.3812 211.787 80.692 191.577C66.3873 175.017 55.4061 133.552 59.7069 110.612C60.0218 107.686 60.3927 105.122 60.7569 102.881C64.7123 83.3573 66.3423 83.5873 73.8998 69.6419Z" fill="#02985E"/>
<rect x="133.495" y="63.781" width="96.593" height="96.593" rx="25.9152" transform="rotate(6.90641 133.495 63.781)" fill="white"/>
<rect x="131.304" y="140.643" width="15.3135" height="34.1609" rx="7.65676" transform="rotate(6.90641 131.304 140.643)" fill="white"/>
<rect x="197.961" y="148.717" width="15.3135" height="34.1609" rx="7.65676" transform="rotate(6.90641 197.961 148.717)" fill="white"/>
<circle cx="139.862" cy="143.459" r="6.4788" transform="rotate(6.90641 139.862 143.459)" fill="#02985E"/>
<circle cx="201.841" cy="150.967" r="6.4788" transform="rotate(6.90641 201.841 150.967)" fill="#02985E"/>
<rect x="151.184" y="143.051" width="40.0507" height="12.9576" transform="rotate(6.90641 151.184 143.051)" fill="#02985E"/>
<rect x="155.892" y="74.7998" width="48.2965" height="7.06778" rx="3.53389" transform="rotate(6.90641 155.892 74.7998)" fill="#02985E"/>
<path d="M140.159 87.133L215.001 96.1984L215.128 129.438L130.93 119.239L140.159 87.133Z" fill="#02985E"/>
<path d="M252.72 83.7835C253.128 85.0107 251.146 81.2728 252.221 83.8941C251.905 83.402 251.582 82.9107 251.257 82.4258C251.307 82.2233 251.353 82.0171 251.4 81.8134C251.848 82.4629 252.288 83.1176 252.721 83.7831C252.721 83.7832 252.721 83.7834 252.72 83.7835ZM254.858 83.8211C254.133 83.3769 252.87 81.4295 253.79 83.7953C254.013 83.8976 254.239 84.0053 254.462 84.1099C254.792 84.9287 255.111 85.7534 255.416 86.5767C255.609 86.8289 255.802 87.0822 255.992 87.3374C255.951 87.807 255.903 88.2722 255.854 88.7389C255.731 88.4066 255.605 88.0704 255.478 87.7395C254.665 86.5899 254.042 85.5258 253.075 83.9046C253.105 84.0777 253.136 84.2508 253.166 84.4238C252.784 83.5425 252.388 82.667 251.979 81.8004C252.494 82.4561 253.058 83.2004 253.519 83.8248C253.254 82.5547 251.934 80.7957 251.251 79.8893C250.322 78.6535 250.666 78.8447 249.965 77.9369C249.852 77.7922 249.72 77.8567 249.515 77.5603C248.492 76.0546 246.422 73.1847 247.935 74.6401C249.683 77.0848 251.339 79.0723 252.787 81.6576C252.715 80.7867 253.657 82.0363 254.858 83.8211ZM214.34 47.2742C215.243 47.495 216.864 48.4031 217.898 49.1182C217.899 49.1189 217.9 49.1196 217.901 49.1202C218.13 49.2772 218.554 49.7984 217.771 49.3605C216.496 48.6533 216.043 47.9784 215.233 47.8758C214.948 47.6768 214.643 47.4767 214.34 47.2742ZM211.439 45.9581C210.653 45.508 211.15 45.3897 212.15 45.9264C212.15 45.9262 212.15 45.926 212.15 45.9257C212.565 46.1525 211.626 45.9812 213.261 46.4685C213.494 46.7849 213.727 47.0846 213.953 47.3954C213.582 47.2204 213.241 47.0647 212.848 46.8854C213.242 46.7273 212.223 46.4088 211.439 45.9581ZM246.882 73.523C246.573 73.58 246.941 74.0486 247.385 74.9723C246.827 74.2037 246.257 73.4421 245.677 72.6943C246.081 72.9676 246.48 73.2416 246.882 73.523ZM258.143 92.8521C258.144 92.8535 258.144 92.8548 258.145 92.8561C258.309 93.127 258.471 93.3987 258.63 93.6668C258.61 93.8774 258.589 94.0857 258.567 94.2957C259.071 95.2798 259.559 96.282 260.029 97.2907C259.701 97.2668 259.05 95.392 258.437 94.4677C257.91 92.9398 257.745 92.1526 257.94 91.9519C258.009 92.2507 258.076 92.5493 258.143 92.8521ZM85.5001 147.043C85.6586 147.393 85.8182 147.738 85.9806 148.085C85.9114 147.592 85.8376 147.101 85.782 146.603C85.1697 145.394 85.4589 145.211 85.1476 143.525C84.297 138.354 83.9094 139.75 84.3271 134.968C84.5966 138.757 84.8695 137.267 85.4212 139.5C85.2487 140.002 84.4706 137.802 84.5431 139.348C85.1019 141.954 85.729 144.439 86.4856 147.268C86.5066 147.176 86.5279 147.084 86.5492 146.992C86.4292 146.54 86.3149 146.098 86.2025 145.647C86.4014 146.119 86.6001 146.573 86.8101 147.051C86.4413 146.47 86.9136 148.047 86.599 147.891C86.4573 147.822 86.1368 147.146 85.9357 146.747C86.0962 147.85 86.2882 148.976 86.4937 150.08C86.2607 149.539 86.0325 148.994 85.8101 148.449C85.7029 147.983 85.6009 147.52 85.5008 147.051C85.5006 147.049 85.5003 147.046 85.5001 147.043ZM260.964 156.231C260.814 157.652 259.999 160.07 259.208 161.198C259.843 159.555 260.426 157.907 260.964 156.231ZM258.091 91.7689C258.111 91.934 258.128 92.0943 258.147 92.2593C257.785 91.6527 257.414 91.0478 257.039 90.4529C257.11 90.2723 257.18 90.0884 257.248 89.9035C257.535 90.5201 257.817 91.1449 258.091 91.7689ZM230.632 56.8922C231.041 57.2007 231.075 57.232 231.561 57.6451C231.561 57.6445 231.56 57.644 231.56 57.6434C231.757 57.8022 233.336 59.2109 233.083 59.1458C232.278 58.4733 231.411 57.7695 230.564 57.1103C230.582 57.0341 230.62 56.9739 230.632 56.8922ZM239.805 65.1675C239.806 65.1687 239.807 65.1699 239.808 65.1711C240.063 65.456 240.29 65.7395 240.558 66.029C239.453 65.1243 239.513 64.7517 238.535 63.9046C237.552 63.0628 236.861 62.6438 236.339 61.5936C236.682 61.8228 237.065 62.0562 237.421 62.2919C238.638 63.6794 239.094 63.9153 240.248 64.8535C240.1 64.9581 239.953 65.0627 239.805 65.1675ZM84.565 123.739C84.3757 123.376 84.6017 122.994 84.6066 122.954C84.6068 122.955 84.607 122.956 84.6072 122.956C84.627 119.839 84.6771 123.362 84.938 120.447C84.9519 120.884 84.9724 121.315 84.9934 121.749C84.8453 122.406 84.6899 123.089 84.565 123.739ZM139.282 45.1113C139.332 45.1554 139.388 45.1974 139.438 45.2416C137.816 45.9299 137.512 46.3347 136.103 46.7633C137.148 46.1923 138.208 45.6414 139.282 45.1106C139.282 45.1108 139.282 45.1111 139.282 45.1113ZM223.613 51.4281C225.329 52.3799 226.566 53.1537 227.993 54.3959C227.994 54.397 227.995 54.398 227.996 54.399C228.078 54.4711 227.578 54.2693 227.674 54.3774C228.001 54.5867 228.343 54.7973 228.672 55.0104C228.656 55.1233 228.637 55.2347 228.62 55.347C227.75 54.6737 226.868 54.015 225.969 53.3701C226.071 53.5108 226.176 53.6533 226.277 53.7943C225.487 53.2886 224.696 52.7994 223.893 52.3195C224.256 52.3558 224.619 52.3941 224.98 52.4324C224.528 52.0937 224.071 51.7594 223.613 51.4281ZM114.241 60.3434C114.518 60.1847 114.161 60.6514 114.559 60.3716C114.956 60.0912 115.548 59.4143 115.513 59.6917C115.038 60.1367 114.547 60.6109 114.075 61.0748C115.87 59.8917 117.31 58.3157 117.6 58.6137C115.963 59.8281 114.737 60.9752 113.377 62.4015C113.206 62.105 114.477 60.5563 113.348 61.1725C113.641 60.8971 113.95 60.6087 114.238 60.3469C114.239 60.3457 114.24 60.3446 114.241 60.3434ZM269.437 118.847C269.547 120.091 269.894 122.987 269.754 124.579C269.725 124.973 269.15 126.29 269.068 126.284C268.797 126.25 268.718 124.678 268.585 126.368C268.571 125.801 268.544 125.252 268.517 124.691C268.339 124.799 268.161 124.905 267.983 125.008C268.035 125.686 268.079 126.367 268.117 127.05C268.057 127.085 267.997 127.119 267.937 127.153C267.888 124.704 267.685 126.154 267.429 124.899C267.363 126.063 267.275 127.236 267.166 128.398C267.18 127.727 267.18 126.938 267.183 126.35C266.874 126.278 266.97 127.678 266.911 127.92C266.632 129.265 266.627 122.408 266.073 121.878C266.1 122.972 266.112 124.12 266.1 125.23C266.034 124.913 265.966 124.593 265.896 124.278C266.094 121.737 265.969 118.901 265.76 115.94C265.711 115.678 265.661 115.415 265.611 115.157C265.485 115.254 265.357 115.347 265.23 115.443C265.157 115.048 265.082 114.654 265.003 114.257C265.633 115.361 265.402 113.733 265.317 111.724C265.67 112.737 265.779 114.051 266.061 113.915C265.273 110.342 264.658 106.106 263.404 102.757C263.091 101.929 262.738 102.047 262.141 100.069C262.204 100.122 262.281 100.11 262.348 100.136C261.053 96.8011 260.187 94.8288 258.878 91.3561C258.837 91.6085 258.793 91.8573 258.75 92.1086C259.127 92.8011 259.495 93.4959 259.852 94.1935C259.833 94.7761 259.463 94.0749 260.303 96.2543C260.972 98.0492 260.669 96.9449 260.913 97.4104C261.24 98.0417 261.271 98.6859 261.611 99.3716C261.871 99.904 261.858 99.2375 262.283 100.715C261.861 100.201 261.424 99.6839 260.989 99.1811C260.922 98.8119 260.855 98.4454 260.784 98.0766C260.971 98.4086 261.153 98.7365 261.337 99.072C260.798 97.855 260.266 96.7181 259.655 95.4871C260.149 95.7736 259.511 94.5005 259.177 93.8088C258.658 92.7304 259.278 93.5814 258.936 92.8736C258.589 92.1645 258.004 91.497 257.462 90.1892C257.925 90.8119 257.62 89.8142 257.836 89.9336C258.055 90.0522 258.712 91.4131 258.253 90.0275C256.956 87.559 257.745 90.5247 256.857 88.8742C255.774 86.9071 256.311 86.0212 256.799 86.5298C257.183 86.9304 257.97 88.594 258.333 89.0143C257.149 85.9237 256.608 86.1655 256.263 85.7161C254.96 84.1086 256.53 84.8095 255.018 82.8796C255.209 82.8231 255.378 82.7689 255.562 82.7168C255.324 82.3693 255.144 82.1512 254.864 81.7282C255.287 83.2088 254.69 82.1419 254.372 81.6055C253.868 80.7599 254.485 82.1608 254.311 81.9609C253.847 81.4196 253.32 80.4455 253.53 81.112C253.439 80.8117 253.333 80.4881 253.233 80.1807C252.549 79.2442 250.405 77.4484 251.927 79.4968C251.546 79.4578 251.223 78.6897 250.905 78.1298C250.587 77.5704 250.435 77.6878 250.146 77.2017C248.985 75.2762 250.089 76.2922 250.505 76.443C248.637 74.1095 250.265 76.5285 247.613 73.1609C247.198 72.9594 248.211 74.6644 247.124 73.4307C247.226 72.9731 246.71 71.8394 245.288 69.9385C245.076 69.8152 244.864 69.6939 244.652 69.5727C244.067 68.3767 244.77 68.6311 242.862 67.1209C244.288 67.5706 243.353 67.2258 242.108 65.4374C241.853 65.0746 242.664 65.7056 242.302 65.2032C242.138 64.9752 241.587 64.5676 241.179 64.0168C240.982 63.7468 240.096 62.4316 239.219 61.7868C239.528 62.5991 237.847 61.4165 238.885 62.8449C236.629 60.562 234.806 59.2112 237.815 61.2674C237.294 60.6268 236.762 59.992 236.222 59.3641C235.735 59.0508 235.242 58.7387 234.748 58.4323C234.877 58.1481 235.012 58.1222 233.232 56.7331C234.037 57.2939 234.833 57.8659 235.625 58.4561C235.691 58.4313 235.836 58.473 235.85 58.4064C234.871 57.6874 232.201 55.5835 231.49 55.1577C230.789 54.7198 232.033 55.7077 231.797 55.6256C229.843 54.9363 230.256 54.6582 229.052 53.9126C228.345 53.48 229.897 54.6995 229.523 54.462C228.143 53.5777 227.719 52.861 226.514 52.0381C226.833 52.4897 227.143 52.9434 227.441 53.3927C226.203 52.5124 224.792 51.5797 223.562 50.8848C223.079 50.6122 223.357 50.9573 223.275 50.9177C222.87 50.7182 221.271 49.8491 221.103 49.7563C219.849 49.0296 219.912 48.8342 218.678 48.1438C219.174 48.3941 219.637 48.6342 220.117 48.8875C220.493 48.725 220.875 48.5672 221.254 48.4085C220.055 47.6876 218.836 46.993 217.602 46.3258C218.462 46.8951 219.314 47.4789 220.154 48.0758C218.628 47.5211 217.101 47.0142 215.561 46.5468C214.892 46.0346 214.22 45.5335 213.535 45.0386C211.465 44.1434 211.616 44.9448 210.862 43.991C210.233 43.7772 209.603 43.5706 208.97 43.3701C209.088 43.3287 209.206 43.287 209.325 43.2461C208.563 42.9945 207.799 42.7526 207.031 42.5215C207.718 43.088 208.372 43.6705 209.03 44.2408C207.562 43.7218 207.617 43.4901 207.422 43.3473C206.901 42.972 205.673 42.7599 205.261 42.4572C205.122 42.3507 206.619 42.7144 206.186 42.3595C206.106 42.2884 204.384 40.9464 203.064 40.7004C203.05 40.827 203.101 41.0041 203.11 41.1499C201.401 40.684 200.715 39.8207 200.991 39.7077C200.044 39.5619 198.698 39.2131 198.458 39.3588C197.985 39.2402 197.522 39.128 197.051 39.0176C197.66 38.6623 195.665 38.276 195.443 38.6611C196.253 38.8544 197.059 39.0591 197.86 39.2736C197.12 39.6336 199.51 40.4798 194.518 38.8452C193.594 38.3697 196.252 39.266 195.497 38.8943C194.133 38.466 192.809 38.2978 191.513 37.8753C189.894 37.3664 191.974 37.4521 188.045 37.1577C196.462 39.2967 186.817 37.3 182.76 37.3025C181.836 36.5799 179.046 36.0851 175.109 36.1842C174.599 36.1973 174.071 36.2205 173.528 36.2546C173.821 36.3693 174.457 36.3738 175.109 36.3781C175.564 36.3808 176.025 36.3831 176.378 36.4156C177.234 36.4966 176.306 36.5996 177.369 36.7172C178.431 36.8311 180.674 37.0675 181.737 37.2948C180.814 37.3184 176.345 37.4241 179.307 37.2132C177.668 36.9915 176.668 36.817 175.109 36.7297C174.582 36.7015 173.993 36.6852 173.297 36.6891C172.478 37.0304 172.547 37.1983 169.883 37.3432C171.449 36.8143 168.375 36.6821 169.017 36.1898C170.943 36.1808 169.899 36.6859 171.005 36.8437C171.117 36.8561 172.883 36.6844 173.297 36.6891C171.497 36.3309 170.863 36.2214 171.956 35.7043C170.682 35.789 169.885 35.7791 169.779 36.0108C169.507 35.928 169.232 35.8464 168.963 35.7657C168.546 35.7955 168.172 35.8314 167.731 35.8642C168.364 36.1578 167.171 36.0359 166.355 36.2696C165.539 36.5072 166.683 36.6503 164.402 36.9044C165.17 36.896 165.873 36.8923 166.608 36.9006C165.16 37.1215 163.69 37.3807 162.256 37.6709C163.303 37.726 165.552 37.7852 165.519 38.0689C164.836 38.028 162.581 38.4975 162.337 38.5463C161.382 38.7115 161.88 38.4659 161.807 38.4718C160.283 38.6098 159.047 38.8925 158.43 38.7402C157.321 39.0669 156.459 39.172 155.265 39.4427C154.609 39.5932 154.78 39.7528 154.389 39.8056C151.802 40.1959 154.127 39.2877 149.396 41.1003C150.018 41.0571 150.633 41.0256 151.255 40.9964C150.721 41.1942 150.194 41.3961 149.666 41.6033C149.297 41.686 148.931 41.7699 148.563 41.8572C148.485 41.5768 148.409 41.2954 148.332 41.015C147.929 41.1219 147.52 41.2339 147.115 41.3473C147.794 41.0991 148.473 40.86 149.155 40.6288C149.203 40.5611 149.248 40.4947 149.297 40.4271C148.248 40.6517 147.202 40.8943 146.156 41.1574C146.168 41.2599 146.181 41.3629 146.193 41.4654C143.863 42.1083 143.775 42.0519 141.731 43.1354C140.083 43.7778 138.93 44.738 138.077 45.3136C137.721 45.4103 137.366 45.5087 137.007 45.6115C136.83 45.7856 136.652 45.961 136.477 46.1361C136.01 46.2266 135.538 46.3235 135.069 46.4232C134.954 46.7788 134.87 46.8973 136.534 46.2104C136.114 46.7582 133.217 48.0332 132.039 48.5624C131.139 48.9559 131.962 48.1945 131.839 48.2237C131.422 48.3152 130.053 49.1924 129.752 49.3484C128.466 49.9993 127.611 50.5338 126.477 51.1755C126.256 51.2995 125.565 51.5353 125.511 51.5641C125.101 51.7916 124.09 52.3622 123.98 52.4352C118.346 56.2385 124.664 52.6146 119.567 56.2957C119.777 56.2598 119.974 56.2334 120.181 56.2016C119.808 56.4933 119.434 56.7907 119.066 57.088C118.544 57.3948 119.016 56.8226 118.162 57.6637C118.145 57.5192 118.129 57.3742 118.116 57.2274C117.751 57.6051 117.405 57.9728 117.037 58.3638C116.113 58.556 113.746 60.5094 113.578 59.9989C113.514 59.8193 115.046 58.2407 114.055 58.8681C113.324 59.4658 113.937 59.1955 113.657 59.4586C111.649 61.3721 111.588 61.074 110.818 61.9119C110.774 62.1242 110.727 62.3446 110.683 62.5604C110.353 62.8331 110.024 63.1091 109.694 63.3896C109.683 63.5182 109.668 63.6498 109.657 63.7782C109.943 63.4965 110.266 63.1811 110.532 62.9266C110.367 63.4947 107.241 66.9963 108.274 65.5103C108.693 64.9011 109.663 63.973 108.802 64.3195C107.962 65.2661 107.027 66.3559 106.187 67.3868C106.099 67.3641 106.012 67.3392 105.924 67.3166C104.781 68.7018 106.1 67.6851 106.227 67.8047C105.961 68.1143 105.694 68.4286 105.432 68.7418C105.26 68.8222 105.09 68.8942 104.915 68.9837C105 69.0784 105.069 69.4357 104.214 70.3049C103.665 70.867 104.197 69.7088 103.291 70.8997C103.515 70.9351 104.029 70.6608 103.051 72.0002C102.789 72.0041 102.502 72.0698 102.254 72.0404C101.147 73.8044 100.33 74.3754 99.1314 76.5108C98.371 77.8675 97.6758 79.9067 96.4879 80.3486C95.8821 81.3039 96.2385 81.0987 96.1043 81.4074C95.4789 82.8636 94.5906 83.7059 94.4277 83.9543C93.4016 85.5334 93.1341 86.3403 92.2944 87.6337C92.4619 87.6236 92.6055 87.6443 92.7621 87.6481C93.1926 86.3003 93.5214 85.6701 94.5057 83.9721C94.2125 84.5635 93.9279 85.1553 93.6485 85.7508C93.8031 85.7106 93.9572 85.6718 94.1092 85.6359C96.6334 80.1166 96.5449 81.7145 94.29 86.2181C93.8948 86.5015 93.4942 86.8037 93.103 87.0921C92.0953 89.8645 91.2561 90.983 89.9313 94.0269C89.7738 94.3885 89.3682 95.7715 89.1613 96.3531C89.1657 96.3437 89.1701 96.3344 89.1744 96.3251C89.2341 96.7568 89.5045 96.3029 89.6992 96.3106C89.604 96.6299 89.5096 96.9518 89.4185 97.2703C89.0363 97.9193 89.0083 97.633 88.5653 99.0269C88.7614 98.8851 88.957 98.747 89.1537 98.6075C88.6397 100.114 88.1746 101.073 87.8145 102.511C87.8345 102.257 87.8545 102.005 87.8766 101.751C86.8317 104.818 86.7535 102.114 86.49 104.598C86.3799 104.731 86.2704 104.861 86.1609 104.995C86.4027 104.004 86.6613 103.018 86.9338 102.044C86.8422 101.995 86.7515 101.944 86.6588 101.899C86.3755 102.952 86.11 104.018 85.8637 105.084C85.999 104.294 86.1457 103.502 86.3014 102.716C85.9034 103.919 85.5272 105.142 85.1801 106.358C85.8658 105.143 85.4923 106.844 85.9314 106.614C85.116 108.705 84.3218 110.353 84.0194 113.832C83.9666 114.525 84.2666 114.186 83.6877 116.074C84.1531 115.662 84.042 118.103 84.4733 117.836C84.5316 117.164 84.6077 116.47 84.6738 115.822C84.4401 116.538 84.0503 116.616 84.0952 115.476C84.1493 114.025 84.7749 111.969 84.3531 111.985C84.475 111.417 84.5866 110.89 84.7121 110.342C84.768 110.589 84.8265 110.831 84.8851 111.072C85.0262 109.48 85.3021 108.494 85.725 107.807C85.3569 109.679 85.0508 111.542 84.8002 113.428C84.8631 113.155 84.928 112.878 84.9927 112.606C85.0185 114.065 85.489 112.651 85.1456 115.29C85.0279 115.256 84.9097 115.226 84.7914 115.192C84.9619 116.196 84.6566 118.833 85.1251 118.034C84.9219 118.816 84.8343 118.977 84.9897 119.443C84.5046 121.502 84.0792 122.853 83.6982 122.067C83.713 122.861 83.7378 123.663 83.7736 124.444C83.9098 123.995 84.0488 123.547 84.1918 123.096C84.1059 124.466 84.0509 125.832 84.0266 127.202C83.6698 127.327 83.985 124.562 83.6542 125.352C83.5861 125.51 83.699 126.253 83.6608 126.446C83.2458 128.494 83.5789 125.273 83.2794 125.872C83.1694 128.027 82.9296 127.455 82.9171 128.398C82.9153 128.797 82.9556 129.47 83.107 130.725C83.0098 130.839 82.9111 130.962 82.8148 131.068C82.8564 132.541 83.0788 132.404 83.1876 133.667C83.2581 134.457 82.9321 135.48 83.2759 136.329C83.344 136.477 83.6795 134.986 83.9535 138.04C84.2009 140.42 83.7525 139.471 83.7959 140.772C83.8345 142.073 84.7932 144.926 84.4398 145.877C84.3815 145.197 84.266 144.337 84.2006 143.582C84.0469 143.296 83.8969 143.016 83.7471 142.731C84.1456 144.425 84.3223 146.205 84.8056 147.293C84.8958 149.641 85.8999 152.048 86.1421 151.265C85.897 150.55 85.9132 151.391 85.7774 150.346C85.8495 150.217 85.9201 150.084 85.9928 149.956C86.3975 151.684 86.7416 152.883 86.2301 152.175C86.2946 152.445 86.3597 152.712 86.4266 152.982C86.6537 152.971 86.8801 152.953 87.1071 152.941C87.2193 153.252 87.3333 153.562 87.4488 153.87C87.5036 154.234 87.5604 154.599 87.6202 154.966C87.1464 154.593 86.8666 153.779 87.5228 156.53C87.6408 156.501 87.7596 156.476 87.8776 156.447C88.4695 158.733 88.1967 158.887 89.2625 161.665C88.0447 159.68 88.3635 158.25 87.564 158.534C87.4295 157.973 87.2996 157.406 87.1757 156.842C87.0322 156.797 86.8888 156.752 86.7467 156.709C87.7234 159.666 90.352 164.102 90.7349 166.185C90.8964 166.385 91.0513 166.59 91.2204 166.791C91.7765 168.758 92.8108 169.224 93.3815 171.224C93.4472 171.429 92.6107 171.362 93.93 173.704C93.9745 173.602 94.0875 173.499 94.1585 173.398C94.393 173.93 94.629 174.459 94.8705 174.984C94.9935 175.033 95.1191 175.087 95.2426 175.135C94.7712 174.268 94.3153 173.396 93.8715 172.514C94.288 173.221 94.716 173.926 95.1503 174.619C94.7321 173.628 94.5035 173.208 95.0037 173.662C95.4697 174.459 95.9485 175.249 96.4374 176.03C96.5335 176.082 96.63 176.134 96.7262 176.187C96.6328 175.721 96.539 175.254 96.4561 174.788C97.5563 176.911 98.6836 178.655 99.461 180.352C99.5966 180.639 98.7818 179.853 100.169 181.495C100.096 181.588 100.055 181.688 99.9913 181.778C101.783 183.724 102.222 184.459 103.768 186.733C102.817 185.222 103.703 186.54 104.079 186.814C104.335 187.003 103.563 186.078 103.714 186.131C103.862 186.189 105.107 187.182 104.292 186.128C101.72 183.997 101.798 182.808 99.1571 179.54C99.5912 180.028 100.033 180.514 100.476 180.99C100.349 180.708 100.237 180.455 100.102 180.149C101.332 182.136 100.754 181.157 101.396 181.874C102.041 182.59 103.16 183.925 103.909 184.816C104.145 185.098 103.783 184.89 104.292 185.545C104.637 185.994 105.797 187.033 105.829 187.474C105.854 187.765 103.862 186.176 106.116 188.795C106.418 189.396 105.366 188.112 105.33 188.096C104.978 187.999 106.259 189.715 107.042 190.335C107.105 190.385 106.699 189.705 107.313 190.288C108.774 191.665 109.452 192.609 110.202 193.701C110.505 193.598 111.929 194.545 113.402 196.03C113.536 196.042 113.667 196.05 113.801 196.061C113.532 195.875 113.264 195.687 112.997 195.499C112.772 195.221 112.524 194.937 112.315 194.656C113.892 196.043 114.385 195.938 115.227 196.494C118.132 198.354 115.894 197.797 115.301 197.524C115.01 197.176 114.738 196.829 114.458 196.477C114.429 196.584 114.4 196.692 114.367 196.797C118.277 200.174 114.528 197.812 116.428 199.653C117.266 199.71 118.779 200.893 120.582 202.605C120.803 202.765 121.025 202.926 121.249 203.083C121.327 203.052 121.391 202.963 121.478 202.969C123.937 204.621 123.985 205.508 124.178 205.731C125.055 206.689 126.126 206.839 126.441 207.031C127.777 207.836 128.067 208.232 129.399 208.9C130.836 209.607 129.956 208.94 130.445 209.06C130.836 209.159 131.947 209.739 132.458 209.88C132.234 209.864 131.99 209.835 131.767 209.818C133.164 210.699 134.324 211.419 136.011 212.243C138.198 212.541 139.426 214.242 139.105 213.133C137.497 212.379 136.643 211.865 135.888 211.255C136.946 211.724 138.014 212.175 139.091 212.604C139.363 212.828 139.546 213.01 139.877 213.257C140.754 213.401 142.59 214.216 143.355 214.427C146.925 215.393 145.946 214.683 148.981 216.251C146.648 215.602 146.55 215.877 144.286 215.046C144.705 215.419 145.885 215.775 145.05 215.753C147.294 216.446 146.647 215.985 147.574 216.075C148.371 216.151 149.882 216.58 149.859 216.341C149.98 216.502 150.067 216.65 150.189 216.811C151.647 217.22 153.11 217.592 154.583 217.927C153.926 217.908 153.27 217.882 152.613 217.848C153.074 218.013 153.539 218.175 154.005 218.333C157.713 218.864 163.981 220.449 163.096 219.31C164.874 219.505 165.089 219.644 166.039 219.93C166.153 219.865 166.263 219.813 166.377 219.739C167.518 219.925 168.424 219.709 169.436 219.846C170.452 219.979 170.692 220.254 170.86 219.812C171.509 219.971 172.16 220.101 172.813 220.238C173.212 220.145 173.61 220.051 174.003 219.954C174.371 219.99 174.739 220.024 175.109 220.056C175.362 220.078 175.615 220.098 175.868 220.118C176.2 219.907 178.633 219.948 179.687 219.742C180.713 219.916 180.739 220.666 183.131 220.341C183.054 220.166 182.977 219.992 182.901 219.816C183.45 219.808 183.999 219.795 184.552 219.776C184.591 219.832 184.625 219.888 184.665 219.943C184.381 219.954 184.106 219.963 183.825 219.97C184.077 220.047 184.323 220.123 184.572 220.198C185.399 219.965 186.22 219.721 187.036 219.465C185.899 219.5 184.744 219.515 183.617 219.506C185.009 219.243 186.018 219.259 187.219 218.952C188.314 219.056 187.945 219.251 187.547 219.579C187.941 219.503 188.338 219.424 188.73 219.342C188.507 219.645 189.209 219.725 186.873 220.013C187.043 220.069 187.217 220.121 187.384 220.18C187.766 220.117 188.023 220.148 188.438 220.058C189.567 219.813 190.372 219.192 190.264 219.041C190.209 218.963 189.113 219.307 189.138 219.176C189.208 218.859 191.781 218.603 188.05 218.863C189.24 218.496 189.539 218.597 190.895 218.422C190.772 218.341 190.653 218.26 190.535 218.179C191.166 218.118 191.795 218.051 192.423 217.977C191.65 218.659 196.294 217.933 192.232 219.196C193.465 218.989 194.699 218.755 195.924 218.498C195.685 218.607 195.445 218.715 195.204 218.823C194.644 218.918 194.084 219.008 193.525 219.093C194.196 219.057 194.873 219.011 195.546 218.959C197.06 218.492 197.609 218.157 198.247 217.759C196.441 218.044 197.074 218.12 195.697 218.487C195.713 218.335 195.62 218.221 195.707 218.045C196.492 218.181 198.759 217.386 199.29 217.218C200.907 216.724 199.71 217.364 200.8 217.06C201.891 216.752 203.11 216.188 204.082 216.173C204.015 216.023 203.892 215.885 203.782 215.765C205.434 215.159 205.16 215.445 205.342 215.412C208.221 214.829 209.586 213.933 212.612 212.556C212.205 212.682 211.796 212.812 211.385 212.936C213.541 211.608 212.043 212.411 209.998 213.135C211.888 212.389 212.831 211.633 214.082 210.948C215.338 210.267 217.587 209.283 218.428 208.955C216.713 210.096 214.664 210.976 212.609 211.957C212.914 212.002 213.202 212.026 213.523 212.08C214.641 211.18 215.46 211.033 215.895 210.87C217.164 210.388 216.986 210.137 217.858 210.047C217.777 209.964 217.713 209.893 217.635 209.816C220.12 208.576 222.809 207.202 224.116 205.882C224.398 206.019 224.641 206.168 224.949 206.294C225.837 205.486 226.79 205.094 227.586 204.487C228.375 203.881 227.944 203.923 228.842 203.179C229.008 203.041 229.451 202.887 229.819 202.491C230.197 202.095 231.301 200.312 231.883 200.673C232.667 200.059 233.413 199.484 234.169 198.865C233.463 199.504 232.747 200.132 232.025 200.747C232.76 200.369 233.486 199.982 234.214 199.582C234.205 199.407 234.193 199.231 234.181 199.061C235.744 197.524 237.078 196.64 238.645 195.079C238.904 194.817 238.09 195.221 239.311 194.137C240.52 193.044 241.762 192.548 243.501 190.347C243.589 190.234 243.847 189.361 244.707 188.788C244.904 188.657 244.343 189.439 244.749 189.099C245.16 188.764 246.715 187.015 246.977 186.991C246.908 186.967 246.76 187.035 246.661 187.045C246.889 186.716 247.117 186.382 247.343 186.047C247.461 186.093 247.581 186.137 247.699 186.183C248.904 184.195 249.262 182.997 251.313 180.294C250.63 180.983 249.937 181.659 249.239 182.318C249.186 182.6 249.132 182.884 249.078 183.164C248.109 184.388 247.107 185.59 246.079 186.761C246.025 187.048 245.972 187.332 245.914 187.62C245.634 187.927 245.354 188.229 245.07 188.531C245.06 188.386 245.051 188.241 245.044 188.093C244.531 188.732 244.009 189.365 243.482 189.987C244.153 188.368 246.54 186.507 246.013 186.348C246.305 186.114 246.597 185.878 246.888 185.64C246.797 185.361 247.32 184.827 248.147 183.803C247.869 183.97 247.573 184.161 247.309 184.304C248.229 183.405 249.556 181.571 250.358 180.519C250.712 180.058 250.527 180.635 250.642 180.505C251.242 179.836 251.918 178.252 252.127 177.967C253.389 176.266 254.612 175.376 255.417 173.16C254.153 175.196 254.829 174.083 254.219 174.711C254.028 174.908 252.333 177.478 254.351 174.196C254.64 173.848 258.233 167.81 257.448 169.997C257.875 168.933 258.161 168.079 258.505 167.092C260.307 165.109 259.235 165.597 258.551 166.098C258.721 165.718 258.878 165.355 259.049 164.962C259.102 165.983 260.953 161.706 261.257 160.13C261.37 159.609 260.726 160.945 261.085 159.777C261.313 159.244 261.57 158.638 261.801 158.068C261.248 158.817 261.71 157.134 261.428 157.067C262.018 156.097 262.783 155.433 262.878 156.11C263.044 155.19 263.196 154.269 263.333 153.347C263.151 153.741 262.966 154.139 262.779 154.529C263.834 151.69 264.28 147.823 264.985 147.323C265.064 146.927 265.14 146.532 265.213 146.139C265.137 145.999 265.06 145.862 264.984 145.722C265.409 143.969 265.785 142.19 266.106 140.411C265.953 142.016 266.04 142.418 265.643 144.074C265.868 143.45 266.09 142.806 266.301 142.189C266.344 139.623 266.22 139.242 266.633 135.444C266.661 135.276 267.092 132.383 267.111 132.289C267.246 131.84 267.388 132.536 267.455 132.336C267.662 131.789 268.134 128.338 268.183 128.399C269.12 129.249 268.397 140.987 267.695 144.102C262.745 176.904 238.839 204.798 208.203 216.245C207.888 216.365 208.065 216.42 207.932 216.475C207.103 216.815 206.223 216.937 205.909 217.038C205.24 217.253 205.659 217.282 205.172 217.447C200.13 219.141 195.213 220.252 189.973 221.12C189.63 221.176 189.96 220.992 189.361 221.108C189.056 221.168 188.115 221.509 187.411 221.603C184.948 221.931 182.883 222.061 180.265 222.211C178.844 222.293 176.715 222.339 175.109 222.338C175.105 222.338 175.102 222.338 175.099 222.338C174.39 222.339 173.652 222.422 172.954 222.41C171.964 222.39 172.173 222.206 172.021 222.19C171.358 222.117 171.259 222.318 170.628 222.284C169.452 222.215 169.391 222.078 167.9 221.982C166.836 221.917 164.392 221.784 163.048 221.636C159.948 221.092 156.029 220.427 153.155 219.781C151.459 219.4 151.352 219.163 150.665 218.983C148.253 218.332 146.37 218.002 144.142 217.238C141.191 216.217 138.685 215.028 135.945 213.76C135.502 213.553 135.53 213.76 135.092 213.56C133.473 212.821 131.425 211.809 130.048 211.023C128.509 210.144 128.073 209.598 126.568 208.755C126.128 208.505 125.883 208.619 125.146 208.192C123.968 207.508 122.837 206.521 122.069 205.967C121.019 205.204 121.813 206.04 120.4 205.002C120.342 204.959 120.223 204.675 119.915 204.46C119.02 203.831 119.027 204.003 117.759 203.019C117.633 202.928 116.062 201.489 115.903 201.351C114.934 200.573 113.075 198.899 112.511 198.428C110.488 196.749 111.841 198.324 110.573 196.412C109.771 195.83 108.981 195.242 108.156 194.587C108.725 195.003 106.873 192.862 106.738 192.718C105.555 191.576 106.06 192.44 104.691 190.865C106.879 192.6 102.945 188.823 102.196 187.859C98.4594 183.357 95.5626 178.866 92.715 173.732C91.7611 172.016 90.474 169.703 89.6094 167.812C89.4067 167.371 89.6621 167.657 89.4871 167.268C89.3128 166.879 89.3921 167.362 89.1982 166.916C88.0006 164.126 87.3615 161.842 86.165 159.328C86.1616 159.186 86.1951 159.179 86.1673 158.953C85.1489 156.896 84.2866 152.586 83.967 150.983C83.4406 148.482 83.1377 147.862 82.8176 146.035C82.3856 143.604 82.259 139.896 81.9034 141.61C81.6509 139.942 81.4598 138.303 81.3674 136.607C81.3572 136.417 81.5161 136.535 81.5127 136.459C81.4936 135.979 81.3495 135.833 81.3188 135.508C81.2386 134.628 81.4997 136.055 81.367 134.802C81.3021 134.142 81.1506 133.761 81.0752 131.929C81.0309 130.767 81.008 129.589 81.0078 128.398C80.9781 118.264 82.7623 107.54 86.1169 97.8915C86.3738 97.1526 86.0675 97.5912 86.4041 96.669C87.5422 93.4367 90.2275 87.9536 91.588 85.3486C92.9244 82.7367 92.4402 83.2237 93.2679 81.5733C93.4306 81.256 93.3884 81.5686 93.551 81.2907C94.6396 79.4209 96.1805 77.3381 97.1841 75.91C97.8497 74.9631 97.6447 74.9342 98.0948 74.2673C98.7685 73.2746 99.6543 72.3976 100.044 71.8925C101.877 69.5197 103.077 67.8308 104.998 65.7857C104.894 65.8399 104.817 65.8686 104.725 65.9109C106.937 63.4315 109.276 61.072 111.735 58.8387C111.594 58.9163 111.457 58.9905 111.315 59.0685C114.223 56.4641 114.19 57.1101 113.357 56.6684C113.553 56.4592 113.76 56.236 113.95 56.0385C114.158 56.4509 116.153 55.156 118.61 53.4455C118.788 53.3181 119.717 52.0924 119.891 52.6032C120.127 52.2756 120.263 52.0715 120.464 51.7922C121.07 51.5497 121.684 51.3077 122.293 51.0785C122.562 50.8667 122.836 50.6542 123.106 50.4456C123.093 50.3339 123.002 50.2687 123.039 50.1256C124.345 49.2186 127.188 47.6144 128.274 46.9899C130.954 45.4015 133.682 43.7245 136.012 42.9844C137.076 42.4698 135.921 42.7672 137.543 42.0782C137.765 42.0903 137.975 42.104 138.206 42.1171C139.354 41.1468 139.736 41.2753 141.605 40.6526C142.874 40.2379 143.652 39.8422 144.859 39.4522C145.165 39.3543 145.164 39.4932 145.371 39.4194C146.061 39.1675 148.013 38.37 148.511 38.2245C153.027 36.8556 156.99 36.0254 161.44 35.4156C161.917 35.3517 161.281 35.3125 161.775 35.2473C162.57 35.1449 162.13 35.4068 162.591 35.3542C163.878 35.2151 163.862 34.9988 165.667 34.8003C168.634 34.4852 171.849 34.3436 175.109 34.3816C178.344 34.417 181.591 34.6292 184.662 34.9477C184.856 34.9674 184.857 34.844 185.069 34.8649C186.447 35.0036 187.809 35.3468 189.04 35.5285C191.094 35.8354 192.658 35.9423 194.667 36.364C198.596 37.2035 202.024 38.2406 205.925 39.5911C209.106 40.7076 211.838 41.7869 215.186 43.3589C229.793 50.2148 243.123 60.9291 252.3 74.4469C252.533 74.7902 252.347 74.7138 252.423 74.8148C253.145 75.7768 253.323 75.7887 253.306 76.313C254.199 77.5531 254.658 77.8341 255.615 79.4222C256.118 80.2717 255.438 79.8199 256.44 81.1618C257.322 82.3887 256.728 80.8226 258.67 84.8683C258.72 84.9766 258.798 85.5922 259.265 86.3988C259.728 87.2133 259.402 86.1668 260.419 88.1803C262.803 92.921 264.981 99.2989 266.52 105.258C266.634 105.621 267.577 109.228 267.752 109.942C268.123 111.316 268.234 110.993 268.585 112.816C268.848 114.234 268.836 115.414 269.074 117.082C269.101 117.276 269.333 117.581 269.437 118.847ZM87.2535 152.749C87.5253 153.024 88.3253 153.423 88.7211 155.404C88.7598 155.594 88.0037 154.741 88.2674 155.834C87.8898 154.802 87.5724 153.785 87.2528 152.749C87.253 152.749 87.2533 152.749 87.2535 152.749ZM265.573 128.01C265.601 126.491 265.591 124.98 265.544 123.472C265.682 124.509 265.802 125.544 265.905 126.587C265.798 127.063 265.687 127.535 265.573 128.01ZM130.725 49.1798C130.726 49.1791 130.727 49.1784 130.728 49.1776C129.381 50.0345 128.062 50.9241 126.765 51.8486C126.872 51.7047 126.979 51.5605 127.087 51.417C128.1 50.6635 129.127 49.9325 130.17 49.2222C130.355 49.2076 130.54 49.1932 130.725 49.1798ZM141.839 43.1642C142.822 42.8654 142.635 43.0782 143.206 42.9978C143.205 42.9976 143.205 42.9973 143.205 42.9971C143.356 42.9752 144.014 42.7635 144.266 42.679C144.146 42.6359 143.999 42.6038 143.872 42.5647C146.054 41.5543 150.687 40.8068 145.082 42.9627C145.132 42.8364 145.179 42.712 145.23 42.5858C142.424 43.5851 139.255 44.6804 141.839 43.1642ZM96.927 174.699C98.5307 176.711 99.0094 177.356 100.564 180.034C100.237 179.729 99.912 179.422 99.5891 179.112C99.3842 178.634 99.1852 178.158 98.9891 177.678C98.9883 177.676 98.9875 177.675 98.9867 177.674C98.8459 177.644 98.7046 177.613 98.5659 177.586C98.0029 176.635 97.4533 175.668 96.927 174.699ZM234.036 58.7505C234.143 59.7256 234.249 59.2806 232.587 58.1046C232.01 57.7015 232.466 58.2243 232.115 57.9643C230.215 56.5749 230.321 56.1222 230.886 56.2563C231.957 57.0651 233.018 57.9068 234.033 58.7477C234.034 58.7486 234.035 58.7495 234.036 58.7505ZM264.775 110.752C264.776 110.754 264.776 110.755 264.776 110.756C264.628 110.847 264.401 109.923 264.456 111.005C264.302 110.206 264.136 109.401 263.958 108.597C264.025 108.83 264.092 109.068 264.157 109.301C264.168 109.08 264.178 108.859 264.187 108.638C263.94 108.394 263.99 108.107 263.853 107.254C263.713 107.532 263.571 107.807 263.428 108.082C263.264 107.099 263.085 106.122 262.888 105.14C262.933 105.115 262.979 105.09 263.025 105.065C262.866 104.717 262.705 104.375 262.542 104.03C262.573 103.916 262.604 103.805 262.635 103.69C262.467 103.265 262.297 102.842 262.124 102.422C262.223 102.249 262.575 103.185 262.024 101.503C262.328 101.977 262.627 102.454 262.924 102.942C263.657 105.52 264.274 108.121 264.775 110.752ZM218.671 48.4549C221.253 49.858 220.467 49.5578 219.719 49.5065C219.375 49.1546 219.022 48.8026 218.671 48.4549ZM91.275 92.1298C91.1418 93.0063 91.0213 93.8778 90.9014 94.7653C90.3768 96.4121 89.407 97.908 89.7047 96.6234C90.0738 95.0746 90.8877 93.6358 91.275 92.1298ZM83.9207 130.781C83.9829 128.649 84.2869 130.65 84.4604 131.119C84.227 131.714 84.2742 132.52 84.3218 133.842C84.2296 132.605 83.9105 131.138 83.92 130.781C83.9202 130.781 83.9205 130.781 83.9207 130.781ZM110.613 64.1085C111.209 63.5008 111.773 62.8638 112.378 62.3946C112.358 62.7077 111.131 63.6241 112.134 63.0983C111.748 63.479 111.364 63.8635 110.987 64.2484C111.136 63.9125 110.74 64.1676 110.615 64.1075C110.614 64.1079 110.614 64.1082 110.613 64.1085ZM191.949 39.1877C190.359 38.6361 190.014 38.6895 188.333 38.6163C188.125 38.3732 190.168 38.3226 191.425 38.4778C191.599 38.7136 191.773 38.9502 191.949 39.1877ZM252.198 176.543C252.219 177.028 250.637 179.536 249.714 180.689C249.782 180.523 249.85 180.356 249.917 180.189C250.706 178.991 251.467 177.775 252.198 176.543ZM84.343 134.47C84.3363 134.249 84.3291 134.04 84.3218 133.842C84.3377 134.062 84.3464 134.273 84.343 134.47ZM128.769 208.029C128.031 207.886 129.806 209.031 127.65 207.642C127.65 207.643 127.65 207.643 127.65 207.643C126.234 206.71 125.927 206.494 124.622 205.624C125.273 205.666 127.991 207.282 124.368 204.853C124.32 204.821 124.308 205.045 123.744 204.634C123.57 204.506 123.085 203.991 122.257 203.35C121.989 203.143 119.949 201.629 122.774 203.632C122.818 203.389 123.1 203.309 123.217 203.126C124.355 203.838 124.968 204.776 126.178 205.534C127.979 206.655 129.135 206.799 129.192 207.51C127.574 206.752 124.984 205.095 124.853 204.577C123.427 203.622 122.857 203.567 123.928 204.471C129.029 207.56 125.043 205.784 129.659 208.261C129.753 208.222 129.983 208.252 129.992 208.169C131.244 209.202 129.03 208.086 128.769 208.029ZM118.783 200.51C119.699 201.009 120.62 201.488 121.544 201.949C121.38 202.173 120.773 202.054 119.384 201.192C119.184 200.966 118.981 200.737 118.783 200.51ZM200.628 216.214C200.728 216.027 201.067 215.783 201.299 215.562C201.648 215.662 208.665 213.345 205.162 214.707C204.655 214.919 201.403 215.686 200.628 216.214ZM203.218 41.8243C202.421 41.4589 201.626 41.1069 200.824 40.7659C202.118 41.0777 203.417 41.42 204.703 41.7897C204.206 41.7967 203.713 41.8091 203.218 41.8243ZM86.4195 105.459C86.5179 105.103 86.411 106.342 86.7464 104.926C86.5977 106.01 86.4681 107.01 86.3557 108.066C86.1893 108.351 86.0239 108.642 85.8601 108.93C85.8697 109.185 85.8789 109.444 85.8906 109.699C85.7801 109.525 85.6698 109.366 85.5595 109.182C86.2406 107.504 85.9955 107.032 86.4195 105.459ZM113.069 60.2623C113.514 60.2764 111.737 62.1617 113.645 60.4803C113.426 60.9572 112.925 61.5528 111.868 62.5917C111.642 62.6999 111.417 62.8093 111.191 62.9198C111.315 63.0935 111.094 63.4145 110.613 64.1085C110.612 64.1089 110.612 64.1092 110.611 64.1096C109.042 65.72 109.1 65.5876 108.473 65.7422C110.26 64.1454 110.092 63.8861 111.126 62.6043C111.84 61.7262 112.956 60.7721 113.069 60.2623ZM192.967 218.084C194.565 217.484 193.038 217.575 196.016 217.189C195.843 217.299 195.67 217.407 195.496 217.516C194.658 217.717 193.807 217.908 192.967 218.084ZM120.177 55.7457C119.732 55.4713 118.233 56.155 118.512 56.943C119.826 56.1149 118.959 56.2253 120.177 55.7457ZM83.1473 130.068C83.1395 129.289 83.1795 128.748 83.2417 128.398C83.3886 127.584 83.6479 127.801 83.8477 128.398C83.8937 128.535 83.9369 128.692 83.9755 128.861C83.877 129.051 83.779 129.241 83.6823 129.428C83.7332 129.951 83.7886 130.473 83.8476 130.993C83.6129 130.688 83.379 130.379 83.1473 130.068ZM168.459 37.0275C166.21 37.5362 170.93 37.0537 169.354 37.3764C168.097 37.6235 166.41 37.4298 167.019 37.1562C167.456 37.1118 167.945 37.068 168.455 37.0278C168.456 37.0277 168.458 37.0276 168.459 37.0275ZM155.419 39.0122C155.864 39.2958 155.312 39.2934 157.06 38.8671C157.551 38.7253 161.602 38.1784 159.86 38.1625C158.415 38.4047 156.911 38.6885 155.419 39.0122ZM90.6912 163.592C90.544 163.688 89.0458 160.885 88.9991 160.465C88.9989 160.465 88.9987 160.465 88.9984 160.465C88.838 159.358 90.0496 162.457 89.8442 160.991C90.7253 164.07 91.7956 164.649 90.8478 164.817C90.0692 163.097 90.5993 163.845 90.6912 163.592ZM265.96 140.417C265.961 140.415 265.961 140.414 265.961 140.412C265.93 140.624 265.449 142.309 265.397 142.087C265.763 140.035 265.868 140.418 265.839 138.452C265.932 138.355 266.022 138.272 266.116 138.166C266.081 138.943 266.132 139.383 265.96 140.417ZM208.323 213.951C207.619 214.272 206.236 214.599 205.413 214.896C207.818 213.353 211.116 212.65 208.323 213.951ZM254.861 83.8265C254.86 83.8247 254.859 83.8229 254.858 83.8211C254.858 83.8214 254.859 83.8221 254.86 83.8225C254.86 83.8238 254.861 83.8251 254.861 83.8265ZM149.725 216.173C149.808 216.242 149.851 216.294 149.862 216.331C149.861 216.334 149.86 216.337 149.859 216.34C149.819 216.286 149.775 216.231 149.725 216.173ZM93.468 169.509C93.8543 170.788 91.5747 167.025 91.1026 165.677C91.2364 165.726 91.3274 165.702 91.529 165.864C91.7447 167.023 93.3971 169.304 93.468 169.509ZM100.759 75.1053C98.7577 77.9263 100.633 73.7276 101.331 74.0049C101.337 74.0181 100.808 75.0315 100.759 75.1053ZM84.9167 143.784C84.5114 142.958 84.7124 144.721 84.3232 141.91C84.3679 141.737 84.4133 141.564 84.4589 141.392C84.6001 142.187 84.7536 142.988 84.9167 143.784ZM88.8815 94.4839C87.3956 98.638 86.5007 102.741 88.0424 100.244C88.1211 99.9237 88.2037 99.5994 88.2858 99.2797C87.9611 99.1184 88.5253 98.0246 89.1576 96.3611C89.1108 96.0723 89.4338 95.1355 89.3894 94.9185C89.3018 94.4964 88.7313 95.5024 88.8815 94.4839ZM241.718 64.8716C241.625 64.8632 241.532 64.8563 241.44 64.8477C240.912 64.3975 240.379 63.9524 239.842 63.5153C240.005 63.5102 240.167 63.5057 240.33 63.5016C240.797 63.9529 241.257 64.4069 241.715 64.8682C241.716 64.8693 241.717 64.8705 241.718 64.8716ZM115.012 198.402C115.757 198.138 114.609 197.367 112.314 195.703C113.193 196.619 114.094 197.521 115.012 198.402ZM136.355 44.54C136.519 44.6764 136.68 44.8131 136.847 44.9485C138.12 44.1494 137.785 44.0633 137.022 44.1257C136.797 44.2636 136.578 44.4004 136.355 44.54ZM156.828 37.7657C156.212 37.8494 156.554 37.9391 156.489 37.9489C154.928 38.1928 154.69 38.1673 152.843 38.7362C152.624 38.8326 152.409 38.9308 152.191 39.03C153.152 39.2044 153.722 38.8265 155.613 38.6549C155.252 38.5913 154.892 38.5294 154.529 38.4695C155.559 38.2649 156.593 38.0773 157.623 37.9093C157.737 37.844 157.852 37.7792 157.966 37.7143C157.589 37.7293 157.2 37.7422 156.828 37.7657ZM246.844 70.9975C247.467 71.8006 248.079 72.6181 248.676 73.4417C248.777 73.4119 248.879 73.3807 248.981 73.3511C248.282 72.5541 247.568 71.7673 246.844 70.9975ZM132.458 209.88C132.545 209.886 132.631 209.891 132.71 209.891C132.684 209.927 132.59 209.917 132.458 209.88ZM266.812 137.809C267 136.671 267.088 135.006 267.173 133.735C266.93 133.825 266.768 137.039 266.483 138.143C266.508 138.328 266.733 138.295 266.812 137.809ZM83.1874 125.907C83.0708 125.614 82.9562 125.321 82.8422 125.031C82.8807 124.331 82.9275 123.636 82.9824 122.927C82.882 122.9 82.7807 122.874 82.6803 122.847C82.6519 125.967 82.4096 125.23 82.0797 126.777C82.4474 126.482 82.8164 126.195 83.1874 125.907ZM262.869 99.0386C262.082 96.9265 261.67 96.238 261.814 97.525C262.145 98.2448 262.468 98.975 262.781 99.7069C262.811 99.4833 262.84 99.259 262.869 99.0386ZM171.502 220.509C173.327 220.46 173.4 220.845 175.109 220.662C175.155 220.657 175.202 220.652 175.25 220.645C175.203 220.642 175.156 220.638 175.109 220.635C174.167 220.563 173.231 220.476 172.305 220.376C172.04 220.422 171.768 220.466 171.502 220.509ZM94.7355 175.821C95.0241 176.585 96.3615 177.514 97.177 179.663C97.5973 180.029 97.9023 180.227 98.2816 180.526C98.3003 180.836 98.3399 181.178 98.356 181.479C98.3569 181.48 98.3577 181.481 98.3586 181.483C99.5757 183.126 98.9775 181.924 99.1418 181.866C99.2091 181.845 99.9946 183.14 99.8429 182.667C99.5672 181.864 97.7345 179.44 98.0051 179.253C98.4982 180.2 99.7652 181.855 99.5866 181.228C99.39 180.549 97.9683 179.153 97.464 177.996C98.0001 179.776 96.1382 176.577 96.2728 176.008C94.9131 174.307 95.7963 176.088 97.0022 177.96C96.0232 176.972 97.2266 178.576 97.2018 178.986C96.2795 177.908 93.9403 173.68 94.7355 175.821ZM97.1361 78.1428C96.3318 79.4101 94.9729 81.3372 94.6861 82.3583C94.5153 82.9477 95.7877 80.9783 95.1789 82.4908C95.8874 81.221 95.9894 80.8947 95.6855 81.003C95.8351 80.7053 95.9889 80.4054 96.1429 80.1086C96.2571 79.998 96.3733 79.8839 96.488 79.774C96.5091 79.5815 96.5319 79.3884 96.5521 79.1992C96.7543 78.9079 96.9604 78.6144 97.1663 78.3261C97.1535 78.2684 97.1612 78.189 97.1361 78.1428ZM222.942 207.198C222.589 207.415 222.239 207.628 221.884 207.841C221.948 207.86 222.021 207.877 222.092 207.894C222.145 207.909 222.198 207.925 222.251 207.94C221.971 207.945 220.146 208.727 219.487 209.257C219.156 209.524 220.128 209.312 218.584 210.197C219.715 209.579 220.744 208.96 221.812 208.308C221.756 208.435 221.704 208.56 221.647 208.687C221.648 208.687 221.649 208.686 221.649 208.686C222.019 208.492 222.392 208.294 222.76 208.096C222.823 207.795 222.882 207.498 222.942 207.198ZM135.09 44.7149C133.876 45.476 133.495 45.7695 134.208 45.6999C134.209 45.6994 134.21 45.6988 134.212 45.6983C134.633 45.3621 135.06 45.0285 135.488 44.6996C135.357 44.7039 135.225 44.7082 135.09 44.7149ZM143.269 215.591C146.428 215.711 139.869 213.913 140.955 214.662C141.002 214.703 143.037 215.399 143.269 215.591ZM82.8583 130.627C82.8337 129.888 82.8183 129.145 82.8114 128.398C82.8106 128.31 82.8099 128.223 82.8093 128.135C82.7546 128.222 82.7002 128.31 82.6459 128.398C82.5803 128.504 82.5149 128.611 82.4496 128.717C82.5792 129.357 82.7159 129.995 82.8583 130.627ZM259.674 89.7411C259.56 88.8329 258.663 86.751 257.894 85.9094C258.128 86.4386 258.357 86.9702 258.581 87.5037C258.07 86.5383 257.545 85.596 256.999 84.6443C256.641 84.7703 257.439 85.7738 258.188 87.5257C258.309 87.799 258.697 89.6843 259.278 90.1296C259.401 90.2176 258.602 88.384 259.378 89.5565C259.137 88.9969 258.909 88.5248 258.667 88.0024C258.729 87.926 258.791 87.8498 258.851 87.7694C259.134 88.4264 259.406 89.0792 259.674 89.7411ZM92.7699 85.7164C91.8071 87.5415 91.8448 87.8466 91.8928 88.345C92.2815 87.4701 92.6842 86.6017 93.0994 85.7404C92.9889 85.7342 92.8811 85.7226 92.7699 85.7164ZM250.429 73.7586C249.795 72.8185 249.908 73.3381 249.604 72.9967C248.452 71.7119 247.849 70.6951 246.697 69.4438C246.8 69.5043 246.896 69.5596 246.996 69.6182C246.995 69.617 246.994 69.6159 246.993 69.6147C241.88 63.3918 244.348 66.8637 247.442 70.5295C247.45 70.6672 247.455 70.8014 247.463 70.9385C248.909 72.5278 250.176 74.0596 250.429 73.7586ZM119.68 202.874C119.724 202.968 118.904 202.759 120.174 203.512C121.386 203.821 119.712 202.887 119.441 202.454C119.785 202.657 120.135 202.863 120.476 203.058C118.656 201.549 118.329 201.405 118.805 202.205C118.839 202.261 119.635 202.78 119.68 202.874ZM132.793 211.305C133.388 210.852 130.611 209.735 130.605 209.962C130.965 210.168 131.301 210.218 131.664 210.468C132.031 210.72 132.056 210.916 132.793 211.305ZM83.621 144.593C83.632 144.68 83.5076 145.6 83.7135 145.473C84.0304 144.309 83.3543 142.198 83.2316 142.603C83.3521 143.323 83.5089 143.79 83.6203 144.593C83.6205 144.593 83.6208 144.593 83.621 144.593ZM264.573 102.474C264.585 102.426 264.059 100.286 263.862 100.045C263.676 99.8581 263.517 99.7871 263.344 99.6589C263.84 100.777 264.437 103.15 264.571 102.47C264.572 102.471 264.572 102.472 264.573 102.474Z" fill="white"/>
<path d="M38.5398 311L224.771 323.249L273.547 369.631L221.24 409.366L35.0085 397.117L38.5398 311Z" fill="#FFCC00"/>
<path d="M56.4374 323.847L218.794 334.525L261.566 368.9L216.213 397.479L53.8559 386.801L56.4374 323.847Z" fill="white"/>
<path d="M214.128 332.832C211.351 332.613 207.707 332.412 204.937 332.284C204.069 332.243 204.505 332.346 203.906 332.322C202.733 332.273 201.644 332.165 200.485 332.123C200.101 332.11 200.574 332.259 200.171 332.242C197.965 332.149 195.881 331.982 193.647 331.86C182.645 331.259 171.832 330.592 160.698 329.914C157.027 329.69 152.56 329.503 148.771 329.207C148.329 329.172 148.597 329.087 148.513 329.072C147.197 328.856 147.628 329.092 146.765 329.063C143.338 328.947 139.531 328.706 136.239 328.45C134.838 328.341 136.252 328.229 134.836 328.251C134.738 328.252 135.089 328.385 134.704 328.371C133.832 328.34 132.179 328.212 131.503 328.176C130.201 328.107 129.985 328.092 128.754 328.012C127.071 327.904 125.067 327.827 123.262 327.683C122.877 327.653 123.392 327.574 122.778 327.515C122.163 327.455 120.535 327.357 119.985 327.348C119.435 327.338 119.665 327.442 119.567 327.455C118.761 327.573 116.888 327.213 116.646 327.192C112.233 326.802 108.439 326.687 104.293 326.414C101.145 326.206 97.7816 325.94 94.7863 325.75C91.2177 325.523 88.191 325.384 84.725 325.146C84.3592 325.121 84.7933 325.017 84.3466 324.986C79.6 324.659 74.8853 324.363 70.155 324.141C69.6806 324.119 70.2867 324.275 69.8125 324.26C66.9091 324.164 62.3118 324.091 60.6103 323.474C59.3105 323.401 57.8266 323.317 56.4612 323.264L55.883 323.223L55.8557 323.808C55.8459 324.509 55.8436 325.178 55.8535 325.775C55.8722 326.914 56.0432 325.821 55.9324 327.211C55.9075 327.524 55.8141 327.108 55.7851 327.579C55.6634 329.561 55.6104 331.731 55.4729 333.69C55.4447 334.089 55.3504 333.973 55.328 334.085C55.145 335.027 55.3182 336.625 55.3213 336.972C55.3426 339.608 55.2131 341.523 55.1159 343.971C55.0934 344.54 54.9883 343.859 54.9618 344.406C54.8266 347.239 54.7175 350.177 54.6626 352.957C54.6507 353.575 54.787 353.014 54.787 353.31C54.7861 354.615 54.5608 354.889 54.5558 356.14C54.5544 356.404 54.6573 356.262 54.6659 356.311C54.8019 357.072 54.5388 357.709 54.5257 357.902C54.3542 360.341 54.5369 361.919 54.4051 364.277C54.3891 364.559 54.2928 363.914 54.2553 364.708C54.0047 369.994 53.809 375.589 53.6922 380.83C53.6739 381.645 53.7897 381.07 53.7989 381.122C53.9418 381.968 53.6823 382.493 53.6625 382.758C53.5585 384.204 53.5835 385.593 53.4955 386.777L53.4788 387.136L53.8411 387.161C54.3666 387.214 54.8522 387.287 55.2856 387.403C64.1443 387.887 72.9519 388.626 81.7439 388.95C81.8557 388.954 81.6604 388.824 81.8833 388.833C84.5682 388.944 84.0457 389.092 85.8113 389.431C86.2561 389.516 87.6271 389.337 87.7482 389.325C88.1896 389.282 87.742 389.078 87.8894 389.073C89.1088 389.043 88.8872 389.606 90.526 389.714C90.5773 389.716 90.3664 389.596 90.5043 389.594C90.933 389.589 91.355 389.659 91.7746 389.65C92.7351 389.629 93.0875 389.372 94.5425 389.631C94.7267 389.664 94.4308 389.972 95.8946 390.053C96.4781 390.085 99.0598 390.26 99.7843 390.286C100.508 390.313 100.016 390.175 100.068 390.174C102.021 390.163 101.285 390.056 102.269 389.915C103.253 389.774 102.962 390.245 103.358 390.326C103.754 390.407 105.186 390.386 105.539 390.369C105.891 390.352 105.457 390.257 105.769 390.254C107.843 390.243 106.667 390.557 107.345 390.68C108.944 390.969 110.21 390.689 111.682 390.75C112.08 390.766 111.752 390.828 112.106 390.859C113.508 390.98 114.356 390.923 115.948 391.131C116.209 391.166 117.49 391.469 118.332 391.364C118.452 391.348 118.119 391.236 118.718 391.255C119.613 391.283 121.223 391.369 122.182 391.463C122.89 391.532 122.071 391.627 122.966 391.64C123.363 391.645 122.632 391.509 123.378 391.527C124.121 391.544 126.016 391.672 126.737 391.723C127.456 391.773 127.058 391.861 127.115 391.872C127.466 391.939 128.845 392.084 128.967 392.092C135.124 392.511 140.81 392.694 146.803 393.151C147.273 393.187 146.955 393.285 147.026 393.292C148.635 393.448 147.378 393.047 148.507 393.015C148.335 393.247 149.001 393.247 150.134 393.348C150.681 393.397 150.379 393.471 150.428 393.484C151.233 393.679 151.806 393.533 151.952 393.505C152.495 393.402 153.073 393.603 153.442 393.535C153.811 393.467 152.976 393.276 154.064 393.349C154.366 393.456 153.549 393.629 154.373 393.72C157.484 394.064 163.31 394.269 165.817 394.415C168.319 394.561 169.126 394.631 170.585 394.695C173.22 394.812 172.248 394.916 173.88 395.101C175.516 395.285 174.736 394.82 174.975 394.746C175.21 394.673 175.459 394.781 175.749 394.751C176.038 394.721 175.419 394.62 176.095 394.646C176.77 394.672 178.609 394.951 178.845 395.06C179.342 395.29 178.502 395.442 180.291 395.487C180.394 395.489 180.065 395.358 180.459 395.373C183.587 395.495 186.832 395.703 189.955 395.835C190.385 395.853 190.006 395.706 190.256 395.715C192.86 395.809 191.922 395.952 193.338 396.272C193.03 395.95 193.826 395.817 195.8 395.945C196.986 396.022 196.777 396.14 197.54 396.283C197.769 396.327 198.613 396.291 198.762 396.363C199.256 396.599 198.456 396.773 200.494 396.817C200.584 396.818 200.304 396.689 200.613 396.702C202.609 396.79 202.839 397.017 204.993 397.184C206.682 397.316 209.692 397.384 211.617 397.49C211.59 397.148 213.404 397.345 214.132 397.628C214.805 397.667 215.508 397.714 216.202 397.757L216.289 397.764L216.365 397.716C216.86 397.402 217.348 397.088 217.806 396.782C218.148 396.553 217.866 396.614 217.904 396.577C218.486 396.011 219.065 395.918 219.295 395.784C221.79 394.315 223.69 392.912 226.118 391.584C226.204 391.536 226.467 391.652 226.997 391.113C227.031 391.077 226.201 391.472 227.295 390.772C228.39 390.073 230.392 388.66 231.977 387.792C232.361 387.581 233.399 387.156 234.067 386.556C234.156 386.476 234.01 386.487 234.133 386.365C234.534 385.969 234.918 386.011 235.355 385.494C235.792 384.977 236.849 384.13 238.464 383.279C238.515 383.252 238.982 383.183 239.464 382.876C240.234 382.385 241.309 381.661 242.116 381.153C242.503 380.911 242.319 381.166 242.388 381.126C245.02 379.546 246.811 378.292 249.567 376.501C250.072 376.172 251.625 375.385 252.543 374.656C253.551 373.855 252.123 374.067 254.689 372.614C255.724 372.027 257.395 371.847 258.994 370.387C259.857 369.871 260.694 369.35 261.52 368.827L261.514 368.967C259.077 367.018 256.664 365.188 254.218 363.093C254.072 362.969 253.726 362.433 253.374 362.153C252.852 361.739 252.508 361.584 252.133 361.29C250.56 360.062 249.187 358.855 247.68 357.66C247.108 357.206 247.246 357.442 246.564 356.901C245.882 356.36 245.509 355.896 244.551 355.205C243.827 354.684 242.97 354.331 242.03 353.614C242.155 353.383 241.518 352.879 240.435 351.921C240.227 351.737 240.515 351.853 240.419 351.762C240.031 351.391 239.6 351.139 239.236 350.782C239.147 350.695 239.197 350.622 239.128 350.548C238.54 349.908 237.315 349.179 237.104 349.054C236.298 348.574 236.03 348.211 235.442 347.805C234.855 347.399 235.645 348.117 234.977 347.62C233.592 346.591 231.873 345.191 230.505 344.097C229.96 343.66 230.404 343.866 230.328 343.801C229.22 342.872 228.003 342.055 227.524 341.369C226.366 341.217 226.881 340.777 225.195 339.578C225.062 339.484 224.723 339.579 225.184 340.003C225.645 340.428 226.439 340.951 227.074 341.545C227.224 341.686 227.974 342.633 228.089 342.747C228.99 343.634 229.394 343.409 229.461 343.433C230.206 343.706 231.147 344.833 231.429 345.086C232.722 346.242 233.906 347.116 234.994 348.075C235.706 348.701 235.604 348.979 236.189 349.438C238.134 350.965 239.049 351.198 240.654 352.924C240.999 353.293 240.422 353.223 241.966 354.155C242.063 354.214 243.236 354.873 243.748 355.463C243.812 355.538 243.754 355.606 243.849 355.691C244.483 356.263 244.97 356.564 245.673 357.172C246.375 357.78 247.214 358.519 248.059 359.16C248.568 359.546 249.31 359.928 249.574 360.088C250.319 360.537 250.922 361.268 251.427 361.491C251.936 361.717 251.248 360.886 252.408 361.7C252.305 361.915 252.251 362.177 252.172 362.413C254.593 364.348 257.017 366.2 259.435 368.157C259.735 368.399 259.35 368.25 259.669 368.513C260.129 368.891 260.576 369.243 261.022 369.589L261.081 368.144C260.192 368.726 259.326 369.308 258.329 369.909C257.156 370.614 255.814 371.299 254.586 372.033C253.994 372.728 252.149 373.781 250.858 374.624C250.406 374.919 250.475 374.961 250.163 375.186C248.985 376.032 249.43 375.468 249.073 375.647C247.544 376.42 247.715 376.956 246.008 378.016C245.917 378.072 244.66 378.521 244.499 378.602C243.472 379.109 244.394 378.787 243.802 379.185C242.723 379.912 241.995 380.452 240.658 381.194C240.268 381.41 239.267 381.827 238.611 382.406C238.525 382.482 238.63 382.529 238.555 382.583C237.204 383.545 237.005 383.314 236.149 383.733C235.292 384.152 234.167 385.107 233.948 385.316C233.373 385.861 234.488 385.054 234.532 385.044C235.049 384.932 234.13 385.475 233.449 385.922C233.508 386.233 232.535 386.826 232.742 386.385C232.766 386.335 233.318 386.021 233.449 385.922C232.687 386.059 231.607 386.696 230.583 387.661C230.104 388.113 230.702 387.912 229.008 388.915C228.239 389.37 228.422 389.015 227.725 389.388C226.134 390.242 224.258 391.648 222.671 392.612C222.096 392.962 222.591 392.519 222.195 392.755C221.145 393.38 220.279 394.025 219.218 394.643C219.122 394.699 219.289 394.456 218.965 394.658C217.836 395.362 216.784 396.04 215.728 396.723L216.249 396.592C214.759 396.512 213.259 396.436 211.613 396.329C210.14 396.233 207.509 395.996 205.982 395.908C203.337 395.756 200.076 395.709 197.818 395.52C196.346 395.397 196.674 395.303 196.045 395.183C194.833 394.951 192.665 395.081 192.373 395.105C192.364 395.105 193.631 395.216 192.952 395.23C192.554 395.328 192.387 395.106 192.373 395.105C192.181 395.119 189.647 394.979 189.145 394.924C188.872 394.894 189.03 394.795 188.887 394.781C185.504 394.461 182.112 394.21 178.674 394.035C178.614 394.033 178.7 394.161 178.558 394.155C176.566 394.079 175.299 393.846 173.662 393.649C172.026 393.453 170.724 393.397 169.745 393.543C168.508 393.435 166.729 393.411 165.705 393.4C164.681 393.389 164.548 393.142 164.459 393.131C161.661 392.796 160.035 392.826 157.125 392.656C155.742 392.575 153 392.36 151.504 392.236C150.321 392.137 149.606 392.146 148.517 392.038C148.37 392.024 148.523 391.928 148.478 391.921C147.267 391.714 147.841 392.011 147.588 392.041C146.67 392.149 146.104 392.201 144.548 392.02C144.19 391.978 143.158 391.537 142.504 391.472C141.653 391.389 141.969 391.543 141.078 391.452C141.002 391.445 141.021 391.363 140.471 391.331C137.914 391.178 135.126 391.043 132.471 390.86C132.108 390.835 132.579 390.736 132.055 390.698C129.596 390.52 126.9 390.348 124.502 390.252C123.912 390.228 124.278 390.344 124.148 390.363C123.356 390.475 122.251 390.163 122.067 390.147C117.685 389.743 114.319 389.739 109.852 389.342C109.609 389.32 107.746 388.941 106.901 389.105C106.844 389.116 106.007 389.286 105.283 389.084C105.237 389.072 105.758 388.99 104.858 388.943C103.958 388.895 102.514 388.723 101.273 388.769C100.88 388.783 99.9457 388.946 98.7858 388.691C98.7102 388.673 96.9247 388.151 96.2701 388.387C96.164 388.426 96.261 388.728 94.874 388.485C94.609 388.439 95.0949 388.405 94.3954 388.318C93.3235 388.184 91.8966 388.169 90.5812 387.951C90.3518 387.912 89.3795 387.648 88.5867 387.748C88.4626 387.764 88.6926 387.877 88.2767 387.861C86.2994 387.784 84.2338 387.582 82.2255 387.518C81.5142 387.495 81.8709 387.678 81.1287 387.672C80.3863 387.666 78.8927 387.609 78.1208 387.485C77.3487 387.362 78.2058 387.164 77.0455 387.067C72.0014 386.647 66.995 386.467 61.9538 386.157C61.2061 386.111 61.8295 386.061 60.728 385.987C58.8675 385.862 56.3886 385.679 53.9087 385.514L55.1404 386.885C55.263 383.947 55.3606 381.008 55.3347 379.088C55.2965 376.251 55.0332 379.801 55.0591 377.636C55.0719 376.592 55.4125 375.483 55.4321 375.232C55.627 372.779 55.5667 371.062 55.6975 368.852C55.7245 368.395 55.8254 368.851 55.8471 368.463C55.9223 367.135 55.9263 365.736 55.9881 364.467C56.0161 363.897 56.1029 364.008 56.1173 363.484C56.153 362.229 56.1601 361.117 56.1249 359.889C56.1217 359.777 55.9775 360.521 56.0114 359.593C56.0664 358.091 56.0586 356.222 56.2164 354.5C56.2636 353.989 56.4727 353.983 56.3741 352.872C56.3535 352.638 56.0914 352.917 56.3601 351.648C56.4048 351.434 56.7846 349.297 56.6402 348.227C56.6022 347.944 56.4268 347.219 56.4842 346.604C56.4928 346.521 56.5909 346.863 56.6227 346.353C56.7331 344.555 56.7985 342.668 56.9093 340.821C56.9392 340.328 57.0247 341.071 57.0655 340.336C57.1777 338.314 57.2519 335.785 57.2968 333.803C57.3132 333.072 57.1966 333.57 57.1884 333.517C57.0537 332.652 57.3034 332.162 57.3284 331.879C57.4807 330.122 57.4281 328.773 57.5232 327.15C57.5491 326.702 57.6453 327.027 57.6587 326.939C57.7918 326.019 57.5674 326.696 57.5698 326.109C57.5724 325.405 57.5893 324.667 57.6141 323.924L56.389 325.025C57.382 325.083 58.3859 325.155 59.3341 325.225C59.9428 325.271 59.2533 325.353 59.7996 325.392C63.0328 325.626 66.3954 325.835 69.5545 325.973C70.1494 325.999 69.7794 325.877 69.9042 325.862C70.7643 325.763 72.0067 326.058 72.2938 326.097C73.599 326.275 74.1109 326.223 75.2663 326.315C80.9101 326.766 87.885 327.168 93.2169 327.483C100.165 327.894 105.559 328.156 112.182 328.616C112.603 328.645 112.173 328.747 112.536 328.774C117.22 329.113 121.835 329.366 126.528 329.712C126.913 329.74 126.353 329.827 126.971 329.876C128.238 329.978 129.845 330.077 131.129 330.123C131.756 330.145 130.921 329.984 131.551 330.008C133.019 330.065 134.591 330.16 136.096 330.279C136.736 330.329 135.764 330.392 136.597 330.448C142.27 330.834 147.842 331.222 153.582 331.436C153.976 331.451 154.331 331.217 155.165 331.321C155.225 331.396 155.218 331.48 155.242 331.558C163.5 332.142 171.679 332.591 179.963 333.122C180.312 333.144 179.703 333.24 180.379 333.284C184.292 333.54 188.091 333.827 192.099 333.956C192.497 333.968 192.303 333.716 193.472 333.83C193.678 333.85 195.439 333.997 195.893 334.079C195.954 334.091 195.628 334.181 196.196 334.222C199.496 334.456 202.956 334.658 206.254 334.807C206.787 334.83 206.225 334.675 206.604 334.691C209.294 334.804 212.213 335.087 214.784 335.148C216.506 335.188 215.878 334.942 216.8 334.8C216.93 334.78 217.994 334.845 218.054 334.732C218.207 334.446 217.705 334.089 217.93 333.788C217.977 333.723 219.399 333.89 218.562 333.67C218.504 333.656 217.473 333.533 217.22 333.461C217.045 333.411 217.369 333.312 217.01 333.24C216.65 333.167 216.249 333.241 215.652 333.143C215.055 333.045 215.324 332.927 214.128 332.832ZM161.095 393.348C160.144 393.4 160.022 392.973 161.041 393.14C161.09 393.149 161.144 393.346 161.095 393.348ZM257.197 365.945C258.287 366.587 258.79 367.335 258.013 366.891C257.236 366.448 256.865 365.749 257.197 365.945ZM247.145 357.696C248.377 358.501 248.193 359.105 247.043 358.029C246.976 357.967 247.073 357.649 247.145 357.696ZM212.567 334.464C212.58 334.459 213.345 334.504 213.363 334.511C213.765 334.67 212.235 334.58 212.567 334.464ZM237.179 349.5C237.585 349.725 238.555 350.622 238.05 350.343C237.645 350.118 236.674 349.221 237.179 349.5ZM111.73 390.548C111.714 390.554 111.166 390.523 111.178 390.489C111.22 390.378 111.982 390.46 111.73 390.548ZM220.091 335.759C222.63 337.771 224.462 338.622 221.678 336.455C221.174 336.062 222.655 337.438 221.994 336.963C220.785 336.093 220.204 335.236 218.919 334.413C218.686 334.264 219.946 335.645 220.096 335.763C220.094 335.762 220.093 335.76 220.091 335.759ZM160.529 393.814C160.51 393.818 159.751 393.774 159.733 393.767C159.327 393.607 160.857 393.697 160.529 393.814ZM79.7171 388.702C79.6747 388.711 77.9124 388.606 77.8554 388.591C76.9452 388.314 80.5082 388.525 79.7171 388.702ZM211.647 397.483C212.47 397.671 213.461 397.752 214.128 397.627C213.304 397.582 212.475 397.529 211.647 397.483Z" fill="white"/>
<path d="M90.8055 375.63L90.0333 355.101L85.4092 356.52L85.2562 352.452L91.9985 349.181L95.0872 349.064L96.0791 375.432L90.8055 375.63ZM110.721 375.334C108.813 375.406 107.142 375.129 105.711 374.504C104.304 373.878 103.189 372.989 102.366 371.838C101.543 370.687 101.041 369.361 100.859 367.859L105.831 367.672C106.043 368.645 106.577 369.454 107.431 370.101C108.285 370.748 109.34 371.048 110.596 371.001C111.5 370.967 112.282 370.711 112.943 370.233C113.604 369.756 114.109 369.133 114.457 368.366C114.805 367.573 114.96 366.687 114.923 365.708C114.885 364.703 114.652 363.845 114.223 363.131C113.819 362.417 113.27 361.872 112.577 361.496C111.909 361.119 111.148 360.946 110.294 360.978C109.214 361.019 108.295 361.317 107.537 361.874C106.802 362.405 106.285 363.04 105.986 363.781L101.052 363.966L102.668 348.779L117.472 348.222L117.639 352.667L106.602 353.082L105.731 359C106.262 358.401 106.985 357.909 107.901 357.522C108.816 357.111 109.851 356.883 111.006 356.84C112.438 356.786 113.69 356.99 114.764 357.453C115.836 357.89 116.74 358.523 117.475 359.35C118.21 360.152 118.773 361.087 119.165 362.153C119.556 363.195 119.774 364.306 119.819 365.486C119.871 366.867 119.68 368.144 119.246 369.317C118.838 370.49 118.222 371.519 117.401 372.404C116.604 373.289 115.637 373.992 114.5 374.513C113.387 375.007 112.127 375.281 110.721 375.334ZM133.585 374.021L132.593 347.654L138.657 347.425L147.337 363.583L154.704 346.822L160.768 346.594L161.76 372.961L156.675 373.153L156.009 355.449L149.568 369.723L145.537 369.875L138.004 356.126L138.67 373.83L133.585 374.021ZM166.949 372.766L165.957 346.399L171.042 346.207L172.034 372.575L166.949 372.766ZM177.212 372.38L176.22 346.012L181.305 345.821L194.119 363.559L193.434 345.365L198.52 345.174L199.511 371.541L194.426 371.733L181.614 354.033L182.297 372.189L177.212 372.38Z" fill="#FFCC00"/>
</svg>
