<svg width="379" height="339" viewBox="0 0 379 339" fill="none" xmlns="http://www.w3.org/2000/svg">
<path d="M301.043 174.362L306.165 194.172L321.38 181.311L314.451 200.504L333.949 199.505L317.616 210.749L333.949 221.993L314.451 220.994L321.38 240.187L306.165 227.325L301.043 247.136L295.922 227.325L280.707 240.187L287.636 220.994L268.138 221.993L284.47 210.749L268.138 199.505L287.636 200.504L280.707 181.311L295.922 194.172L301.043 174.362Z" fill="#6ED1FF"/>
<path d="M226.907 126.074L215.3 183.493L175.508 184.111L151.029 188.152L134.856 213.079L135.175 266.578L129.938 292.487L148.14 288.506L156.067 249.293L163.004 214.982L200.263 237.218L194.035 268.029L184.126 317.045L201.678 323.165L214.056 303.245L225.098 248.626L262.027 241.514L261.267 272.815L251.783 319.731L273.089 324.495L291.491 233.464L297.489 176.254L314.334 92.9267L244.423 77.295L226.907 126.074Z" fill="white"/>
<path d="M215.283 173.272C216.393 167.508 217.973 159.982 219.209 154.269C219.595 152.479 219.518 153.412 219.79 152.177C220.322 149.762 220.726 147.492 221.26 145.107C221.437 144.317 221.407 145.343 221.589 144.513C222.586 139.968 223.415 135.642 224.385 131.028C224.755 129.27 225.124 127.513 225.492 125.758L225.548 125.556C231.511 109.317 237.358 93.2212 243.294 76.8642L243.64 75.8892L244.662 76.1136C248.611 77.0103 252.574 77.9101 256.557 78.8147C264.117 80.5315 273.282 82.7418 281.109 84.4215C282.023 84.6174 281.509 84.3468 281.685 84.3733C284.445 84.7939 283.479 84.8924 285.248 85.3298C292.27 87.0648 300.111 88.8323 306.911 90.2926C309.804 90.9135 306.968 89.97 309.843 90.7863C310.042 90.8427 309.278 90.8372 310.066 91.0311C311.204 91.3107 312.999 91.7093 314.513 92.0458L315.387 92.2376L315.212 93.1228C315.037 93.9924 314.881 94.7694 314.773 95.2771C314.204 97.9661 314.115 98.4122 313.598 100.96C312.89 104.444 311.974 108.57 311.254 112.316C311.101 113.116 311.476 112.096 311.246 113.374C311.016 114.654 310.321 118.02 310.053 119.148C309.786 120.276 309.757 119.763 309.687 119.958C309.107 121.557 308.659 125.531 308.566 126.034C306.861 135.21 305.082 143.007 303.348 151.59C302.031 158.106 300.687 165.087 299.425 171.285C299.063 173.063 298.709 174.775 298.361 176.449L298.374 176.365C297.782 181.735 297.209 186.731 296.64 192.27C296.561 193.04 296.848 192.162 296.752 193.103C295.727 203.095 294.665 213.013 293.493 222.944C293.375 223.94 293.34 222.633 293.212 223.626C292.848 226.475 292.359 230.097 291.978 233.525L291.971 233.572C291.173 237.4 290.538 240.993 290.541 242.975C289.691 247.035 288.664 251.964 287.782 255.568C287.214 257.892 287.493 255.574 286.988 258.472C286.874 259.126 287.204 258.316 287.021 259.294C286.25 263.409 285.292 267.879 284.554 271.956C284.404 272.785 284.592 272.592 284.57 272.832C284.381 274.844 283.376 278.039 283.207 278.747C281.922 284.137 281.194 288.12 280.166 293.18C279.928 294.354 280.4 293.009 280.177 294.14C279.02 300.006 277.776 306.074 276.531 311.793C276.254 313.065 276.328 311.855 276.187 312.461C275.568 315.133 275.755 315.799 275.167 318.363C275.044 318.904 274.966 318.566 274.93 318.662C274.376 320.161 274.444 321.586 274.371 321.987C274.199 322.939 274.023 323.823 273.846 324.664L273.696 325.422L272.935 325.255C269.31 324.411 266.495 323.543 262.539 322.702C261.957 322.578 263.232 323.049 261.596 322.69C258.317 321.973 254.983 321.233 251.631 320.481L250.886 320.317L251.036 319.564C252.623 311.745 254.279 303.831 255.907 296.289C256.269 294.612 256.159 295.842 256.196 295.74C256.801 294.072 256.684 292.879 256.782 292.327C257.564 287.978 258.669 284 258.855 280.968C259.437 278.199 260.011 275.43 260.578 272.661L260.565 272.784C260.848 262.327 261.059 251.892 261.37 241.485L262.162 242.165C256.896 243.149 251.63 244.104 246.359 245.007C246.128 245.047 246.504 244.798 246.044 244.878C240.504 245.846 241.619 245.906 238.034 246.934C237.13 247.193 234.25 247.34 233.996 247.359C233.072 247.428 233.955 246.994 233.649 247.031C231.115 247.352 231.697 248.113 228.324 248.763C228.218 248.781 228.629 248.542 228.343 248.581C227.453 248.702 226.594 248.931 225.722 249.044C225.538 249.068 225.363 249.087 225.197 249.103L225.569 248.732C225.093 250.309 224.612 251.075 224.27 253.868C224.223 254.258 224.812 253.778 224.177 256.802C223.924 258.007 222.851 263.354 222.518 264.845C222.185 266.334 222.241 265.273 222.213 265.378C221.197 269.364 221.423 267.817 220.718 269.77C220.014 271.724 220.833 271.321 220.745 272.162C220.657 273.005 219.894 275.923 219.69 276.637C219.485 277.35 219.572 276.423 219.409 277.061C218.331 281.293 219.379 279.018 219.206 280.453C218.799 283.837 217.753 286.31 217.086 289.342C216.906 290.162 217.161 289.517 217.024 290.253C216.479 293.167 215.963 294.877 215.444 298.215C215.359 298.761 215.134 301.503 214.554 303.181C214.492 303.357 214.482 303.002 214.366 303.314L214.325 303.417C214.25 303.504 214.136 303.659 213.96 303.929C212.933 305.496 211.126 308.348 210.1 310.083C209.343 311.364 210.43 310.036 209.384 311.589C208.919 312.279 209.623 310.899 208.759 312.202C207.899 313.497 205.806 316.877 205.011 318.164C204.218 319.449 204.796 318.838 204.741 318.948C204.406 319.61 202.944 322.115 202.809 322.333C202.578 322.705 202.348 323.077 202.117 323.448L201.906 323.791L201.518 323.657C195.512 321.563 189.744 319.482 184.003 317.423L183.668 317.307L183.737 316.958C184.957 311.188 186.16 305.443 187.31 299.532C187.5 298.556 187.197 299.167 187.224 299.017C187.826 295.667 187.751 298.398 188.375 296.103C187.958 296.362 188.299 295.001 188.736 292.644C188.946 291.508 188.686 292.094 188.693 291.988C188.828 290.264 189.329 289.155 189.444 288.866C189.868 287.799 189.877 286.537 190.163 285.81C190.448 285.084 190.293 286.867 190.745 284.614C190.748 283.955 190.084 285.554 190.377 283.832C191.079 279.698 192.424 273.341 193.587 267.929C194.251 264.836 194.856 262.051 195.247 260.167C196.32 254.995 196.635 253.318 197.29 250.311C198.474 244.88 197.828 246.823 198.401 243.414C198.976 239.996 199.238 241.779 199.465 241.32C199.69 240.87 199.664 240.317 199.855 239.737C200.045 239.159 199.872 240.464 200.181 239.074C200.275 238.649 200.391 237.994 200.506 237.273L200.542 237.098L200.387 237.004C198.919 236.207 197.131 235.304 196.78 235.205C195.713 234.905 197.079 236.073 193.874 234.036C193.69 233.919 194.377 234.144 193.668 233.701C188.029 230.193 182.112 226.653 176.473 223.161C175.698 222.681 176.486 222.945 176.036 222.663C171.348 219.733 172.895 221.005 170.129 219.741C170.933 219.706 169.63 218.613 166.03 216.462C164.04 215.272 164.114 215.506 162.997 214.993L163.017 214.985C163.007 215.091 162.995 215.209 162.98 215.339C162.924 215.824 162.443 217.533 162.468 217.868C162.55 218.971 163.207 217.407 162.226 221.591C162.182 221.774 162.141 221.15 162.003 221.786C161.105 225.9 161.31 226.462 160.445 230.932C159.767 234.436 158.324 240.614 157.488 244.59C157.054 244.412 156.47 247.611 156.402 249.368C156.396 249.518 156.394 249.658 156.397 249.784C155.86 252.366 155.315 255.161 154.764 257.649C154.574 258.505 154.547 257.909 154.51 258.014C153.934 259.622 154.034 260.819 153.934 261.38C152.837 267.454 151.593 272.324 150.669 278.148C150.637 278.355 150.909 278.763 150.349 280.25C150.312 280.346 150.543 278.406 149.982 281.117C149.611 282.913 148.952 285.745 148.374 288.558L148.344 288.708L148.195 288.741C146.773 289.047 145.365 289.37 144.118 289.699C143.225 289.935 141.008 290.71 139.127 290.894C138.876 290.918 139.121 290.762 138.756 290.785C137.577 290.86 137.036 291.341 135.63 291.34C134.516 291.34 132.504 291.584 129.87 292.196L130.227 292.552C130.36 291.851 130.487 291.1 130.604 290.302C130.623 290.18 130.533 289.219 130.779 288.025C131.172 286.118 131.776 283.422 132.177 281.43C132.369 280.476 132.077 281.048 132.107 280.882C133.093 275.605 133.992 271.608 135.086 266.558L135.084 266.577C135.093 265.439 135.101 264.25 135.105 262.984C135.11 261.694 134.853 257.983 135.024 255.487C135.211 252.747 136.073 255.576 135.834 249.269C135.738 246.725 134.646 243.492 135.175 238.93C134.985 230.098 135.218 221.933 134.972 213.081L134.954 213.145C134.971 213.118 134.988 213.09 135.005 213.063C135.212 212.726 135.641 211.509 136.15 210.732C136.907 209.578 137.437 209.022 137.98 208.201C140.262 204.762 142.218 201.526 144.399 198.198C145.227 196.935 145.061 197.459 146.049 195.952C147.036 194.446 147.53 193.331 148.935 191.336C149.634 190.344 150.449 189.431 151.316 188.344L151.091 188.491C151.813 188.443 152.578 188.374 153.406 188.253C153.429 187.856 155.088 187.59 158.016 187.003C158.579 186.889 157.947 186.857 158.212 186.796C159.29 186.548 160.319 186.491 161.341 186.246C161.589 186.186 161.578 186.054 161.78 185.998C163.496 185.517 166.433 185.334 166.937 185.303C168.871 185.184 169.727 184.868 171.197 184.704C172.665 184.54 170.508 184.995 172.215 184.761C173.254 184.618 174.377 184.451 175.537 184.272L175.513 184.274C178.342 184.259 181.388 184.202 183.953 184.166C185.402 184.146 184.408 183.984 184.615 183.977C187.61 183.886 190.647 184.027 192.297 183.649C194.405 184.526 194.101 183.533 198.39 183.649C198.728 183.658 199.172 184.082 197.879 184.165C196.585 184.248 194.617 184.144 192.823 184.27C192.398 184.3 189.973 184.741 189.642 184.77C187.042 185.001 186.651 184.365 186.512 184.331C184.936 183.975 181.972 184.455 181.188 184.497C179.159 184.607 177.301 184.64 175.527 184.675L175.608 184.668C174.269 184.895 172.979 185.115 171.704 185.368C169.783 185.75 169.669 186.197 168.149 186.435C163.096 187.225 161.231 186.937 156.568 188.224C155.568 188.499 156.663 188.786 152.946 189.032C152.831 189.04 152.103 189.073 151.211 189.16L151.88 188.722C151.326 189.463 150.695 190.374 150.344 191.111C150.258 191.293 150.373 191.362 150.239 191.589C149.34 193.109 148.611 194.036 147.608 195.675C146.606 197.315 145.413 199.294 144.181 201.108C143.439 202.201 142.309 203.484 141.913 203.981C140.794 205.381 139.993 207.148 139.213 207.957C138.427 208.774 139.343 206.762 137.635 209.139C137.866 209.425 138.028 209.833 138.225 210.175C137.442 211.376 136.658 212.571 135.873 213.762L136.067 213.095C136.062 218.101 136.027 223.074 136.069 228.125C136.076 228.931 136.257 228.109 136.269 228.973C136.32 232.622 136.207 235.806 136.282 239.589C136.341 242.518 136.557 245.731 136.625 248.794C136.241 250.659 136.402 255.204 136.386 258.504C136.38 259.66 136.274 259.582 136.245 260.404C136.136 263.504 136.477 262.055 136.537 262.906C136.657 264.62 136.547 265.596 136.401 266.594L136.377 266.847C135.985 267.913 135.543 268.997 135.103 271.227C135.059 271.45 134.922 274.261 134.872 274.642C134.559 277.059 134.649 275.003 134.317 276.486C133.712 279.193 133.231 281.06 132.707 284.278C132.555 285.216 132.361 287.505 131.797 289.267C131.723 289.499 131.613 289.337 131.566 289.527C131.177 291.13 131.059 292.025 131.018 292.728L129.685 291.4C130.429 291.121 130.904 290.85 131.929 290.544C133.852 289.97 136.944 289.606 137.579 289.558C139.24 289.428 136.368 289.922 136.286 289.963C135.323 290.446 137.517 289.92 139.206 289.573C139.549 289.943 141.898 289.402 140.957 289.212C140.851 289.192 139.549 289.519 139.206 289.573C140.588 288.835 143.165 288.216 146.114 287.978C147.11 287.898 146.755 288.13 148 287.903L147.54 288.372C147.654 287.894 147.802 287.167 148.012 286.017C148.354 284.143 147.919 284.799 148.173 283.135C148.753 279.333 150.011 274.505 150.753 270.617C151.022 269.206 150.586 270.541 150.765 269.576C151.238 267.013 151.812 264.788 152.269 262.211C152.31 261.977 152.03 262.508 152.189 261.71C153.067 257.291 153.929 253.304 154.828 249.016C155.159 247.434 155.496 245.811 155.841 244.111C156.458 241.062 157.469 235.59 158.126 232.435C159.264 226.967 160.866 220.286 161.753 215.596C161.815 215.27 161.867 214.986 161.91 214.737L162.224 213.213L163.558 214.016C165.416 215.058 165.127 214.716 166.208 215.241C168.542 216.374 172.278 219.069 172.777 219.439C172.792 219.451 170.459 218.104 171.65 218.916C172.278 219.502 172.75 219.424 172.777 219.439C173.105 219.682 177.708 222.473 178.641 222.993C179.149 223.275 178.95 222.97 179.213 223.12C185.464 226.684 191.676 230.343 197.906 234.149C198.015 234.218 197.76 234.274 198.016 234.433C199.053 235.079 199.993 235.637 200.88 236.146L201.658 236.615L201.478 237.49C201.024 239.952 200.749 242.013 200.351 244.448C199.793 247.871 199.206 250.554 198.498 252.496C198.018 255.066 197.141 258.711 196.633 260.808C196.124 262.905 196.407 263.276 196.376 263.464C196.078 265.288 195.788 266.865 195.492 268.355C194.838 271.643 194.157 274.502 193.298 278.641C192.704 281.501 191.606 287.19 191.017 290.298C190.552 292.754 190.173 294.212 189.768 296.48C189.713 296.787 189.928 296.513 189.915 296.607C189.588 299.167 189.46 297.873 189.289 298.378C188.665 300.21 188.301 301.346 187.763 304.597C187.638 305.347 187.737 307.634 187.494 308.997C187.177 310.77 187.12 310.061 186.793 311.918C186.765 312.077 186.89 312.071 186.654 313.209C186.37 314.583 186.077 315.99 185.778 317.415L184.65 315.439C188.562 316.834 192.621 318.287 196.551 319.648C197.276 319.9 196.406 319.393 197.456 319.754C199.019 320.291 200.628 320.848 202.25 321.414L200.115 322.16C202.046 319.053 204.03 315.903 205.893 313.023C206.565 311.985 206.27 312.717 206.446 312.511C207.521 311.243 208.457 309.065 208.655 308.734C210.016 306.45 211.316 304.342 212.594 302.304L212.37 302.868C213.575 297.026 214.797 291.639 216.022 285.032C216.115 284.527 216.53 280.566 217.197 278.907C217.242 278.793 217.911 277.154 217.996 275.591C218.001 275.494 217.619 276.523 218.012 274.665C218.405 272.808 218.9 269.787 219.6 267.27C219.821 266.473 220.531 264.63 220.762 262.156C220.776 261.995 220.948 258.135 221.619 256.893C221.729 256.692 222.108 257.013 222.473 254.08C222.542 253.52 222.245 254.499 222.48 253.034C222.703 251.634 223.063 249.971 223.391 248.245L223.624 247.111L224.74 246.901C225.771 246.689 226.818 246.458 227.827 246.188C228.294 246.063 230.252 245.383 231.916 245.293C232.177 245.278 231.725 245.515 232.583 245.366C236.665 244.66 240.902 243.744 245.05 243.048C246.519 242.802 245.82 243.177 247.357 242.946C248.894 242.714 251.977 242.183 253.55 241.77C255.123 241.357 253.304 241.323 255.688 240.833C257.673 240.425 259.657 240.031 261.64 239.645L263.98 239.204L263.913 241.596C263.716 250.217 263.36 258.788 263.124 267.42C263.081 269.004 263.246 267.697 263.192 270.031C263.172 270.924 263.151 271.884 263.129 272.896L263.092 273.223C261.39 281.771 258.968 294.126 257.398 300.608C255.993 306.404 257.311 299.01 256.318 303.457C255.839 305.602 255.792 308.029 255.7 308.553C254.919 313.032 254.13 316.266 253.363 320.084L252.104 318.143C252.641 318.263 253.191 318.382 253.757 318.501C254.7 318.699 253.812 318.32 254.614 318.491C257.355 319.072 260.213 319.792 262.829 320.362C264.003 320.618 263.813 320.437 264.89 320.689C267.466 321.289 269.737 321.854 272.228 322.541C272.455 322.603 270.876 322.422 272.784 322.855C272.984 322.9 273.187 322.947 273.392 322.994L271.595 324.161C272.221 321.175 273.044 317.611 273.602 314.244C273.779 313.176 273.486 313.067 274.154 310.836C274.294 310.368 274.532 311.058 274.757 308.335C274.795 307.877 275.275 303.326 275.989 301.2C276.177 300.639 276.77 299.232 276.981 297.947C277.009 297.773 276.707 298.429 276.905 297.369C277.604 293.636 278.41 289.74 279.132 285.906C279.325 284.882 278.85 286.365 279.143 284.84C279.946 280.646 281.045 275.432 281.924 271.352C282.249 269.848 282.177 270.921 282.214 270.815C282.816 269.105 282.696 267.987 282.795 267.397C283.416 263.728 284.132 260.988 284.77 257.62C284.947 256.691 284.656 257.313 284.679 257.125C284.929 255.181 284.924 256.67 285.2 255.466C285.974 252.092 286.726 248.307 287.4 244.871C287.647 243.609 287.178 244.985 287.402 243.853C288.105 240.285 288.838 236.645 289.584 233.038L289.556 233.222C289.908 230 290.273 226.804 290.647 223.704C290.797 222.456 290.858 223.261 290.918 223.004C291.334 221.236 291.299 218.565 291.333 217.955C291.486 215.183 291.725 214.129 291.956 211.694C293.015 200.528 294.509 186.928 295.703 176.031L295.729 175.861C295.875 175.158 296.018 174.466 296.159 173.787C299.131 159.423 301.52 148.296 304.257 134.577C304.432 133.705 304.067 134.542 304.214 133.79C306.13 124.081 308.133 114.549 310.044 104.819C310.201 104.02 309.791 105.13 310.037 103.847C310.541 101.216 311.223 97.8922 311.816 95.2503C312.105 93.9617 311.907 95.7324 312.194 94.4346C312.333 93.8119 312.471 93.1796 312.608 92.5407L313.984 94.6603C311.532 94.0797 308.984 93.5063 306.515 92.9781C305.192 92.6953 307.147 93.3232 305.43 92.9415C293.733 90.345 282.243 87.8086 270.474 84.9303C269.667 84.733 269.031 84.2034 267.294 83.8894C267.143 83.9632 267.126 84.0858 267.047 84.183C259.359 82.492 251.714 80.7707 244.071 79.0381L246.09 77.9307C242.853 86.8617 239.6 95.7881 236.356 104.791C236.106 105.482 236.724 104.358 236.242 105.698C233.709 112.743 231.288 119.621 228.59 126.716L228.66 126.466C228.494 127.213 228.326 127.963 228.155 128.716C227.97 129.534 227.711 129.035 227.274 131.47C227.197 131.899 226.505 135.558 226.389 136.518C226.374 136.649 226.669 136.019 226.436 137.196C225.08 144.034 223.595 151.186 222.119 157.985C221.88 159.082 221.946 157.871 221.774 158.653C220.559 164.194 219.466 170.273 218.237 175.553C217.413 179.087 217.384 177.703 216.711 179.529C216.616 179.787 216.164 181.988 215.972 182.064C215.487 182.262 215.237 181.09 214.694 181.427C214.578 181.497 214.087 184.471 214.204 182.672C214.213 182.546 214.567 180.39 214.593 179.845C214.612 179.466 214.306 180.088 214.387 179.324C214.467 178.56 214.778 177.77 214.945 176.511C215.111 175.252 214.805 175.753 215.283 173.272ZM194.346 270.249C193.786 272.171 194.329 272.594 194.613 270.444C194.627 270.34 194.374 270.15 194.346 270.249ZM135.551 221.577C135.296 224.196 135.705 225.995 135.903 224.148C136.101 222.301 135.629 220.779 135.551 221.577ZM145.299 197.813C143.47 200.236 143.942 201.127 145.561 198.304C145.656 198.14 145.406 197.672 145.299 197.813ZM218.4 170.744C218.387 170.769 218.059 172.351 218.059 172.39C218.08 173.276 218.735 170.114 218.4 170.744ZM166.333 185.863C165.378 185.9 162.715 186.479 163.901 186.433C164.856 186.396 167.522 185.817 166.333 185.863ZM216.775 289.358C216.791 289.33 217.028 288.196 216.973 288.208C216.794 288.248 216.521 289.838 216.775 289.358ZM211.612 183.774C204.894 183.845 200.797 183.183 208.114 183.151C209.439 183.145 205.268 183.427 206.956 183.466C210.044 183.537 212.077 183.05 215.233 183.245C215.805 183.281 211.995 183.772 211.6 183.775C211.604 183.775 211.608 183.775 211.612 183.774ZM193.395 271.215C193.379 271.252 193.053 272.822 193.054 272.862C193.073 273.756 193.728 270.593 193.395 271.215ZM250.505 244.036C250.595 244.036 254.225 243.354 254.34 243.315C256.166 242.635 248.828 244.014 250.505 244.036ZM157.463 244.65C157.323 246.247 156.986 248.09 156.537 249.398C156.492 249.53 156.446 249.656 156.399 249.777C156.426 249.646 156.453 249.516 156.48 249.385C156.809 247.813 157.132 246.229 157.463 244.65Z" fill="white"/>
<path d="M129.649 21.9029L143.082 150.547L180.735 157.397V169.597H17.911L0.000320435 12.6987L129.649 21.9029Z" fill="#6ED1FF"/>
<path d="M76.599 54.6987L81.7204 74.5096L96.9359 61.6481L90.0068 80.8412L109.505 79.8417L93.172 91.086L109.505 102.33L90.0068 101.331L96.9359 120.524L81.7204 107.662L76.599 127.473L71.4777 107.662L56.2622 120.524L63.1913 101.331L43.6934 102.33L60.0261 91.086L43.6934 79.8417L63.1913 80.8412L56.2622 61.6481L71.4777 74.5096L76.599 54.6987Z" fill="white"/>
<path d="M288.949 15.9141C313.493 19.7398 335.201 26.2674 350.448 33.6778C358.083 37.3886 363.991 41.2703 367.827 45.0616C371.702 48.8905 373.155 52.3024 372.75 55.1807C372.344 58.0591 370.012 60.8817 365.248 63.3642C360.531 65.8221 353.806 67.7338 345.476 68.9562C328.841 71.3971 306.265 71.023 281.722 67.1974C257.178 63.3717 235.47 56.843 220.223 49.4326C212.588 45.7219 206.68 41.841 202.844 38.0498C198.969 34.2207 197.515 30.808 197.92 27.9296C198.326 25.0513 200.659 22.2297 205.423 19.7473C210.14 17.2893 216.865 15.3766 225.195 14.1543C241.83 11.7134 264.406 12.0884 288.949 15.9141Z" fill="white" stroke="#6ED1FF" stroke-width="4"/>
<path d="M246.941 49.0926C245.318 48.8396 243.935 48.3326 242.793 47.5717C241.654 46.7896 240.821 45.8179 240.296 44.6565C239.77 43.4952 239.607 42.2068 239.806 40.7915L243.126 41.3089C243.034 42.115 243.12 42.8839 243.383 43.6157C243.67 44.3297 244.133 44.9416 244.772 45.4514C245.435 45.9434 246.283 46.2699 247.316 46.4309C248.201 46.5689 248.981 46.5393 249.655 46.3421C250.35 46.1482 250.902 45.824 251.311 45.3696C251.723 44.8941 251.976 44.3183 252.071 43.6423C252.181 42.8607 252.093 42.1885 251.806 41.6256C251.519 41.0628 251.093 40.5753 250.526 40.1631C249.983 39.7332 249.329 39.329 248.564 38.9506C247.82 38.5756 247.037 38.1728 246.214 37.7424C244.545 36.8993 243.342 35.9562 242.606 34.9132C241.891 33.8734 241.636 32.6247 241.841 31.1671C242.017 29.9207 242.464 28.8894 243.182 28.073C243.903 27.2355 244.827 26.6454 245.952 26.3027C247.101 25.9422 248.403 25.8753 249.858 26.102C251.291 26.3254 252.508 26.7849 253.509 27.4806C254.509 28.1763 255.25 29.0365 255.73 30.0613C256.21 31.0861 256.363 32.2216 256.187 33.468L252.836 32.9455C252.916 32.3752 252.847 31.7924 252.63 31.1971C252.412 30.6019 252.032 30.0893 251.489 29.6593C250.95 29.2082 250.248 28.9153 249.383 28.7806C248.67 28.6477 248.01 28.6637 247.406 28.8285C246.801 28.9933 246.306 29.294 245.921 29.7305C245.537 30.1671 245.297 30.7234 245.201 31.3994C245.106 32.0754 245.166 32.646 245.38 33.1112C245.619 33.5585 245.991 33.9728 246.498 34.354C247.004 34.7352 247.598 35.1083 248.279 35.4735C248.984 35.8209 249.758 36.2115 250.602 36.6452C251.647 37.1752 252.554 37.7699 253.323 38.4295C254.116 39.0712 254.696 39.8417 255.065 40.7412C255.458 41.6227 255.565 42.6973 255.386 43.9648C255.232 45.0632 254.803 46.0434 254.1 46.9053C253.396 47.7672 252.443 48.4174 251.24 48.8559C250.039 49.2732 248.606 49.3521 246.941 49.0926ZM263.033 51.2122L265.792 31.6297L259.247 30.6095L259.614 28.0112L275.897 30.5493L275.531 33.1477L268.954 32.1226L266.194 51.7051L263.033 51.2122ZM284.077 54.881C282.517 54.6379 281.148 54.1114 279.969 53.3017C278.794 52.4708 277.916 51.3625 277.336 49.9767C276.78 48.5731 276.642 46.8785 276.922 44.8928L278.877 31.0139L282.039 31.5068L280.079 45.4173C279.891 46.7482 279.958 47.8811 280.278 48.8162C280.602 49.7302 281.124 50.4592 281.844 51.0033C282.589 51.5295 283.488 51.8748 284.542 52.0391C285.617 52.2066 286.573 52.1505 287.409 51.8707C288.249 51.5698 288.939 51.0297 289.479 50.2504C290.044 49.4533 290.42 48.3893 290.608 47.0585L292.568 33.1479L295.73 33.6408L293.774 47.5196C293.494 49.5053 292.884 51.0833 291.944 52.2537C291.006 53.4029 289.85 54.1941 288.475 54.6274C287.103 55.0396 285.637 55.1241 284.077 54.881ZM297 56.5068L300.126 34.326L306.924 35.3856C309.496 35.7865 311.561 36.5725 313.119 37.7437C314.677 38.9149 315.739 40.3973 316.305 42.191C316.895 43.9669 317.029 45.9956 316.708 48.277C316.386 50.5585 315.698 52.459 314.644 53.9786C313.611 55.5014 312.187 56.5856 310.373 57.2311C308.582 57.8588 306.391 57.9706 303.798 57.5664L297 56.5068ZM300.537 54.338L304.047 54.885C306.091 55.2037 307.762 55.1187 309.059 54.63C310.356 54.1413 311.345 53.3132 312.026 52.1457C312.732 50.9604 313.207 49.5016 313.451 47.7694C313.698 46.016 313.647 44.4646 313.299 43.115C312.972 41.7686 312.255 40.6638 311.149 39.8006C310.043 38.9373 308.467 38.3463 306.422 38.0276L302.913 37.4805L300.537 54.338ZM323.006 60.5604L324.167 52.3218L318.828 37.2411L322.401 37.798L326.48 50.3508L325.69 50.2276L333.024 39.4539L336.566 40.0059L327.329 52.8146L326.168 61.0532L323.006 60.5604Z" fill="#6ED1FF"/>
</svg>
