<svg width="289" height="260" viewBox="0 0 289 260" fill="none" xmlns="http://www.w3.org/2000/svg">
<rect width="288.522" height="259.401" fill="#EEFFEA"/>
<path d="M201.614 47.4893L213.369 38.432L213.628 49.0208L212.081 53.9449L201.614 47.4893Z" fill="#2B5D4A"/>
<path d="M189.064 44.6789L201.838 47.4376L212.166 53.8084L199.402 89.5478L158.872 134.329L111.446 192.302L75.9673 211.567L52.2441 186.316L56.28 165.482L76.2517 147.84L124.241 104.247L157.962 57.5408L189.064 44.6789Z" fill="url(#paint0_linear_131_6897)"/>
<path d="M157.942 77.4389L172.982 64.34L176.287 66.3786L160.146 78.798L116.675 138.073L69.928 172.952L74.6269 165.421L115.592 132.474L157.942 77.4389Z" fill="url(#paint1_linear_131_6897)"/>
<path d="M155.919 94.0152L170.081 80.3749L172.801 82.0526L157.732 95.1337L115.091 154.92L71.5373 191.769L76.2363 184.238L114.592 149.682L155.919 94.0152Z" fill="url(#paint2_linear_131_6897)"/>
<path d="M181.211 82.3094L194.851 68.3472L197.223 69.8103L182.793 83.2848L140.644 143.375L98.9895 181.395L103.688 173.864L140.493 138.352L181.211 82.3094Z" fill="url(#paint3_linear_131_6897)"/>
<path d="M67.6114 52.1312C67.825 52.1118 68.0386 52.1409 68.2523 52.2186C68.4659 52.2769 68.5436 52.4128 68.4853 52.6265C68.4465 52.7818 68.3882 52.9275 68.3105 53.0634C68.2523 53.1994 68.1843 53.3256 68.1066 53.4421C67.9707 53.6557 67.8541 53.8694 67.757 54.083C67.6599 54.2966 67.5531 54.5102 67.4366 54.7239C67.1841 55.2288 66.9511 55.7629 66.7375 56.3261C66.5238 56.8893 66.3199 57.4524 66.1257 58.0156C66.0286 58.3069 65.9412 58.608 65.8635 58.9187C65.8053 59.21 65.7373 59.511 65.6596 59.8217C65.5819 60.0548 65.5237 60.2975 65.4848 60.55C65.4654 60.8025 65.4266 61.0549 65.3683 61.3074C65.3295 61.4239 65.3101 61.5405 65.3101 61.657C65.3101 61.7735 65.3003 61.89 65.2809 62.0065C65.2421 62.1036 65.2227 62.2105 65.2227 62.327C65.2421 62.4241 65.2421 62.5212 65.2227 62.6183C65.1838 62.7154 65.1644 62.8222 65.1644 62.9387C65.1838 63.0358 65.1741 63.1329 65.1353 63.23V63.4339C65.1159 63.4922 65.1061 63.5602 65.1061 63.6379C65.1256 63.6961 65.1256 63.7641 65.1061 63.8418C65.0673 63.9971 65.0479 64.1816 65.0479 64.3953C65.0673 64.5895 65.077 64.774 65.077 64.9487C65.077 65.0653 65.0673 65.1915 65.0479 65.3274C65.0479 65.4634 65.0479 65.5896 65.0479 65.7061V65.9975C65.0673 66.2111 65.077 66.415 65.077 66.6092C65.077 66.8034 65.0867 67.0073 65.1061 67.2209C65.1256 67.318 65.1256 67.4249 65.1061 67.5414C65.1061 67.6579 65.1159 67.7647 65.1353 67.8618C65.1547 67.9395 65.1547 68.0172 65.1353 68.0949C65.1353 68.1725 65.1547 68.2502 65.1935 68.3279L65.3683 69.8136C65.446 70.1437 65.5043 70.4739 65.5431 70.804C65.6014 71.1147 65.6693 71.4158 65.747 71.7071C65.7859 71.7848 65.8053 71.8527 65.8053 71.911C65.8053 71.9692 65.815 72.0372 65.8344 72.1149C65.9121 72.3285 65.9704 72.5324 66.0092 72.7266C66.0675 72.9208 66.1257 73.1248 66.184 73.3384C66.3976 73.9404 66.6112 74.523 66.8249 75.0862C67.0579 75.6494 67.3104 76.1932 67.5823 76.7176C67.6405 76.8341 67.6891 76.9506 67.7279 77.0671C67.7862 77.2031 67.8541 77.3293 67.9318 77.4458C68.0095 77.5818 68.0872 77.708 68.1649 77.8245C68.2425 77.9605 68.3202 78.1061 68.3979 78.2615C68.4368 78.3392 68.4659 78.4363 68.4853 78.5528C68.5241 78.6887 68.5144 78.8053 68.4562 78.9024C68.3785 78.9995 68.2814 79.048 68.1649 79.048C68.0483 79.048 67.9221 79.0674 67.7862 79.1063C67.6696 79.1063 67.5531 79.0868 67.4366 79.048C67.1064 78.9509 66.8831 78.8053 66.7666 78.611C66.6501 78.4363 66.5141 78.2129 66.3588 77.941C65.5431 76.6399 64.8051 75.2125 64.1448 73.6588C64.0089 73.3481 63.8827 73.0374 63.7661 72.7266C63.6496 72.3965 63.5331 72.0663 63.4166 71.7362C63.3777 71.5808 63.3292 71.4255 63.2709 71.2701C63.2321 71.1147 63.1932 70.9594 63.1544 70.804C63.0573 70.5321 62.9893 70.2602 62.9505 69.9884C62.9116 69.6971 62.8631 69.4155 62.8048 69.1436C62.766 68.9299 62.7271 68.7066 62.6883 68.4736C62.6689 68.2405 62.6397 68.0075 62.6009 67.7744C62.5621 67.6773 62.5426 67.5802 62.5426 67.4831C62.5621 67.386 62.5621 67.2889 62.5426 67.1918C62.5426 67.0947 62.5329 66.9879 62.5135 66.8714C62.5135 66.7549 62.5135 66.6383 62.5135 66.5218C62.4941 66.483 62.4844 66.4344 62.4844 66.3762C62.5038 66.2985 62.5135 66.2305 62.5135 66.1722C62.4747 66.0751 62.4552 65.9683 62.4552 65.8518C62.4747 65.7353 62.4844 65.6285 62.4844 65.5314C62.4844 65.4343 62.4747 65.3274 62.4552 65.2109C62.4552 65.0944 62.4747 64.9973 62.5135 64.9196V64.2787C62.5329 64.1816 62.5329 64.0942 62.5135 64.0166C62.5135 63.9195 62.5232 63.8224 62.5426 63.7253L62.7174 62.327C62.7563 62.191 62.7757 62.0551 62.7757 61.9192C62.7951 61.7832 62.8242 61.6473 62.8631 61.5113C62.9602 61.1812 63.0379 60.851 63.0961 60.5209C63.1544 60.1907 63.2321 59.8606 63.3292 59.5304C63.4651 59.1226 63.5913 58.7245 63.7079 58.3361C63.8438 57.9477 63.9895 57.569 64.1448 57.2C64.2225 57.0252 64.3002 56.8504 64.3779 56.6756C64.4556 56.5008 64.5332 56.3261 64.6109 56.1513C64.6498 56.093 64.6789 56.0348 64.6983 55.9765C64.7372 55.9182 64.7663 55.86 64.7857 55.8017C64.9993 55.355 65.2227 54.9278 65.4557 54.52C65.6888 54.1121 65.9412 53.714 66.2131 53.3256C66.3296 53.1508 66.4462 52.976 66.5627 52.8012C66.6792 52.607 66.8151 52.4517 66.9705 52.3352C67.0288 52.2963 67.155 52.238 67.3492 52.1604C67.388 52.1409 67.4269 52.1409 67.4657 52.1604C67.524 52.1604 67.5725 52.1507 67.6114 52.1312ZM83.3649 66.6092C83.5009 66.7063 83.5786 66.8422 83.598 67.017C83.6368 67.1918 83.6563 67.3957 83.6563 67.6288C83.6563 67.7259 83.6465 67.823 83.6271 67.9201C83.6271 68.0172 83.6077 68.1046 83.5689 68.1823C83.5106 68.357 83.3941 68.4736 83.2193 68.5318C83.0639 68.5707 82.8794 68.5901 82.6658 68.5901C82.4716 68.5901 82.2677 68.5901 82.0541 68.5901C81.8404 68.5707 81.6365 68.5901 81.4423 68.6483C81.1704 68.7066 80.9957 68.862 80.918 69.1144C80.8791 69.2504 80.8597 69.4155 80.8597 69.6097C80.8597 69.7844 80.8597 69.9592 80.8597 70.134V71.9692C80.8597 72.1829 80.8597 72.3965 80.8597 72.6101C80.8597 72.8237 80.8209 72.9888 80.7432 73.1053C80.6655 73.2219 80.5684 73.2995 80.4519 73.3384C80.3548 73.3578 80.2285 73.3869 80.0732 73.4258H79.6945C79.4614 73.4258 79.2575 73.4161 79.0827 73.3967C78.9079 73.3578 78.772 73.2607 78.6749 73.1053C78.6166 73.0082 78.5875 72.8723 78.5875 72.6975C78.5875 72.5033 78.5875 72.3091 78.5875 72.1149V70.1049C78.5875 69.7942 78.5681 69.5126 78.5293 69.2601C78.5098 68.9882 78.403 68.8037 78.2088 68.7066C78.1117 68.6678 77.9758 68.6386 77.801 68.6192C77.6456 68.5998 77.4708 68.5901 77.2766 68.5901C77.1018 68.5901 76.9174 68.5901 76.7231 68.5901C76.5484 68.5901 76.393 68.5901 76.2571 68.5901H71.8583C71.6835 68.5901 71.4796 68.5998 71.2466 68.6192C71.0329 68.6192 70.8193 68.6192 70.6057 68.6192C70.3921 68.6192 70.1979 68.5998 70.0231 68.561C69.8483 68.5221 69.7318 68.4541 69.6735 68.357C69.5764 68.2211 69.5279 68.0366 69.5279 67.8036C69.5279 67.5705 69.5279 67.3472 69.5279 67.1335V66.6092C69.6055 66.279 69.7124 66.0072 69.8483 65.7935C69.9842 65.5799 70.1396 65.3566 70.3144 65.1235L71.0135 64.0748C71.868 62.8513 72.7128 61.6473 73.5479 60.4626C74.4024 59.2585 75.2569 58.0545 76.1114 56.8504C76.4221 56.4037 76.7231 55.9765 77.0145 55.5687C77.3058 55.1414 77.6068 54.7044 77.9175 54.2578C78.0146 54.1218 78.1117 53.9956 78.2088 53.8791C78.3059 53.7431 78.403 53.5975 78.5001 53.4421C78.539 53.3839 78.5778 53.3256 78.6166 53.2673C78.6749 53.1897 78.7332 53.1314 78.7914 53.0926C78.8691 53.0343 78.9468 52.9954 79.0245 52.976C79.1022 52.9372 79.1895 52.8983 79.2866 52.8595C79.3255 52.8595 79.3643 52.8692 79.4032 52.8886C79.4614 52.8886 79.51 52.8692 79.5488 52.8304C79.8013 52.8304 80.0343 52.8401 80.248 52.8595C80.4616 52.8789 80.617 52.9663 80.7141 53.1217C80.7917 53.2188 80.8306 53.3547 80.8306 53.5295C80.85 53.7043 80.8597 53.8888 80.8597 54.083V64.6866C80.8597 64.8225 80.85 64.9682 80.8306 65.1235C80.8306 65.2595 80.8403 65.3954 80.8597 65.5314V65.7353C80.8985 65.8324 80.9277 65.9392 80.9471 66.0557C80.9665 66.1528 81.0151 66.2305 81.0928 66.2888C81.2287 66.3859 81.3938 66.4441 81.588 66.4635C81.8016 66.4635 82.0152 66.4635 82.2288 66.4635C82.4425 66.4635 82.6464 66.4733 82.8406 66.4927C83.0542 66.4927 83.229 66.5315 83.3649 66.6092ZM78.3836 66.2305C78.539 66.0169 78.6069 65.6867 78.5875 65.2401C78.5875 64.7934 78.5875 64.3953 78.5875 64.0457V59.2391C78.5875 59.0643 78.5875 58.8604 78.5875 58.6274C78.6069 58.3943 78.5972 58.2001 78.5584 58.0448V57.7535C78.5584 57.5787 78.5293 57.4136 78.471 57.2582C78.4516 57.2194 78.4321 57.2 78.4127 57.2C78.3933 57.1806 78.3642 57.1514 78.3253 57.1126C78.2865 57.0932 78.2282 57.0835 78.1506 57.0835C78.1117 57.1223 78.0729 57.1514 78.034 57.1708C78.0146 57.1708 77.9855 57.1806 77.9466 57.2C77.8301 57.2971 77.7136 57.433 77.5971 57.6078C77.4805 57.7826 77.3737 57.938 77.2766 58.0739C77.0824 58.3458 76.8979 58.6274 76.7231 58.9187C76.5484 59.1906 76.3639 59.4625 76.1697 59.7344C75.8201 60.2393 75.4705 60.7442 75.121 61.2491C74.7908 61.7541 74.451 62.259 74.1014 62.7639C73.946 62.9776 73.8004 63.1815 73.6644 63.3757C73.5285 63.5699 73.3925 63.7641 73.2566 63.9583C73.1595 64.1137 73.0624 64.2593 72.9653 64.3953C72.8876 64.5312 72.8002 64.6769 72.7031 64.8322C72.606 64.9487 72.5089 65.075 72.4118 65.2109C72.3341 65.3274 72.2564 65.4634 72.1788 65.6188C72.1011 65.7353 72.0525 65.8712 72.0331 66.0266C72.0137 66.1625 72.0817 66.2693 72.237 66.347C72.373 66.4441 72.5866 66.4927 72.8779 66.4927C73.1886 66.4733 73.4508 66.4635 73.6644 66.4635H76.9271C77.1989 66.4635 77.4805 66.4635 77.7719 66.4635C78.0632 66.4635 78.2671 66.3859 78.3836 66.2305ZM85.5982 52.1021C85.8507 52.1021 86.0546 52.1409 86.21 52.2186C86.3848 52.2769 86.5207 52.3643 86.6178 52.4808C86.7343 52.5973 86.8314 52.7333 86.9091 52.8886C87.0062 53.0246 87.1033 53.1702 87.2004 53.3256C87.5306 53.8499 87.8413 54.3937 88.1326 54.9569C88.4239 55.5007 88.7055 56.0736 88.9774 56.6756C89.0745 56.8893 89.1716 57.1126 89.2687 57.3456C89.3658 57.5787 89.4629 57.802 89.56 58.0156C89.6765 58.3069 89.7833 58.608 89.8804 58.9187C89.9775 59.2294 90.0746 59.5401 90.1717 59.8509C90.2883 60.181 90.3757 60.5209 90.4339 60.8704C90.4922 61.2006 90.5699 61.5405 90.667 61.89C90.7252 62.1425 90.7641 62.4047 90.7835 62.6766C90.8029 62.929 90.8418 63.1815 90.9 63.4339C90.9194 63.5311 90.9194 63.6282 90.9 63.7253C90.9 63.8224 90.9097 63.9195 90.9291 64.0166C90.9486 64.1331 90.9583 64.2496 90.9583 64.3661C90.9583 64.4827 90.9583 64.5992 90.9583 64.7157C90.9777 64.7545 90.9777 64.8128 90.9583 64.8905C90.9583 64.9682 90.968 65.0361 90.9874 65.0944C91.0068 65.1915 91.0068 65.2983 90.9874 65.4148C90.9874 65.5119 90.9874 65.609 90.9874 65.7061C90.9874 65.8032 90.9874 65.9101 90.9874 66.0266C91.0068 66.1237 91.0068 66.2208 90.9874 66.3179C90.9874 66.415 90.9874 66.5218 90.9874 66.6383C90.9874 66.7354 90.9777 66.8325 90.9583 66.9296C90.9389 67.0267 90.9291 67.1238 90.9291 67.2209C90.9486 67.318 90.9486 67.4151 90.9291 67.5122L90.7544 68.9105C90.7155 69.0659 90.6864 69.2212 90.667 69.3766C90.6475 69.532 90.6184 69.6873 90.5796 69.8427C90.5019 70.1729 90.4242 70.5127 90.3465 70.8623C90.2883 71.1924 90.2106 71.5226 90.1135 71.8527C89.9775 72.2411 89.8416 72.6295 89.7057 73.018C89.5697 73.4064 89.4241 73.7851 89.2687 74.154C89.191 74.3483 89.1036 74.5327 89.0065 74.7075C88.9288 74.9017 88.8414 75.0959 88.7443 75.2901C88.5307 75.7757 88.288 76.232 88.0161 76.6593C87.7636 77.106 87.5014 77.5429 87.2295 77.9702C87.0548 78.2226 86.8897 78.446 86.7343 78.6402C86.579 78.8344 86.3265 78.9703 85.9769 79.048H85.7147C85.5205 79.048 85.336 79.0092 85.1613 78.9315C85.0059 78.8732 84.9671 78.7276 85.0447 78.4945C85.1224 78.2421 85.2487 77.9993 85.4234 77.7663C85.4623 77.708 85.4817 77.6497 85.4817 77.5915C85.5011 77.5526 85.5303 77.5138 85.5691 77.4749C85.6662 77.3002 85.7536 77.1157 85.8313 76.9215C85.9284 76.7467 86.0158 76.5719 86.0934 76.3971C86.1517 76.2612 86.21 76.1252 86.2682 75.9893C86.3459 75.8728 86.4139 75.7562 86.4721 75.6397C86.6275 75.2901 86.7635 74.9309 86.88 74.5619C87.0159 74.2123 87.1519 73.853 87.2878 73.484C87.4043 73.1151 87.5014 72.7461 87.5791 72.3771C87.6762 72.0081 87.7733 71.6294 87.8704 71.241C87.9481 70.9691 87.9967 70.6972 88.0161 70.4253C88.0549 70.134 88.1035 69.8524 88.1617 69.5805C88.2006 69.464 88.22 69.3572 88.22 69.2601C88.22 69.1436 88.2297 69.027 88.2491 68.9105C88.2685 68.7746 88.2782 68.6386 88.2782 68.5027C88.2977 68.3667 88.3171 68.2211 88.3365 68.0657C88.3559 67.9686 88.3559 67.8715 88.3365 67.7744C88.3365 67.6579 88.3462 67.5511 88.3656 67.454C88.3851 67.3569 88.3851 67.2695 88.3656 67.1918C88.3656 67.0947 88.3754 66.9976 88.3948 66.9005C88.4142 66.8228 88.4142 66.7451 88.3948 66.6675C88.3754 66.5704 88.3851 66.483 88.4239 66.4053C88.4433 66.3082 88.4433 66.2014 88.4239 66.0848C88.4239 65.9489 88.4239 65.8227 88.4239 65.7061V64.5118C88.4045 64.2982 88.3851 64.104 88.3656 63.9292C88.3656 63.735 88.3559 63.5311 88.3365 63.3174C88.2977 63.2009 88.288 63.0844 88.3074 62.9679C88.3268 62.8319 88.3171 62.7057 88.2782 62.5892C88.2394 62.4921 88.22 62.395 88.22 62.2979C88.2394 62.2007 88.2297 62.1036 88.1909 62.0065C88.152 61.7735 88.1132 61.5405 88.0743 61.3074C88.0549 61.0744 88.0258 60.8413 87.9869 60.6083C87.9481 60.4529 87.9093 60.2878 87.8704 60.113C87.851 59.9383 87.8219 59.7732 87.783 59.6178C87.6859 59.2877 87.5888 58.9575 87.4917 58.6274C87.414 58.2972 87.3266 57.9671 87.2295 57.6369C87.0936 57.2485 86.9479 56.8601 86.7926 56.4717C86.6372 56.0833 86.4819 55.6949 86.3265 55.3065C86.2877 55.2094 86.2391 55.1123 86.1808 55.0152C86.1226 54.9181 86.074 54.821 86.0352 54.7239C85.8992 54.4131 85.7633 54.1218 85.6274 53.8499C85.4914 53.5781 85.3458 53.3062 85.1904 53.0343C85.1516 52.9566 85.103 52.8498 85.0447 52.7139C84.9865 52.5585 84.9865 52.4323 85.0447 52.3352C85.0836 52.2769 85.1418 52.238 85.2195 52.2186C85.2972 52.1798 85.3749 52.1409 85.4526 52.1021C85.5497 52.1021 85.5982 52.1021 85.5982 52.1021Z" fill="#267054"/>
<defs>
<linearGradient id="paint0_linear_131_6897" x1="184.485" y1="36.7348" x2="76.4621" y2="211.872" gradientUnits="userSpaceOnUse">
<stop stop-color="#267050"/>
<stop offset="1" stop-color="#0BDE51"/>
</linearGradient>
<linearGradient id="paint1_linear_131_6897" x1="161.895" y1="57.502" x2="84.9661" y2="182.227" gradientUnits="userSpaceOnUse">
<stop stop-color="#02985E"/>
<stop offset="1" stop-color="#0EEA4C"/>
</linearGradient>
<linearGradient id="paint2_linear_131_6897" x1="160.957" y1="74.7475" x2="84.0277" y2="199.472" gradientUnits="userSpaceOnUse">
<stop stop-color="#02985E"/>
<stop offset="1" stop-color="#177652"/>
</linearGradient>
<linearGradient id="paint3_linear_131_6897" x1="186.894" y1="63.4396" x2="109.965" y2="188.165" gradientUnits="userSpaceOnUse">
<stop stop-color="#02985E"/>
<stop offset="1" stop-color="#0EEA4C"/>
</linearGradient>
</defs>
</svg>
