<svg width="288" height="288" viewBox="0 0 288 288" fill="none" xmlns="http://www.w3.org/2000/svg">
<rect width="288" height="288" fill="#00AEFF"/>
<path d="M60.3711 119.188L101.646 71.2578H176.804L227.629 121.854V158.144L202.772 216.024L137.622 235.534L96.8708 220.772L68.2859 199.701L60.3711 158.144V119.188Z" fill="#FF4545"/>
<path d="M70.75 99.5402C70.5427 99.8006 69.6462 100.794 69.2724 101.236C69.5983 100.651 71.4977 98.6009 70.75 99.5402ZM65.2273 156.931C65.1939 156.45 65.1605 155.97 65.1271 155.489C65.1145 156.283 65.1175 157.236 65.116 158.144L65.0322 157.256C65.1534 157.898 65.2679 158.517 65.3541 159.041C65.3876 159.246 65.192 158.735 65.2795 159.218C65.3671 159.701 65.4792 159.583 65.6266 160.281C65.7915 161.064 66.3866 164.681 66.6262 165.927C67.5229 170.588 68.4926 175.276 69.3284 179.957C68.3138 175.153 69.1416 180.031 69.4405 181.374C69.5071 181.672 69.7394 181.578 70.6002 186.428C71.1473 189.511 70.2613 186.736 71.4114 191.834C70.9014 187.843 71.6235 191.726 72.2206 194.818C72.2859 195.155 72.6247 197.012 72.9591 198.81L71.1086 195.871C71.9563 196.502 72.7897 197.119 73.3628 197.537C73.8983 197.927 74.7873 198.422 75.4967 198.941C75.9849 199.298 76.3113 199.626 77.0363 200.156C80.4157 202.627 83.7331 205.066 87.0949 207.574C84.9259 206.386 88.5598 208.829 88.7086 208.958C89.4595 209.623 85.8068 206.962 87.2121 208.068C89.2285 209.542 91.245 211.015 93.2614 212.489C91.6356 211.24 95.6111 213.875 96.2526 214.482C96.1955 214.289 97.7429 215.459 99.6785 216.963L98.4825 216.323C101.691 217.578 105.823 219.248 106.827 219.551C107.185 219.658 104.938 218.691 110.242 220.683C110.817 220.899 110.569 220.902 110.874 221.004C111.057 221.065 112.249 221.199 113.365 221.768C113.772 221.976 110.98 221.16 117 223.262C114.71 222.129 125.366 226.128 127.31 226.909C126.93 226.73 126.549 226.552 126.169 226.373C128.08 227.176 128.464 227.212 128.901 227.375C130.661 228.035 133.056 229.007 134.705 229.595C136.634 230.283 136.701 230.119 138.923 230.997C138.404 230.767 137.884 230.537 137.365 230.307C137.997 230.541 138.63 230.774 139.262 231.007L136.241 230.922C137.177 230.647 138.113 230.373 139.048 230.098C135.457 231.419 139.841 229.873 140.133 229.78C140.598 229.632 139.954 229.925 140.732 229.68C140.812 229.653 140.669 229.602 141.871 229.231C144.382 228.457 144.017 228.686 145.074 228.368C145.17 228.338 144.808 228.362 146.628 227.796C152.412 226 146.617 227.865 146.398 227.942C146.11 228.044 148.197 227.775 143.234 229.135C144.899 228.676 145.109 228.771 145.297 228.719C145.462 228.672 148.323 227.793 148.48 227.741C149.875 227.27 148.605 227.543 148.874 227.443C149.095 227.361 152.587 226.455 153.308 225.916C155.043 225.695 152.432 226.45 149.673 227.322C149.285 227.499 152.345 226.642 152.505 226.594C156.431 225.418 154.19 225.844 155.005 225.442C155.433 225.232 157.079 224.907 155.542 225.147C159.098 224.059 156.973 224.823 157.208 224.771C157.563 224.693 158.792 224.261 158.951 224.222C159.183 224.165 158.408 224.474 159.318 224.228C159.469 224.186 160.889 223.63 158.995 224.135C161.507 223.401 161.27 223.36 162.182 223.312C163.792 222.404 163.504 223.169 164.191 222.987C166.016 222.503 165.4 222.353 165.491 222.309C166.12 222.016 171.157 220.623 172.383 220.208C171.96 220.575 168.416 221.398 167.651 221.674C165.1 222.594 171.339 220.69 169.539 221.532C170.306 221.219 171.072 220.907 171.839 220.594C173.341 220.339 171.31 221.032 175.187 219.8C175.778 219.455 172.439 220.649 173.083 220.324C173.463 220.132 175.718 219.44 175.751 219.39C175.782 219.331 173.756 219.996 174.057 219.83C174.715 219.469 182.206 217.382 176.56 219.162C178.141 218.686 179.045 218.741 180.389 218.237C181.258 217.911 176.145 218.992 183.652 216.826C183.854 216.92 180.672 217.764 180.594 217.799C180.484 217.849 181.149 217.997 181.253 217.983C181.617 217.931 189.21 215.471 190.873 215.147C190.178 215.155 196.638 213.385 197.32 213.12C197.502 213.048 196.773 213.144 196.968 213.072C197.847 212.753 199.869 212.246 201.512 211.816L198.736 214.291C199.016 213.696 199.268 213.153 199.448 212.737C200.171 211.069 199.987 211.24 200.027 211.147C200.348 210.414 200.159 211.028 200.352 210.579C200.644 209.9 202.66 205.24 202.748 205C202.773 204.929 202.339 205.645 202.756 204.619C202.828 204.442 202.906 204.608 204.145 201.572C205.638 197.916 202.906 204.024 203.421 202.459C204.61 200.21 204.391 200.205 204.677 199.58C204.776 199.363 205.635 197.803 206.384 196.03C205.865 197.311 205.345 198.591 204.826 199.872C205.39 198.636 206.396 196.198 206.869 195.183C207.1 194.688 207.053 195.158 207.517 194.067C207.615 193.835 207.691 192.781 206.608 195.696C206.396 195.875 207.053 194.549 207.292 193.905C207.328 193.808 207.299 193.351 207.763 192.597C207.875 192.416 207.525 194.757 209.454 189.161C209.516 188.981 209.186 189.558 209.245 189.381C209.285 189.26 209.908 187.888 209.964 187.731C210.02 187.57 209.657 188.206 209.722 188.013C210.056 187.025 210.894 185.901 210.026 187.86C210.346 187.218 210.665 186.576 210.985 185.933C210.456 186.541 211.365 184.872 211.749 183.959C214.211 178.103 212.386 181.948 212.741 180.912C213.312 179.245 213.169 180.644 214.082 178.199C214.166 177.972 212.758 180.798 215.279 175.182C214.927 176.02 214.575 176.857 214.223 177.695C214.649 177.307 215.503 174.674 215.583 174.478C216.507 172.245 215.941 173.78 217.244 170.434C217.361 170.135 217.69 169.517 217.934 168.875C218.944 166.217 216.387 172.291 216.228 172.418C216.15 172.478 218.958 165.971 219.074 165.757C219.573 164.847 217.847 168.726 218.28 168.031C218.437 167.777 222.339 158.461 223.183 156.618C223.233 156.508 223.283 156.401 223.332 156.298L222.952 158.144C223.029 156.051 223.302 155.104 222.958 155.09C223.314 154.43 223.071 153.847 223.073 153.548C223.106 149.932 223.11 149.925 223.076 146.824C223.068 146.139 223.176 145.561 223.158 145.319C223.147 145.178 223.031 145.441 222.996 144.751C222.947 143.792 223.066 138.027 223.13 137.599C223.194 137.17 223.158 140.033 223.263 139.52C223.273 137.448 223.247 135.461 223.258 133.375C223.263 132.508 223.337 132.953 223.338 132.579C223.339 132.42 223.274 129.428 223.247 129.555C223.184 129.852 223.227 139.09 223.098 136.658C223.073 136.188 223.242 134.53 223.036 134.794C223.061 130.481 223.085 126.168 223.11 121.854L224.44 125.057C221.663 122.261 218.886 119.465 216.109 116.669C218.837 119.214 221.699 122.147 224.514 124.983L223.215 121.854C223.208 122.94 223.204 124.017 223.207 125.078C223.209 125.759 223.189 128.061 223.293 127.781C223.305 125.939 223.301 123.902 223.299 121.854L224.574 124.923C222.694 123.056 220.803 121.174 219.209 119.533C219.119 119.44 219.522 119.709 219.188 119.356C218.564 118.695 216.36 116.714 216.035 116.336C215.981 116.269 217.262 117.37 216.954 116.953C216.164 115.883 215.614 115.963 214.816 115.162C214.2 114.543 210.189 110.246 209.057 109.31C207.852 108.316 212.065 112.424 211.673 112.202C208.767 109.477 206 106.543 203.324 103.9C203.277 103.853 203.619 104.325 203.015 103.742C201.964 102.728 201.785 102.364 201.296 101.847C200.769 101.29 198.834 99.3907 198.611 99.1008C198.583 99.0638 199.064 99.3586 199.126 99.4148C200.001 100.21 200.178 100.626 200.253 100.704C200.535 100.993 200.862 101.227 201.12 101.489C201.545 101.922 201.739 102.2 202.303 102.769C202.692 103.161 202.395 102.703 202.769 103.082C202.906 103.222 204.213 104.896 204.543 104.844C204.646 104.826 192.508 92.5891 191.239 91.4218C192.263 92.4873 193.288 93.5528 194.312 94.6183C192.241 92.4453 189.534 90.0545 189.578 89.6488C184.386 84.4562 179.195 79.2637 174.003 74.0711L176.804 75.2275C173.018 75.2187 169.233 75.2098 165.447 75.201C163.46 75.1739 164.55 74.9693 161.281 75.0288C162.126 75.094 162.97 75.1592 163.815 75.2243C162.14 75.1786 154.715 75.0893 153.513 75.1315C153.358 75.137 153.142 75.3222 151.287 75.3381C149.64 75.3521 149.376 75.2134 148.496 75.1868C147.757 75.1649 146.927 75.2013 146.708 75.1936C146.539 75.1875 146.473 75.1026 146.068 75.0878C144.79 75.0421 145.826 75.281 144.557 75.0067C144.866 74.9962 145.175 74.9858 145.484 74.9753C143.941 74.9356 141.833 74.8111 144.106 74.7497C144.496 74.7391 144.161 74.8211 144.452 74.821C155.863 74.8057 146.751 74.6462 142.752 74.7737C141.725 74.652 135.97 74.7263 135.778 74.7023C135.512 74.6676 136.497 74.5704 135.206 74.4865C134.935 74.4687 127.239 74.5368 130.01 74.3752C130.582 74.3419 134.272 74.3769 135.161 74.3722C133.068 74.1144 128.163 74.4837 127.611 74.4742C125.386 74.434 131.886 74.2508 126.873 74.2209C123.018 74.1979 126.637 74.37 125.155 74.4435C124.322 74.4847 119.959 74.2951 120.078 74.5406C118.58 74.5668 119.457 74.4368 119.272 74.4275C119.091 74.4193 116.147 74.4928 115.191 74.441C115.075 74.4346 115.44 74.307 115.32 74.2965C115.087 74.2786 112.248 74.3042 112.134 74.315C112.061 74.3225 112.738 74.4342 112.46 74.4613C112.136 74.4925 109.403 74.4663 109.253 74.4982C109.04 74.5465 112.413 74.5147 111.851 74.6396C110.296 74.6082 107.763 74.6915 106.737 74.7921C106.988 74.7633 108.496 74.7592 109.019 74.7693C108.773 74.9523 105.536 74.9498 106.643 74.805C105.939 74.8828 106.419 74.9241 106.023 74.9975C105.919 75.0161 104.92 75.0199 104.727 75.0516C104.702 75.0579 105.734 75.1269 105.527 75.1641C105.153 75.2312 102.123 75.2161 101.875 75.1985C101.177 75.1486 103.648 75.0882 103.854 75.011C103.883 74.9991 101.782 74.8479 101.75 74.8345C101.627 74.6912 103.965 74.7945 103.698 74.6654C103.12 74.6382 102.541 74.6109 101.963 74.5837C104.194 74.453 108.32 74.5202 109.384 74.3715C106.077 74.4158 102.616 74.4105 102.624 74.0758C102.626 73.9348 104.053 73.8522 103.997 73.8163C103.787 73.6881 101.806 73.8274 101.734 73.8206C101.673 73.8128 101.646 73.8052 101.646 73.7978C101.646 73.7978 101.646 73.7978 101.646 73.7978C101.646 73.7227 104.469 73.6686 104.61 73.6343C104.848 73.5734 103.591 73.3227 103.593 73.2673C103.637 73.2561 105.648 73.1968 104.969 73.1C104.283 73.0023 102.523 73.0001 102.462 72.99C102.125 72.9315 105.204 72.8782 105.295 72.8436C105.344 72.8262 103.691 72.7189 103.643 72.6881C103.601 72.6571 104.858 72.5896 105.353 72.4919C105.722 72.4194 104.647 72.3637 104.836 72.3524C104.971 72.3448 107.88 72.346 108.023 72.3333C108.235 72.3144 107.554 72.2277 107.653 72.206C107.794 72.1748 108.733 72.2061 108.611 72.174C108.519 72.1501 104.878 71.8512 104.902 71.7713C104.943 71.6351 108.799 71.9485 105.211 71.411C105.186 71.4075 104.313 71.4457 104.289 71.4424C103.75 71.3435 106.549 71.1914 103.126 71.2179C109.494 71.0462 103.918 71.0132 104.861 70.7839C105.224 70.6957 107.693 70.6594 107.705 70.6461C107.465 70.5343 106.678 70.621 106.411 70.5662C106.264 70.5356 108.472 70.4173 107.975 70.3405C107.718 70.301 105.374 70.3151 105.277 70.3073C104.349 70.2346 105.487 70.1561 105.283 70.1044C105.148 70.0698 103.733 70.067 103.696 70.0608C103.636 70.0478 105.557 69.9077 105.958 69.8585C106.262 69.8206 105.12 69.7613 105.332 69.7448C106.611 69.646 109.332 69.8979 106.71 69.5449C106.55 69.5233 105.558 69.532 105.529 69.5277C104.916 69.4277 106.742 69.419 107.069 69.3371C107.63 69.196 105.005 69.2747 107.188 69.1754C105.55 69.0831 104.638 69.087 102.722 69.1127C108.027 69.0409 109.9 68.6755 104.01 68.6847C105.883 68.6904 105.676 68.4842 106.234 68.4806C106.582 68.4786 109.299 68.6836 108.053 68.2236C107.897 68.1661 106.247 68.2391 106.764 68.1215C110.724 68.1515 106.848 68.0467 106.843 68.0312C106.895 67.7602 116.573 67.9821 118.236 67.9512C120.166 67.9154 121.881 67.7019 122.3 67.7016C123.68 67.7015 122.535 67.8099 122.844 67.8498C123.157 67.8893 127.081 67.6816 127.277 67.693C128.037 67.7388 127.266 67.8673 127.345 67.8737C128.286 67.9525 133.556 67.8519 135.032 67.8817C134.986 67.7984 132.024 67.7918 133.873 67.6579C136.027 67.5019 136.151 67.8693 136.207 67.8854C146.075 67.8819 155.944 67.8785 165.812 67.875C165.689 67.6795 159.238 67.8269 159.091 67.8012C158.229 67.6488 169.128 67.6516 170.465 67.7206C169.449 67.6784 168.434 67.6362 167.418 67.594C169.152 67.3693 172.991 67.6612 175.499 67.562C176.309 67.5299 174.753 67.4431 174.786 67.4372C175.696 67.3499 177.158 67.4172 176.065 67.5343C176.35 67.52 176.593 67.5095 176.804 67.5021L178.424 67.5325L179.454 68.5961C180.506 69.5728 180.399 69.6006 181.447 70.6558C181.509 70.7181 181.054 70.137 182.037 71.0628C182.498 71.4966 184.889 73.8766 185.265 74.139C185.42 74.2465 184.456 72.7898 184.092 72.8553C181.596 70.162 183.164 72.1259 182.159 71.1152C182.005 70.9598 182.481 71.195 179.88 68.7187C180.58 68.9851 183.349 72.063 183.877 72.5368C184.966 73.514 180.809 69.1539 179.859 68.5427C180.141 68.6463 180.046 68.5495 179.754 68.294L178.608 67.1096L176.804 67.0758C176.459 67.098 175.916 67.1411 175.284 67.1365C173.814 67.1259 174.455 67.0551 173.66 67.0548C171.485 67.053 172.387 67.2208 170.594 67.0695C172.342 67.5379 167.526 67.1313 166.122 67.0086C168.406 66.9849 170.689 66.9611 172.973 66.9373C172.842 66.9127 172.712 66.8881 172.581 66.8635C173.183 66.867 173.784 66.8705 174.386 66.874C174.289 66.8976 174.193 66.9211 174.097 66.9447C175.333 66.8836 176.196 66.8743 176.804 66.8852L178.691 66.9205L179.889 68.1589C180.527 68.8178 180.72 69.0983 180.827 69.2064C183.12 71.5176 185.786 74.1696 188.119 76.4924C188.469 76.8408 188.337 76.4931 190.803 79.1177C191.59 79.9548 190.737 79.2745 191.672 80.1801C193.055 81.099 192.851 81.2604 193.193 81.6023C194.178 82.5821 194.836 83.1243 194.928 83.2142C196.153 84.416 197.925 86.1989 199.269 87.5204C199.295 87.5444 198.67 86.7818 199.517 87.6666C199.814 87.9775 202.248 90.9998 204.735 93.2803C204.134 92.6413 203.533 92.0023 202.931 91.3633C203.634 92.1192 208.83 97.141 207.658 95.8139C206.94 95.0005 204.873 93.3293 204.853 92.938C206.501 94.6902 215.996 103.976 216.685 104.748C216.781 104.855 216.097 104.295 216.229 104.442C216.332 104.556 218.502 106.688 218.765 106.996C218.921 107.18 217.932 106.268 217.987 106.367C218.04 106.45 220.706 109.156 220.935 109.233C220.244 108.606 218.412 106.729 219.45 107.636C219.584 107.752 220.184 108.448 220.347 108.589C221.852 109.903 217.608 105.722 216.955 105.071C219.704 107.614 223.692 111.812 226.828 114.809C228.007 116.108 224.891 113.073 226.244 114.524C229.051 117.534 227.107 115.208 227.205 115.29C227.993 115.947 230.119 118.744 230.379 118.485C230.491 118.606 230.587 118.709 230.67 118.8L231.971 120.145L231.939 121.854C231.892 122.842 231.86 122.667 231.903 124.539C231.929 124.262 231.954 123.985 231.979 123.708C232.192 126.045 231.656 130.989 231.615 130.619C231.505 129.622 231.676 127.047 231.672 126.827C231.666 126.502 231.294 125.602 231.627 122.039C231.609 121.94 231.594 121.88 231.58 121.854L231.609 120.287L230.416 119.054C230.394 119.048 230.387 119.056 230.394 119.077L231.577 120.3L231.548 121.854C231.393 122.171 231.437 127.289 231.288 124.453C231.316 126.636 231.142 135.619 231.251 136.912C231.266 137.066 231.515 136.347 231.388 138.567C231.328 139.62 231.325 137.08 231.268 137.562C231.135 138.699 231.169 150.821 231.196 158.144L230.907 159.551C230.035 161.603 229.338 163.246 228.987 164.069C228.889 164.297 228.854 164.183 228.758 164.408C228.464 165.098 227.49 167.658 226.927 168.879C228.157 166.377 226.034 171.35 225.476 172.608C224.63 174.517 224.557 174.344 224.174 175.162C222.7 178.312 220.871 183.388 219.528 185.75C219.862 185.733 217.55 189.985 216.683 191.998C216.003 193.575 215.202 195.942 216.228 193.86C215.046 196.578 213.866 199.467 212.785 202.029C212.607 202.452 212.775 201.836 212.473 202.56C212.446 202.626 212.487 202.75 212.23 203.372C210.106 208.51 211.004 205.952 210.544 206.886C210.286 207.409 210.103 207.797 209.974 208.085C211.237 205.101 212.68 201.654 213.072 200.735C212.56 201.442 210.272 207.348 209.493 209.03C209.466 209.089 209.458 208.841 209.431 208.901C209.431 208.902 209.43 208.904 209.43 208.905C209.148 209.54 207.438 213.62 207.913 212.833C208.041 212.622 208.844 210.751 209.787 208.527C209.55 209.137 209.852 208.735 209.811 208.843C209.313 210.151 207.854 213.254 207.36 214.365C207.248 214.619 207.325 214.631 207.307 214.673C206.855 215.682 206.835 215.18 206.593 216.31C205.555 218.043 208.037 212.846 207.716 213.15C207.619 213.241 206.795 215.106 205.842 217.342L205.174 218.822L203.731 219.225C200.122 220.316 195.628 221.743 195.687 221.86C195.638 221.851 195.462 221.874 195.107 221.947C194.321 222.108 190.92 223.15 190.343 223.364C190.246 223.401 190.345 223.586 190.222 223.625C189.916 223.722 185.704 224.814 184.183 225.397C185.032 225.173 185.88 224.949 186.729 224.725C181.656 226.246 182.458 226.07 184.166 225.623C184.25 225.598 184.335 225.581 184.416 225.558C185.739 225.209 187.431 224.748 187.461 224.756C187.575 224.787 178.978 227.397 180.579 226.718C180.802 226.624 184.809 225.513 182.798 225.973C182.446 226.053 179.899 226.857 179.761 226.882C178.833 227.056 184.38 225.256 183.657 225.324C182.34 225.86 180.58 226.312 179.035 226.811C178.332 227.038 178.188 227.189 178.102 227.217C176.805 227.634 177.506 227.311 177.071 227.444C176.838 227.516 174.334 228.506 174.729 228.056C166.328 230.816 172.454 228.982 177.643 227.409C176.035 228.011 172.801 228.921 171.364 229.379C170.849 229.544 171.187 229.554 170.317 229.836C168.529 230.417 159.893 232.876 157.644 233.52C159.01 233.072 158.574 233.081 157.514 233.407C156.454 233.733 157.391 233.614 157.189 233.691C156.971 233.774 151.967 235.197 151.144 235.464C154.879 234.287 154 234.43 150.812 235.372C151.263 235.203 151.714 235.033 152.165 234.863C150.312 235.467 146.337 236.474 145.273 236.847C145.107 236.906 145.742 236.816 145.649 236.849C144.714 237.172 141.466 238.042 141.326 238.118C141.207 238.183 142.603 237.849 142.105 238.04C142.001 238.08 140.64 238.351 139.345 238.772C138.865 238.929 139.182 238.929 139.062 238.971C138.903 239.026 138.784 239.064 138.687 239.091L137.439 239.44L136.358 239.025C135.859 238.836 136.07 238.799 134.529 238.263C133.188 237.797 132.142 237.579 130.314 236.863C136.306 239.239 131.241 237.319 128.689 236.456C128.28 236.318 128.571 236.6 126.173 235.645C131.437 237.232 124.756 234.963 123.4 234.468C123.326 234.44 123.338 234.328 122.673 234.085C122.617 234.065 122.673 234.164 122.052 233.945C116.169 231.871 119.948 233.151 118.858 232.678C118.394 232.477 115.506 231.542 114.737 231.266C114.561 231.203 114.668 231.16 113.984 230.915C112.773 230.482 111.661 230.167 110.861 229.884C110.768 229.85 110.805 229.735 109.279 229.224C108.85 229.08 108.358 228.948 108.95 229.199C110.914 230.033 114.782 231.223 117.008 232.151C119.037 232.997 112.522 230.648 112.183 230.526C112.059 230.481 113.351 230.885 112.063 230.406C110.964 229.997 108.876 229.464 107.247 228.825C107.123 228.776 105.87 228.133 105.934 228.145C105.991 228.158 108.022 228.853 107.747 228.698C107.714 228.68 106.431 228.216 106.277 228.12C106.088 228.002 105.691 227.37 105.421 227.26C104.728 226.979 105.15 227.243 104.698 227.072C103.729 226.704 100.394 225.352 100.23 225.462C100.785 225.673 101.341 225.884 101.896 226.095C98.7832 224.985 100.085 225.528 99.6343 225.397C99.1493 225.255 99.3302 225.172 98.2872 224.781C98.1685 224.736 96.9092 224.288 95.744 223.882L94.9078 223.435C93.9947 222.779 93.1465 222.18 93.1625 222.227C95.2927 223.681 94.421 223.253 94.5149 223.326C94.6088 223.399 94.714 223.471 94.8271 223.544L95.6977 224.01C96.0595 224.117 96.4822 224.214 96.9015 224.368C100.903 225.833 96.8103 224.513 97.7428 224.893C98.0639 225.023 98.7407 225.18 98.8774 225.234C99.3217 225.41 99.2922 225.514 99.5946 225.615C100.3 225.849 99.5367 225.409 99.5947 225.422C100.252 225.558 102.658 226.556 101.078 226.161C101.972 226.549 102.148 226.397 102.846 226.736C104.233 227.409 102.087 226.588 101.493 226.401C99.361 225.731 98.7648 225.432 95.7844 224.381C95.7197 224.358 95.6542 224.335 95.5881 224.312L94.6362 223.803C93.7482 223.171 92.7141 222.517 92.3117 222.227C92.0419 222.032 89.7168 219.893 89.3246 220.269C88.3726 219.503 87.0401 218.083 86.018 217.349C85.1003 216.691 85.2769 217.057 85.1878 217C85.0509 216.913 83.9606 216.091 83.5729 215.839C83.1184 215.543 83.293 215.761 82.5842 215.276C80.8206 214.066 80.9805 213.944 80.8111 213.804C78.8447 212.174 79.5802 213.057 79.1117 212.74C78.6761 212.444 72.7975 207.979 71.5056 207.113C72.0375 207.457 72.5694 207.801 73.1013 208.145C72.2621 207.376 71.1799 206.823 71.2913 206.636C70.8993 206.781 69.1579 205.208 68.5879 204.799C68.3632 204.638 68.3454 204.698 68.0652 204.495C67.5414 204.115 66.7126 203.494 65.9241 202.904L64.6264 201.91L64.3758 200.445C64.1824 199.391 63.9984 198.397 63.9115 198.024C63.4762 196.158 63.7794 198.337 64.1115 200.496L64.379 202.059L65.7645 203.121C66.8868 204.012 68.0122 204.887 68.2127 205.042C67.8247 204.754 66.7446 203.97 65.6907 203.221L64.2646 202.128L63.9893 200.519C63.5553 198.437 63.11 196.472 63.394 198.521C63.4647 199.031 63.7885 199.896 63.8485 200.178C63.8769 200.312 63.9012 200.429 63.9219 200.532L64.2016 202.166L65.65 203.276C66.773 204.085 65.6401 203.402 65.7473 203.496C65.944 203.668 67.0588 204.321 67.3222 204.536C67.4102 204.607 66.7485 204.277 68.2458 205.384C67.8554 205.169 66.6888 204.319 65.5208 203.452L64.0015 202.287L63.7081 200.572C63.4207 199.035 63.145 197.482 63.0638 197.136C63.0079 196.897 63.0367 198.453 62.4493 194.005C62.4351 194.06 62.4208 194.116 62.4066 194.171C61.9301 191.723 61.4536 189.275 60.9771 186.827C61.083 187.083 61.4559 188.437 61.1024 186.709C60.8988 185.714 60.9164 186.476 60.8955 186.385C60.6912 185.497 57.7146 169.646 57.1161 166.578C56.9128 165.534 56.2595 162.642 56.2154 162.42C56.092 161.798 55.8433 160.428 55.5942 159.053L55.5083 158.144C55.5225 156.566 55.5374 154.983 55.5298 154.476C55.5207 153.88 55.4161 154.447 55.421 153.915C55.4257 153.42 55.5268 153.932 55.5311 153.785C55.5677 152.568 55.4351 143.318 55.5304 141.121C55.5018 142.464 55.7038 149.163 55.7752 149.028C55.7849 148.999 55.8619 147.371 55.8243 147.035C55.9119 146.48 55.6453 144.575 55.6977 143.539C55.7036 143.422 55.8532 143.883 55.8803 142.034C55.8896 141.397 55.773 139.729 55.9037 138.05C55.8409 135.619 56.0348 122.84 55.8741 121.963C55.8657 121.937 55.8103 123.737 55.7444 122.521C55.6568 120.905 55.952 122.356 55.9774 120.473C55.9786 120.389 55.9768 119.875 55.9732 119.188L56.0054 117.474L57.0386 116.318C58.1066 115.065 59.8179 113.049 59.8871 112.949C60.7974 111.638 57.7581 115.065 57.7854 115.003C57.8529 114.851 60.3136 111.948 60.4232 111.838C60.5283 111.735 58.6696 114.229 61.0399 111.349C60.7413 111.656 60.4427 111.963 60.144 112.269C61.2497 110.907 61.4739 110.879 61.7581 110.563C62.6423 109.582 63.3999 108.348 64.9967 106.931C65.4191 106.556 64.8766 107.315 64.9308 107.269C65.4466 106.826 65.7999 105.999 66.6134 105.365C66.6745 105.318 65.2317 107.179 67.9148 104.064C67.7154 104.266 67.516 104.468 67.3166 104.669C67.662 104.202 70.3588 101.03 70.7321 100.613C71.8224 99.3925 70.9973 100.565 72.0577 99.3079C71.2243 99.9821 74.4683 96.1767 74.4056 96.5022C74.7044 95.8378 77.5973 92.7233 78.9041 91.2134C79.7284 90.2606 81.337 88.2542 81.6062 87.9577C81.9342 87.5966 81.9446 87.8011 82.543 87.1544C82.7137 86.97 84.3458 84.916 85.9581 83.2678C86.2704 82.9483 87.0631 82.395 86.5677 83.0622C85.7196 84.2041 83.822 86.1117 83.9517 86.1782C84.0927 86.2466 86.3832 83.4486 87.0331 82.7242C90.0336 79.3801 88.463 81.4507 88.5754 81.395C88.8606 81.2453 90.4594 79.3831 90.5343 79.3124C90.8471 79.0217 89.7832 80.4008 89.8209 80.4678C89.8715 80.5533 91.544 78.8714 91.2171 79.2997C90.7489 79.9125 89.2229 81.4676 89.138 81.5765C88.0363 82.9958 89.8061 81.2739 90.3294 80.8299C90.4884 80.6957 89.995 81.3514 90.1135 81.2286C91.9215 79.3532 90.2397 80.6137 91.3914 79.3225C92.4189 78.1706 91.2314 79.7686 91.2758 79.7291C91.3321 79.677 92.5422 78.2837 92.769 78.0978C92.8811 78.0064 89.9619 81.8223 90.187 81.7519C91.1649 80.5743 92.1427 79.3967 93.1205 78.2192C93.3219 78.2343 91.7949 79.8242 91.659 80.0077C91.3854 80.3769 92.2817 79.4621 92.2849 79.5372C92.2904 79.5809 91.4 80.7936 92.3207 79.7981C92.6372 79.456 93.1886 78.641 94.3837 77.4317C90.6443 82.0018 93.3829 78.9616 93.5401 78.8673C93.6949 78.7757 91.9586 80.9997 94.1726 78.3919C94.5091 78.4859 94.2003 78.513 93.6081 79.2858C92.8829 80.2327 94.7576 78.2153 91.8579 81.4615C92.1316 81.3705 94.4063 78.713 94.5361 78.5804C94.6486 78.4662 94.1964 79.1029 94.396 78.9089C96.7527 76.6107 95.1839 78.2322 95.9421 77.6318C96.0096 77.5784 98.0835 75.2739 96.5639 77.0793C93.7953 80.3684 92.4639 81.593 92.3325 82.4331C94.555 80.1508 96.8497 77.0424 97.4767 76.3067C98.4368 75.181 97.506 76.4021 97.6444 76.2807C97.692 76.2381 98.5182 75.267 98.5349 75.2588C99.3874 74.7932 94.8355 79.5634 93.5278 81.1731C93.9292 80.7855 94.3307 80.3979 94.7321 80.0102C94.2417 80.5828 93.7513 81.1554 93.2609 81.7281C95.6826 79.0737 93.3731 81.6576 92.9986 82.517C92.9146 82.7099 94.3734 80.8523 92.7481 83.0048C94.0738 81.5265 93.7035 82.0433 94.8173 80.6302C94.8712 80.7378 92.3269 83.8843 91.3292 85.1303C95.1011 80.9413 92.6954 83.1108 96.0378 79.5597C96.5231 78.7854 95.026 80.5649 95.1325 80.4064C95.5146 79.8377 96.6536 78.7137 97.6925 77.069C97.8614 76.8009 96.8868 77.7113 98.1723 76.2292C98.3146 76.0654 99.2239 75.1988 99.2194 75.2177C99.1845 75.4064 98.3498 76.3202 98.3471 76.3852C98.3448 76.4464 99.2279 75.3857 99.2391 75.389C99.3586 75.4359 98.5228 76.2917 98.6647 76.1851C98.9715 75.9552 102.408 72.3636 98.1229 77.2231C101.531 73.056 98.4711 76.6138 97.1435 78.2361C96.8048 78.6496 96.7713 78.7994 96.2934 79.3928C95.6789 80.1563 94.9045 81.0024 94.5838 81.3951C94.2391 81.8178 96.3899 79.5823 93.428 82.9436C95.0447 81.327 97.5351 78.157 99.087 76.538C102.218 73.2717 97.2535 79.1166 96.7499 79.7372C96.6158 79.9026 97.1555 79.4257 97.0674 79.5371C96.923 79.7189 94.0487 82.9875 93.8299 83.3654C93.6119 83.7425 94.8674 82.155 95.0189 82.1081C95.1214 82.0761 91.7715 86.1204 93.6556 83.9919C94.954 82.5248 97.1376 79.6398 97.7202 79.3388C95.8556 81.5351 93.991 83.7315 92.1265 85.9278C93.2261 84.7938 94.3257 83.6598 95.4253 82.5257C93.3377 84.9953 91.4338 87.0449 89.5309 89.4592C94.573 84.062 88.148 91.4305 88.1054 91.5357C88.0984 91.5772 90.1777 89.5343 90.5163 89.2091C88.9074 91.2204 83.8382 97.1769 87.0511 93.9049C86.4579 94.4901 85.2719 96.1231 85.2988 96.1113C85.5657 96.0041 88.3632 92.6239 87.9869 93.2441C87.551 93.9628 86.6503 94.7204 85.8293 95.6968C81.6176 100.708 83.3127 99.7977 78.9473 104.7C79.0511 104.617 79.1549 104.534 79.2587 104.451C74.574 109.831 69.8893 115.211 65.2046 120.591C64.8817 121.029 64.4422 121.597 63.9261 122.249L65.0625 119.188C65.2045 122.633 65.2842 128.026 65.2654 130.965C65.2609 131.7 65.1502 135.307 65.1308 135.579C65.0936 136.083 65.0794 133.311 65.0097 134.564C64.9953 134.828 64.9488 140.935 65.0668 140.498C65.0805 139.814 65.0212 137.672 65.049 137.322C65.2475 134.86 65.0889 153.685 65.1689 154.618C65.2072 154.201 65.2456 153.784 65.2839 153.367C65.265 154.555 65.2462 155.743 65.2273 156.931ZM67.8604 103.408C68.2359 102.791 69.4693 101.495 70.133 100.673C71.0496 99.5374 72.3222 97.3609 71.9718 98.4682C70.6013 100.115 69.2309 101.762 67.8604 103.408ZM55.5729 133.651C55.6365 132.215 55.8917 133.329 55.7856 134.506C55.7735 134.637 55.4873 135.595 55.5729 133.651ZM57.2158 115.685C57.199 115.707 57.0195 115.914 56.8266 116.136L55.7277 117.365L55.6935 119.188C55.6918 119.537 55.6888 119.914 55.6866 119.937C55.635 120.498 55.6147 119.828 55.6186 119.188L55.6533 117.335L56.7699 116.087C57.1848 115.611 57.5986 115.172 57.2158 115.685ZM62.1158 191.603C61.8089 190.05 61.7954 191.22 62.0733 192.168C62.0908 192.228 62.1358 191.705 62.1158 191.603ZM61.9112 190.496C61.8854 189.25 61.0085 186.896 61.4184 188.822C61.4583 189.009 61.912 190.554 61.9112 190.496ZM55.6743 128.531C55.754 128.693 55.7155 130.174 55.6964 130.807C55.6237 130.79 55.6832 129.152 55.6743 128.531ZM57.2674 166.833C57.3406 166.883 56.3737 161.824 56.227 161.495C56.4134 162.287 57.201 166.785 57.2674 166.833ZM59.8248 179.791C59.811 179.66 59.4619 177.916 59.4174 177.977C59.5087 178.844 59.8866 180.377 59.8248 179.791ZM69.675 206.427C69.7609 206.473 68.8971 205.4 71.3011 207.459C71.6541 207.762 70.267 206.853 70.3921 206.961C70.6551 207.186 70.8678 207.357 71.0429 207.488C69.842 206.639 68.6044 205.744 68.4982 205.639C67.9994 205.146 69.6371 206.407 69.675 206.427ZM80.9237 214.394C81.2017 214.527 82.7408 215.7 83.0812 215.98C83.1394 216.029 82.7847 215.954 83.4926 216.462C84.0612 216.87 83.3117 216.126 84.3938 216.954C85.4874 217.791 83.9414 216.788 84.0335 216.866C84.1571 216.97 85.9127 218.177 85.8061 218.21C85.7269 218.235 83.9169 216.845 83.4543 216.521C82.862 216.107 83.5015 216.716 82.5436 215.98C81.9417 215.518 82.3958 215.611 82.2727 215.508C82.1694 215.422 79.9679 213.939 80.9267 214.397C80.9257 214.396 80.9247 214.395 80.9237 214.394ZM71.3682 207.717C71.2752 207.657 71.1685 207.583 71.0429 207.488C71.1519 207.565 71.2607 207.642 71.3682 207.717ZM65.217 106.609C64.6842 107.136 66.072 105.406 66.6793 104.821C66.7369 104.852 65.3016 106.525 65.217 106.609ZM72.5599 208.399C74.2891 209.734 72.9562 208.835 71.3682 207.717C71.8861 208.054 71.9792 207.95 72.5599 208.399ZM55.8243 147.035C55.8098 147.127 55.7872 147.186 55.7499 147.193C55.7906 146.951 55.8125 146.929 55.8243 147.035ZM55.7579 152.131C55.8713 153.877 55.8667 150.328 55.7856 150.351C55.755 150.361 55.7534 152.061 55.7579 152.131ZM62.4848 193.599C62.4658 193.44 63.2665 195.815 62.3398 192.322C62.6601 194.219 62.2438 192.233 62.2199 192.268C62.15 192.361 62.8359 195.52 62.9331 196.23C63.1894 196.751 62.5476 194.124 62.4855 193.603C62.4853 193.602 62.485 193.601 62.4848 193.599ZM103.094 227.718C102.652 227.654 101.356 227.154 100.476 226.829C100.919 226.893 102.215 227.394 103.094 227.718ZM200.38 88.4851C204.991 92.957 205.321 93.8047 201.259 89.5558C201.179 89.4725 200.078 88.2365 200.38 88.4851ZM231.958 134.119C231.798 134.724 231.772 132.721 231.838 131.406C231.853 131.109 232.015 130.008 232.047 131.265C231.853 131.225 231.778 133.168 231.958 134.119ZM73.6145 209.049C74.19 209.34 75.7206 210.563 76.5414 211.188C75.9825 210.885 74.3289 209.617 73.6145 209.049ZM215.201 103.51C215.672 103.996 216.095 104.22 216.02 104.129C215.687 103.722 214.71 102.91 215.201 103.51ZM68.5373 205.285C68.5032 205.181 70.627 206.67 70.6786 206.904C70.2392 206.566 68.5653 205.356 68.5373 205.285ZM101.449 227.071C101.081 226.903 103.061 227.559 103.643 227.804C103.572 227.851 101.69 227.181 101.449 227.071ZM222.958 111.166C223.379 111.602 224.45 112.673 224.609 112.751C224.806 112.848 223.215 111.299 222.958 111.166ZM124.878 67.0996C124.801 67.0743 127.147 66.8917 128.189 66.9379C130.169 67.0263 124.961 67.1175 124.878 67.0996ZM210.609 99.0404C209.348 97.5976 210.761 99.1862 210.801 99.0281C209.893 98.117 207.63 95.8544 209.092 97.504C209.377 97.8251 210.191 98.6109 210.609 99.0404ZM211.826 100.318C212.003 100.43 213.08 101.301 212.229 100.468C211.835 100.083 211.094 99.5691 211.826 100.318ZM139.41 67.0375C141.123 67.1612 133.269 67.0949 133.043 67.0732C132.924 67.0618 132.846 67.051 132.801 67.0418C132.513 67.081 131.029 67.0881 130.857 66.989C131.302 66.9972 132.517 66.9884 132.658 66.9994C132.718 67.0041 132.764 67.0085 132.795 67.013C133.318 66.9269 139.082 67.0141 139.41 67.0375ZM152.425 67.1648C150.464 67.3473 150.117 67.0371 150.286 67.0271C152.42 66.9001 151.028 67.1289 151.094 67.1396C151.243 67.1574 152.759 67.0513 152.418 67.1648C152.42 67.1648 152.423 67.1648 152.425 67.1648ZM142.078 67.0886C141.997 67.0926 140.351 67.083 140.283 67.0781C138.934 66.9739 143.592 67.0006 142.078 67.0886ZM89.4142 220.383C90.3445 221.107 89.3463 220.513 88.7402 220.015C88.6908 219.974 88.5936 219.744 89.4142 220.383ZM212.515 100.96C212.693 101.168 217.589 106.157 217.413 105.738C216.978 105.334 211.41 99.6661 212.515 100.96ZM231.732 148.635C231.733 147.402 231.896 148.746 231.835 149.404C231.812 149.647 231.731 148.945 231.732 148.635ZM65.8107 203.092C65.805 203.089 65.7994 203.085 65.7937 203.081L64.4244 202.032L64.16 200.486C63.8528 199.311 64.1589 199.462 64.2763 200.464L64.5332 201.966L65.864 202.986C65.8922 203.01 65.9211 203.035 65.9505 203.061C65.9831 203.091 65.8532 203.119 65.8107 203.092ZM231.825 138.788C231.924 143.039 231.408 142.032 231.582 136.506C231.605 136.679 231.628 136.852 231.651 137.025C231.728 130.646 231.687 136.588 231.716 138.15C231.727 138.744 231.813 138.246 231.826 138.784C231.826 138.785 231.825 138.787 231.825 138.788ZM231.722 155.116C231.356 159.21 231.594 151.395 231.547 149.153C231.698 151.326 231.675 154.156 231.829 150.308C231.859 155.934 231.714 153.592 231.702 153.816C231.688 154.082 231.738 154.942 231.722 155.116ZM231.719 144.318C231.709 144.082 231.783 142.299 231.771 141.657C231.896 142.555 231.792 145.889 231.719 144.318ZM166.069 67.08C165.921 67.1779 165.555 67.25 164.147 67.2134C164.582 67.1642 165.481 67.1219 166.069 67.08ZM69.1339 102.719C69.7716 101.989 71.0586 100.551 70.5945 100.933C70.5456 100.976 69.0921 102.679 69.1339 102.719ZM226.845 115.338C226.983 115.492 230.754 119.258 229.526 117.883C229.156 117.468 225.709 114.056 226.845 115.338ZM207.294 95.8572C207.609 96.1726 208.907 97.438 208.95 97.4487C209.094 97.4785 207.486 95.9404 207.294 95.8572ZM72.3998 99.0802C72.4907 98.9902 74.4085 96.7356 74.1602 96.9511C73.6891 97.3605 72.0878 99.3888 72.3998 99.0802ZM93.0016 222.742C93.2029 222.886 93.4032 223.166 93.4714 223.218C93.526 223.259 93.9842 223.591 94.5084 223.976L95.5147 224.515C96.7075 224.946 98.1985 225.499 97.0925 225.195C97.0058 225.171 96.3567 224.936 95.4791 224.613L94.4463 224.061C92.7815 222.822 90.159 220.855 89.6942 220.501C89.517 220.189 91.6752 221.952 92.2294 222.342C92.3271 222.41 92.4611 222.357 92.9996 222.742C93.0003 222.742 93.0009 222.742 93.0016 222.742ZM158.738 67.1833C158.538 67.2761 153.214 67.3375 153.276 67.2251C155.096 67.2111 156.917 67.1972 158.738 67.1833ZM161.443 67.1986C162.579 67.2643 159.918 67.286 159.134 67.257C159.126 67.1946 161.277 67.189 161.443 67.1986ZM214.206 103.228C214.601 103.589 213.531 102.332 213.81 102.573C213.989 102.728 214.801 103.608 215.101 103.847C215.187 103.913 214.412 102.963 214.158 102.718C213.798 102.37 214.072 102.783 213.684 102.398C212.396 101.119 211.306 99.9329 210.099 98.7335C209.99 98.6254 210.784 99.5163 209.856 98.5908C209.712 98.4479 208.924 97.5146 207.802 96.4194C205.118 94.2074 203.542 92.1865 200.344 89.1694C200.44 89.3082 202.711 91.6853 202.846 91.824C205.411 94.4536 210.071 99.1006 212.797 101.815C213.497 102.512 213.205 102.125 213.509 102.423C213.748 102.659 213.375 102.468 214.206 103.228ZM68.8517 103.155C69.2498 102.889 70.2458 101.608 70.926 100.828C70.601 101.029 69.533 102.407 68.8517 103.155ZM185.653 74.4791C186.024 74.8416 187.136 76.0033 187.258 76.0698C187.415 76.155 185.792 74.4949 185.653 74.4791ZM117.718 232.491C117.766 232.505 118.937 232.936 118.98 232.956C119.993 233.432 116.481 232.138 117.718 232.491ZM148.427 236.415C149.329 236.128 150.232 235.816 150.567 235.824C149.984 235.982 148.342 236.516 148.427 236.415ZM187.876 224.598C187.65 224.524 190.404 223.791 190.922 223.648C190.749 223.763 188.042 224.65 187.876 224.598ZM166.274 67.5061C164.533 67.498 164.9 67.7036 163.795 67.6106C163.614 67.5949 163.031 67.1667 164.945 67.3271C165.29 67.356 163.942 67.4577 166.274 67.5061ZM231.587 135.606C231.497 135.163 231.523 133.779 231.531 132.844C231.597 133.053 231.58 134.94 231.587 135.606ZM75.9659 95.0965C76.5948 94.5604 78.9856 91.6399 78.3129 92.2927C78.218 92.3862 76.3149 94.6985 75.9659 95.0965ZM77.421 211.346C78.7299 212.187 76.16 210.254 75.2851 209.73C75.6588 209.998 77.3329 211.289 77.421 211.346ZM178.379 227.365C178.449 227.34 180.029 226.877 180.101 226.86C181.423 226.573 176.954 227.884 178.379 227.365ZM138.977 239.073C139.521 238.824 143.276 237.769 144.137 237.597C143.365 237.953 138.301 239.382 138.977 239.073ZM173.438 67.4477C172.196 67.4519 171.018 67.4266 169.877 67.3911C170.117 67.3219 173.307 67.396 173.438 67.4477ZM184.166 225.623C184.25 225.598 184.335 225.581 184.416 225.558C184.331 225.58 184.247 225.602 184.166 225.623ZM196.777 85.833C197.495 86.5867 197.431 86.3445 197.389 86.2965C196.862 85.7148 195.963 84.9797 196.777 85.833ZM69.7703 102.377C70.0924 102.178 71.1677 100.793 71.8455 100.048C71.5864 100.21 70.2906 101.754 69.7703 102.377ZM230.639 160.913C230.349 161.444 230.61 160.68 231.027 159.603L231.327 158.144C231.278 156.795 231.256 154.97 231.299 154.366C231.351 154.31 231.427 156.602 231.465 158.144L231.154 159.657C230.882 160.337 230.668 160.858 230.639 160.913ZM73.6423 208.347C73.6115 208.213 71.7489 206.975 72.1059 207.29C72.3319 207.49 73.6596 208.429 73.6423 208.347ZM231.352 151.69C231.324 151.19 231.413 150.025 231.467 150.435C231.536 150.962 231.359 151.819 231.352 151.69ZM219.56 108.67C219.705 108.834 221.854 110.843 221.058 109.922C220.505 109.282 220.319 109.279 220.178 109.14C220.021 108.983 216.789 105.541 219.56 108.67ZM218.807 188.266C219.213 187.233 219.779 186.017 220.235 184.949C220.099 185.406 219.061 187.862 218.807 188.266ZM80.5922 213.44C80.3968 213.251 74.5033 208.88 77.7925 211.443C77.9844 211.592 81.1856 214.014 80.5922 213.44ZM166.274 67.5061C166.493 67.5071 166.747 67.5114 167.041 67.5202C166.749 67.5167 166.495 67.5106 166.274 67.5061ZM185.993 75.1311C185.663 74.8946 187.082 76.3317 187.529 76.7275C187.715 76.8005 186.039 75.1636 185.993 75.1311ZM220.186 184.832C220.416 184.203 220.931 183.103 221.254 182.341C221.255 182.494 220.357 184.591 220.186 184.832ZM192.858 222.777C194.14 222.43 195.701 221.946 195.704 221.867C195.734 221.87 195.799 221.864 195.905 221.845C196.012 221.826 197.365 221.384 197.964 221.231C201.553 220.314 184.299 225.416 194.229 222.224C193.772 222.408 193.315 222.592 192.858 222.777ZM131.7 237.222C131.022 236.88 128.999 236.267 129.502 236.487C129.852 236.64 132.379 237.564 131.7 237.222ZM161.645 232.046C161.424 232.096 159.468 232.747 159.431 232.808C160.58 232.516 162.649 231.824 161.645 232.046ZM126.288 235.149C125.848 234.975 125.23 234.906 125.281 234.931C125.715 235.145 127.007 235.495 126.288 235.149ZM169.881 67.8983C170.585 67.94 172.829 67.8346 173.317 67.7385C173.408 67.7571 173.653 67.7813 174.103 67.8104C174.101 67.8104 174.1 67.8104 174.099 67.8104C174.241 67.8195 175.349 67.8288 176.804 67.8354L178.281 67.863L179.219 68.8323C182.566 72.1953 188.553 78.1427 182.054 71.4733C181.788 71.2003 182.096 71.6287 181.008 70.5242C180.936 70.4511 180.95 70.3653 180.728 70.1397C180.524 69.9316 179.964 69.362 179.329 68.7214L178.348 67.7077L176.804 67.6788C175.457 67.6699 173.878 67.6676 173.412 67.7016C173.405 67.6885 173.355 67.6761 173.248 67.6647C172.292 67.5631 169.335 67.8662 169.881 67.8983ZM165.556 230.862C165.151 230.956 163.9 231.356 163.788 231.455C164.42 231.297 166.496 230.644 165.556 230.862ZM80.5604 213.1C79.9104 212.557 78.1297 211.364 78.6206 211.789C78.9215 212.049 81.3101 213.726 80.5604 213.1ZM152.966 234.666C157.63 233.347 154.072 234.329 154.757 234.029C154.16 234.241 153.563 234.454 152.966 234.666ZM147.452 67.6629C148.225 67.6838 147.317 67.8638 146.466 67.7661C146.199 67.7351 147.02 67.6515 147.452 67.6629ZM112.558 67.7188C113.218 67.8784 109.997 67.7846 111.252 67.6752C111.31 67.6715 112.511 67.7127 112.558 67.7188ZM136.941 67.784C137.466 67.6753 137.807 67.6624 139.285 67.6893C137.097 67.7199 139.126 67.816 136.941 67.784ZM195.687 221.86C195.696 221.862 195.704 221.863 195.704 221.867C195.694 221.866 195.689 221.864 195.687 221.86ZM121.994 233.623C121.455 233.33 119.854 232.757 120.299 233.017C120.342 233.042 121.737 233.603 121.994 233.623ZM173.317 67.7385C173.237 67.722 173.278 67.7113 173.412 67.7016C173.418 67.7139 173.383 67.7255 173.317 67.7385ZM130.603 236.662C130.522 236.706 132.946 237.612 133.047 237.64C134.484 238.034 131.609 237.022 130.603 236.662ZM66.8455 202.87C66.7337 202.797 67.3214 203.45 67.7874 203.707C68.1482 203.906 67.264 203.145 66.8455 202.87ZM131.923 67.8282C131.104 67.8281 129.95 67.8282 129.738 67.744C130.287 67.7569 131.94 67.7665 131.923 67.8282ZM113.819 67.8344C114.788 67.7354 117 67.7357 118.413 67.752C118.439 67.8823 114.728 67.8038 113.819 67.8344ZM167.658 67.8498C167.725 67.8551 169.78 67.8939 169.499 67.8067C169.089 67.6788 167.078 67.8023 167.658 67.8498ZM70.0016 205.314C70.7769 205.811 69.1842 204.407 68.3192 203.947C67.8751 203.71 69.8709 205.23 70.0016 205.314ZM117.044 231.702C115.887 231.336 118.682 232.444 119.107 232.502C118.585 232.304 117.455 231.832 117.044 231.702ZM158.312 232.797C154.576 233.641 156.707 233.504 157.345 233.269C157.434 233.236 158.403 232.776 158.312 232.797ZM82.5513 88.2547C82.8766 87.821 81.4603 89.2628 81.356 89.5175C81.2921 89.6752 82.3432 88.5321 82.5513 88.2547ZM209.974 208.085C209.911 208.234 209.848 208.381 209.787 208.527C209.83 208.416 209.89 208.272 209.974 208.085ZM106.815 227.621C109.217 228.887 109.049 228.521 109.269 228.603C109.742 228.778 110.812 229.273 111.712 229.581C110.673 229.249 109.634 228.917 108.594 228.585C109.395 228.904 116.382 231.58 116.55 231.577C116.791 231.573 114.568 230.797 114.506 230.766C114.417 230.722 114.153 230.373 113.95 230.29C113.617 230.154 107.737 228.019 106.815 227.621ZM150.669 235.129C151.266 234.98 151.46 235.02 151.727 234.917C151.818 234.882 151.807 234.791 152.118 234.673C151.635 234.825 151.152 234.977 150.669 235.129ZM102.173 226.295C101.494 225.932 104.69 227.134 104.788 227.183C105.312 227.452 102.727 226.591 102.173 226.295ZM129.416 236.147C129.301 236.098 126.847 235.173 126.846 235.238C127.483 235.518 130.774 236.724 129.416 236.147ZM152.51 234.55C153.395 234.295 155.089 233.883 154.859 233.81C154.858 233.811 154.856 233.811 154.855 233.811C154.073 234.057 153.291 234.304 152.51 234.55ZM72.7036 206.949C71.4578 205.763 71.9467 206.462 73.1219 207.415C73.548 207.609 72.9079 207.144 72.7036 206.949ZM68.4021 203.579C68.2412 203.438 67.3566 202.785 66.477 202.154L65.4831 201.393L65.2912 200.271C65.0243 198.965 64.7394 197.689 64.7545 198.106C64.7605 198.275 65.0117 199.426 65.2009 200.288L65.3987 201.444L66.4225 202.228C66.8482 202.524 67.19 202.761 67.2269 202.792C67.3782 202.918 66.5805 202.487 67.8035 203.357C67.7583 203.271 68.5253 203.685 68.4021 203.579ZM71.6484 206C70.3805 204.861 69.8939 204.879 70.9202 205.636C71.3212 205.933 71.8291 206.162 71.6484 206ZM77.2103 210.132C76.736 209.746 75.4523 208.748 74.4905 208.164C75.6925 209.061 76.8945 209.958 78.0965 210.855C78.2695 210.911 77.6251 210.469 77.207 210.129C77.2081 210.13 77.2092 210.131 77.2103 210.132ZM103.626 68.611C104.974 68.6969 101.869 68.7298 101.738 68.7087C101.348 68.6386 103.024 68.5726 103.626 68.611ZM91.5072 82.0742C91.7775 81.8128 92.0227 81.7008 92.5158 81.0377C91.9117 81.6116 91.3076 82.1856 90.7036 82.7596C90.4276 83.3722 91.2114 82.3597 91.5072 82.0742ZM94.101 80.1297C94.0281 80.2215 94.6677 79.928 93.5321 80.9468C92.7648 81.6352 96.2949 77.3386 97.0482 76.663C96.3704 77.5426 94.7303 79.3412 94.101 80.1297ZM101.417 73.5788C101.477 73.5455 100.124 75.1684 99.9523 75.3428C99.0488 76.2589 101.096 73.7599 101.417 73.5788ZM96.9778 78.6481C97.6673 77.9347 96.2632 79.6214 95.8116 80.0956C95.7289 80.108 96.8716 78.7586 96.9778 78.6481ZM117.275 72.8571C118.346 73.0564 119.305 72.6275 117.656 72.7139C117.577 72.718 117.229 72.8474 117.275 72.8571ZM100.294 75.3365C99.6042 76.0499 101.008 74.3632 101.46 73.889C101.541 73.8785 100.398 75.2276 100.294 75.3365ZM118.029 73.3318C119.453 73.4752 118.951 72.994 118.773 72.9746C118.041 72.898 115.528 73.0869 115.015 73.1338C118.776 73.0616 117.359 73.2643 118.029 73.3318ZM124.595 73.0428C125.916 72.9915 122.54 72.8933 121.896 73.0275C122.553 73.021 124.219 73.0577 124.595 73.0428ZM132.61 73.1972C133.32 73.2144 135.432 73.2557 135.787 73.1799C135.011 73.1937 132.91 73.1193 132.61 73.1972ZM134.218 73.424C135.328 73.5269 135.594 73.2272 134.314 73.3164C134.265 73.3199 134.177 73.4183 134.218 73.424ZM140.458 73.5323C141.186 73.6515 142.017 73.3612 140.837 73.3533C140.487 73.3515 140.381 73.5186 140.458 73.5323ZM119.811 73.8495C120.854 73.9007 122.197 73.6928 119.971 73.67C120.753 73.6382 121.535 73.6065 122.317 73.5747C119.401 73.4582 119.615 73.7465 118.778 73.7345C117.608 73.7176 117.7 73.4797 117.935 73.405C116.976 73.5507 112.9 73.5531 110.545 73.5808C112.615 73.642 115.974 73.7481 118.017 73.7868C118.6 73.798 119.166 73.7328 119.663 73.7401C120.461 73.7521 119.753 73.8461 119.807 73.8495C119.808 73.8495 119.81 73.8495 119.811 73.8495ZM148.66 73.5366C150.8 73.6716 149.447 73.38 148.237 73.432C148.186 73.436 148.607 73.5333 148.66 73.5366ZM102.817 73.7642C100.859 75.8513 102.093 74.171 98.3752 78.8637C99.8834 76.8461 98.3712 78.6769 98.6382 78.2595C98.853 77.9252 99.85 76.8378 99.2061 77.4145C100.033 76.6401 103.199 72.9119 103.357 72.7596C103.355 72.7611 103.354 72.7627 103.353 72.7642C103.447 72.6726 103.442 73.0981 102.817 73.7642ZM132.621 73.9596C133.334 74.3134 133.614 73.7518 135.018 74.045C136.886 73.6193 129.857 74.045 129.006 73.6854C136.64 73.7271 123.962 73.329 129.291 73.8674C124.901 73.672 127.852 73.934 127.174 74.0026C126.45 74.0757 123.966 73.9963 124.092 74.1281C124.094 74.1281 124.095 74.1281 124.097 74.1281C125.615 74.1188 127.134 74.1096 128.653 74.1004C127.166 73.8161 130.27 73.9014 131.323 74.133C131.755 74.0752 132.188 74.0174 132.621 73.9596ZM124.025 73.6927C124.174 73.6992 127.478 73.6594 127.265 73.6024C126.823 73.566 122.135 73.6096 124.025 73.6927ZM109.487 73.7548C110.673 73.7555 112.507 73.811 113.153 73.7038C111.967 73.7031 110.132 73.6476 109.487 73.7548ZM170.561 73.7751C172.073 73.6872 167.419 73.6611 168.765 73.7653C168.832 73.7702 170.487 73.7792 170.561 73.7751ZM136.059 73.9061C137.596 74.0142 136.87 73.6701 135.731 73.7598C135.665 73.765 135.988 73.9012 136.059 73.9061ZM101.337 75.5472C101.333 75.6802 98.5814 78.7852 98.1021 79.3429C98.3153 78.9752 101.34 75.3948 101.337 75.5472ZM107.399 74.0703C109.759 74.3734 112.962 74.0233 113.313 74.0309C113.662 74.0387 113.114 74.1712 113.194 74.1748C113.375 74.1822 117.095 74.1711 117.275 74.1619C117.403 74.1547 116.73 73.9684 117.498 73.9098C116.001 74.0156 109.202 73.9494 108.849 73.97C108.576 73.9865 110.636 74.1821 107.403 74.0703C107.402 74.0703 107.401 74.0703 107.399 74.0703ZM114.191 74.0715C113.261 73.9934 115.867 73.9837 116.497 74.0125C117.898 74.0769 114.31 74.0807 114.191 74.0715ZM120.457 74.1434C120.754 74.1609 123.44 74.1768 123.668 74.0899C122.397 73.9772 119.782 74.1026 120.457 74.1434ZM150.337 74.1317C151.035 74.1206 152.952 74.1874 153.062 74.1115C152.364 74.1225 150.447 74.0558 150.337 74.1317ZM92.6023 86.7056C93.4065 85.8692 91.6745 87.9202 91.1404 88.4937C91.0743 88.4929 92.5338 86.7768 92.6023 86.7056ZM136.32 74.6322C136.733 74.6553 145.157 74.5977 146.339 74.5621C145.183 74.5047 136.834 74.5003 136.455 74.5283C136.344 74.5367 136.267 74.6286 136.32 74.6322ZM118.101 74.6673C117.328 74.7791 116.824 74.645 116.727 74.6433C115.772 74.6262 113.791 74.6514 114.225 74.5437C115.911 74.5872 119.639 74.4452 118.101 74.6673ZM150.936 74.6378C153.796 74.5963 148.302 74.4784 149.023 74.5953C149.069 74.6024 150.64 74.6421 150.936 74.6378ZM135.379 74.6648C134.748 74.7552 126.321 74.6773 124.968 74.6771C126.18 74.5104 127.156 74.637 128.784 74.6285C129.223 74.6261 129.106 74.5567 129.153 74.5566C129.914 74.5534 129.344 74.6335 129.813 74.6347C130.11 74.6352 136.266 74.5375 135.379 74.6648ZM117.66 74.7448C117.189 74.8089 111.927 74.8362 111.716 74.8192C110.132 74.6924 117.251 74.7224 117.66 74.7448ZM136.152 74.813C135.246 75.0067 131.061 74.877 133.925 74.7804C134.198 74.7716 135.357 74.8556 136.152 74.813ZM150.63 74.8222C150.771 74.8279 153.753 74.8666 153.807 74.805C153.376 74.7811 149.029 74.7596 150.63 74.8222ZM149.084 75.0307C149.156 75.0292 148.457 74.9105 149.855 74.9255C149.972 74.9269 150.189 75.0605 151.947 75.0116C152.303 75.0015 152.856 74.9132 152.816 74.9077C150.986 74.6981 145.474 75.0995 149.084 75.0307ZM117.564 74.853C117.847 74.9093 117.163 75.0767 116.547 74.9919C116.282 74.9553 116.775 74.8549 117.564 74.853ZM160.087 74.8763C158.354 74.9778 163.796 74.997 164.074 74.971C163.899 74.9078 160.261 74.8664 160.087 74.8763ZM91.4257 89.2725C91.4266 89.2714 91.4275 89.2704 91.4284 89.2693C90.4593 90.3594 90.9848 89.6199 90.9382 89.6699C88.8172 91.9429 89.4998 91.4433 89.1999 91.8261C88.5572 92.6472 88.4905 92.3683 87.417 93.7626C89.2043 91.469 87.5244 93.5112 87.4081 93.5195C86.9399 93.5459 90.0511 90.6925 90.9424 89.5491C91.0667 89.3898 90.013 90.4483 90.3271 90.0366C91.3485 88.6982 95.1439 85.0894 91.4257 89.2725ZM116.071 75.0067C115.394 75.1058 110.263 75.0097 111.623 74.928C111.842 74.9149 117.065 74.8622 116.071 75.0067ZM193.995 214.587C195.151 214.151 192.384 214.874 191.896 215.09C191.653 215.197 193.486 214.778 193.995 214.587ZM174.69 219.985C173.291 220.422 171.914 221.208 173.644 220.631C173.828 220.57 174.865 219.984 174.69 219.985ZM223.55 152.939C223.423 154.469 223.66 154.378 223.657 153.254C223.656 152.858 223.554 152.89 223.55 152.939ZM202.916 205.431C202.848 205.569 202.164 207.201 202.24 207.163C202.528 206.575 203.359 204.544 202.916 205.431ZM223.517 152.453C223.559 153.36 223.731 151.798 223.563 150.689C223.577 151.253 223.512 152.359 223.517 152.453ZM139.314 75.3381C140.073 75.2405 142.223 75.27 143.458 75.2532C143.591 75.3796 140.196 75.3152 139.314 75.3381ZM180.691 218.338C179.387 218.821 182.256 218.038 181.961 218.004C181.923 218.008 180.742 218.318 180.691 218.338ZM211.758 111.875C212.526 112.533 210.328 110.202 210.859 110.918C210.886 110.953 211.715 111.839 211.758 111.875ZM201.879 101.98C202.403 102.537 204.721 104.834 203.873 103.886C203.741 103.739 201.968 101.971 201.879 101.98ZM89.2126 91.9507C89.58 91.7231 87.9951 93.5162 87.7544 93.7609C87.6594 93.8568 88.7337 92.2479 89.2126 91.9507ZM221.995 160.876C221.697 161.61 220.858 163.485 220.778 163.844C221.148 162.948 222.222 160.69 221.995 160.876ZM186.751 216.522C185.553 216.734 183.579 217.339 184.121 217.369C186.302 216.703 183.804 217.292 186.751 216.522ZM223.365 147.353C223.354 147.988 223.531 148.475 223.539 148.403C223.619 147.715 223.434 146.722 223.365 147.353ZM209.301 190.385C209.217 190.389 208.445 192.273 208.597 192.042C208.647 191.967 209.369 190.382 209.301 190.385ZM165.97 75.3811C166.903 75.4502 164.055 75.5177 163.212 75.4371C162.803 75.3209 165.852 75.3732 165.97 75.3811ZM223.409 129.745C223.297 129.651 223.36 132.832 223.453 131.578C223.477 131.265 223.447 129.778 223.409 129.745ZM208.564 109.02C210.171 110.431 203.888 104.041 205.439 105.821C205.55 105.948 208.425 108.897 208.564 109.02ZM198.252 98.6359C198.502 98.9061 198.106 99.0441 197.129 97.866C197.001 97.7115 197.734 98.3009 197.634 98.1694C197.575 98.0923 195.265 95.7175 195.15 95.616C195.027 95.5073 195.079 95.7293 194.951 95.6215C194.807 95.4998 193.437 93.9857 192.681 93.2313C191.256 91.8099 191.031 91.7279 190.914 91.6118C190.572 91.2729 190.05 90.6521 189.359 89.9645C185.877 86.4988 180.491 81.2578 177.882 78.3588C180.278 80.8649 182.682 83.1307 185.146 85.544C184.282 84.9803 188.856 89.0089 186.163 86.6702C187.362 87.7889 197.429 97.7519 198.249 98.633C198.25 98.634 198.251 98.635 198.252 98.6359ZM169.118 221.543C169.944 221.161 165.527 222.514 165.194 222.769C165.784 222.614 169.015 221.589 169.118 221.543ZM189.445 215.127C189.85 214.983 190.168 214.625 192.36 214.102C192.362 214.101 192.364 214.101 192.366 214.1C193.006 213.947 192.306 214.221 192.428 214.207C192.472 214.203 194.474 213.735 192.847 214.243C190.367 215.018 192.559 214.134 191.231 214.529C191.069 214.577 188.596 215.46 188.75 215.445C188.767 215.443 189.514 215.189 189.642 215.164C190.127 215.068 189.92 215.212 189.988 215.195C190.208 215.139 194.142 213.822 194.753 213.761C194.952 213.741 188.457 215.776 188.197 215.834C188.033 215.87 188.038 215.641 187.865 215.67C187.777 215.685 185.178 216.549 184.831 216.632C184.731 216.656 184.654 216.672 184.597 216.684C185.013 216.63 182.636 217.337 182.687 217.242C182.72 217.201 184.36 216.728 184.42 216.715C184.446 216.71 184.469 216.706 184.491 216.702C184.129 216.724 189.664 215.07 188.434 215.311C190.019 214.766 188.258 215.551 189.445 215.127ZM197.119 212.689C196.96 212.761 196.801 212.832 196.641 212.904C198.123 212.429 199.739 211.963 201.413 211.485L198.419 214.154C199.045 212.746 199.694 211.297 200.319 209.839C200.657 209.052 200.139 209.903 200.618 208.885C201.001 208.071 201.514 207.207 201.348 207.668C201.307 207.78 200.506 209.431 200.152 210.277C199.108 212.774 199.488 212.194 199.429 212.34C199.378 212.465 198.924 213.397 198.551 214.211L201.454 211.623C201.194 211.695 200.946 211.765 200.739 211.827C198.501 212.508 197.498 212.885 194.408 213.71C196.153 213.105 195.135 213.229 197.119 212.689ZM220.481 121.173C220.348 121.149 219.036 119.747 218.534 119.263C218.665 119.287 219.979 120.689 220.481 121.173ZM66.4591 165.207C66.2266 164.652 67.0228 168.997 66.9067 167.834C66.881 167.576 66.562 165.753 66.4591 165.207ZM70.0973 184.714C70.2416 185.288 69.8844 182.934 69.7907 182.957C69.761 182.966 70.0786 184.64 70.0973 184.714ZM211.654 183.445C211.695 183.34 212.362 181.858 212.388 181.814C212.934 180.876 210.753 185.762 211.654 183.445ZM78.936 201.667C77.2299 200.511 82.1987 204.217 80.7357 203.01C80.6627 202.95 79.0181 201.723 78.936 201.667ZM85.8851 206.761C85.4851 206.472 83.7444 205.138 83.6987 205.152C83.6271 205.175 85.6223 206.698 85.8851 206.761ZM222.895 146.925C222.755 147.162 222.861 144.271 222.843 143.266C222.984 143.028 222.877 145.92 222.895 146.925ZM220.411 162.693C221.776 159.433 222.679 157.336 223.172 156.23L222.779 158.144C222.799 156.675 222.84 156.781 222.866 158.144L223.252 156.264C222.728 157.552 221.674 160.035 220.187 163.387C220.099 163.365 220.114 163.403 220.411 162.693ZM222.808 149.566C222.898 150.009 222.871 151.393 222.864 152.328C222.802 152.159 222.824 150.24 222.808 149.566ZM65.6641 160.005C65.9185 160.734 66.4144 164.086 66.2559 163.503C66.2198 163.367 65.5503 159.741 65.6641 160.005ZM211.947 182.459C211.71 182.666 213.205 179.325 213.343 179.08C213.901 178.09 212.036 182.175 211.947 182.459ZM222.775 129.626C222.668 128.98 222.723 127.145 222.725 125.964C222.816 126.502 222.777 128.625 222.775 129.626ZM222.691 138.148C222.687 138.074 222.697 136.428 222.702 136.354C222.806 135.005 222.779 139.663 222.691 138.148ZM93.5217 88.4092C93.4885 88.4531 92.6697 89.3934 92.6383 89.4237C91.8345 90.2001 94.2922 87.3782 93.5217 88.4092Z" fill="#FF4545"/>
<path d="M35.1853 40.2991C35.3953 40.28 35.6053 40.3087 35.8153 40.385C36.0252 40.4423 36.1016 40.5759 36.0443 40.7859C36.0062 40.9386 35.9489 41.0818 35.8725 41.2154C35.8153 41.3491 35.7484 41.4731 35.6721 41.5877C35.5385 41.7977 35.4239 42.0077 35.3285 42.2176C35.233 42.4276 35.128 42.6376 35.0135 42.8476C34.7653 43.3439 34.5363 43.8689 34.3263 44.4225C34.1163 44.9761 33.9158 45.5297 33.7249 46.0833C33.6295 46.3696 33.5436 46.6655 33.4672 46.971C33.41 47.2573 33.3431 47.5532 33.2668 47.8586C33.1904 48.0877 33.1332 48.3263 33.095 48.5745C33.0759 48.8227 33.0377 49.0708 32.9804 49.319C32.9423 49.4335 32.9232 49.5481 32.9232 49.6626C32.9232 49.7771 32.9136 49.8917 32.8945 50.0062C32.8564 50.1017 32.8373 50.2067 32.8373 50.3212C32.8564 50.4167 32.8564 50.5121 32.8373 50.6076C32.7991 50.703 32.78 50.808 32.78 50.9225C32.7991 51.018 32.7895 51.1134 32.7514 51.2089V51.4093C32.7323 51.4666 32.7227 51.5334 32.7227 51.6098C32.7418 51.667 32.7418 51.7338 32.7227 51.8102C32.6846 51.9629 32.6655 52.1443 32.6655 52.3543C32.6846 52.5452 32.6941 52.7265 32.6941 52.8983C32.6941 53.0129 32.6846 53.1369 32.6655 53.2706C32.6655 53.4042 32.6655 53.5283 32.6655 53.6428V53.9292C32.6846 54.1391 32.6941 54.3396 32.6941 54.5305C32.6941 54.7214 32.7036 54.9218 32.7227 55.1318C32.7418 55.2273 32.7418 55.3322 32.7227 55.4468C32.7227 55.5613 32.7323 55.6663 32.7514 55.7618C32.7705 55.8381 32.7705 55.9145 32.7514 55.9908C32.7514 56.0672 32.7705 56.1436 32.8086 56.2199L32.9804 57.6803C33.0568 58.0048 33.1141 58.3293 33.1523 58.6539C33.2095 58.9593 33.2763 59.2552 33.3527 59.5415C33.3909 59.6179 33.41 59.6847 33.41 59.742C33.41 59.7992 33.4195 59.866 33.4386 59.9424C33.515 60.1524 33.5722 60.3528 33.6104 60.5437C33.6677 60.7346 33.7249 60.9351 33.7822 61.1451C33.9922 61.7368 34.2022 62.3095 34.4122 62.8631C34.6412 63.4167 34.8894 63.9512 35.1567 64.4667C35.2139 64.5812 35.2617 64.6957 35.2998 64.8103C35.3571 64.9439 35.4239 65.068 35.5003 65.1825C35.5766 65.3161 35.653 65.4402 35.7294 65.5548C35.8057 65.6884 35.8821 65.8316 35.9584 65.9843C35.9966 66.0606 36.0252 66.1561 36.0443 66.2706C36.0825 66.4043 36.073 66.5188 36.0157 66.6142C35.9393 66.7097 35.8439 66.7574 35.7294 66.7574C35.6148 66.7574 35.4907 66.7765 35.3571 66.8147C35.2426 66.8147 35.128 66.7956 35.0135 66.7574C34.689 66.662 34.4694 66.5188 34.3549 66.3279C34.2404 66.1561 34.1067 65.9366 33.954 65.6693C33.1523 64.3903 32.4268 62.9872 31.7778 61.46C31.6442 61.1546 31.5201 60.8492 31.4055 60.5437C31.291 60.2192 31.1765 59.8947 31.0619 59.5702C31.0238 59.4174 30.976 59.2647 30.9188 59.112C30.8806 58.9593 30.8424 58.8066 30.8042 58.6539C30.7088 58.3866 30.642 58.1193 30.6038 57.8521C30.5656 57.5657 30.5179 57.2889 30.4606 57.0217C30.4224 56.8117 30.3842 56.5922 30.3461 56.3631C30.327 56.134 30.2983 55.9049 30.2602 55.6759C30.222 55.5804 30.2029 55.485 30.2029 55.3895C30.222 55.2941 30.222 55.1986 30.2029 55.1032C30.2029 55.0077 30.1934 54.9027 30.1743 54.7882C30.1743 54.6737 30.1743 54.5591 30.1743 54.4446C30.1552 54.4064 30.1456 54.3587 30.1456 54.3014C30.1647 54.225 30.1743 54.1582 30.1743 54.101C30.1361 54.0055 30.117 53.9005 30.117 53.786C30.1361 53.6714 30.1456 53.5665 30.1456 53.471C30.1456 53.3756 30.1361 53.2706 30.117 53.156C30.117 53.0415 30.1361 52.946 30.1743 52.8697V52.2397C30.1934 52.1443 30.1934 52.0584 30.1743 51.982C30.1743 51.8866 30.1838 51.7911 30.2029 51.6957L30.3747 50.3212C30.4129 50.1876 30.432 50.054 30.432 49.9203C30.4511 49.7867 30.4797 49.6531 30.5179 49.5194C30.6133 49.1949 30.6897 48.8704 30.747 48.5459C30.8042 48.2213 30.8806 47.8968 30.976 47.5723C31.1097 47.1714 31.2337 46.7801 31.3483 46.3983C31.4819 46.0165 31.6251 45.6442 31.7778 45.2815C31.8542 45.1097 31.9305 44.9379 32.0069 44.7661C32.0832 44.5943 32.1596 44.4225 32.2359 44.2507C32.2741 44.1934 32.3028 44.1362 32.3219 44.0789C32.36 44.0216 32.3887 43.9643 32.4078 43.9071C32.6177 43.468 32.8373 43.048 33.0663 42.6472C33.2954 42.2463 33.5436 41.8549 33.8108 41.4731C33.9254 41.3013 34.0399 41.1295 34.1545 40.9577C34.269 40.7668 34.4026 40.6141 34.5553 40.4996C34.6126 40.4614 34.7367 40.4041 34.9276 40.3278C34.9658 40.3087 35.0039 40.3087 35.0421 40.3278C35.0994 40.3278 35.1471 40.3182 35.1853 40.2991ZM45.2872 40.9577C45.4781 40.9577 45.6595 40.9768 45.8313 41.015C46.0031 41.0341 46.1272 41.0913 46.2036 41.1868C46.3181 41.3395 46.3754 41.54 46.3754 41.7881C46.3754 42.0172 46.3754 42.2654 46.3754 42.5326V45.3961V57.5944V59.8279C46.3754 60.0188 46.3754 60.2192 46.3754 60.4292C46.3944 60.6201 46.3658 60.7728 46.2895 60.8873C46.194 61.0401 46.0508 61.1355 45.8599 61.1737C45.6881 61.1928 45.4781 61.2023 45.23 61.2023H44.8005C44.6477 61.1641 44.5141 61.1355 44.3996 61.1164C44.285 61.0782 44.1896 61.0019 44.1132 60.8873C44.0369 60.7728 43.9987 60.6296 43.9987 60.4578C43.9987 60.2669 43.9987 60.076 43.9987 59.8851V57.7948V47.6009C43.9605 47.4291 43.9319 47.2859 43.9128 47.1714C43.9128 47.0378 43.8555 46.9232 43.741 46.8278C43.6074 46.7323 43.4355 46.6846 43.2256 46.6846C43.0347 46.6655 42.8247 46.656 42.5956 46.656H40.4194C40.0949 46.656 39.7799 46.656 39.4744 46.656C39.169 46.6369 38.959 46.5224 38.8445 46.3124C38.8063 46.2551 38.7872 46.1978 38.7872 46.1406C38.7872 46.0642 38.7777 45.9783 38.7586 45.8829C38.7204 45.6538 38.7299 45.4438 38.7872 45.2529C38.8636 45.062 38.9686 44.9284 39.1022 44.852C39.2549 44.7566 39.484 44.7088 39.7894 44.7088C40.0949 44.7088 40.3526 44.6802 40.5626 44.6229C40.658 44.6038 40.763 44.5943 40.8775 44.5943C40.9921 44.5752 41.1066 44.5466 41.2211 44.5084C41.5075 44.413 41.7843 44.3175 42.0515 44.2221C42.3188 44.1075 42.5765 43.9739 42.8247 43.8212C43.0919 43.6494 43.321 43.4489 43.5119 43.2198C43.7028 42.9908 43.8842 42.7426 44.056 42.4753C44.1705 42.2845 44.2564 42.0745 44.3137 41.8454C44.39 41.6163 44.4855 41.4159 44.6 41.2441C44.6955 41.1295 44.8291 41.0532 45.0009 41.015C45.0391 40.9959 45.0868 40.9864 45.1441 40.9864C45.2013 40.9864 45.2491 40.9768 45.2872 40.9577ZM52.8658 40.2705C53.1139 40.2705 53.3144 40.3087 53.4671 40.385C53.6389 40.4423 53.7725 40.5282 53.868 40.6427C53.9825 40.7573 54.078 40.8909 54.1543 41.0436C54.2498 41.1773 54.3452 41.3204 54.4407 41.4731C54.7652 41.9886 55.0706 42.5231 55.357 43.0767C55.6433 43.6112 55.9201 44.1743 56.1874 44.7661C56.2828 44.9761 56.3783 45.1956 56.4737 45.4247C56.5692 45.6538 56.6646 45.8733 56.7601 46.0833C56.8746 46.3696 56.9796 46.6655 57.075 46.971C57.1705 47.2764 57.2659 47.5818 57.3614 47.8873C57.4759 48.2118 57.5618 48.5459 57.6191 48.8895C57.6764 49.214 57.7527 49.5481 57.8482 49.8917C57.9054 50.1399 57.9436 50.3976 57.9627 50.6648C57.9818 50.913 58.02 51.1612 58.0773 51.4093C58.0963 51.5048 58.0963 51.6002 58.0773 51.6957C58.0773 51.7911 58.0868 51.8866 58.1059 51.982C58.125 52.0965 58.1345 52.2111 58.1345 52.3256C58.1345 52.4402 58.1345 52.5547 58.1345 52.6692C58.1536 52.7074 58.1536 52.7647 58.1345 52.841C58.1345 52.9174 58.1441 52.9842 58.1632 53.0415C58.1822 53.1369 58.1822 53.2419 58.1632 53.3565C58.1632 53.4519 58.1632 53.5474 58.1632 53.6428C58.1632 53.7383 58.1632 53.8433 58.1632 53.9578C58.1822 54.0532 58.1822 54.1487 58.1632 54.2441C58.1632 54.3396 58.1632 54.4446 58.1632 54.5591C58.1632 54.6546 58.1536 54.75 58.1345 54.8455C58.1154 54.9409 58.1059 55.0364 58.1059 55.1318C58.125 55.2273 58.125 55.3227 58.1059 55.4182L57.9341 56.7926C57.8959 56.9453 57.8673 57.098 57.8482 57.2508C57.8291 57.4035 57.8005 57.5562 57.7623 57.7089C57.6859 58.0334 57.6096 58.3675 57.5332 58.7111C57.4759 59.0356 57.3996 59.3602 57.3041 59.6847C57.1705 60.0665 57.0369 60.4483 56.9032 60.8301C56.7696 61.2119 56.6264 61.5841 56.4737 61.9468C56.3974 62.1377 56.3115 62.3191 56.216 62.4909C56.1397 62.6818 56.0537 62.8727 55.9583 63.0636C55.7483 63.5408 55.5097 63.9894 55.2424 64.4094C54.9943 64.8485 54.7366 65.278 54.4693 65.6979C54.2975 65.9461 54.1352 66.1656 53.9825 66.3565C53.8298 66.5474 53.5816 66.6811 53.238 66.7574H52.9803C52.7894 66.7574 52.6081 66.7192 52.4363 66.6429C52.2835 66.5856 52.2454 66.4424 52.3217 66.2134C52.3981 65.9652 52.5222 65.7266 52.694 65.4975C52.7321 65.4402 52.7512 65.383 52.7512 65.3257C52.7703 65.2875 52.799 65.2493 52.8371 65.2112C52.9326 65.0393 53.0185 64.858 53.0948 64.6671C53.1903 64.4953 53.2762 64.3235 53.3526 64.1517C53.4098 64.0181 53.4671 63.8844 53.5244 63.7508C53.6007 63.6363 53.6675 63.5217 53.7248 63.4072C53.8775 63.0636 54.0112 62.7104 54.1257 62.3477C54.2593 62.0041 54.3929 61.6509 54.5266 61.2882C54.6411 60.9255 54.7366 60.5628 54.8129 60.2001C54.9084 59.8374 55.0038 59.4652 55.0993 59.0834C55.1756 58.8161 55.2233 58.5489 55.2424 58.2816C55.2806 57.9953 55.3283 57.7185 55.3856 57.4512C55.4238 57.3367 55.4429 57.2317 55.4429 57.1362C55.4429 57.0217 55.4524 56.9071 55.4715 56.7926C55.4906 56.659 55.5001 56.5254 55.5001 56.3917C55.5192 56.2581 55.5383 56.1149 55.5574 55.9622C55.5765 55.8668 55.5765 55.7713 55.5574 55.6759C55.5574 55.5613 55.567 55.4563 55.5861 55.3609C55.6051 55.2654 55.6051 55.1795 55.5861 55.1032C55.5861 55.0077 55.5956 54.9123 55.6147 54.8168C55.6338 54.7405 55.6338 54.6641 55.6147 54.5877C55.5956 54.4923 55.6051 54.4064 55.6433 54.33C55.6624 54.2346 55.6624 54.1296 55.6433 54.0151C55.6433 53.8814 55.6433 53.7573 55.6433 53.6428V52.4688C55.6242 52.2588 55.6051 52.0679 55.5861 51.8961C55.5861 51.7052 55.5765 51.5048 55.5574 51.2948C55.5192 51.1802 55.5097 51.0657 55.5288 50.9512C55.5479 50.8175 55.5383 50.6935 55.5001 50.5789C55.462 50.4835 55.4429 50.388 55.4429 50.2926C55.462 50.1971 55.4524 50.1017 55.4142 50.0062C55.3761 49.7772 55.3379 49.5481 55.2997 49.319C55.2806 49.0899 55.252 48.8608 55.2138 48.6318C55.1756 48.4791 55.1374 48.3168 55.0993 48.145C55.0802 47.9732 55.0515 47.8109 55.0134 47.6582C54.9179 47.3337 54.8225 47.0091 54.727 46.6846C54.6507 46.3601 54.5648 46.0356 54.4693 45.711C54.3357 45.3293 54.1925 44.9475 54.0398 44.5657C53.8871 44.1839 53.7344 43.8021 53.5816 43.4203C53.5435 43.3248 53.4957 43.2294 53.4385 43.1339C53.3812 43.0385 53.3335 42.943 53.2953 42.8476C53.1617 42.5422 53.028 42.2558 52.8944 41.9886C52.7608 41.7213 52.6176 41.4541 52.4649 41.1868C52.4267 41.1104 52.379 41.0054 52.3217 40.8718C52.2644 40.7191 52.2644 40.595 52.3217 40.4996C52.3599 40.4423 52.4172 40.4041 52.4935 40.385C52.5699 40.3468 52.6462 40.3087 52.7226 40.2705C52.818 40.2705 52.8658 40.2705 52.8658 40.2705Z" fill="#614F4F"/>
<path d="M143.182 117.259L131.57 136.189L94.7673 134.659L120.188 148.104L94.624 165.216L128.919 152.232L157.232 183.482L141.489 151.583L174.482 147.679L142.984 142.534L143.182 117.259Z" fill="#267054"/>
</svg>
