<svg width="302" height="272" viewBox="0 0 302 272" fill="none" xmlns="http://www.w3.org/2000/svg">
<rect width="302" height="271.518" fill="#827EFF"/>
<path d="M41.9003 89.1549L53.6846 78.689L65.881 92.2637L47.5096 103.205L41.9003 89.1549Z" fill="#614F4F" fill-opacity="0.88"/>
<path d="M238.188 175.558L244.649 189.895L227.942 197.337L223.022 176.615L238.188 175.558Z" fill="#614F4F" fill-opacity="0.88"/>
<path d="M57.8247 176.355L48.126 104.089L65.5619 92.8208L126.806 171.48L177.647 184.959L235.889 173.863L233.491 196.833L185.258 219.176L153.49 229.046L126.806 221.427L57.8247 176.355Z" fill="url(#paint0_linear_131_6908)" fill-opacity="0.8"/>
<path d="M81.9088 165.412L67.1973 116.548L88.2293 165.412L129.665 195.158L174.67 198.241L190.553 193.842L177.979 204.37L122.338 198.241L81.9088 165.412Z" fill="#614F4F" fill-opacity="0.88"/>
<path d="M88.9848 169.78L55.9559 104.688L68.7034 88.352L152.53 142.655L256.352 109.293L261.674 131.771L169.027 189.832L88.9848 169.78Z" fill="url(#paint1_linear_131_6908)" fill-opacity="0.82"/>
<path d="M108.117 151.582L78.083 110.23L114.087 149.518L158.818 162.619L212.652 138.736L205.858 146.361L157.148 169.391L108.117 151.582Z" fill="#614F4F" fill-opacity="0.88"/>
<path d="M250.695 111.465L257.4 108.3L265.673 120.802L264.35 130.014L257.4 134.291L250.695 111.465Z" fill="#614F4F" fill-opacity="0.88"/>
<rect width="80.3449" height="35.0126" transform="matrix(0.568542 -0.822654 0.825714 0.564089 75.7246 187.556)" fill="#6ED1FF" fill-opacity="0.81"/>
<path d="M196.136 63.5445C196.371 63.5232 196.605 63.5552 196.84 63.6405C197.075 63.7045 197.16 63.8539 197.096 64.0885C197.053 64.2592 196.989 64.4192 196.904 64.5685C196.84 64.7179 196.765 64.8565 196.68 64.9845C196.531 65.2192 196.403 65.4539 196.296 65.6885C196.189 65.9232 196.072 66.1579 195.944 66.3925C195.667 66.9472 195.411 67.5339 195.176 68.1525C194.941 68.7712 194.717 69.3899 194.504 70.0085C194.397 70.3285 194.301 70.6592 194.216 71.0005C194.152 71.3205 194.077 71.6512 193.992 71.9925C193.907 72.2485 193.843 72.5152 193.8 72.7925C193.779 73.0699 193.736 73.3472 193.672 73.6245C193.629 73.7525 193.608 73.8805 193.608 74.0085C193.608 74.1365 193.597 74.2645 193.576 74.3925C193.533 74.4992 193.512 74.6165 193.512 74.7445C193.533 74.8512 193.533 74.9579 193.512 75.0645C193.469 75.1712 193.448 75.2885 193.448 75.4165C193.469 75.5232 193.459 75.6299 193.416 75.7365V75.9605C193.395 76.0245 193.384 76.0992 193.384 76.1845C193.405 76.2485 193.405 76.3232 193.384 76.4085C193.341 76.5792 193.32 76.7819 193.32 77.0165C193.341 77.2299 193.352 77.4325 193.352 77.6245C193.352 77.7525 193.341 77.8912 193.32 78.0405C193.32 78.1899 193.32 78.3285 193.32 78.4565V78.7765C193.341 79.0112 193.352 79.2352 193.352 79.4485C193.352 79.6619 193.363 79.8859 193.384 80.1205C193.405 80.2272 193.405 80.3445 193.384 80.4725C193.384 80.6005 193.395 80.7179 193.416 80.8245C193.437 80.9099 193.437 80.9952 193.416 81.0805C193.416 81.1659 193.437 81.2512 193.48 81.3365L193.672 82.9685C193.757 83.3312 193.821 83.6939 193.864 84.0565C193.928 84.3979 194.003 84.7285 194.088 85.0485C194.131 85.1339 194.152 85.2085 194.152 85.2725C194.152 85.3365 194.163 85.4112 194.184 85.4965C194.269 85.7312 194.333 85.9552 194.376 86.1685C194.44 86.3819 194.504 86.6059 194.568 86.8405C194.803 87.5019 195.037 88.1419 195.272 88.7605C195.528 89.3792 195.805 89.9765 196.104 90.5525C196.168 90.6805 196.221 90.8085 196.264 90.9365C196.328 91.0859 196.403 91.2245 196.488 91.3525C196.573 91.5019 196.659 91.6405 196.744 91.7685C196.829 91.9179 196.915 92.0779 197 92.2485C197.043 92.3339 197.075 92.4405 197.096 92.5685C197.139 92.7179 197.128 92.8459 197.064 92.9525C196.979 93.0592 196.872 93.1125 196.744 93.1125C196.616 93.1125 196.477 93.1339 196.328 93.1765C196.2 93.1765 196.072 93.1552 195.944 93.1125C195.581 93.0059 195.336 92.8459 195.208 92.6325C195.08 92.4405 194.931 92.1952 194.76 91.8965C193.864 90.4672 193.053 88.8992 192.328 87.1925C192.179 86.8512 192.04 86.5099 191.912 86.1685C191.784 85.8059 191.656 85.4432 191.528 85.0805C191.485 84.9099 191.432 84.7392 191.368 84.5685C191.325 84.3979 191.283 84.2272 191.24 84.0565C191.133 83.7579 191.059 83.4592 191.016 83.1605C190.973 82.8405 190.92 82.5312 190.856 82.2325C190.813 81.9979 190.771 81.7525 190.728 81.4965C190.707 81.2405 190.675 80.9845 190.632 80.7285C190.589 80.6219 190.568 80.5152 190.568 80.4085C190.589 80.3019 190.589 80.1952 190.568 80.0885C190.568 79.9819 190.557 79.8645 190.536 79.7365C190.536 79.6085 190.536 79.4805 190.536 79.3525C190.515 79.3099 190.504 79.2565 190.504 79.1925C190.525 79.1072 190.536 79.0325 190.536 78.9685C190.493 78.8619 190.472 78.7445 190.472 78.6165C190.493 78.4885 190.504 78.3712 190.504 78.2645C190.504 78.1579 190.493 78.0405 190.472 77.9125C190.472 77.7845 190.493 77.6779 190.536 77.5925V76.8885C190.557 76.7819 190.557 76.6859 190.536 76.6005C190.536 76.4939 190.547 76.3872 190.568 76.2805L190.76 74.7445C190.803 74.5952 190.824 74.4459 190.824 74.2965C190.845 74.1472 190.877 73.9979 190.92 73.8485C191.027 73.4859 191.112 73.1232 191.176 72.7605C191.24 72.3979 191.325 72.0352 191.432 71.6725C191.581 71.2245 191.72 70.7872 191.848 70.3605C191.997 69.9339 192.157 69.5179 192.328 69.1125C192.413 68.9205 192.499 68.7285 192.584 68.5365C192.669 68.3445 192.755 68.1525 192.84 67.9605C192.883 67.8965 192.915 67.8325 192.936 67.7685C192.979 67.7045 193.011 67.6405 193.032 67.5765C193.267 67.0859 193.512 66.6165 193.768 66.1685C194.024 65.7205 194.301 65.2832 194.6 64.8565C194.728 64.6645 194.856 64.4725 194.984 64.2805C195.112 64.0672 195.261 63.8965 195.432 63.7685C195.496 63.7259 195.635 63.6619 195.848 63.5765C195.891 63.5552 195.933 63.5552 195.976 63.5765C196.04 63.5765 196.093 63.5659 196.136 63.5445ZM201.985 64.6965H209.665H211.041C211.212 64.6965 211.372 64.7072 211.521 64.7285C211.671 64.7285 211.799 64.7499 211.905 64.7925C212.055 64.8565 212.172 64.9845 212.257 65.1765C212.3 65.2405 212.321 65.3259 212.321 65.4325C212.321 65.5179 212.321 65.6139 212.321 65.7205C212.343 65.9552 212.332 66.1792 212.289 66.3925C212.268 66.6059 212.193 66.7552 212.065 66.8405C211.873 66.9899 211.585 67.0645 211.201 67.0645C210.817 67.0432 210.465 67.0325 210.145 67.0325H205.889H204.833C204.748 67.0325 204.652 67.0325 204.545 67.0325C204.46 67.0325 204.375 67.0432 204.289 67.0645H203.841C203.607 67.1285 203.436 67.2139 203.329 67.3205C203.223 67.4059 203.148 67.5232 203.105 67.6725C203.063 67.8005 203.031 67.9499 203.009 68.1205C202.988 68.2912 202.945 68.4832 202.881 68.6965C202.775 69.1232 202.689 69.5605 202.625 70.0085C202.561 70.4565 202.476 70.8939 202.369 71.3205C202.327 71.4699 202.305 71.6192 202.305 71.7685C202.305 71.8965 202.284 72.0352 202.241 72.1845C202.22 72.2485 202.199 72.3339 202.177 72.4405C202.177 72.5259 202.188 72.6112 202.209 72.6965C202.252 72.8032 202.305 72.8992 202.369 72.9845C202.455 73.0485 202.583 73.0592 202.753 73.0165C202.881 72.9739 203.009 72.9205 203.137 72.8565C203.265 72.7712 203.393 72.6965 203.521 72.6325C203.649 72.5899 203.756 72.5579 203.841 72.5365C204.247 72.3659 204.684 72.2485 205.153 72.1845C205.644 72.1205 206.135 72.0992 206.625 72.1205C207.137 72.1205 207.628 72.1739 208.097 72.2805C208.567 72.3659 208.993 72.4939 209.377 72.6645C209.484 72.7072 209.58 72.7499 209.665 72.7925C209.772 72.8352 209.879 72.8885 209.985 72.9525C210.732 73.4005 211.329 73.8912 211.777 74.4245C212.247 74.9579 212.663 75.6512 213.025 76.5045C213.132 76.7392 213.207 76.9739 213.249 77.2085C213.292 77.4432 213.345 77.6885 213.409 77.9445C213.431 78.0085 213.441 78.1045 213.441 78.2325C213.484 78.3605 213.505 78.5099 213.505 78.6805C213.505 78.8299 213.527 78.9685 213.569 79.0965V79.4485C213.591 79.5552 213.601 79.7045 213.601 79.8965C213.601 80.0885 213.58 80.2379 213.537 80.3445C213.495 80.4725 213.484 80.6005 213.505 80.7285C213.527 80.8352 213.516 80.9419 213.473 81.0485C213.388 81.3899 213.313 81.7099 213.249 82.0085C213.185 82.3072 213.089 82.5952 212.961 82.8725C212.62 83.6619 212.151 84.3765 211.553 85.0165C210.956 85.6565 210.273 86.1472 209.505 86.4885C209.143 86.6592 208.716 86.8192 208.225 86.9685C207.991 87.0539 207.745 87.1072 207.489 87.1285C207.233 87.1499 206.977 87.1925 206.721 87.2565C206.615 87.2992 206.497 87.2992 206.369 87.2565C206.241 87.2352 206.113 87.2459 205.985 87.2885C205.772 87.3312 205.559 87.3312 205.345 87.2885H205.057C204.951 87.2459 204.823 87.2245 204.673 87.2245C204.545 87.2459 204.428 87.2352 204.321 87.1925C204.236 87.1712 204.161 87.1605 204.097 87.1605C204.033 87.1605 203.959 87.1499 203.873 87.1285C203.681 87.0859 203.489 87.0432 203.297 87.0005C203.105 86.9579 202.924 86.8939 202.753 86.8085C202.028 86.5099 201.409 86.1792 200.897 85.8165C200.385 85.4325 199.916 84.9419 199.489 84.3445C199.169 83.8539 198.924 83.3419 198.753 82.8085C198.711 82.7019 198.689 82.6059 198.689 82.5205C198.689 82.4139 198.668 82.3072 198.625 82.2005C198.583 82.0725 198.551 81.9019 198.529 81.6885C198.529 81.4752 198.572 81.3152 198.657 81.2085C198.764 81.0379 198.935 80.9419 199.169 80.9205C199.404 80.8992 199.649 80.8885 199.905 80.8885C200.033 80.8885 200.151 80.8885 200.257 80.8885C200.385 80.8885 200.503 80.9099 200.609 80.9525C200.801 80.9952 200.951 81.0805 201.057 81.2085C201.207 81.4005 201.303 81.6352 201.345 81.9125C201.409 82.1685 201.505 82.3925 201.633 82.5845C202.039 83.3099 202.593 83.8859 203.297 84.3125C203.511 84.4405 203.735 84.5472 203.969 84.6325C204.225 84.6965 204.481 84.7712 204.737 84.8565C205.1 84.9632 205.537 85.0059 206.049 84.9845C206.583 84.9419 207.009 84.8672 207.329 84.7605C208.119 84.5045 208.737 84.1632 209.185 83.7365C209.655 83.2885 210.039 82.6912 210.337 81.9445C210.444 81.7312 210.508 81.5072 210.529 81.2725C210.572 81.0379 210.625 80.7925 210.689 80.5365C210.689 80.4512 210.689 80.3765 210.689 80.3125C210.711 80.2272 210.721 80.1419 210.721 80.0565C210.743 79.9925 210.743 79.9179 210.721 79.8325C210.721 79.7472 210.721 79.6619 210.721 79.5765C210.721 79.0219 210.657 78.4992 210.529 78.0085C210.295 77.2619 209.964 76.6325 209.537 76.1205C209.111 75.5872 208.556 75.1712 207.873 74.8725C207.745 74.8299 207.617 74.7872 207.489 74.7445C207.383 74.7019 207.255 74.6592 207.105 74.6165C206.999 74.5739 206.871 74.5525 206.721 74.5525C206.593 74.5312 206.455 74.4992 206.305 74.4565H205.985C205.9 74.4139 205.783 74.3925 205.633 74.3925C205.505 74.3925 205.388 74.4139 205.281 74.4565C205.217 74.4565 205.143 74.4565 205.057 74.4565C204.993 74.4565 204.919 74.4672 204.833 74.4885C204.663 74.5312 204.492 74.5739 204.321 74.6165C204.151 74.6379 203.98 74.6805 203.809 74.7445C203.297 74.9579 202.807 75.2459 202.337 75.6085C202.145 75.7579 201.964 75.9179 201.793 76.0885C201.623 76.2379 201.409 76.3552 201.153 76.4405C200.961 76.5045 200.663 76.5259 200.257 76.5045C199.873 76.4832 199.617 76.4299 199.489 76.3445C199.383 76.2592 199.297 76.1312 199.233 75.9605C199.191 75.7899 199.191 75.6085 199.233 75.4165C199.297 75.1605 199.34 74.9045 199.361 74.6485C199.404 74.3712 199.457 74.1045 199.521 73.8485C199.564 73.7632 199.575 73.6885 199.553 73.6245C199.553 73.5392 199.575 73.4432 199.617 73.3365C199.66 73.1445 199.692 72.9525 199.713 72.7605C199.735 72.5472 199.777 72.3445 199.841 72.1525C199.863 72.0245 199.873 71.8965 199.873 71.7685C199.895 71.6405 199.927 71.5125 199.969 71.3845C200.076 70.9579 200.151 70.5205 200.193 70.0725C200.257 69.6032 200.343 69.1552 200.449 68.7285C200.513 68.5152 200.556 68.3019 200.577 68.0885C200.599 67.8752 200.631 67.6619 200.673 67.4485C200.695 67.3845 200.705 67.2992 200.705 67.1925C200.769 66.9579 200.812 66.7339 200.833 66.5205C200.876 66.2859 200.929 66.0512 200.993 65.8165C201.036 65.6459 201.068 65.4965 201.089 65.3685C201.111 65.2192 201.164 65.0912 201.249 64.9845C201.292 64.9205 201.356 64.8779 201.441 64.8565C201.527 64.8139 201.623 64.7712 201.729 64.7285C201.857 64.7285 201.943 64.7179 201.985 64.6965ZM215.895 63.5125C216.172 63.5125 216.396 63.5552 216.567 63.6405C216.759 63.7045 216.908 63.8005 217.015 63.9285C217.143 64.0565 217.249 64.2059 217.335 64.3765C217.441 64.5259 217.548 64.6859 217.655 64.8565C218.017 65.4325 218.359 66.0299 218.679 66.6485C218.999 67.2459 219.308 67.8752 219.607 68.5365C219.713 68.7712 219.82 69.0165 219.927 69.2725C220.033 69.5285 220.14 69.7739 220.247 70.0085C220.375 70.3285 220.492 70.6592 220.599 71.0005C220.705 71.3419 220.812 71.6832 220.919 72.0245C221.047 72.3872 221.143 72.7605 221.207 73.1445C221.271 73.5072 221.356 73.8805 221.463 74.2645C221.527 74.5419 221.569 74.8299 221.591 75.1285C221.612 75.4059 221.655 75.6832 221.719 75.9605C221.74 76.0672 221.74 76.1739 221.719 76.2805C221.719 76.3872 221.729 76.4939 221.751 76.6005C221.772 76.7285 221.783 76.8565 221.783 76.9845C221.783 77.1125 221.783 77.2405 221.783 77.3685C221.804 77.4112 221.804 77.4752 221.783 77.5605C221.783 77.6459 221.793 77.7205 221.815 77.7845C221.836 77.8912 221.836 78.0085 221.815 78.1365C221.815 78.2432 221.815 78.3499 221.815 78.4565C221.815 78.5632 221.815 78.6805 221.815 78.8085C221.836 78.9152 221.836 79.0219 221.815 79.1285C221.815 79.2352 221.815 79.3525 221.815 79.4805C221.815 79.5872 221.804 79.6939 221.783 79.8005C221.761 79.9072 221.751 80.0139 221.751 80.1205C221.772 80.2272 221.772 80.3339 221.751 80.4405L221.559 81.9765C221.516 82.1472 221.484 82.3179 221.463 82.4885C221.441 82.6592 221.409 82.8299 221.367 83.0005C221.281 83.3632 221.196 83.7365 221.111 84.1205C221.047 84.4832 220.961 84.8459 220.855 85.2085C220.705 85.6352 220.556 86.0619 220.407 86.4885C220.257 86.9152 220.097 87.3312 219.927 87.7365C219.841 87.9499 219.745 88.1525 219.639 88.3445C219.553 88.5579 219.457 88.7712 219.351 88.9845C219.116 89.5179 218.849 90.0192 218.551 90.4885C218.273 90.9792 217.985 91.4592 217.687 91.9285C217.495 92.2059 217.313 92.4512 217.143 92.6645C216.972 92.8779 216.695 93.0272 216.311 93.1125H216.023C215.809 93.1125 215.607 93.0699 215.415 92.9845C215.244 92.9205 215.201 92.7605 215.287 92.5045C215.372 92.2272 215.511 91.9605 215.703 91.7045C215.745 91.6405 215.767 91.5765 215.767 91.5125C215.788 91.4699 215.82 91.4272 215.863 91.3845C215.969 91.1925 216.065 90.9899 216.151 90.7765C216.257 90.5845 216.353 90.3925 216.439 90.2005C216.503 90.0512 216.567 89.9019 216.631 89.7525C216.716 89.6245 216.791 89.4965 216.855 89.3685C217.025 88.9845 217.175 88.5899 217.303 88.1845C217.452 87.8005 217.601 87.4059 217.751 87.0005C217.879 86.5952 217.985 86.1899 218.071 85.7845C218.177 85.3792 218.284 84.9632 218.391 84.5365C218.476 84.2379 218.529 83.9392 218.551 83.6405C218.593 83.3205 218.647 83.0112 218.711 82.7125C218.753 82.5845 218.775 82.4672 218.775 82.3605C218.775 82.2325 218.785 82.1045 218.807 81.9765C218.828 81.8272 218.839 81.6779 218.839 81.5285C218.86 81.3792 218.881 81.2192 218.903 81.0485C218.924 80.9419 218.924 80.8352 218.903 80.7285C218.903 80.6005 218.913 80.4832 218.935 80.3765C218.956 80.2699 218.956 80.1739 218.935 80.0885C218.935 79.9819 218.945 79.8752 218.967 79.7685C218.988 79.6832 218.988 79.5979 218.967 79.5125C218.945 79.4059 218.956 79.3099 218.999 79.2245C219.02 79.1179 219.02 79.0005 218.999 78.8725C218.999 78.7232 218.999 78.5845 218.999 78.4565V77.1445C218.977 76.9099 218.956 76.6965 218.935 76.5045C218.935 76.2912 218.924 76.0672 218.903 75.8325C218.86 75.7045 218.849 75.5765 218.871 75.4485C218.892 75.2992 218.881 75.1605 218.839 75.0325C218.796 74.9259 218.775 74.8192 218.775 74.7125C218.796 74.6059 218.785 74.4992 218.743 74.3925C218.7 74.1365 218.657 73.8805 218.615 73.6245C218.593 73.3685 218.561 73.1125 218.519 72.8565C218.476 72.6859 218.433 72.5045 218.391 72.3125C218.369 72.1205 218.337 71.9392 218.295 71.7685C218.188 71.4059 218.081 71.0432 217.975 70.6805C217.889 70.3179 217.793 69.9552 217.687 69.5925C217.537 69.1659 217.377 68.7392 217.207 68.3125C217.036 67.8859 216.865 67.4592 216.695 67.0325C216.652 66.9259 216.599 66.8192 216.535 66.7125C216.471 66.6059 216.417 66.4992 216.375 66.3925C216.225 66.0512 216.076 65.7312 215.927 65.4325C215.777 65.1339 215.617 64.8352 215.447 64.5365C215.404 64.4512 215.351 64.3339 215.287 64.1845C215.223 64.0139 215.223 63.8752 215.287 63.7685C215.329 63.7045 215.393 63.6619 215.479 63.6405C215.564 63.5979 215.649 63.5552 215.735 63.5125C215.841 63.5125 215.895 63.5125 215.895 63.5125Z" fill="white"/>
<defs>
<linearGradient id="paint0_linear_131_6908" x1="151.505" y1="213.912" x2="58.9395" y2="92.4119" gradientUnits="userSpaceOnUse">
<stop stop-color="#FFCC00"/>
<stop offset="1" stop-color="#00FD9C"/>
</linearGradient>
<linearGradient id="paint1_linear_131_6908" x1="141.405" y1="172.538" x2="62.318" y2="90.3806" gradientUnits="userSpaceOnUse">
<stop stop-color="#FFCC00"/>
<stop offset="1" stop-color="#00FD9C"/>
</linearGradient>
</defs>
</svg>
