<svg width="287" height="308" viewBox="0 0 287 308" fill="none" xmlns="http://www.w3.org/2000/svg">
<rect width="287" height="307.674" fill="#373737"/>
<path d="M197.694 81.9426L171.946 66.254L139.253 68.1015L100.884 112.588L99.6465 163.694L134.288 184.802L174.924 179.472L204.762 131.067L197.694 81.9426Z" fill="url(#paint0_linear_151_7110)"/>
<path d="M110.436 146.163L87.5861 158.455L75.2144 171.752L70.5332 215.635L86.0279 241.04L131.502 224.085L149.223 233.595L168.504 228.932L179.538 189.372L165.829 154.466H129.382L110.436 146.163Z" fill="white"/>
<path d="M103.971 178.069L96.6145 181.393L87.9209 192.031L92.2677 204.997L98.9551 210.98L109.655 207.989L118.683 201.34V187.71L109.655 181.393L103.971 178.069Z" fill="#FFCC00"/>
<path d="M158.472 185.715L153.429 175.755L141.033 169.757L129.323 176.914L129.323 188.381L134.064 198.558L142.587 198.558L152.261 198.558L156.801 193.693L158.472 185.715Z" fill="#FFCC00"/>
<path d="M44.136 50.5445C44.3707 50.5232 44.6053 50.5552 44.84 50.6405C45.0747 50.7045 45.16 50.8539 45.096 51.0885C45.0533 51.2592 44.9893 51.4192 44.904 51.5685C44.84 51.7179 44.7653 51.8565 44.68 51.9845C44.5307 52.2192 44.4027 52.4539 44.296 52.6885C44.1893 52.9232 44.072 53.1579 43.944 53.3925C43.6667 53.9472 43.4107 54.5339 43.176 55.1525C42.9413 55.7712 42.7173 56.3899 42.504 57.0085C42.3973 57.3285 42.3013 57.6592 42.216 58.0005C42.152 58.3205 42.0773 58.6512 41.992 58.9925C41.9067 59.2485 41.8427 59.5152 41.8 59.7925C41.7787 60.0699 41.736 60.3472 41.672 60.6245C41.6293 60.7525 41.608 60.8805 41.608 61.0085C41.608 61.1365 41.5973 61.2645 41.576 61.3925C41.5333 61.4992 41.512 61.6165 41.512 61.7445C41.5333 61.8512 41.5333 61.9579 41.512 62.0645C41.4693 62.1712 41.448 62.2885 41.448 62.4165C41.4693 62.5232 41.4587 62.6299 41.416 62.7365V62.9605C41.3947 63.0245 41.384 63.0992 41.384 63.1845C41.4053 63.2485 41.4053 63.3232 41.384 63.4085C41.3413 63.5792 41.32 63.7819 41.32 64.0165C41.3413 64.2299 41.352 64.4325 41.352 64.6245C41.352 64.7525 41.3413 64.8912 41.32 65.0405C41.32 65.1899 41.32 65.3285 41.32 65.4565V65.7765C41.3413 66.0112 41.352 66.2352 41.352 66.4485C41.352 66.6619 41.3627 66.8859 41.384 67.1205C41.4053 67.2272 41.4053 67.3445 41.384 67.4725C41.384 67.6005 41.3947 67.7179 41.416 67.8245C41.4373 67.9099 41.4373 67.9952 41.416 68.0805C41.416 68.1659 41.4373 68.2512 41.48 68.3365L41.672 69.9685C41.7573 70.3312 41.8213 70.6939 41.864 71.0565C41.928 71.3979 42.0027 71.7285 42.088 72.0485C42.1307 72.1339 42.152 72.2085 42.152 72.2725C42.152 72.3365 42.1627 72.4112 42.184 72.4965C42.2693 72.7312 42.3333 72.9552 42.376 73.1685C42.44 73.3819 42.504 73.6059 42.568 73.8405C42.8027 74.5019 43.0373 75.1419 43.272 75.7605C43.528 76.3792 43.8053 76.9765 44.104 77.5525C44.168 77.6805 44.2213 77.8085 44.264 77.9365C44.328 78.0859 44.4027 78.2245 44.488 78.3525C44.5733 78.5019 44.6587 78.6405 44.744 78.7685C44.8293 78.9179 44.9147 79.0779 45 79.2485C45.0427 79.3339 45.0747 79.4405 45.096 79.5685C45.1387 79.7179 45.128 79.8459 45.064 79.9525C44.9787 80.0592 44.872 80.1125 44.744 80.1125C44.616 80.1125 44.4773 80.1339 44.328 80.1765C44.2 80.1765 44.072 80.1552 43.944 80.1125C43.5813 80.0059 43.336 79.8459 43.208 79.6325C43.08 79.4405 42.9307 79.1952 42.76 78.8965C41.864 77.4672 41.0533 75.8992 40.328 74.1925C40.1787 73.8512 40.04 73.5099 39.912 73.1685C39.784 72.8059 39.656 72.4432 39.528 72.0805C39.4853 71.9099 39.432 71.7392 39.368 71.5685C39.3253 71.3979 39.2827 71.2272 39.24 71.0565C39.1333 70.7579 39.0587 70.4592 39.016 70.1605C38.9733 69.8405 38.92 69.5312 38.856 69.2325C38.8133 68.9979 38.7707 68.7525 38.728 68.4965C38.7067 68.2405 38.6747 67.9845 38.632 67.7285C38.5893 67.6219 38.568 67.5152 38.568 67.4085C38.5893 67.3019 38.5893 67.1952 38.568 67.0885C38.568 66.9819 38.5573 66.8645 38.536 66.7365C38.536 66.6085 38.536 66.4805 38.536 66.3525C38.5147 66.3099 38.504 66.2565 38.504 66.1925C38.5253 66.1072 38.536 66.0325 38.536 65.9685C38.4933 65.8619 38.472 65.7445 38.472 65.6165C38.4933 65.4885 38.504 65.3712 38.504 65.2645C38.504 65.1579 38.4933 65.0405 38.472 64.9125C38.472 64.7845 38.4933 64.6779 38.536 64.5925V63.8885C38.5573 63.7819 38.5573 63.6859 38.536 63.6005C38.536 63.4939 38.5467 63.3872 38.568 63.2805L38.76 61.7445C38.8027 61.5952 38.824 61.4459 38.824 61.2965C38.8453 61.1472 38.8773 60.9979 38.92 60.8485C39.0267 60.4859 39.112 60.1232 39.176 59.7605C39.24 59.3979 39.3253 59.0352 39.432 58.6725C39.5813 58.2245 39.72 57.7872 39.848 57.3605C39.9973 56.9339 40.1573 56.5179 40.328 56.1125C40.4133 55.9205 40.4987 55.7285 40.584 55.5365C40.6693 55.3445 40.7547 55.1525 40.84 54.9605C40.8827 54.8965 40.9147 54.8325 40.936 54.7685C40.9787 54.7045 41.0107 54.6405 41.032 54.5765C41.2667 54.0859 41.512 53.6165 41.768 53.1685C42.024 52.7205 42.3013 52.2832 42.6 51.8565C42.728 51.6645 42.856 51.4725 42.984 51.2805C43.112 51.0672 43.2613 50.8965 43.432 50.7685C43.496 50.7259 43.6347 50.6619 43.848 50.5765C43.8907 50.5552 43.9333 50.5552 43.976 50.5765C44.04 50.5765 44.0933 50.5659 44.136 50.5445ZM53.4093 51.2805C56.8866 51.2165 59.1266 52.4005 60.1293 54.8325C60.3426 55.3232 60.4813 55.9419 60.5453 56.6885C60.6306 57.4139 60.5773 58.0752 60.3853 58.6725C60.1933 59.2272 59.9373 59.7072 59.6173 60.1125C59.5746 60.1979 59.5213 60.2725 59.4573 60.3365C59.3933 60.3792 59.3399 60.4325 59.2973 60.4965C59.2333 60.5819 59.1693 60.6672 59.1053 60.7525C59.0413 60.8165 58.9666 60.8699 58.8813 60.9125C58.7746 61.0192 58.6573 61.1152 58.5293 61.2005C58.4226 61.2859 58.3266 61.3925 58.2413 61.5205C58.1559 61.6059 58.1239 61.7125 58.1453 61.8405C58.1666 61.9472 58.2306 62.0432 58.3373 62.1285C58.4439 62.2139 58.5613 62.2992 58.6893 62.3845C58.8386 62.4485 58.9773 62.5125 59.1053 62.5765C59.2333 62.6405 59.3399 62.7045 59.4253 62.7685C60.1079 63.2379 60.6519 63.8992 61.0573 64.7525C61.1426 64.9445 61.2066 65.1472 61.2493 65.3605C61.3133 65.5525 61.3666 65.7445 61.4093 65.9365C61.4306 66.0432 61.4412 66.1499 61.4412 66.2565C61.4626 66.3419 61.4839 66.4379 61.5053 66.5445C61.5266 66.6512 61.5266 66.7579 61.5053 66.8645C61.4839 66.9712 61.4946 67.0779 61.5373 67.1845C61.5586 67.2912 61.5693 67.4192 61.5693 67.5685C61.5693 67.7179 61.5479 67.8459 61.5053 67.9525V68.4325C61.4626 68.6032 61.4199 68.7739 61.3773 68.9445C61.3559 69.0939 61.3239 69.2432 61.2812 69.3925C61.2173 69.5845 61.1533 69.7659 61.0893 69.9365C61.0466 70.1072 60.9826 70.2779 60.8973 70.4485C60.8546 70.5765 60.7906 70.7045 60.7053 70.8325C60.6413 70.9392 60.5666 71.0459 60.4813 71.1525C60.0546 71.8139 59.5213 72.3685 58.8813 72.8165C58.2413 73.2432 57.5053 73.5952 56.6733 73.8725C56.4173 73.9579 56.1399 74.0112 55.8413 74.0325C55.5639 74.0752 55.2759 74.1285 54.9773 74.1925C54.8279 74.2139 54.6786 74.2245 54.5293 74.2245C54.4013 74.2245 54.2626 74.2352 54.1133 74.2565C54.0279 74.2779 53.8999 74.2885 53.7292 74.2885C53.5799 74.2885 53.4733 74.2779 53.4093 74.2565C53.3026 74.2352 53.2066 74.2245 53.1213 74.2245C53.0573 74.2245 52.9719 74.2245 52.8653 74.2245C52.6519 74.1819 52.4386 74.1499 52.2253 74.1285C52.0119 74.1072 51.8093 74.0752 51.6173 74.0325C51.3826 73.9685 51.1479 73.9152 50.9133 73.8725C50.6999 73.8085 50.4759 73.7232 50.2413 73.6165C49.4519 73.2752 48.7799 72.8485 48.2253 72.3365C47.6706 71.8032 47.2226 71.1419 46.8813 70.3525C46.7959 70.1605 46.7213 69.9579 46.6573 69.7445C46.5933 69.5312 46.5293 69.3072 46.4653 69.0725C46.4226 68.9659 46.4013 68.8592 46.4013 68.7525C46.4013 68.6245 46.3799 68.4965 46.3372 68.3685C46.2946 68.2405 46.2733 68.0699 46.2733 67.8565C46.2733 67.6432 46.3053 67.4832 46.3693 67.3765C46.3906 67.3125 46.4226 67.2592 46.4653 67.2165C46.5079 67.1739 46.5506 67.1312 46.5933 67.0885C46.6786 67.0459 46.8066 67.0139 46.9773 66.9925C47.1693 66.9712 47.3613 66.9605 47.5533 66.9605C47.7453 66.9605 47.9266 66.9712 48.0973 66.9925C48.2893 67.0139 48.4279 67.0352 48.5133 67.0565C48.5559 67.0992 48.5986 67.1312 48.6413 67.1525C48.6839 67.1525 48.7266 67.1739 48.7693 67.2165C48.9186 67.4085 49.0039 67.6539 49.0253 67.9525C49.0679 68.2512 49.1319 68.5179 49.2173 68.7525C49.3239 69.0085 49.4306 69.2645 49.5373 69.5205C49.6439 69.7552 49.7826 69.9792 49.9533 70.1925C49.9959 70.2565 50.0386 70.3099 50.0813 70.3525C50.1453 70.3952 50.1986 70.4485 50.2413 70.5125C50.3266 70.6405 50.4013 70.7365 50.4653 70.8005C50.5506 70.8645 50.6253 70.9285 50.6893 70.9925C50.7746 71.0565 50.8706 71.1205 50.9773 71.1845C51.1693 71.3125 51.3719 71.4192 51.5853 71.5045C51.8199 71.5899 52.0546 71.6752 52.2893 71.7605C52.6093 71.8672 53.0359 71.9312 53.5693 71.9525C54.1026 71.9739 54.5506 71.9312 54.9133 71.8245C55.0839 71.7819 55.2333 71.7499 55.3613 71.7285C55.5106 71.6859 55.6599 71.6432 55.8093 71.6005C56.4066 71.3445 56.9186 71.0245 57.3453 70.6405C57.7933 70.2565 58.1453 69.7659 58.4013 69.1685C58.4653 69.0192 58.5079 68.8699 58.5293 68.7205C58.5719 68.5499 58.6146 68.3792 58.6573 68.2085C58.7426 67.9099 58.7639 67.5685 58.7213 67.1845C58.6786 66.7792 58.6146 66.4592 58.5293 66.2245C58.2519 65.4139 57.8573 64.7952 57.3453 64.3685C56.8546 63.9419 56.1933 63.6005 55.3613 63.3445C55.1266 63.2805 54.8706 63.2379 54.5933 63.2165C54.3373 63.1952 54.0706 63.1845 53.7933 63.1845C53.4519 63.1845 53.1533 63.1739 52.8973 63.1525C52.6413 63.1312 52.4599 63.0032 52.3533 62.7685C52.3106 62.7045 52.2893 62.6299 52.2893 62.5445C52.2893 62.4592 52.2893 62.3632 52.2893 62.2565C52.2679 62.0432 52.2679 61.8405 52.2893 61.6485C52.3319 61.4565 52.4173 61.3179 52.5453 61.2325C52.6306 61.1685 52.7159 61.1259 52.8013 61.1045C52.9079 61.0832 53.0253 61.0619 53.1533 61.0405C53.1959 61.0192 53.2493 61.0192 53.3133 61.0405C53.3773 61.0405 53.4306 61.0299 53.4733 61.0085H53.7613C53.9959 60.9659 54.2093 60.9445 54.4013 60.9445C54.6146 60.9232 54.8173 60.8805 55.0093 60.8165C55.6919 60.5819 56.2359 60.2725 56.6413 59.8885C57.0466 59.5045 57.3666 58.9712 57.6013 58.2885C57.6653 58.0752 57.7079 57.8085 57.7293 57.4885C57.7719 57.1472 57.7613 56.8379 57.6973 56.5605C57.6546 56.4112 57.6119 56.2725 57.5693 56.1445C57.5479 55.9952 57.5053 55.8565 57.4413 55.7285C57.2279 55.2165 56.9186 54.8112 56.5133 54.5125C56.1079 54.2139 55.6279 53.9792 55.0733 53.8085C54.9453 53.7659 54.8173 53.7445 54.6892 53.7445C54.5613 53.7445 54.4226 53.7232 54.2733 53.6805C54.1026 53.6379 53.8999 53.6165 53.6653 53.6165C53.4306 53.6165 53.2279 53.6379 53.0573 53.6805C52.9506 53.7232 52.8439 53.7445 52.7373 53.7445C52.6519 53.7445 52.5559 53.7659 52.4493 53.8085C52.0653 53.9152 51.7026 54.0752 51.3613 54.2885C51.0413 54.4805 50.7639 54.7259 50.5293 55.0245C50.3373 55.2805 50.1666 55.5579 50.0173 55.8565C49.8679 56.1552 49.7293 56.4859 49.6013 56.8485C49.5373 57.0832 49.4946 57.3392 49.4733 57.6165C49.4519 57.8725 49.3773 58.0859 49.2493 58.2565C49.2066 58.3419 49.0786 58.4272 48.8653 58.5125C48.7799 58.5339 48.6519 58.5552 48.4813 58.5765C48.3106 58.5765 48.1293 58.5765 47.9373 58.5765C47.7453 58.5552 47.5639 58.5339 47.3932 58.5125C47.2439 58.4912 47.1373 58.4592 47.0733 58.4165C46.9879 58.3525 46.9133 58.2352 46.8493 58.0645C46.7853 57.8939 46.7746 57.7125 46.8173 57.5205C46.8386 57.4139 46.8493 57.3072 46.8493 57.2005C46.8706 57.0725 46.8919 56.9445 46.9133 56.8165C46.9773 56.6032 47.0306 56.3899 47.0733 56.1765C47.1373 55.9632 47.2119 55.7712 47.2973 55.6005C47.4039 55.3659 47.4999 55.1419 47.5853 54.9285C47.6706 54.6939 47.7773 54.4699 47.9053 54.2565C48.6093 53.1045 49.6119 52.2619 50.9133 51.7285C51.1693 51.6219 51.4359 51.5472 51.7133 51.5045C52.0119 51.4619 52.3106 51.4085 52.6093 51.3445C52.7373 51.3232 52.8653 51.3125 52.9933 51.3125C53.1426 51.3125 53.2813 51.3019 53.4093 51.2805ZM63.8945 50.5125C64.1718 50.5125 64.3958 50.5552 64.5665 50.6405C64.7585 50.7045 64.9078 50.8005 65.0145 50.9285C65.1425 51.0565 65.2492 51.2059 65.3345 51.3765C65.4412 51.5259 65.5478 51.6859 65.6545 51.8565C66.0172 52.4325 66.3585 53.0299 66.6785 53.6485C66.9985 54.2459 67.3078 54.8752 67.6065 55.5365C67.7132 55.7712 67.8198 56.0165 67.9265 56.2725C68.0332 56.5285 68.1398 56.7739 68.2465 57.0085C68.3745 57.3285 68.4918 57.6592 68.5985 58.0005C68.7052 58.3419 68.8118 58.6832 68.9185 59.0245C69.0465 59.3872 69.1425 59.7605 69.2065 60.1445C69.2705 60.5072 69.3558 60.8805 69.4625 61.2645C69.5265 61.5419 69.5692 61.8299 69.5905 62.1285C69.6118 62.4059 69.6545 62.6832 69.7185 62.9605C69.7398 63.0672 69.7398 63.1739 69.7185 63.2805C69.7185 63.3872 69.7292 63.4939 69.7505 63.6005C69.7718 63.7285 69.7825 63.8565 69.7825 63.9845C69.7825 64.1125 69.7825 64.2405 69.7825 64.3685C69.8038 64.4112 69.8038 64.4752 69.7825 64.5605C69.7825 64.6459 69.7932 64.7205 69.8145 64.7845C69.8358 64.8912 69.8358 65.0085 69.8145 65.1365C69.8145 65.2432 69.8145 65.3499 69.8145 65.4565C69.8145 65.5632 69.8145 65.6805 69.8145 65.8085C69.8358 65.9152 69.8358 66.0219 69.8145 66.1285C69.8145 66.2352 69.8145 66.3525 69.8145 66.4805C69.8145 66.5872 69.8038 66.6939 69.7825 66.8005C69.7612 66.9072 69.7505 67.0139 69.7505 67.1205C69.7718 67.2272 69.7718 67.3339 69.7505 67.4405L69.5585 68.9765C69.5158 69.1472 69.4838 69.3179 69.4625 69.4885C69.4412 69.6592 69.4092 69.8299 69.3665 70.0005C69.2812 70.3632 69.1958 70.7365 69.1105 71.1205C69.0465 71.4832 68.9612 71.8459 68.8545 72.2085C68.7052 72.6352 68.5558 73.0619 68.4065 73.4885C68.2572 73.9152 68.0972 74.3312 67.9265 74.7365C67.8412 74.9499 67.7452 75.1525 67.6385 75.3445C67.5532 75.5579 67.4572 75.7712 67.3505 75.9845C67.1158 76.5179 66.8492 77.0192 66.5505 77.4885C66.2732 77.9792 65.9852 78.4592 65.6865 78.9285C65.4945 79.2059 65.3132 79.4512 65.1425 79.6645C64.9718 79.8779 64.6945 80.0272 64.3105 80.1125H64.0225C63.8092 80.1125 63.6065 80.0699 63.4145 79.9845C63.2438 79.9205 63.2012 79.7605 63.2865 79.5045C63.3718 79.2272 63.5105 78.9605 63.7025 78.7045C63.7452 78.6405 63.7665 78.5765 63.7665 78.5125C63.7878 78.4699 63.8198 78.4272 63.8625 78.3845C63.9692 78.1925 64.0652 77.9899 64.1505 77.7765C64.2572 77.5845 64.3532 77.3925 64.4385 77.2005C64.5025 77.0512 64.5665 76.9019 64.6305 76.7525C64.7158 76.6245 64.7905 76.4965 64.8545 76.3685C65.0252 75.9845 65.1745 75.5899 65.3025 75.1845C65.4518 74.8005 65.6012 74.4059 65.7505 74.0005C65.8785 73.5952 65.9852 73.1899 66.0705 72.7845C66.1772 72.3792 66.2838 71.9632 66.3905 71.5365C66.4758 71.2379 66.5292 70.9392 66.5505 70.6405C66.5932 70.3205 66.6465 70.0112 66.7105 69.7125C66.7532 69.5845 66.7745 69.4672 66.7745 69.3605C66.7745 69.2325 66.7852 69.1045 66.8065 68.9765C66.8278 68.8272 66.8385 68.6779 66.8385 68.5285C66.8598 68.3792 66.8812 68.2192 66.9025 68.0485C66.9238 67.9419 66.9238 67.8352 66.9025 67.7285C66.9025 67.6005 66.9132 67.4832 66.9345 67.3765C66.9558 67.2699 66.9558 67.1739 66.9345 67.0885C66.9345 66.9819 66.9452 66.8752 66.9665 66.7685C66.9878 66.6832 66.9878 66.5979 66.9665 66.5125C66.9452 66.4059 66.9558 66.3099 66.9985 66.2245C67.0198 66.1179 67.0198 66.0005 66.9985 65.8725C66.9985 65.7232 66.9985 65.5845 66.9985 65.4565V64.1445C66.9772 63.9099 66.9558 63.6965 66.9345 63.5045C66.9345 63.2912 66.9238 63.0672 66.9025 62.8325C66.8598 62.7045 66.8492 62.5765 66.8705 62.4485C66.8918 62.2992 66.8812 62.1605 66.8385 62.0325C66.7958 61.9259 66.7745 61.8192 66.7745 61.7125C66.7958 61.6059 66.7852 61.4992 66.7425 61.3925C66.6998 61.1365 66.6572 60.8805 66.6145 60.6245C66.5932 60.3685 66.5612 60.1125 66.5185 59.8565C66.4758 59.6859 66.4332 59.5045 66.3905 59.3125C66.3692 59.1205 66.3372 58.9392 66.2945 58.7685C66.1878 58.4059 66.0812 58.0432 65.9745 57.6805C65.8892 57.3179 65.7932 56.9552 65.6865 56.5925C65.5372 56.1659 65.3772 55.7392 65.2065 55.3125C65.0358 54.8859 64.8652 54.4592 64.6945 54.0325C64.6518 53.9259 64.5985 53.8192 64.5345 53.7125C64.4705 53.6059 64.4172 53.4992 64.3745 53.3925C64.2252 53.0512 64.0758 52.7312 63.9265 52.4325C63.7772 52.1339 63.6172 51.8352 63.4465 51.5365C63.4038 51.4512 63.3505 51.3339 63.2865 51.1845C63.2225 51.0139 63.2225 50.8752 63.2865 50.7685C63.3292 50.7045 63.3932 50.6619 63.4785 50.6405C63.5638 50.5979 63.6492 50.5552 63.7345 50.5125C63.8412 50.5125 63.8945 50.5125 63.8945 50.5125Z" fill="white"/>
<defs>
<linearGradient id="paint0_linear_151_7110" x1="147.528" y1="57.0685" x2="147.528" y2="193.037" gradientUnits="userSpaceOnUse">
<stop offset="0.0336538" stop-color="#FFECDC"/>
<stop offset="1" stop-color="#F2BB8C"/>
</linearGradient>
</defs>
</svg>
