<svg width="289" height="482" viewBox="0 0 289 482" fill="none" xmlns="http://www.w3.org/2000/svg">
<rect width="289" height="481.409" fill="#403939"/>
<path d="M208.174 288.009L195.214 134.131L159.312 119.293L122.957 160.055L116.559 241.131L79.0777 322.868L44.5874 387.517L88.2963 413.608L153.902 381.555L208.174 288.009Z" fill="#FF00EE"/>
<path d="M199.305 133.813C200.204 138.547 200.818 143.3 201.016 148.233C201.061 149.357 200.668 149.284 200.645 149.75C200.602 150.606 201.135 151.99 201.152 152.189C201.261 153.424 200.549 152.999 200.537 153.168C200.42 155.045 201.141 154.445 201.364 156.211C201.654 158.51 201.766 161.483 201.963 164.267C202.03 165.245 201.482 164.854 201.702 166.958C201.858 168.449 202.827 172.978 202.382 175.141C202.148 175.173 201.866 174.93 201.614 174.839C202.848 177.777 202.896 178.862 203.018 183.169C203.038 183.85 203.495 184.457 203.447 185.664C203.398 186.871 202.782 186.975 202.992 189.375C203.067 190.227 203.549 190.705 203.678 192.01C204.045 195.719 204.097 202.839 204.335 205.888C204.803 211.894 205.825 215.096 206.014 220.449C206.03 220.861 205.474 220.001 205.528 220.754C205.583 221.514 206.285 222.25 206.316 222.435C206.649 224.436 206.156 228.768 206.354 229.88C206.835 232.583 206.889 229.874 207.328 233.639C207.745 237.225 207.336 242.261 207.474 245.839C207.634 249.985 208.948 251.213 207.955 254.432C208.948 265.348 209.917 276.311 210.902 287.241C210.649 287.232 210.396 287.217 210.142 287.201C210.202 287.409 210.262 287.616 210.322 287.823L210.385 288.47L210.039 289.085C209.823 289.719 209.606 290.353 209.389 290.986C209.293 290.779 209.194 290.578 209.1 290.372C207.675 294.263 206.171 297.596 203.606 301.623C203.555 301.702 203.246 301.24 203.196 301.301C202.574 302.184 202.304 303.416 201.752 304.187C200.419 306.053 197.529 308.862 199.541 308.051C196.632 312.516 193.885 318.15 191.116 322.407C189.919 324.249 188.905 324.423 188.338 325.309C187.772 326.194 188.628 326.071 188.464 326.406C187.472 328.418 185.599 331.59 184.746 331.546C184.783 332.087 184.81 332.653 184.845 333.2C184.25 332.548 181.08 338.705 180.152 340.264C179.982 340.549 179.639 340.405 179.517 340.623C178.159 343.058 178.318 343.936 177.287 346.098C176.925 346.857 177.013 345.407 176.177 347.408C176.105 347.583 176.661 347.789 175.368 350.01C173.305 353.555 169.568 360.458 166.867 364.538C166.647 364.873 166.706 363.501 165.917 365.158C165.63 365.758 166.181 365.709 165.378 367.101C162.426 372.224 158.867 377.426 156.107 382.826L155.741 383.475L155.018 383.84C154.735 383.998 154.453 384.157 154.173 384.318C154.157 383.757 155.941 382.248 153.023 384.03C152.557 384.317 153.122 384.548 152.91 384.671C151.192 385.657 149.509 386.117 147.663 387.213C147.119 387.538 147.135 387.929 146.463 388.351C145.473 388.975 144.787 388.742 143.667 389.53C141.918 390.765 141.837 391.343 139.065 391.641C125.745 398.216 112.577 404.946 99.0915 411.069C95.8953 412.89 92.9278 414.625 89.6475 416.376L88.1878 417.113L86.7073 416.255C86.1676 415.958 85.6228 415.655 85.0712 415.343C83.9299 414.697 84.0489 414.012 82.1424 413.124C81.7161 412.925 78.4884 411.81 78.7457 410.435C77.8889 410.055 77.3823 409.758 76.6603 409.408C77.0812 409.883 77.5176 410.371 77.9161 410.835C75.129 408.927 72.5268 407.913 69.8515 406.571C67.8823 405.582 69.5115 405.899 68.3247 405.257C67.1385 404.613 66.5468 404.407 65.4463 402.965C63.9097 402.953 63.4349 402.035 61.3496 400.766C61.1254 400.63 59.6683 400.111 58.6112 399.41C57.851 398.906 57.8687 398.352 56.5873 397.674C56.3777 397.562 53.4408 396.509 52.5762 396.057C51.2287 395.354 49.4783 393.585 49.2302 393.428C46.4518 391.671 44.7889 391.081 43.22 389.795L41.0678 388.548L42.2433 386.274C42.6033 385.789 43.0253 385.308 43.5568 384.803C43.3156 383.981 44.1966 381.585 45.2103 379.808C46.4908 377.565 50.011 373.57 49.1992 372.34C51.1155 369.974 50.6482 370.093 52.3062 366.961C53.8146 364.11 58.2726 356.807 59.44 354.466C60.6086 352.128 59.3726 352.914 59.7762 351.953C60.4346 350.379 60.4723 351.438 61.0129 350.409C62.5409 347.497 63.7964 344.927 65.0688 342.05C65.478 342.076 65.8948 342.091 66.307 342.112C66.2735 341.91 66.2397 341.709 66.2062 341.507C66.5274 340.913 66.8769 340.242 67.1811 339.696C63.2503 343.583 69.6868 335.256 71.1891 332.529C72.4552 330.228 73.8262 326.007 75.0347 323.385C75.3275 322.749 75.4575 323.362 75.5168 323.231C75.8837 322.414 76.0219 321.93 76.2343 321.361L76.1482 321.535C76.3061 321.018 76.5184 320.432 76.9797 319.468C77.4988 318.386 78.4692 317.482 78.9651 316.423C82.6045 308.65 85.5953 300.91 89.0996 293.136C89.6955 291.814 90.7781 290.933 91.2984 289.83C92.0423 288.253 92.0416 287.043 92.7169 285.552C93.3901 284.066 94.9194 282.178 95.2966 281.134C95.6755 280.091 94.3541 281.57 95.3443 279.795C95.7991 278.98 95.5105 280.654 96.0017 279.614C97.5351 276.37 99.1549 271.544 101.222 268.288C101.034 268.388 100.831 268.549 100.632 268.685C102.374 265.007 104.158 261.868 105.95 258.068C106.578 256.74 107.334 254.173 107.938 252.862C108.541 251.55 109.193 251.125 109.685 250.079C109.888 249.649 109.472 249.664 109.612 249.377C111.364 245.793 112.878 244.079 114.55 240.252C114.554 240.242 114.558 240.232 114.563 240.222L114.37 240.964C115.297 225.718 116.298 210.003 117.27 194.524C117.309 193.901 116.859 193.445 116.859 192.531C116.859 191.123 117.291 191.087 117.321 190.902C117.511 189.689 117.077 190.156 117.206 188.519C117.49 184.914 118.299 179.126 118.553 175.531C118.947 169.942 119.153 164.942 119.384 159.783L119.461 158.626L120.283 157.679C121.88 155.762 123.503 153.819 125.224 151.797C125.604 151.348 125.767 152.026 126.451 151.27C131.28 145.947 131.882 144.447 137.952 137.874C142.601 132.839 150.435 124.404 157.006 117.243L158.423 115.612L160.501 116.44C163.225 117.611 165.798 118.711 168.053 119.662C168.052 119.664 168.052 119.665 168.051 119.666C171.501 119.944 175.335 121.814 178.294 123.905C171.978 122.196 165.893 120.167 159.88 117.93L158.888 117.535L158.211 118.314C149.421 128.906 139.84 138.87 129.997 150.014C127.336 153.026 124.685 156.109 122.038 159.238L121.755 159.564L121.729 159.961C120.721 179.178 120.404 199.154 118.687 218.2C118.491 220.371 117.82 221.198 117.802 223.038C117.799 223.349 118.326 222.584 118.298 223.539C118.122 229.321 117.605 235.246 117.02 241.166L116.979 241.322C113.693 248.129 110.307 254.891 107.452 261.513C106.075 264.705 106.32 265.416 105.168 268.25C105.168 267.66 105.082 267.234 105.052 266.706C98.5393 279.072 93.0256 291.915 87.0345 304.717C86.7635 305.294 86.2678 305.158 85.9718 305.758C85.3783 306.958 85.3523 308.354 84.8825 309.424C84.269 310.821 83.7916 310.893 83.2293 312.183C82.9554 312.813 83.3941 312.787 82.712 314.116C82.6547 314.228 82.2502 314.133 81.884 315.058C81.1373 316.946 79.8317 320.315 78.8655 322.772L78.8717 322.759C78.4927 323.575 78.1593 324.288 77.9129 324.805C76.6743 327.403 75.0465 329.152 74.4991 330.093C73.0211 332.635 73.6045 332.875 72.434 335.07C64.1026 350.694 55.5037 365.294 46.9767 381.289C46.5049 382.174 45.3902 385.415 44.4365 387.437L44.3609 387.583L44.4994 387.664C44.7668 387.806 45.0119 387.944 45.2259 388.076C45.8256 388.447 48.8969 390.495 49.3634 390.792C51.2579 391.991 52.7034 393.346 53.7192 394.056C55.6885 395.434 58.3288 396.24 59.4832 396.852C61.5108 397.926 64.9601 400.086 65.7776 400.594C67.7506 401.82 66.6711 402.128 68.2007 402.819C68.6529 403.022 68.5325 402.221 70.0224 403.11C71.2698 403.857 71.5319 404.563 72.3404 405.145C73.1492 405.726 75.0884 406.033 75.6102 406.366C78.3348 408.111 79.3177 409.255 82.3288 411.081C83.2526 411.64 85.4419 412.899 87.889 414.286L88.2685 414.506L88.6426 414.317C92.9184 412.108 97.919 409.473 98.5097 409.064C102.706 406.161 95.3088 410.157 94.872 410.342C92.5072 411.332 92.7147 410.903 90.6673 412.528C89.9627 412.39 89.0597 412.657 88.059 413.121L88.5753 413.143C85.7842 411.399 81.044 409.886 80.5281 407.782C78.0158 407.879 76.8535 406.38 75.0922 405.008C72.6577 403.111 74.2498 404.992 72.3278 403.851C71.5705 403.401 69.6987 401.558 68.5178 400.954C67.337 400.351 66.6127 400.475 65.0769 399.589C62.3342 398.009 60.2611 396.512 58.2721 394.658C57.7238 394.626 57.2033 394.61 56.6604 394.58C55.2242 393.406 53.7809 392.23 52.3436 391.058C52.4819 391.397 52.6196 391.739 52.7579 392.079C52.2803 391.831 51.8022 391.581 51.3256 391.332C49.9634 390.132 48.6575 388.994 47.2583 387.758C46.2059 387.447 45.46 387.193 44.9154 386.971L45.1497 387.815C45.8754 385.765 46.3009 386.48 47.4446 384.614C48.8973 382.243 49.0007 380.48 50.0064 378.586C51.361 376.035 51.9039 374.821 53.3219 372.276C54.1432 370.8 56.1209 368.608 54.0165 370.153C56.4176 365.46 59.5358 358.945 62.1597 355.001C62.9331 353.835 62.3737 355.639 62.5245 355.451C63.2655 354.506 63.2244 353.358 63.8712 352.321C64.9462 350.599 67.1997 347.329 68.0438 345.971C69.2589 344.018 70.297 340.485 70.4223 340.134C71.125 338.172 71.9327 337.976 72.2067 337.371C73.7614 333.929 73.923 333.072 75.6381 332.637C75.5976 331.511 76.6813 327.458 77.9874 327.032C77.3838 326.689 78.3925 324.715 79.2209 322.944C79.3971 322.502 79.5594 322.081 79.6893 321.698C80.0774 321.449 80.467 321.193 80.8568 320.945C81.2724 316.347 85.9063 308.923 88.4624 303.788C88.5257 303.659 88.0463 303.158 88.538 302.434C88.5717 302.389 88.7982 302.59 89.0737 302.08C89.9784 300.396 93.6692 294.083 94.0239 293.325C95.3308 290.534 95.1176 289.845 95.8581 288.121C96.8323 285.852 97.3761 285.707 98.299 283.546C98.7318 282.534 98.629 281.388 99.4239 279.848C99.894 278.936 100.345 279.03 100.716 278.307C102.038 275.735 102.665 273.69 104.265 271.602C103.245 270.403 104.713 269.725 105.34 268.617C107.887 264.116 110.014 258.031 111.974 254.067C114.061 249.851 116.123 245.822 118.163 241.861L118.318 241.265C119.386 232.729 120.467 224.458 121.295 215.626C121.499 213.45 120.825 212.87 121.051 210.589C121.153 209.563 121.754 208.544 121.894 206.864C122.008 205.514 121.898 203.558 122.032 201.872C122.068 201.424 122.557 201.421 122.612 200.761C123.036 195.758 123.076 190.844 123.238 185.771C123.298 183.891 124.033 182.781 122.888 183.013C123.219 182.318 123.513 181.641 123.837 180.989C123.335 178.358 124.236 176.309 124.331 172.808C124.339 172.431 123.773 169.739 124.449 168.289C124.058 168.153 123.701 168.359 123.344 168.288C123.307 166.801 123.947 164.569 124.073 163.576C124.198 162.585 123.733 161.879 123.751 161.58C123.828 160.439 124.489 160.757 124.507 160.67C124.541 160.501 124.574 160.338 124.606 160.181L124.191 161.152C127.816 157.943 127.254 158.014 128.589 155.029C128.934 154.255 133.14 150.666 133.273 149.302C133.553 149.484 133.566 149.904 133.743 150.179C134.902 149.007 136.07 147.828 137.233 146.651C136.763 146.703 136.246 146.806 135.796 146.832C138.245 144.499 139.554 141.911 141.408 139.869C142.469 138.703 142.863 139.311 143.366 138.518C143.464 138.363 142.906 138.278 143.236 137.851C145.925 134.375 147.577 133.273 150.571 130.058C151.974 128.552 152.531 126.637 154.918 124.809C155.137 124.643 157.635 122.989 158.009 120.927C158.646 120.732 159.115 120.477 159.615 120.353C159.686 120.131 159.754 119.929 159.82 119.744L159.051 119.92C162.216 119.941 161.096 121.028 165.214 123.115C167.478 124.263 175.454 127.252 178.066 128.143C179.623 128.672 179.841 128.071 180.121 128.159C181.794 128.691 181.557 129.263 183.091 129.787C184.625 130.311 186.783 130.445 188.294 131.139C189.451 131.671 188.228 131.998 190.068 132.468C190.45 132.563 189.674 131.536 191.407 132.53C191.681 132.686 194.337 134.547 194.878 134.937C193.179 134.678 188.506 133.324 186.762 132.783C178.782 130.31 168.807 126.795 157.884 122.722L162.084 121.757C151.165 134.894 138.443 149.556 126.43 163.142L127.598 160.409C126.402 176.447 125.138 191.471 124.106 202.969C123.83 206.06 123 208.032 122.783 210.045C122.565 212.058 123.314 210.399 123.118 212.225C122.921 214.052 122.383 215.352 122.21 217.062C121.391 225.154 120.561 233.288 119.785 241.376L119.501 242.47C118.011 245.58 116.533 248.685 115.074 251.782C113.804 254.48 113.265 256.853 112.134 259.319C111.694 260.279 111.094 260.042 110.786 260.726C107.464 268.094 104.911 275.148 101.492 282.424C100.071 285.444 98.0738 288.498 96.6491 291.482C95.4738 293.941 94.634 296.664 93.6197 298.894C93.0704 300.105 92.3311 300.54 92.0953 300.961C91.2802 302.431 92.0701 302.147 91.7131 302.926C90.7265 305.072 89.5777 305.841 88.7068 307.875C88.3654 308.674 88.8319 308.764 88.3716 309.94C87.7871 311.432 87.6464 310.718 87.1561 311.75C87.1257 311.812 87.5194 311.745 87.279 312.301C85.7319 315.883 83.9385 320.418 82.3493 323.83C82.2816 323.975 82.2137 324.12 82.1457 324.265L82.0555 324.447C78.4091 331.138 74.33 337.483 70.8787 343.693C69.9897 345.296 70.5986 345.068 70.3432 345.591C69.1115 348.108 68.1861 348.749 66.9692 351.423C66.7663 351.867 66.368 353.879 65.3519 355.463C64.8035 356.319 63.9341 357.159 63.4515 357.879C62.9689 358.6 63.3869 358.978 62.8992 359.893C62.0121 361.56 61.9356 360.898 60.7243 363.312C60.2356 364.285 58.9837 367.732 57.6304 370.185C55.4195 374.193 52.3313 378.975 49.7848 383.733C49.0481 385.107 48.4903 386.999 47.5282 389.076L46.3028 384.659C46.682 384.857 47.0668 385.07 47.4551 385.301C50.4666 387.09 55.9424 390.507 59.021 392.354C60.5952 393.298 60.4058 393.871 60.5808 394.004C61.7017 394.864 61.5539 394.009 62.3489 394.514C63.4402 395.207 64.2258 396.242 65.2172 396.871C65.8496 397.272 66.2015 396.917 66.3428 396.997C71.5828 399.938 76.1165 402.697 81.2689 405.711C84.1691 407.408 87.0741 409.103 89.9826 410.798L86.8623 410.67C108.586 399.773 130.377 388.707 152.209 378.086L150.557 379.625C152.799 375.774 155.052 371.935 157.315 368.111C158.681 365.802 159.261 366.02 160.361 363.933C161.462 361.847 161.462 359.217 163.697 358.269C163.474 358.068 163.289 357.968 163.088 357.78C165.892 353.775 167.965 349.346 170.31 345.199C172.045 342.129 173.655 339.447 175.317 336.646C176.793 334.163 177.111 334.635 177.787 332.139C184.384 321.601 190.598 310.687 197.382 300.38C197.883 297.334 199.87 295.283 202.016 291.908C202.281 291.492 201.669 291.75 202.433 290.501C203.297 289.088 204.199 288.528 205.485 286.458L205.076 288.277C205.062 288.012 205.041 287.729 205.012 287.426C204.934 286.612 203.75 280.635 203.908 278.372C204.066 276.108 203.997 272.856 204.133 270.507C203.899 270.86 203.684 271.299 203.457 271.688C203.315 270.535 203.173 269.375 203.031 268.222C203.331 268.027 203.631 267.832 203.933 267.643C203.578 266.997 203.226 266.35 202.866 265.698C204.357 264.097 203.956 265.641 203.274 262.424C202.934 260.811 203.107 259.493 202.802 257.834C202.691 257.236 202.183 256.892 202.067 256.232C201.783 254.615 202.517 255.509 202.429 254.502C202.338 253.489 201.496 252.095 201.663 250.251C203.104 252.037 202.225 246.592 201.207 246.417C201.15 245.764 201.146 245.214 201.057 244.495C203.627 244.944 201.555 241.681 201.097 240.355C200.639 239.029 201.319 239.026 201.266 238.711C201.115 237.803 200.891 238.493 200.827 237.854C200.414 233.616 200.49 229.586 200.175 225.396C200.129 224.793 199.792 225.36 199.771 224.655C199.749 223.949 200.072 223.242 199.959 222.206C199.929 221.928 199.586 221.869 199.549 221.435C198.798 212.333 198.355 203.667 197.617 194.382C197.55 193.542 196.898 192.934 196.782 191.309C196.666 189.684 196.997 187.174 196.869 185.155C196.835 184.619 196.326 184.517 196.28 183.807C196.122 181.39 196.351 179.276 196.205 176.764C195.96 172.518 195.283 168.11 195.215 163.787C195.201 162.967 195.626 163.062 195.643 161.876C195.674 159.831 195.134 160.646 195.019 160.243C194.644 158.922 195.412 158.431 195.096 157.149C195.047 156.953 194.595 157.278 194.572 157.1C194.257 154.345 195.36 154.104 194.515 151.219C194.936 148.553 195.522 152.895 195.9 153.314C196.82 154.336 197.549 151.36 197.718 149.629C197.864 148.138 197.349 148.193 197.3 147.609C197.038 144.518 196.552 139.923 196.598 137.55C196.625 136.113 197.056 138.662 197.164 137.919C197.272 137.183 196.846 136.75 197.207 135.973C197.568 135.196 198.686 133.578 199.305 133.813ZM155.911 380.718C156.538 375.579 163.063 364.756 166.636 358.984C169.601 354.197 173.395 350.785 170.841 350.655C167.775 355.909 165.504 360.28 162.215 365.81C161.872 366.385 159.687 369.731 158.958 370.913C158.548 371.578 158.21 371.412 157.68 372.334C157.565 372.535 157.347 373.889 157.1 374.288C156.256 375.656 153.206 379.412 152.89 380C152.714 380.33 152.608 380.579 152.549 380.774L153.218 380.152C152.594 380.664 153.056 380.871 152.52 381.227C150.262 382.72 149.612 382.063 147.347 383.486C146.942 383.74 145.86 385.119 144.045 385.894C143.307 386.209 141.909 386.453 141.366 386.739C138.408 388.298 135.286 390.404 132.499 391.669C130.214 392.706 130.561 391.88 129.335 392.391C128.109 392.905 126.97 394.222 126.172 394.656C124.895 395.349 123.139 395.774 122.737 395.977C114.815 399.976 107.923 403.844 100.303 407.747C105.644 405.437 110.97 403.111 116.281 400.826C118.959 398.838 117.744 400.069 119.767 399.293C121.368 398.678 121.285 397.568 123.353 396.685C123.352 396.686 123.35 396.686 123.348 396.687C124.415 396.233 126.983 395.775 129.067 394.424C129.141 394.375 129.103 393.796 130.753 392.969C134.462 391.111 140.053 388.073 144.297 386.127C145.543 385.556 145.54 386.185 147.027 385.536C148.111 385.063 149.113 383.993 150.827 383.285C152.256 382.697 153.351 382.64 154.185 382.134L154.368 382.041L154.461 381.877C154.668 381.43 154.757 380.926 154.663 380.254C155.114 380.362 155.457 380.637 155.911 380.718ZM206.587 266.385C206.609 266.057 207.631 261.595 206.257 263.011C206.105 268.901 206.956 275.182 207.112 281.353C208.401 279.13 207.525 275.634 207.055 271.338C207.055 271.336 207.055 271.334 207.055 271.333C207.032 271.13 207.487 271.946 207.32 270.797C207.239 270.24 206.471 268.143 206.587 266.385Z" fill="#FF00EE"/>
<path d="M178.928 84.161L164.16 85.0423L157.068 111.358L137.357 129.725L117.488 160.663L149.573 139.171L149.815 175.925L175.184 142.554L198.675 178.622L195.978 130.437L178.591 113.652L178.928 84.161Z" fill="#02985E"/>
<path d="M53.3888 65.0836C53.6283 65.0619 53.8678 65.0945 54.1073 65.1816C54.3468 65.2469 54.4339 65.3993 54.3685 65.6388C54.325 65.813 54.2597 65.9763 54.1726 66.1287C54.1073 66.2811 54.0311 66.4226 53.944 66.5532C53.7916 66.7927 53.661 67.0322 53.5521 67.2716C53.4433 67.5111 53.3235 67.7506 53.1929 67.9901C52.9099 68.5561 52.6486 69.1548 52.4092 69.7862C52.1697 70.4175 51.9411 71.0489 51.7234 71.6803C51.6145 72.0068 51.5165 72.3443 51.4295 72.6926C51.3641 73.0192 51.2879 73.3566 51.2009 73.705C51.1138 73.9662 51.0485 74.2384 51.0049 74.5214C50.9832 74.8044 50.9396 75.0874 50.8743 75.3705C50.8308 75.5011 50.809 75.6317 50.809 75.7623C50.809 75.893 50.7981 76.0236 50.7763 76.1542C50.7328 76.2631 50.711 76.3828 50.711 76.5134C50.7328 76.6223 50.7328 76.7311 50.711 76.84C50.6675 76.9489 50.6457 77.0686 50.6457 77.1992C50.6675 77.3081 50.6566 77.4169 50.613 77.5258V77.7544C50.5913 77.8197 50.5804 77.8959 50.5804 77.983C50.6022 78.0483 50.6022 78.1245 50.5804 78.2116C50.5368 78.3857 50.5151 78.5926 50.5151 78.832C50.5368 79.0498 50.5477 79.2566 50.5477 79.4525C50.5477 79.5831 50.5368 79.7247 50.5151 79.8771C50.5151 80.0294 50.5151 80.171 50.5151 80.3016V80.6282C50.5368 80.8676 50.5477 81.0962 50.5477 81.3139C50.5477 81.5317 50.5586 81.7602 50.5804 81.9997C50.6022 82.1086 50.6022 82.2283 50.5804 82.3589C50.5804 82.4896 50.5913 82.6093 50.613 82.7182C50.6348 82.8053 50.6348 82.8923 50.613 82.9794C50.613 83.0665 50.6348 83.1536 50.6784 83.2407L50.8743 84.9062C50.9614 85.2763 51.0267 85.6464 51.0702 86.0165C51.1355 86.3648 51.2117 86.7023 51.2988 87.0288C51.3424 87.1159 51.3641 87.1921 51.3641 87.2574C51.3641 87.3227 51.375 87.3989 51.3968 87.486C51.4839 87.7255 51.5492 87.9541 51.5927 88.1718C51.6581 88.3895 51.7234 88.6181 51.7887 88.8576C52.0282 89.5325 52.2676 90.1856 52.5071 90.817C52.7684 91.4483 53.0514 92.0579 53.3562 92.6458C53.4215 92.7764 53.4759 92.907 53.5195 93.0376C53.5848 93.19 53.661 93.3315 53.7481 93.4622C53.8352 93.6146 53.9222 93.7561 54.0093 93.8867C54.0964 94.0391 54.1835 94.2024 54.2706 94.3765C54.3141 94.4636 54.3468 94.5725 54.3685 94.7031C54.4121 94.8555 54.4012 94.9861 54.3359 95.095C54.2488 95.2038 54.1399 95.2583 54.0093 95.2583C53.8787 95.2583 53.7372 95.28 53.5848 95.3236C53.4542 95.3236 53.3235 95.3018 53.1929 95.2583C52.8228 95.1494 52.5724 94.9861 52.4418 94.7684C52.3112 94.5725 52.1588 94.3221 51.9846 94.0173C51.0702 92.5587 50.2429 90.9585 49.5027 89.2168C49.3503 88.8685 49.2088 88.5201 49.0782 88.1718C48.9476 87.8017 48.8169 87.4316 48.6863 87.0615C48.6428 86.8873 48.5883 86.7132 48.523 86.539C48.4795 86.3648 48.4359 86.1906 48.3924 86.0165C48.2835 85.7117 48.2073 85.4069 48.1638 85.1021C48.1203 84.7755 48.0658 84.4599 48.0005 84.1551C47.957 83.9156 47.9134 83.6652 47.8699 83.404C47.8481 83.1427 47.8155 82.8815 47.7719 82.6202C47.7284 82.5113 47.7066 82.4025 47.7066 82.2936C47.7284 82.1848 47.7284 82.0759 47.7066 81.9671C47.7066 81.8582 47.6957 81.7385 47.674 81.6078C47.674 81.4772 47.674 81.3466 47.674 81.216C47.6522 81.1724 47.6413 81.118 47.6413 81.0527C47.6631 80.9656 47.674 80.8894 47.674 80.8241C47.6304 80.7152 47.6086 80.5955 47.6086 80.4649C47.6304 80.3342 47.6413 80.2145 47.6413 80.1056C47.6413 79.9968 47.6304 79.8771 47.6086 79.7464C47.6086 79.6158 47.6304 79.5069 47.674 79.4199V78.7014C47.6957 78.5926 47.6957 78.4946 47.674 78.4075C47.674 78.2987 47.6848 78.1898 47.7066 78.0809L47.9026 76.5134C47.9461 76.361 47.9679 76.2086 47.9679 76.0562C47.9896 75.9038 48.0223 75.7514 48.0658 75.599C48.1747 75.2289 48.2618 74.8588 48.3271 74.4887C48.3924 74.1186 48.4795 73.7485 48.5883 73.3784C48.7407 72.9212 48.8822 72.4749 49.0129 72.0395C49.1653 71.6041 49.3286 71.1795 49.5027 70.7659C49.5898 70.5699 49.6769 70.374 49.764 70.1781C49.8511 69.9821 49.9381 69.7862 50.0252 69.5902C50.0688 69.5249 50.1014 69.4596 50.1232 69.3943C50.1667 69.329 50.1994 69.2637 50.2212 69.1984C50.4606 68.6976 50.711 68.2187 50.9723 67.7615C51.2335 67.3043 51.5165 66.858 51.8213 66.4226C51.952 66.2266 52.0826 66.0307 52.2132 65.8347C52.3438 65.617 52.4962 65.4429 52.6704 65.3122C52.7357 65.2687 52.8772 65.2034 53.0949 65.1163C53.1385 65.0945 53.182 65.0945 53.2256 65.1163C53.2909 65.1163 53.3453 65.1054 53.3888 65.0836ZM63.1463 65.8347C64.6485 65.813 65.9547 66.0742 67.065 66.6185C68.1971 67.1628 69.0571 67.8921 69.6449 68.8065C69.7538 68.9807 69.8517 69.1766 69.9388 69.3943C70.0259 69.5902 70.1239 69.7971 70.2327 70.0148C70.3198 70.2325 70.3851 70.4502 70.4287 70.6679C70.4722 70.8856 70.5157 71.1142 70.5593 71.3537C70.6028 71.4626 70.6137 71.5605 70.5919 71.6476C70.5702 71.7347 70.5811 71.8327 70.6246 71.9415C70.6464 72.0504 70.6573 72.2354 70.6573 72.4967C70.6573 72.7362 70.6464 72.9212 70.6246 73.0518C70.5811 73.1825 70.5593 73.3131 70.5593 73.4437C70.5811 73.5743 70.5702 73.705 70.5266 73.8356C70.4396 74.1404 70.3634 74.4343 70.298 74.7173C70.2327 75.0003 70.1456 75.2725 70.0368 75.5337C69.9062 75.8385 69.7538 76.1107 69.5796 76.3501C69.4272 76.5896 69.2639 76.8291 69.0897 77.0686C69.0462 77.1121 69.0027 77.1557 68.9591 77.1992C68.9374 77.2428 68.9047 77.2863 68.8612 77.3298C68.5999 77.6782 68.306 77.9939 67.9794 78.2769C67.6529 78.5599 67.3045 78.832 66.9344 79.0933C66.2595 79.5723 65.6173 80.0186 65.0077 80.4322C64.5069 80.737 64.0062 81.0309 63.5055 81.3139C63.0265 81.597 62.5476 81.8909 62.0686 82.1957C61.5243 82.5658 61.0018 82.9577 60.5011 83.3713C60.0221 83.785 59.6085 84.2748 59.2601 84.8408C59.1731 84.9715 59.0969 85.1021 59.0315 85.2327C58.9662 85.3416 58.9009 85.4831 58.8356 85.6573C58.7921 85.8097 58.7812 85.9403 58.8029 86.0491C58.8465 86.2015 58.9227 86.3213 59.0315 86.4084C59.1404 86.4737 59.271 86.5172 59.4234 86.539C59.5976 86.539 59.7718 86.539 59.9459 86.539H61.5787H67.6855H69.1224C69.3183 86.539 69.5034 86.5499 69.6776 86.5716C69.8517 86.5716 69.9932 86.6152 70.1021 86.7023C70.211 86.7894 70.298 86.9526 70.3634 87.1921C70.4504 87.4098 70.4722 87.6275 70.4287 87.8452V88.1392C70.3851 88.2916 70.3416 88.4222 70.298 88.531C70.2545 88.6399 70.1783 88.727 70.0694 88.7923C69.9606 88.8794 69.8082 88.9229 69.6123 88.9229C69.4163 88.9229 69.2204 88.9229 69.0244 88.9229H67.065H59.4234H57.1048C56.9306 88.9229 56.7347 88.9338 56.517 88.9556C56.2993 88.9556 56.1142 88.9338 55.9618 88.8903C55.5046 88.7379 55.3631 88.346 55.5373 87.7146C55.5591 87.6275 55.5591 87.5513 55.5373 87.486C55.5373 87.3989 55.5591 87.301 55.6026 87.1921C55.6461 87.0179 55.6897 86.8329 55.7332 86.637C55.7768 86.441 55.8312 86.256 55.8965 86.0818C56.2448 85.015 56.6803 84.1115 57.2028 83.3713C57.5947 82.827 58.041 82.3372 58.5417 81.9018C59.0424 81.4446 59.5649 81.02 60.1092 80.6282C60.6753 80.2363 61.2522 79.8662 61.84 79.5178C62.4496 79.1477 63.0374 78.7667 63.6035 78.3749C63.8429 78.2007 64.0715 78.0374 64.2892 77.885C64.5287 77.7326 64.7682 77.5693 65.0077 77.3952C65.0948 77.3298 65.171 77.2645 65.2363 77.1992C65.3234 77.1121 65.4104 77.0468 65.4975 77.0033C65.8023 76.7638 66.0745 76.4917 66.3139 76.1869C66.3575 76.1216 66.4119 76.0671 66.4772 76.0236C66.5425 75.9583 66.597 75.893 66.6405 75.8276C66.8147 75.6099 66.9562 75.3922 67.065 75.1745C67.1957 74.9568 67.3154 74.7173 67.4243 74.4561C67.4896 74.3037 67.5331 74.1404 67.5549 73.9662C67.5984 73.7921 67.642 73.6179 67.6855 73.4437C67.6855 73.3784 67.6855 73.3131 67.6855 73.2478C67.7073 73.1825 67.7182 73.1172 67.7182 73.0518C67.7617 72.8994 67.7726 72.6926 67.7508 72.4314C67.7508 72.1483 67.7291 71.9306 67.6855 71.7782C67.642 71.6041 67.5984 71.4408 67.5549 71.2884C67.5331 71.1142 67.4896 70.9401 67.4243 70.7659C67.1848 70.2434 66.8582 69.808 66.4446 69.4596C66.0527 69.0895 65.5737 68.7847 65.0077 68.5452C64.8553 68.5017 64.7029 68.469 64.5505 68.4473C64.3981 68.4037 64.2348 68.3602 64.0606 68.3166C63.8865 68.2731 63.647 68.2513 63.3422 68.2513C63.0592 68.2513 62.8306 68.2731 62.6564 68.3166C62.5258 68.3384 62.406 68.3493 62.2972 68.3493C62.1883 68.3493 62.0795 68.3711 61.9706 68.4146C61.7529 68.5017 61.5461 68.5888 61.3502 68.6759C61.176 68.7629 61.0018 68.8609 60.8276 68.9698C60.7623 69.0133 60.697 69.0677 60.6317 69.1331C60.5882 69.1984 60.5337 69.2528 60.4684 69.2963C60.4249 69.3399 60.3705 69.3943 60.3051 69.4596C60.2398 69.5032 60.1854 69.5467 60.1419 69.5902C60.033 69.7426 59.9242 69.895 59.8153 70.0474C59.7282 70.1781 59.6302 70.3196 59.5214 70.472C59.3908 70.6679 59.2819 70.8965 59.1948 71.1578C59.1295 71.3972 59.0533 71.6367 58.9662 71.8762C58.8791 72.1157 58.8247 72.4314 58.8029 72.8232C58.7812 73.1934 58.7159 73.4655 58.607 73.6397C58.4981 73.8138 58.3349 73.9118 58.1172 73.9336C57.8994 73.9553 57.66 73.9662 57.3987 73.9662C57.3116 73.9662 57.2245 73.9771 57.1375 73.9989C57.0504 73.9989 56.9742 73.988 56.9089 73.9662C56.8 73.9227 56.6912 73.9009 56.5823 73.9009C56.4952 73.9009 56.4081 73.8791 56.321 73.8356C56.1251 73.705 56.0271 73.4111 56.0271 72.9539V72.6926C56.0489 72.562 56.0598 72.4314 56.0598 72.3007C56.0816 72.1483 56.1033 72.0068 56.1251 71.8762C56.1687 71.6367 56.2122 71.419 56.2557 71.2231C56.2993 71.0054 56.3646 70.7985 56.4517 70.6026C56.4952 70.4502 56.5388 70.3196 56.5823 70.2107C56.6258 70.0801 56.6694 69.9495 56.7129 69.8188C56.9742 69.2528 57.3116 68.7194 57.7253 68.2187C58.1607 67.7179 58.6288 67.3152 59.1295 67.0104C59.369 66.8362 59.6194 66.6947 59.8806 66.5858C60.1636 66.477 60.4467 66.3681 60.7297 66.2593C60.9692 66.1504 61.2195 66.0851 61.4808 66.0633C61.742 66.0198 62.0142 65.9654 62.2972 65.9001C62.4496 65.9001 62.5911 65.9001 62.7217 65.9001C62.8524 65.8783 62.9939 65.8565 63.1463 65.8347ZM73.5527 65.051C73.8357 65.051 74.0643 65.0945 74.2385 65.1816C74.4344 65.2469 74.5868 65.3449 74.6957 65.4755C74.8263 65.6062 74.9352 65.7585 75.0223 65.9327C75.1311 66.0851 75.24 66.2484 75.3488 66.4226C75.7189 67.0104 76.0673 67.62 76.3938 68.2513C76.7204 68.8609 77.0361 69.5032 77.3409 70.1781C77.4497 70.4175 77.5586 70.6679 77.6674 70.9292C77.7763 71.1904 77.8852 71.4408 77.994 71.6803C78.1246 72.0068 78.2444 72.3443 78.3532 72.6926C78.4621 73.041 78.5709 73.3893 78.6798 73.7376C78.8104 74.1077 78.9084 74.4887 78.9737 74.8806C79.039 75.2507 79.1261 75.6317 79.235 76.0236C79.3003 76.3066 79.3438 76.6005 79.3656 76.9053C79.3874 77.1883 79.4309 77.4714 79.4962 77.7544C79.518 77.8632 79.518 77.9721 79.4962 78.0809C79.4962 78.1898 79.5071 78.2987 79.5289 78.4075C79.5506 78.5381 79.5615 78.6688 79.5615 78.7994C79.5615 78.93 79.5615 79.0606 79.5615 79.1913C79.5833 79.2348 79.5833 79.3001 79.5615 79.3872C79.5615 79.4743 79.5724 79.5505 79.5942 79.6158C79.6159 79.7247 79.6159 79.8444 79.5942 79.975C79.5942 80.0839 79.5942 80.1927 79.5942 80.3016C79.5942 80.4104 79.5942 80.5302 79.5942 80.6608C79.6159 80.7697 79.6159 80.8785 79.5942 80.9874C79.5942 81.0962 79.5942 81.216 79.5942 81.3466C79.5942 81.4555 79.5833 81.5643 79.5615 81.6732C79.5398 81.782 79.5289 81.8909 79.5289 81.9997C79.5506 82.1086 79.5506 82.2174 79.5289 82.3263L79.3329 83.8938C79.2894 84.068 79.2567 84.2421 79.235 84.4163C79.2132 84.5905 79.1805 84.7646 79.137 84.9388C79.0499 85.3089 78.9628 85.6899 78.8757 86.0818C78.8104 86.4519 78.7233 86.822 78.6145 87.1921C78.4621 87.6275 78.3097 88.063 78.1573 88.4984C78.0049 88.9338 77.8416 89.3583 77.6674 89.772C77.5804 89.9897 77.4824 90.1965 77.3735 90.3925C77.2865 90.6102 77.1885 90.8279 77.0796 91.0456C76.8401 91.5899 76.568 92.1015 76.2632 92.5804C75.9802 93.0812 75.6863 93.571 75.3815 94.05C75.1855 94.333 75.0005 94.5834 74.8263 94.8011C74.6522 95.0188 74.3691 95.1712 73.9773 95.2583H73.6833C73.4656 95.2583 73.2588 95.2147 73.0629 95.1276C72.8887 95.0623 72.8452 94.8991 72.9322 94.6378C73.0193 94.3548 73.1608 94.0826 73.3568 93.8214C73.4003 93.7561 73.4221 93.6908 73.4221 93.6254C73.4439 93.5819 73.4765 93.5384 73.5201 93.4948C73.6289 93.2989 73.7269 93.0921 73.814 92.8743C73.9228 92.6784 74.0208 92.4825 74.1079 92.2865C74.1732 92.1341 74.2385 91.9817 74.3038 91.8293C74.3909 91.6987 74.4671 91.5681 74.5324 91.4375C74.7066 91.0456 74.859 90.6428 74.9896 90.2292C75.142 89.8373 75.2944 89.4345 75.4468 89.0209C75.5774 88.6072 75.6863 88.1936 75.7734 87.7799C75.8822 87.3663 75.9911 86.9417 76.0999 86.5063C76.187 86.2015 76.2414 85.8967 76.2632 85.5919C76.3068 85.2654 76.3612 84.9497 76.4265 84.6449C76.47 84.5143 76.4918 84.3945 76.4918 84.2857C76.4918 84.1551 76.5027 84.0244 76.5245 83.8938C76.5462 83.7414 76.5571 83.589 76.5571 83.4366C76.5789 83.2842 76.6007 83.1209 76.6224 82.9468C76.6442 82.8379 76.6442 82.7291 76.6224 82.6202C76.6224 82.4896 76.6333 82.3698 76.6551 82.261C76.6769 82.1521 76.6769 82.0542 76.6551 81.9671C76.6551 81.8582 76.666 81.7494 76.6877 81.6405C76.7095 81.5534 76.7095 81.4663 76.6877 81.3793C76.666 81.2704 76.6769 81.1724 76.7204 81.0853C76.7422 80.9765 76.7422 80.8567 76.7204 80.7261C76.7204 80.5737 76.7204 80.4322 76.7204 80.3016V78.9627C76.6986 78.7232 76.6769 78.5055 76.6551 78.3095C76.6551 78.0918 76.6442 77.8632 76.6224 77.6238C76.5789 77.4931 76.568 77.3625 76.5898 77.2319C76.6115 77.0795 76.6007 76.938 76.5571 76.8073C76.5136 76.6985 76.4918 76.5896 76.4918 76.4808C76.5136 76.3719 76.5027 76.2631 76.4592 76.1542C76.4156 75.893 76.3721 75.6317 76.3285 75.3705C76.3068 75.1092 76.2741 74.8479 76.2306 74.5867C76.187 74.4125 76.1435 74.2275 76.0999 74.0315C76.0782 73.8356 76.0455 73.6505 76.002 73.4764C75.8931 73.1063 75.7842 72.7362 75.6754 72.3661C75.5883 71.9959 75.4903 71.6258 75.3815 71.2557C75.2291 70.8203 75.0658 70.3849 74.8916 69.9495C74.7175 69.514 74.5433 69.0786 74.3691 68.6432C74.3256 68.5344 74.2712 68.4255 74.2059 68.3166C74.1405 68.2078 74.0861 68.0989 74.0426 67.9901C73.8902 67.6417 73.7378 67.3152 73.5854 67.0104C73.433 66.7056 73.2697 66.4008 73.0955 66.096C73.052 66.0089 72.9976 65.8892 72.9322 65.7368C72.8669 65.5626 72.8669 65.4211 72.9322 65.3122C72.9758 65.2469 73.0411 65.2034 73.1282 65.1816C73.2153 65.1381 73.3024 65.0945 73.3894 65.051C73.4983 65.051 73.5527 65.051 73.5527 65.051Z" fill="white"/>
</svg>
