<svg width="216" height="304" viewBox="0 0 216 304" fill="none" xmlns="http://www.w3.org/2000/svg">
<path d="M16.5703 0L16.5703 303L9.24331e-07 303L1.14441e-05 -9.11919e-07L16.5703 0Z" fill="#267054"/>
<path d="M215.414 0L215.414 303L198.844 303L198.844 -9.30219e-07L215.414 0Z" fill="#267054"/>
<path d="M16.5703 21.3047H198.844V303H16.5703V21.3047Z" fill="#FF6161"/>
<path d="M25.409 19.7426C30.6089 19.7015 37.4251 19.7455 42.6054 19.8058C44.2288 19.8245 43.4068 19.9082 44.5275 19.9249C46.7194 19.9574 48.7614 19.9163 50.9274 19.9551C51.6453 19.9683 50.7517 20.1009 51.5044 20.1117C55.6292 20.1703 59.5313 20.1365 63.7097 20.1647C84.2911 20.3037 104.522 20.3534 125.355 20.4138C132.225 20.4336 140.575 20.5538 147.67 20.5012C148.499 20.495 148.005 20.3787 148.162 20.3691C150.634 20.2223 149.812 20.4571 151.426 20.4883C157.831 20.6115 164.954 20.6222 171.118 20.5773C173.741 20.5579 171.111 20.3269 173.752 20.4565C173.935 20.4653 173.27 20.5888 173.989 20.602C175.62 20.6316 178.714 20.6095 179.978 20.6193C182.414 20.6388 182.817 20.6376 185.122 20.639C188.272 20.642 192.018 20.7034 195.398 20.6754C196.119 20.669 195.164 20.5424 196.314 20.5209C196.866 20.5106 197.853 20.5077 198.844 20.5107L199.635 20.508L199.638 21.3047C199.634 22.3823 199.624 23.4652 199.608 24.0001C199.579 25.0274 199.479 24.59 199.456 24.7718C199.264 26.2674 199.53 29.7911 199.537 30.2443C199.649 38.5108 199.497 45.5997 199.498 53.3593C199.499 59.25 199.549 65.5488 199.542 71.1539C199.533 77.8317 199.465 83.4913 199.476 89.9786C199.477 90.6632 199.626 89.861 199.628 90.6972C199.645 99.5812 199.629 108.404 199.529 117.249C199.518 118.136 199.388 116.993 199.37 117.879C199.262 123.306 199.004 131.892 199.573 135.115C199.551 138.79 199.528 143.253 199.413 146.541C199.34 148.661 199.197 146.602 199.258 149.207C199.271 149.794 199.396 149.03 199.407 149.911C199.453 153.62 199.412 157.672 199.477 161.341C199.49 162.087 199.602 161.884 199.622 162.095C199.785 163.872 199.515 166.831 199.496 167.476C199.35 172.387 199.407 175.973 199.404 180.548C199.403 181.61 199.553 180.355 199.557 181.376C199.579 186.675 199.566 192.163 199.499 197.352C199.484 198.506 199.356 197.444 199.343 197.996C199.283 200.427 199.525 200.966 199.473 203.298C199.462 203.79 199.353 203.513 199.341 203.603C199.152 205.006 199.419 206.226 199.425 206.587C199.506 211.154 199.227 214.073 199.266 218.484C199.271 219.012 199.41 217.822 199.415 219.305C199.453 229.189 199.415 239.642 199.305 249.426C199.288 250.947 199.184 249.861 199.171 249.957C198.97 251.517 199.239 252.526 199.249 253.022C199.322 256.935 199.097 260.59 199.416 263.249C199.327 276.545 199.425 289.793 199.32 303L199.321 303.474L198.844 303.476C195.592 303.45 192.342 303.411 189.094 303.355C188.885 303.351 189.26 303.219 188.843 303.213C183.823 303.139 184.787 303.344 181.466 303.596C180.629 303.659 178.084 303.355 177.859 303.333C177.039 303.251 177.89 303.055 177.615 303.039C175.341 302.914 175.712 303.565 172.645 303.565C172.549 303.564 172.952 303.444 172.694 303.432C171.895 303.395 171.102 303.442 170.319 303.401C168.528 303.306 167.89 302.99 165.155 303.174C164.808 303.197 165.337 303.566 162.599 303.549C161.507 303.542 156.675 303.548 155.321 303.524C153.969 303.5 154.897 303.381 154.801 303.376C151.156 303.219 152.538 303.154 150.712 302.921C148.887 302.689 149.393 303.242 148.649 303.304C147.903 303.366 145.231 303.236 144.574 303.191C143.918 303.146 144.737 303.07 144.153 303.044C140.284 302.878 142.455 303.319 141.18 303.407C138.174 303.615 135.832 303.204 133.08 303.164C132.336 303.153 132.943 303.247 132.28 303.256C129.654 303.289 128.075 303.161 125.088 303.278C124.599 303.297 122.184 303.544 120.62 303.363C120.399 303.337 121.028 303.235 119.909 303.212C118.237 303.177 115.225 303.155 113.427 303.189C112.101 303.215 113.621 303.383 111.951 303.331C111.209 303.307 112.585 303.209 111.19 303.173C109.803 303.137 106.257 303.142 104.907 303.145C103.56 303.149 104.297 303.276 104.189 303.285C103.53 303.334 100.945 303.396 100.716 303.396C89.1924 303.411 78.566 303.196 67.3463 303.267C66.4658 303.273 67.0523 303.407 66.9179 303.41C63.9036 303.466 66.2803 303.108 64.1746 302.988C64.4789 303.261 63.2359 303.212 61.1127 303.242C60.0895 303.257 60.6467 303.362 60.5534 303.373C59.036 303.534 57.9795 303.326 57.7074 303.284C56.7025 303.128 55.6089 303.312 54.9251 303.208C54.2417 303.104 55.8145 302.95 53.7782 302.952C53.2071 303.05 54.7189 303.306 53.1729 303.347C47.3396 303.504 36.4508 303.304 31.7606 303.283C27.0798 303.262 25.5678 303.28 22.8402 303.245C17.9134 303.181 19.719 303.37 16.6597 303.457C16.6295 303.458 16.5997 303.459 16.5703 303.46L16.1122 303.461L16.1106 303C16.0354 300.05 16.4941 301.508 16.5935 301.072C16.6938 300.639 16.5905 300.166 16.6457 299.628C16.7008 299.091 16.7691 300.253 16.7898 298.99C16.8105 297.727 16.632 294.273 16.527 293.826C16.3047 292.879 16.0713 294.435 16.1533 291.093C16.1582 290.901 16.2809 291.525 16.2933 290.789C16.3879 284.942 16.3937 278.869 16.4773 273.029C16.489 272.227 16.6256 272.944 16.6339 272.477C16.7213 267.61 16.491 269.35 16.2352 266.683C16.5756 267.281 16.7839 265.806 16.7859 262.113C16.7873 259.892 16.6386 260.274 16.5338 258.838C16.5022 258.407 16.6043 256.836 16.5343 256.552C16.3058 255.613 16.0499 257.093 16.1518 253.284C16.1566 253.117 16.2817 253.649 16.2893 253.072C16.3389 249.34 16.0998 248.894 16.0708 244.86C16.0481 241.698 16.1939 236.074 16.2176 232.474C16.6004 232.55 16.5128 229.149 16.2488 227.769C16.2597 225.433 16.2447 222.909 16.2812 220.651C16.2936 219.874 16.4045 220.384 16.4164 220.286C16.6043 218.783 16.3475 217.768 16.3375 217.263C16.2396 211.797 16.4342 207.344 16.244 202.127C16.2372 201.942 15.9713 201.642 16.1654 200.247C16.1788 200.157 16.2998 201.88 16.3091 199.426C16.3185 196.972 16.4611 192.345 16.3378 188.938C16.3082 188.113 16.0923 186.028 16.261 184.354C16.2839 184.131 16.3601 184.375 16.4026 184.053C16.5378 183.012 16.269 182.444 16.4974 181.221C16.7257 179.998 16.8966 177.454 16.7391 174.017C16.7345 173.908 16.5215 173.095 16.5249 172.014C16.5305 170.289 16.5748 167.84 16.5734 166.039C16.5727 165.176 16.4404 165.728 16.438 165.579C16.3639 159.78 16.4818 155.653 16.533 149.441C16.5426 148.302 16.3623 145.029 16.5049 142.825C16.661 140.404 17.3103 142.891 17.1556 137.327C17.0937 135.083 16.2699 132.242 16.6967 128.209C16.591 120.387 16.8094 113.153 16.6584 105.31C16.6517 104.957 16.4218 103.842 16.4249 103.012C16.43 101.781 16.5375 101.106 16.5446 100.227C16.5769 96.5433 16.485 93.1726 16.4993 89.6213C16.5045 88.273 16.6156 88.7445 16.6218 87.1364C16.6279 85.5292 16.4816 84.4576 16.5523 82.2797C16.6061 80.635 16.9052 78.9904 16.94 76.8072C16.6451 76.724 16.6511 75.2245 16.5733 72.5594C16.5581 72.0472 16.4555 72.5965 16.443 72.3541C16.3901 71.3679 16.4752 70.4552 16.4176 69.5187C16.4038 69.2909 16.303 69.2802 16.286 69.094C16.1377 67.5104 16.3643 64.9014 16.4037 64.4533C16.5536 62.7359 16.4226 61.9334 16.4816 60.6161C16.5406 59.301 16.6143 61.2674 16.6501 59.7312C16.7242 56.5469 16.7079 52.4555 16.7125 49.2215C16.7138 47.9311 16.5793 48.8115 16.5763 48.6268C16.5422 45.9585 16.6853 43.2603 16.4174 41.7808C17.11 39.9308 16.3502 40.1718 16.4889 36.3578C16.5001 36.0574 16.8276 35.6752 16.8757 36.8286C16.9237 37.982 16.8214 39.731 16.8963 41.3313C16.9139 41.7102 17.2208 43.8811 17.2394 44.1773C17.3847 46.4973 16.8953 46.8262 16.8684 46.9489C16.5783 48.3409 16.9089 50.9937 16.9318 51.6923C17.0364 54.8881 16.9676 57.6033 17.0423 60.2763C17.0906 62.0246 17.4112 62.1955 17.4014 63.5683C17.369 68.1317 16.9217 69.7247 17.3095 74.0249C17.3922 74.947 17.7427 74.0307 17.4671 77.3346C17.4497 77.5422 17.1977 79.9953 17.3571 81.4125C17.3772 81.5905 17.4793 81.5849 17.4879 81.8196C17.5434 83.3928 17.4621 84.442 17.501 86.1558C17.54 87.8695 17.5981 89.9302 17.5634 91.8868C17.5427 93.066 17.3525 94.5789 17.3059 95.1434C17.1717 96.7373 17.3917 98.4462 17.2292 99.4337C17.0659 100.429 16.8179 98.4827 16.7123 101.094C16.9777 101.191 17.25 101.413 17.5168 101.568C17.5075 107.29 17.4217 112.921 17.4334 118.662C17.4351 119.374 17.5778 118.646 17.5833 119.409C17.6059 122.628 17.5043 125.44 17.5447 128.779C17.5766 131.363 17.7277 134.197 17.7657 136.899C17.4621 138.55 17.5652 142.559 17.5374 145.472C17.5278 146.493 17.4468 146.425 17.4203 147.15C17.3225 149.888 17.5908 148.605 17.633 149.356C17.8132 152.576 17.2059 152.851 17.2209 156.648C17.2215 156.849 17.5452 159.307 17.5654 159.646C17.6968 161.797 17.4527 160.002 17.4288 161.348C17.3851 163.807 17.3078 165.515 17.4026 168.4C17.4307 169.241 17.6324 171.258 17.4764 172.892C17.4559 173.107 17.3489 172.988 17.3427 173.161C17.2382 176.291 17.5744 176.374 17.6883 178.163C17.8021 179.952 17.57 182.715 17.5031 183.278C17.3301 184.749 17.4292 182.15 17.4122 182.07C17.2101 181.135 17.2449 183.15 17.2279 184.69C16.8982 184.913 16.918 187.066 17.2115 186.286C17.2435 186.198 17.2128 184.999 17.2279 184.69C17.5513 186.042 17.5927 188.409 17.2905 191.023C17.1488 192.246 16.9837 191.09 17.0441 194.807C17.0713 196.494 17.2983 195.842 17.3602 197.331C17.5014 200.732 17.2897 205.151 17.323 208.658C17.3351 209.931 17.4594 208.691 17.4719 209.561C17.5056 211.869 17.4124 213.904 17.4602 216.223C17.4647 216.433 17.5947 215.919 17.5964 216.64C17.6115 222.105 17.5282 226.864 17.5259 232.569C17.5248 235.326 17.5965 240.255 17.5821 243.111C17.5579 248.061 17.3688 254.15 17.4147 258.378C17.4441 261.136 17.5742 260.531 17.6628 261.713C17.8346 263.993 17.5269 268.029 17.4793 268.573C17.4777 268.589 17.447 266.216 17.3802 267.482C17.2411 268.219 17.4786 268.546 17.4793 268.573C17.4485 268.93 17.4189 273.67 17.4438 274.612C17.4574 275.123 17.5806 274.837 17.5854 275.104C17.6957 281.443 17.727 287.793 17.6694 294.222C17.6669 294.335 17.529 294.165 17.5249 294.431C17.4677 297.905 17.6108 300.212 17.7115 303L16.5703 301.859C16.7697 301.852 16.9716 301.845 17.1766 301.838C20.2458 301.738 22.68 301.771 24.4969 302.008C26.8128 301.978 30.1353 302.083 32.0473 302.146C33.9592 302.21 34.226 301.941 34.3942 301.936C39.6412 301.766 42.6744 301.92 48.118 301.944C50.7061 301.956 55.8397 301.917 58.6419 301.887C60.8565 301.864 62.1906 301.927 64.2312 301.886C64.5073 301.881 64.2284 301.762 64.3126 301.757C66.59 301.614 65.4956 301.906 65.9657 301.958C67.6704 302.148 68.7236 302.249 71.64 302.16C72.3127 302.139 74.2722 301.719 75.4984 301.694C77.0927 301.663 76.491 301.814 78.1604 301.777C78.3032 301.774 78.2735 301.681 79.3037 301.685C84.0862 301.703 89.3002 301.757 94.27 301.748C94.9489 301.747 94.0785 301.6 95.0594 301.596C99.6619 301.578 104.706 301.584 109.19 301.653C110.294 301.67 109.602 301.774 109.842 301.804C111.312 301.99 113.398 301.72 113.743 301.715C121.952 301.585 128.235 301.829 136.603 301.713C137.058 301.706 140.564 301.417 142.128 301.665C142.235 301.682 143.783 301.935 145.151 301.762C145.236 301.751 144.272 301.621 145.955 301.634C147.638 301.647 150.346 301.56 152.659 301.703C153.392 301.749 155.122 302.002 157.307 301.8C157.449 301.786 160.822 301.33 162.025 301.645C162.221 301.696 162.016 302.029 164.624 301.859C165.122 301.825 164.218 301.751 165.53 301.705C167.541 301.633 170.205 301.723 172.677 301.574C173.108 301.548 174.943 301.322 176.415 301.493C176.645 301.52 176.207 301.632 176.985 301.644C180.681 301.704 184.552 301.629 188.305 301.706C189.634 301.733 188.955 301.913 190.34 301.961C191.726 302.009 194.519 302.055 195.969 301.973C197.419 301.891 195.835 301.605 198.008 301.582C198.286 301.579 198.565 301.576 198.844 301.574L197.418 303C197.336 293.837 197.495 284.753 197.519 275.599C197.522 274.2 197.42 275.36 197.418 273.298C197.41 265.697 197.314 252.574 197.532 245.978C197.706 240.693 197.839 247.344 197.91 243.305C197.944 241.357 197.611 239.248 197.601 238.778C197.494 234.182 197.642 230.989 197.596 226.852C197.587 225.998 197.452 226.836 197.445 226.109C197.422 223.626 197.482 221.016 197.471 218.644C197.466 217.579 197.363 217.775 197.371 216.796C197.389 214.452 197.432 212.38 197.529 210.095C197.538 209.887 197.666 211.291 197.671 209.557C197.678 206.75 197.773 203.267 197.675 200.038C197.645 199.08 197.41 199.043 197.572 196.983C197.606 196.552 197.889 197.103 197.645 194.704C197.604 194.3 197.274 190.271 197.487 188.293C197.543 187.772 197.774 186.44 197.738 185.288C197.732 185.132 197.606 185.758 197.593 184.803C197.552 181.439 197.565 177.913 197.526 174.456C197.515 173.533 197.384 174.908 197.372 173.532C197.339 169.749 197.372 165.026 197.413 161.327C197.429 159.963 197.537 160.906 197.549 160.807C197.741 159.211 197.482 158.267 197.467 157.738C197.376 154.443 197.498 151.935 197.466 148.899C197.457 148.061 197.334 148.655 197.323 148.488C197.215 146.758 197.437 148.047 197.461 146.952C197.531 143.884 197.521 140.465 197.505 137.362C197.499 136.223 197.356 137.504 197.352 136.481C197.327 130.429 197.341 124.137 197.42 118.23C197.435 117.118 197.545 117.817 197.571 117.586C197.747 115.988 197.506 113.647 197.483 113.108C197.379 110.658 197.476 109.707 197.458 107.543C197.368 96.9749 197.432 83.9261 197.472 73.9503C197.523 60.9509 197.628 50.8637 197.601 38.4673C197.6 37.6794 197.453 38.4739 197.45 37.7948C197.427 32.2682 197.442 26.7957 197.445 21.3047L198.844 22.7035C195.622 22.7016 192.395 22.7036 189.146 22.7193C188.425 22.7225 189.465 22.8617 188.307 22.8715C185.934 22.8927 182.927 22.8851 180.527 22.8407C179.356 22.8193 180.926 22.6999 179.748 22.6808C177.005 22.636 174.064 22.6261 171.245 22.6484C170.046 22.6582 171.856 22.8005 170.297 22.8021C159.679 22.8163 149.25 22.8408 138.52 22.6565C137.784 22.6439 137.139 22.3547 135.575 22.4101C135.457 22.4904 135.463 22.5848 135.412 22.6706C119.954 22.7168 104.655 22.6165 89.1538 22.601C88.5003 22.6004 89.6298 22.7536 88.3645 22.7532C81.0412 22.7509 73.9298 22.7934 66.4389 22.6411C65.6956 22.6262 66.077 22.3566 63.8867 22.3974C63.5004 22.4048 60.2015 22.4408 59.3486 22.4993C59.2328 22.5081 59.8346 22.634 58.7717 22.6376C52.5943 22.6567 46.1207 22.628 39.954 22.5511C38.9588 22.5385 40.0187 22.4045 39.3098 22.3943C34.2814 22.3232 28.812 22.4251 24.0072 22.3034C20.791 22.2215 21.9817 21.9899 20.2727 21.7619C20.031 21.7297 18.0394 21.7246 17.9364 21.592C17.672 21.2584 18.6367 20.8932 18.2409 20.5376C18.1572 20.4611 15.49 20.5435 17.0692 20.3585C17.1795 20.3461 19.1132 20.2847 19.5895 20.2219C19.9211 20.1785 19.3236 20.0436 20.0001 19.988C20.6767 19.9325 21.4201 20.0456 22.5417 19.9803C23.6629 19.9142 23.1699 19.7608 25.409 19.7426ZM40.6561 302.43C42.4265 302.559 42.6876 302.087 40.7729 302.2C40.6802 302.206 40.5648 302.424 40.6561 302.43ZM17.0656 112.888C16.8575 115.203 17.1636 116.787 17.3244 115.154C17.485 113.521 17.1288 112.183 17.0656 112.888ZM16.9137 88.8886C16.7495 91.5936 17.4188 92.0194 17.2835 89.1222C17.2759 88.9538 16.9232 88.7304 16.9137 88.8886ZM28.1983 21.697C28.1739 21.6907 26.7423 21.6846 26.7081 21.6908C25.9458 21.8407 28.8084 21.8528 28.1983 21.697ZM16.7482 65.0728C16.6576 65.9172 16.7622 68.3485 16.8747 67.2993C16.9653 66.4547 16.8608 64.0211 16.7482 65.0728ZM133.006 302.934C133.034 302.941 134.06 302.947 134.04 302.907C133.97 302.779 132.542 302.816 133.006 302.934ZM16.7405 24.5951C16.7153 30.5754 16.1624 34.2014 16.2248 27.6888C16.2361 26.5095 16.4011 30.2306 16.4509 28.7295C16.5417 25.9829 16.1946 24.159 16.3806 21.3561C16.4147 20.8487 16.7431 24.2539 16.7412 24.6057C16.741 24.6022 16.7407 24.5986 16.7405 24.5951ZM41.6756 302.997C41.711 303.003 43.1318 303.009 43.1658 303.003C43.9352 302.853 41.0729 302.841 41.6756 302.997ZM192.896 303.226C192.975 303.239 196.272 303.251 196.379 303.239C198.099 302.994 191.433 302.968 192.896 303.226ZM16.2279 232.417C16.0771 230.867 16.0594 229.012 16.2487 227.776C16.2386 229.317 16.2371 230.868 16.2279 232.417Z" fill="#FF4545"/>
<path d="M0 0H215.414V21.3047H0V0Z" fill="#267054"/>
<rect x="33.9297" y="119.148" width="20.5156" height="20.5156" fill="white"/>
<rect x="56.0234" y="190.164" width="20.5156" height="20.5156" fill="white"/>
<rect x="157.812" y="66.2812" width="20.5156" height="20.5156" fill="white"/>
<path d="M161.758 162.547L165.478 173.997H177.517L167.777 181.073L171.498 192.523L161.758 185.446L152.018 192.523L155.738 181.073L145.999 173.997H158.038L161.758 162.547Z" fill="white"/>
</svg>
